<?xml version="1.0" encoding="UTF-8" standalone="no"?>
<svg
   width="800"
   height="800"
   viewBox="0 0 752.94117 799.99999"
   id="svg2"
   version="1.1"
   inkscape:version="1.3.2 (091e20e, 2023-11-25)"
   sodipodi:docname="u238.svg"
   xmlns:inkscape="http://www.inkscape.org/namespaces/inkscape"
   xmlns:sodipodi="http://sodipodi.sourceforge.net/DTD/sodipodi-0.dtd"
   xmlns:xlink="http://www.w3.org/1999/xlink"
   xmlns="http://www.w3.org/2000/svg"
   xmlns:svg="http://www.w3.org/2000/svg"
   xmlns:rdf="http://www.w3.org/1999/02/22-rdf-syntax-ns#"
   xmlns:cc="http://creativecommons.org/ns#"
   xmlns:dc="http://purl.org/dc/elements/1.1/">
  <title
     id="title3597">Illustration of a typical nuclear fission reaction</title>
  <defs
     id="defs4">
    <linearGradient
       id="linearGradient6"
       inkscape:collect="always">
      <stop
         style="stop-color:#ffcc00;stop-opacity:1;"
         offset="0"
         id="stop6" />
      <stop
         style="stop-color:#ffcc00;stop-opacity:0;"
         offset="1"
         id="stop7" />
    </linearGradient>
    <marker
       inkscape:stockid="TriangleOutS"
       orient="auto"
       refY="0"
       refX="0"
       id="marker1384"
       style="overflow:visible"
       inkscape:isstock="true">
      <path
         inkscape:connector-curvature="0"
         id="path1382"
         d="M 5.77,0 -2.88,5 V -5 Z"
         style="fill:#000000;fill-opacity:1;fill-rule:evenodd;stroke:#000000;stroke-width:1pt;stroke-opacity:1"
         transform="scale(0.2)" />
    </marker>
    <radialGradient
       inkscape:collect="always"
       xlink:href="#linearGradient6"
       id="radialGradient7"
       cx="475.38858"
       cy="1240.641"
       fx="475.38858"
       fy="1240.641"
       r="306.97708"
       gradientUnits="userSpaceOnUse"
       gradientTransform="matrix(1.3030836,-2.4502487e-4,2.4507516e-4,1.3032737,-265.53658,-1058.1495)" />
  </defs>
  <sodipodi:namedview
     id="base"
     pagecolor="#ffffff"
     bordercolor="#666666"
     borderopacity="1.0"
     inkscape:pageopacity="0.0"
     inkscape:pageshadow="2"
     inkscape:zoom="6.8688444"
     inkscape:cx="627.54369"
     inkscape:cy="155.99422"
     inkscape:document-units="px"
     inkscape:current-layer="layer1"
     showgrid="false"
     units="px"
     inkscape:window-width="1464"
     inkscape:window-height="774"
     inkscape:window-x="0"
     inkscape:window-y="38"
     inkscape:window-maximized="0"
     inkscape:document-rotation="0"
     inkscape:showpageshadow="0"
     inkscape:pagecheckerboard="true"
     inkscape:deskcolor="#505050"
     showguides="true" />
  <metadata
     id="metadata7">
    <rdf:RDF>
      <cc:Work
         rdf:about="">
        <dc:format>image/svg+xml</dc:format>
        <dc:type
           rdf:resource="http://purl.org/dc/dcmitype/StillImage" />
        <dc:title>Illustration of a typical nuclear fission reaction</dc:title>
        <cc:license
           rdf:resource="http://creativecommons.org/licenses/by-sa/4.0/" />
        <dc:creator>
          <cc:Agent>
            <dc:title>Michael A. Rundel</dc:title>
          </cc:Agent>
        </dc:creator>
        <dc:rights>
          <cc:Agent>
            <dc:title>CC BY-SA 4.0</dc:title>
          </cc:Agent>
        </dc:rights>
        <dc:subject>
          <rdf:Bag>
            <rdf:li>physics nucleus nuclear fission reaction</rdf:li>
          </rdf:Bag>
        </dc:subject>
      </cc:Work>
      <cc:License
         rdf:about="http://creativecommons.org/licenses/by-sa/4.0/">
        <cc:permits
           rdf:resource="http://creativecommons.org/ns#Reproduction" />
        <cc:permits
           rdf:resource="http://creativecommons.org/ns#Distribution" />
        <cc:requires
           rdf:resource="http://creativecommons.org/ns#Notice" />
        <cc:requires
           rdf:resource="http://creativecommons.org/ns#Attribution" />
        <cc:permits
           rdf:resource="http://creativecommons.org/ns#DerivativeWorks" />
        <cc:requires
           rdf:resource="http://creativecommons.org/ns#ShareAlike" />
      </cc:License>
    </rdf:RDF>
  </metadata>
  <g
     inkscape:label="Ebene 1"
     inkscape:groupmode="layer"
     id="layer1"
     transform="translate(22.232095,-158.5014)">
    <g
       id="g4192"
       transform="translate(-154.61138,-526.91935)"
       inkscape:tile-cx="-37.70937"
       inkscape:tile-cy="155.30388"
       inkscape:tile-w="48.370961"
       inkscape:tile-h="48.370961"
       inkscape:tile-x0="-61.894851"
       inkscape:tile-y0="131.1184">
      <circle
         style="fill:#bcbddc;fill-opacity:1;fill-rule:evenodd;stroke:#000000;stroke-width:3;stroke-linecap:butt;stroke-linejoin:miter;stroke-miterlimit:4;stroke-dasharray:none;stroke-opacity:1"
         id="circle4162"
         cx="58.132454"
         cy="674.23383"
         r="23.593765" />
      <path
         inkscape:connector-curvature="0"
         style="fill:#000000;fill-opacity:0.258824;fill-rule:evenodd;stroke:none;stroke-width:1.18343px;stroke-linecap:butt;stroke-linejoin:miter;stroke-opacity:1"
         d="m 58.132517,654.11053 a 20.123305,20.123305 0 0 0 -20.123458,20.12326 20.123305,20.123305 0 0 0 0.265223,3.19223 27.064225,27.064225 0 0 1 24.037588,-22.86798 20.123305,20.123305 0 0 0 -4.179353,-0.44751 z"
         id="path4164" />
    </g>
    <g
       id="g4156"
       transform="matrix(0.09783417,0,0,0.09783417,-125.35315,54.80834)"
       inkscape:tile-cx="-37.178493"
       inkscape:tile-cy="91.258807"
       inkscape:tile-w="48.37096"
       inkscape:tile-h="48.37096"
       inkscape:tile-x0="-61.363974"
       inkscape:tile-y0="67.073326">
      <circle
         r="241.16078"
         cy="317.70737"
         cx="282.69662"
         id="path3347"
         style="fill:#fc9272;fill-opacity:1;fill-rule:evenodd;stroke:#000000;stroke-width:30.6641;stroke-linecap:butt;stroke-linejoin:miter;stroke-miterlimit:4;stroke-dasharray:none;stroke-opacity:1" />
      <path
         id="circle4151"
         d="M 282.69727,112.01953 A 205.6879,205.6879 0 0 0 77.007812,317.70703 205.6879,205.6879 0 0 0 79.71875,350.33594 276.63367,276.63367 0 0 1 325.41602,116.59375 205.6879,205.6879 0 0 0 282.69727,112.01953 Z"
         style="fill:#000000;fill-opacity:0.258824;fill-rule:evenodd;stroke:none;stroke-width:1.18343px;stroke-linecap:butt;stroke-linejoin:miter;stroke-opacity:1"
         inkscape:connector-curvature="0" />
    </g>
    <circle
       style="fill:url(#radialGradient7);stroke-width:1.33333;stroke-linejoin:bevel"
       id="path5"
       cx="354.23849"
       cy="558.5014"
       r="400" />
    <g
       id="g4338"
       transform="translate(51.460674,-488.98876)">
      <use
         height="100%"
         width="100%"
         id="use4228-9"
         transform="translate(444.62288,1020.1681)"
         xlink:href="#g4192"
         inkscape:tiled-clone-of="#g4192"
         y="0"
         x="0" />
      <use
         inkscape:transform-center-y="-4.8268684"
         inkscape:transform-center-x="11.510225"
         height="100%"
         width="100%"
         id="use4224"
         transform="translate(277.35264,852.30122)"
         xlink:href="#g4192"
         inkscape:tiled-clone-of="#g4192"
         y="0"
         x="0" />
      <use
         height="100%"
         width="100%"
         id="use4284"
         transform="translate(513.26667,833.11683)"
         xlink:href="#g4192"
         inkscape:tiled-clone-of="#g4192"
         y="0"
         x="0" />
      <use
         height="100%"
         width="100%"
         id="use4230"
         transform="translate(284.77858,956.32315)"
         xlink:href="#g4192"
         inkscape:tiled-clone-of="#g4192"
         y="0"
         x="0" />
      <use
         height="100%"
         width="100%"
         id="use4298"
         transform="translate(333.4473,853.08689)"
         xlink:href="#g4156"
         inkscape:tiled-clone-of="#g4156"
         y="0"
         x="0" />
      <use
         height="100%"
         width="100%"
         id="use4228-5"
         transform="translate(261.97501,878.60432)"
         xlink:href="#g4192"
         inkscape:tiled-clone-of="#g4192"
         y="0"
         x="0" />
      <use
         height="100%"
         width="100%"
         id="use4242"
         transform="translate(523.4592,939.65718)"
         xlink:href="#g4192"
         inkscape:tiled-clone-of="#g4192"
         y="0"
         x="0" />
      <use
         height="100%"
         width="100%"
         id="use4292"
         transform="translate(506.10947,970.55455)"
         xlink:href="#g4192"
         inkscape:tiled-clone-of="#g4192"
         y="0"
         x="0" />
      <use
         height="100%"
         width="100%"
         transform="translate(300.12692,812.67747)"
         id="use4222"
         xlink:href="#g4192"
         inkscape:tiled-clone-of="#g4192"
         y="0"
         x="0" />
      <use
         height="100%"
         width="100%"
         id="use4228"
         transform="translate(270.21472,907.24993)"
         xlink:href="#g4192"
         inkscape:tiled-clone-of="#g4192"
         y="0"
         x="0" />
      <use
         height="100%"
         width="100%"
         id="use4232"
         transform="translate(389.98713,1027.3862)"
         xlink:href="#g4192"
         inkscape:tiled-clone-of="#g4192"
         y="0"
         x="0" />
      <use
         height="100%"
         width="100%"
         id="use4234"
         transform="translate(477.42036,999.68683)"
         xlink:href="#g4192"
         inkscape:tiled-clone-of="#g4192"
         y="0"
         x="0" />
      <use
         height="100%"
         width="100%"
         id="use4236"
         transform="translate(316.11071,834.0249)"
         xlink:href="#g4192"
         inkscape:tiled-clone-of="#g4192"
         y="0"
         x="0" />
      <use
         height="100%"
         width="100%"
         id="use4308"
         transform="translate(296.77357,996.86383)"
         xlink:href="#g4156"
         inkscape:tiled-clone-of="#g4156"
         y="0"
         x="0" />
      <use
         height="100%"
         width="100%"
         id="use4240"
         transform="translate(303.03204,902.42358)"
         xlink:href="#g4192"
         inkscape:tiled-clone-of="#g4192"
         y="0"
         x="0" />
      <use
         height="100%"
         width="100%"
         id="use4306"
         transform="translate(420.74595,1091.2354)"
         xlink:href="#g4156"
         inkscape:tiled-clone-of="#g4156"
         y="0"
         x="0" />
      <use
         height="100%"
         width="100%"
         id="use4244"
         transform="translate(310.62398,992.27634)"
         xlink:href="#g4192"
         inkscape:tiled-clone-of="#g4192"
         y="0"
         x="0" />
      <use
         height="100%"
         width="100%"
         id="use4246"
         transform="translate(363.32692,772.2862)"
         xlink:href="#g4192"
         inkscape:tiled-clone-of="#g4192"
         y="0"
         x="0" />
      <use
         height="100%"
         width="100%"
         id="use4326"
         transform="translate(490.05494,863.25786)"
         xlink:href="#g4156"
         inkscape:tiled-clone-of="#g4156"
         y="0"
         x="0" />
      <use
         height="100%"
         width="100%"
         id="use4248"
         transform="translate(356.27227,807.86859)"
         xlink:href="#g4192"
         inkscape:tiled-clone-of="#g4192"
         y="0"
         x="0" />
      <use
         height="100%"
         width="100%"
         id="use4270"
         transform="translate(455.81909,779.38274)"
         xlink:href="#g4192"
         inkscape:tiled-clone-of="#g4192"
         y="0"
         x="0" />
      <use
         height="100%"
         width="100%"
         id="use4258"
         transform="translate(413.80207,772.4103)"
         xlink:href="#g4192"
         inkscape:tiled-clone-of="#g4192"
         y="0"
         x="0" />
      <use
         height="100%"
         width="100%"
         id="use4272"
         transform="translate(451.52848,835.13879)"
         xlink:href="#g4192"
         inkscape:tiled-clone-of="#g4192"
         y="0"
         x="0" />
      <use
         height="100%"
         width="100%"
         id="use4280"
         transform="translate(417.49269,1002.6721)"
         xlink:href="#g4192"
         inkscape:tiled-clone-of="#g4192"
         y="0"
         x="0" />
      <use
         height="100%"
         width="100%"
         id="use4286"
         transform="translate(522.09906,862.41414)"
         xlink:href="#g4192"
         inkscape:tiled-clone-of="#g4192"
         y="0"
         x="0" />
      <use
         height="100%"
         width="100%"
         id="use4288"
         transform="translate(495.73294,929.61155)"
         xlink:href="#g4192"
         inkscape:tiled-clone-of="#g4192"
         y="0"
         x="0" />
      <use
         height="100%"
         width="100%"
         id="use4302"
         transform="translate(477.09154,1014.3505)"
         xlink:href="#g4156"
         inkscape:tiled-clone-of="#g4156"
         y="0"
         x="0" />
      <use
         height="100%"
         width="100%"
         id="use4300"
         transform="translate(447.68028,862.83412)"
         xlink:href="#g4156"
         inkscape:tiled-clone-of="#g4156"
         y="0"
         x="0" />
      <use
         height="100%"
         width="100%"
         id="use4282"
         transform="translate(470.07102,826.25103)"
         xlink:href="#g4192"
         inkscape:tiled-clone-of="#g4192"
         y="0"
         x="0" />
      <use
         height="100%"
         width="100%"
         id="use4304"
         transform="translate(531.94557,961.59597)"
         xlink:href="#g4156"
         inkscape:tiled-clone-of="#g4156"
         y="0"
         x="0" />
      <use
         height="100%"
         width="100%"
         id="use4312"
         transform="translate(387.87334,855.21827)"
         xlink:href="#g4156"
         inkscape:tiled-clone-of="#g4156"
         y="0"
         x="0" />
      <use
         height="100%"
         width="100%"
         id="use4314"
         transform="translate(356.49238,1079.2647)"
         xlink:href="#g4156"
         inkscape:tiled-clone-of="#g4156"
         y="0"
         x="0" />
      <use
         height="100%"
         width="100%"
         id="use4268"
         transform="translate(351.7535,992.06948)"
         xlink:href="#g4192"
         inkscape:tiled-clone-of="#g4192"
         y="0"
         x="0" />
      <use
         height="100%"
         width="100%"
         id="use4320"
         transform="translate(327.24003,1029.1335)"
         xlink:href="#g4156"
         inkscape:tiled-clone-of="#g4156"
         y="0"
         x="0" />
      <use
         height="100%"
         width="100%"
         id="use4256"
         transform="translate(388.94644,992.06999)"
         xlink:href="#g4192"
         inkscape:tiled-clone-of="#g4192"
         y="0"
         x="0" />
      <use
         height="100%"
         width="100%"
         id="use4318"
         transform="translate(290.6455,933.65691)"
         xlink:href="#g4156"
         inkscape:tiled-clone-of="#g4156"
         y="0"
         x="0" />
      <use
         height="100%"
         width="100%"
         id="use4228-8"
         transform="translate(501.24453,819.39318)"
         xlink:href="#g4192"
         inkscape:tiled-clone-of="#g4192"
         y="0"
         x="0" />
      <use
         height="100%"
         width="100%"
         id="use4238"
         transform="translate(322.75321,874.06184)"
         xlink:href="#g4192"
         inkscape:tiled-clone-of="#g4192"
         y="0"
         x="0" />
      <use
         height="100%"
         width="100%"
         id="use4322"
         transform="translate(490.44592,917.40831)"
         xlink:href="#g4156"
         inkscape:tiled-clone-of="#g4156"
         y="0"
         x="0" />
      <use
         height="100%"
         width="100%"
         id="use4324"
         transform="translate(344.21463,896.65665)"
         xlink:href="#g4156"
         inkscape:tiled-clone-of="#g4156"
         y="0"
         x="0" />
      <use
         height="100%"
         width="100%"
         id="use4330"
         transform="translate(338.4802,968.16522)"
         xlink:href="#g4156"
         inkscape:tiled-clone-of="#g4156"
         y="0"
         x="0" />
      <use
         height="100%"
         width="100%"
         id="use4260"
         transform="translate(415.20452,816.5734)"
         xlink:href="#g4192"
         inkscape:tiled-clone-of="#g4192"
         y="0"
         x="0" />
      <use
         height="100%"
         width="100%"
         id="use4274"
         transform="translate(447.85688,843.69611)"
         xlink:href="#g4192"
         inkscape:tiled-clone-of="#g4192"
         y="0"
         x="0" />
      <use
         height="100%"
         width="100%"
         id="use4266"
         transform="translate(451.83712,975.79498)"
         xlink:href="#g4192"
         inkscape:tiled-clone-of="#g4192"
         y="0"
         x="0" />
      <use
         height="100%"
         width="100%"
         id="use4296"
         transform="translate(419.78951,1022.5538)"
         xlink:href="#g4156"
         inkscape:tiled-clone-of="#g4156"
         y="0"
         x="0" />
      <use
         height="100%"
         width="100%"
         id="use4254"
         transform="translate(384.86269,949.88698)"
         xlink:href="#g4192"
         inkscape:tiled-clone-of="#g4192"
         y="0"
         x="0" />
      <use
         height="100%"
         width="100%"
         id="use4290"
         transform="translate(490.49724,894.06963)"
         xlink:href="#g4192"
         inkscape:tiled-clone-of="#g4192"
         y="0"
         x="0" />
      <use
         height="100%"
         width="100%"
         id="use4276"
         transform="translate(453.17915,879.52518)"
         xlink:href="#g4192"
         inkscape:tiled-clone-of="#g4192"
         y="0"
         x="0" />
      <use
         height="100%"
         width="100%"
         id="use4310"
         transform="translate(461.23326,983.20154)"
         xlink:href="#g4156"
         inkscape:tiled-clone-of="#g4156"
         y="0"
         x="0" />
      <use
         height="100%"
         width="100%"
         id="use4226"
         transform="translate(332.38637,937.47098)"
         xlink:href="#g4192"
         inkscape:tiled-clone-of="#g4192"
         y="0"
         x="0" />
      <use
         height="100%"
         width="100%"
         id="use4328"
         transform="translate(359.18961,1018.2776)"
         xlink:href="#g4156"
         inkscape:tiled-clone-of="#g4156"
         y="0"
         x="0" />
      <use
         height="100%"
         width="100%"
         transform="translate(384.02623,837.84245)"
         id="use4336"
         xlink:href="#g4192"
         y="0"
         x="0" />
      <use
         height="100%"
         width="100%"
         id="use4278"
         transform="translate(429.2496,938.82976)"
         xlink:href="#g4192"
         inkscape:tiled-clone-of="#g4192"
         y="0"
         x="0" />
      <use
         height="100%"
         width="100%"
         id="use4264"
         transform="translate(428.79648,895.72184)"
         xlink:href="#g4192"
         inkscape:tiled-clone-of="#g4192"
         y="0"
         x="0" />
      <use
         height="100%"
         width="100%"
         id="use4316"
         transform="translate(400.47357,978.57109)"
         xlink:href="#g4156"
         inkscape:tiled-clone-of="#g4156"
         y="0"
         x="0" />
      <use
         height="100%"
         width="100%"
         id="use4332"
         transform="translate(418.56205,918.83839)"
         xlink:href="#g4156"
         inkscape:tiled-clone-of="#g4156"
         y="0"
         x="0" />
      <use
         height="100%"
         width="100%"
         id="use4250"
         transform="translate(361.11854,871.31924)"
         xlink:href="#g4192"
         inkscape:tiled-clone-of="#g4192"
         y="0"
         x="0" />
      <use
         height="100%"
         width="100%"
         id="use4252"
         transform="translate(365.38974,914.1815)"
         xlink:href="#g4192"
         inkscape:tiled-clone-of="#g4192"
         y="0"
         x="0" />
      <use
         height="100%"
         width="100%"
         id="use4262"
         transform="translate(391.39907,883.38668)"
         xlink:href="#g4192"
         inkscape:tiled-clone-of="#g4192"
         y="0"
         x="0" />
    </g>
    <g
       id="g3611"
       style="fill:#ffffff"
       transform="translate(251.07161,-467.62357)">
      <g
         aria-label="235U"
         id="text3834"
         style="font-style:normal;font-weight:normal;line-height:0%;font-family:sans-serif;letter-spacing:0px;word-spacing:0px;fill:#ffffff;fill-opacity:1;stroke:none;stroke-width:1px;stroke-linecap:butt;stroke-linejoin:miter;stroke-opacity:1">
        <path
           d="m 286.36047,786.82111 h 20.13794 v 4.85595 h -27.0791 v -4.85595 q 3.28491,-3.39917 8.94067,-9.11206 5.68433,-5.74146 7.14112,-7.3982 2.77075,-3.11352 3.8562,-5.25586 1.11401,-2.17089 1.11401,-4.2561 0,-3.39917 -2.39941,-5.5415 -2.37085,-2.14234 -6.19849,-2.14234 -2.71362,0 -5.74145,0.94263 -2.99927,0.94263 -6.427,2.85645 v -5.82715 q 3.48486,-1.39966 6.51269,-2.11377 3.02783,-0.71411 5.5415,-0.71411 6.62696,0 10.56885,3.31347 3.9419,3.31348 3.9419,8.85498 0,2.62793 -0.99976,4.99878 -0.97119,2.34229 -3.57056,5.54151 -0.71411,0.82836 -4.54174,4.79882 -3.82764,3.9419 -10.79737,11.05445 z"
           style="font-size:65%;baseline-shift:super;fill:#ffffff"
           id="path1426" />
        <path
           d="m 336.11975,768.68268 q 4.14184,0.8855 6.45556,3.68481 2.34229,2.79932 2.34229,6.9126 0,6.31274 -4.3418,9.76904 -4.3418,3.4563 -12.33984,3.4563 -2.68506,0 -5.54151,-0.54272 -2.82788,-0.51416 -5.85571,-1.57105 v -5.57007 q 2.39941,1.39966 5.25586,2.11377 2.85645,0.71412 5.96997,0.71412 5.42725,0 8.25513,-2.14234 2.85644,-2.14233 2.85644,-6.22705 0,-3.77051 -2.65649,-5.88428 -2.62793,-2.14233 -7.34107,-2.14233 h -4.97021 v -4.7417 h 5.19873 q 4.2561,0 6.51269,-1.6853 2.2566,-1.71387 2.2566,-4.91309 0,-3.28491 -2.34229,-5.02734 -2.31372,-1.771 -6.65552,-1.771 -2.37085,0 -5.08447,0.51416 -2.71362,0.51416 -5.96997,1.59961 v -5.1416 q 3.28491,-0.91406 6.14136,-1.37109 2.88501,-0.45703 5.42724,-0.45703 6.56983,0 10.39746,2.99926 3.82764,2.97071 3.82764,8.05518 0,3.54199 -2.02808,5.99853 -2.02807,2.42798 -5.77001,3.37061 z"
           style="font-size:65%;baseline-shift:super;fill:#ffffff"
           id="path1428" />
        <text
           xml:space="preserve"
           style="font-style:normal;font-variant:normal;font-weight:normal;font-stretch:normal;font-size:60.5321px;line-height:1;font-family:'Avenir Next';-inkscape-font-specification:'Avenir Next, Normal';font-variant-ligatures:normal;font-variant-caps:normal;font-variant-numeric:normal;font-variant-east-asian:normal;text-align:center;text-anchor:middle;fill:#ffffff;stroke-width:1.33333;stroke-linejoin:bevel"
           x="367.77673"
           y="791.76654"
           id="text5"><tspan
             sodipodi:role="line"
             id="tspan5"
             x="367.77673"
             y="791.76654"
             style="font-style:normal;font-variant:normal;font-weight:normal;font-stretch:normal;font-size:60.5321px;font-family:Arial;-inkscape-font-specification:'Arial, Normal';font-variant-ligatures:normal;font-variant-caps:normal;font-variant-numeric:normal;font-variant-east-asian:normal;fill:#ffffff;stroke-width:1.33333">8</tspan></text>
        <path
           d="m 394.70103,762.06671 h 8.9209 v 39.8584 q 0,10.54687 3.82325,15.20508 3.82324,4.61426 12.39257,4.61426 8.52539,0 12.34864,-4.61426 3.82324,-4.65821 3.82324,-15.20508 v -39.8584 h 8.9209 v 40.95703 q 0,12.83203 -6.37207,19.37989 -6.32813,6.54785 -18.72071,6.54785 -12.43652,0 -18.80859,-6.54785 -6.32813,-6.54786 -6.32813,-19.37989 z"
           style="font-style:normal;font-variant:normal;font-weight:normal;font-stretch:normal;font-size:90px;line-height:1.25;font-family:'Open Sans';-inkscape-font-specification:'Open Sans';fill:#ffffff"
           id="path1432" />
      </g>
      <g
         aria-label="92"
         id="text3585"
         style="font-style:normal;font-weight:normal;line-height:0%;font-family:sans-serif;letter-spacing:0px;word-spacing:0px;fill:#ffffff;fill-opacity:1;stroke:none;stroke-width:1px;stroke-linecap:butt;stroke-linejoin:miter;stroke-opacity:1">
        <path
           d="m 315.03918,844.79156 v -5.25585 q 2.1709,1.02832 4.39893,1.57104 2.22803,0.54273 4.37036,0.54273 5.71289,0 8.71216,-3.82764 3.02783,-3.8562 3.4563,-11.68286 -1.65674,2.45654 -4.19898,3.77051 -2.54223,1.31396 -5.62719,1.31396 -6.39844,0 -10.14038,-3.8562 -3.71338,-3.88477 -3.71338,-10.59741 0,-6.56983 3.88476,-10.54028 3.88477,-3.97046 10.34033,-3.97046 7.3982,0 11.28296,5.68432 3.91333,5.65576 3.91333,16.45313 0,10.08325 -4.79883,16.11035 -4.77026,5.99853 -12.854,5.99853 -2.1709,0 -4.39892,-0.42846 -2.22803,-0.42847 -4.62745,-1.28541 z m 11.48291,-18.08129 q 3.88477,0 6.14136,-2.6565 2.28516,-2.65649 2.28516,-7.28393 0,-4.59888 -2.28516,-7.25537 -2.25659,-2.68506 -6.14136,-2.68506 -3.88476,0 -6.16992,2.68506 -2.25659,2.65649 -2.25659,7.25537 0,4.62744 2.25659,7.28393 2.28516,2.6565 6.16992,2.6565 z"
           style="font-size:65%;baseline-shift:sub;fill:#ffffff"
           id="path1435" />
        <path
           d="m 357.08606,840.82111 h 20.13793 v 4.85595 h -27.0791 v -4.85595 q 3.28492,-3.39917 8.94068,-9.11206 5.68432,-5.74146 7.14111,-7.3982 2.77075,-3.11352 3.8562,-5.25586 1.11401,-2.17089 1.11401,-4.2561 0,-3.39917 -2.39941,-5.5415 -2.37085,-2.14234 -6.19849,-2.14234 -2.71362,0 -5.74145,0.94263 -2.99927,0.94263 -6.427,2.85645 v -5.82715 q 3.48486,-1.39966 6.51269,-2.11377 3.02783,-0.71411 5.54151,-0.71411 6.62695,0 10.56884,3.31347 3.9419,3.31348 3.9419,8.85498 0,2.62793 -0.99976,4.99878 -0.97119,2.34229 -3.57055,5.54151 -0.71412,0.82836 -4.54175,4.79882 -3.82764,3.9419 -10.79736,11.05445 z"
           style="font-size:65%;baseline-shift:sub;fill:#ffffff"
           id="path1437" />
      </g>
    </g>
  </g>
</svg>
