<?xml version="1.0" encoding="UTF-8" standalone="no"?>
<!-- Created with Inkscape (http://www.inkscape.org/) -->

<svg
   version="1.1"
   id="svg1"
   width="313.03906"
   height="153.63406"
   viewBox="0 0 313.03906 153.63406"
   sodipodi:docname="bond-events.svg"
   inkscape:version="1.3.2 (091e20e, 2023-11-25)"
   xmlns:inkscape="http://www.inkscape.org/namespaces/inkscape"
   xmlns:sodipodi="http://sodipodi.sourceforge.net/DTD/sodipodi-0.dtd"
   xmlns="http://www.w3.org/2000/svg"
   xmlns:svg="http://www.w3.org/2000/svg">
  <defs
     id="defs1">
    <clipPath
       clipPathUnits="userSpaceOnUse"
       id="clipPath14">
      <path
         d="M 91.367,417.488 H 328.633 V 532.999 H 91.367 Z"
         transform="translate(-113.0793,-459.65891)"
         id="path14" />
    </clipPath>
    <clipPath
       clipPathUnits="userSpaceOnUse"
       id="clipPath16">
      <path
         d="M 91.367,417.488 H 328.633 V 532.999 H 91.367 Z"
         transform="translate(-110.39031,-497.83181)"
         id="path16" />
    </clipPath>
    <clipPath
       clipPathUnits="userSpaceOnUse"
       id="clipPath18">
      <path
         d="M 91.367,417.488 H 328.633 V 532.999 H 91.367 Z"
         transform="translate(-112.5793,-476.65901)"
         id="path18" />
    </clipPath>
    <clipPath
       clipPathUnits="userSpaceOnUse"
       id="clipPath20">
      <path
         d="M 91.367,417.488 H 328.633 V 532.999 H 91.367 Z"
         transform="translate(-135.8293,-516.32591)"
         id="path20" />
    </clipPath>
    <clipPath
       clipPathUnits="userSpaceOnUse"
       id="clipPath23">
      <path
         d="M 91.367,417.488 H 328.633 V 532.999 H 91.367 Z"
         transform="matrix(1,0,0,-1,-185.57001,419.23881)"
         id="path23" />
    </clipPath>
    <clipPath
       clipPathUnits="userSpaceOnUse"
       id="clipPath32">
      <path
         d="M 91.367,417.488 H 328.633 V 532.999 H 91.367 Z"
         transform="matrix(0,1,1,0,-439.11701,-97.225802)"
         id="path32" />
    </clipPath>
    <clipPath
       clipPathUnits="userSpaceOnUse"
       id="clipPath34">
      <path
         d="M 91.367,417.488 H 328.633 V 532.999 H 91.367 Z"
         transform="translate(-94.912802,-520.95971)"
         id="path34" />
    </clipPath>
    <clipPath
       clipPathUnits="userSpaceOnUse"
       id="clipPath36">
      <path
         d="M 91.367,417.488 H 328.633 V 532.999 H 91.367 Z"
         transform="translate(-94.912802,-531.12622)"
         id="path36" />
    </clipPath>
    <clipPath
       clipPathUnits="userSpaceOnUse"
       id="clipPath38">
      <path
         d="M 91.367,417.488 H 328.633 V 532.999 H 91.367 Z"
         transform="matrix(0,1,1,0,-460.99391,-326.88281)"
         id="path38" />
    </clipPath>
    <clipPath
       clipPathUnits="userSpaceOnUse"
       id="clipPath40">
      <path
         d="M 91.367,417.488 H 328.633 V 532.999 H 91.367 Z"
         transform="translate(-325.24581,-499.08221)"
         id="path40" />
    </clipPath>
    <clipPath
       clipPathUnits="userSpaceOnUse"
       id="clipPath42">
      <path
         d="M 91.367,417.488 H 328.633 V 532.999 H 91.367 Z"
         transform="translate(-325.24581,-509.24872)"
         id="path42" />
    </clipPath>
  </defs>
  <sodipodi:namedview
     id="namedview1"
     pagecolor="#505050"
     bordercolor="#ffffff"
     borderopacity="1"
     inkscape:showpageshadow="0"
     inkscape:pageopacity="0"
     inkscape:pagecheckerboard="1"
     inkscape:deskcolor="#505050"
     inkscape:zoom="1.993724"
     inkscape:cx="165.77018"
     inkscape:cy="57.681002"
     inkscape:window-width="1368"
     inkscape:window-height="837"
     inkscape:window-x="0"
     inkscape:window-y="38"
     inkscape:window-maximized="0"
     inkscape:current-layer="g1">
    <inkscape:page
       x="0"
       y="0"
       inkscape:label="274"
       id="page1"
       width="313.03906"
       height="153.63406"
       margin="0"
       bleed="0" />
  </sodipodi:namedview>
  <g
     id="g1"
     inkscape:groupmode="layer"
     inkscape:label="274"
     transform="translate(-122.91406,-129.33469)">
    <g
       id="g2" />
    <g
       id="g3" />
    <g
       id="g5" />
    <g
       id="g7" />
    <g
       id="group-MC0" />
    <path
       id="path13"
       d="m 0,0 c -0.167,25.667 2.417,54.167 5,54.167 1.75,0 1.586,-12.707 2.833,-26.334 1.083,-11.832 0.75,-21.999 3.5,-21.999 2.833,0 2.917,15.999 4.334,15.999 0.833,0 1.399,-4.458 1.666,-6.666 0.333,-2.75 1.833,-4.667 3.167,-4.667 1.916,0 3,10.667 4,10.667 1,0 1.667,-7.334 3.167,-7.334 1.5,0 1.333,7.667 2.666,7.667 1.334,0 2.417,-22.583 3.917,-22.583 0.833,0 2.25,38.75 3.417,38.75 1.166,0 1.333,-29 3.166,-29 1.584,0 3.084,20.833 5.334,20.833 1.833,0 2.333,-20.333 4.166,-20.333 1.167,0 1.667,4.167 2.167,4.666 0.5,0.5 2.583,0.251 3.417,2.417 0.833,2.167 4.416,11.417 5.583,11.417 1.167,0 1.667,-14.5 2.833,-14.5 1.167,0 1.667,17.333 3.167,17.333 1,0 1.833,-29.333 3,-29.333 1.167,0 1.333,11.5 2.333,18.5 1,7 1.413,12.374 2,12.5 1.167,0.25 1.5,0.5 2,2.5 0.5,2 0.833,6 1.667,6 0.834,0 1.501,-10.167 1.667,-11.834 0.167,-1.666 0.834,-2.666 1.5,-2.666 0.667,0 1.334,-0.834 1.5,-2.167 0.167,-1.333 0.5,-7 1.5,-7 1,0 2.167,18.667 4,18.667 1.833,0 2,-16.5 3.333,-16.5 1.334,0 0.667,2.666 1.834,2.666 1.166,0 2.333,-18 3.666,-18 1.334,0 1.833,12.334 2.5,20.667 0.667,8.334 1.166,12.167 2,15 0.834,2.833 0.666,5.667 2,5.667 1.334,0 3.167,-6.167 3.667,-10.167 0.5,-4 1.001,-11 2.167,-11 1.166,0 1.499,2 2.166,2 0.667,0 1.584,-8.667 3.5,-8.667 1.667,0 1.833,13.5 3,13.5 1.167,0 2.334,-8 3.167,-16.5 0.833,-8.499 1.167,-17.666 2.333,-17.666 1.084,0 1.167,8.667 1.667,15.5 0.5,6.833 0.667,15.5 1.5,15.5 0.833,0 1.999,-8.667 3.333,-8.667 1.334,0 1.667,9.167 2.167,17.5 0.5,8.334 0.999,17.833 1.833,17.833 0.834,0 1.167,-9.332 1.667,-24.666 0.5,-15.334 1.333,-35.834 2.333,-35.834 1.25,0 2.834,8.834 3.167,14.834 0.333,6 2.333,31.667 3.5,31.667 1.167,0 1.333,-28.667 2.5,-28.667 1.167,0 1.334,10.5 2.667,10.5 1.333,0 2.667,-36.333 3.5,-36.333 0.833,0 2.334,18.666 2.999,40.499 0.667,21.834 1.834,44.334 1.834,44.334 0,0 1.833,-28.334 2.5,-50.334 0.666,-22 1.166,-34.166 1.166,-34.166"
       style="fill:none;stroke:#a7a5a6;stroke-width:1;stroke-linecap:round;stroke-linejoin:round;stroke-miterlimit:10;stroke-dasharray:none;stroke-opacity:1"
       transform="matrix(1.3333333,0,0,-1.3333333,150.7724,227.12147)"
       clip-path="url(#clipPath14)" />
    <path
       id="path15"
       d="M 0,0 H 4 M 0,-13.085 H 4 M 0,-26.17 H 4 M 0,-39.254 H 4 M 0,-52.339 H 4 M 0,13.085 H 4 M 0,26.169 H 4 M 170.157,1.416 h 4 m -4,-20.585 h 4 m -4,-20.585 h 4 m -4,-20.585 h 4 m -4,82.34 h 4 M 0.065,-60.339 v 4.521 m 29.015,-4.521 v 4.521 m 29.016,-4.521 v 4.521 m 58.031,-4.521 v 4.521 m -29.016,-4.521 v 4.521 m 58.031,-4.521 v 4.521 m 29.015,-4.521 v 4.521 m 0,-4.521 H 0.066 v 95.257 h 174.091 z"
       style="fill:none;stroke:#231f20;stroke-width:0.5;stroke-linecap:butt;stroke-linejoin:miter;stroke-miterlimit:10;stroke-dasharray:none;stroke-opacity:1"
       transform="matrix(1.3333333,0,0,-1.3333333,147.18707,176.22427)"
       clip-path="url(#clipPath16)" />
    <path
       id="path17"
       d="m 0,0 c 0.25,-0.667 0.583,-2.333 1.25,-2.333 0.666,0 1.333,2.25 1.583,6.583 0.25,4.333 0.75,7.417 1.25,7.417 0.5,0 1.084,-3.75 1.5,-5 C 6,5.417 6,5.083 6.5,5.083 c 0.5,0 1.083,1 1.166,0.75 0.084,-0.25 1.584,-20.416 2.584,-20.416 1,0 1.583,6.916 2.333,12.666 0.75,5.75 1.834,12.917 2.75,12.917 0.917,0 1.167,-6.167 2,-6.167 0.833,0 2.084,6.334 3,6.334 0.917,0 1.25,-5.501 2.083,-8.417 0.834,-2.917 2.167,-7.25 3.167,-7.25 1,0 1.584,3.25 2.5,3.25 0.917,0 0.916,-1.167 1.833,-1.5 0.917,-0.333 1.5,-3.917 1.75,-5.667 0.25,-1.75 1.667,-7.5 3.25,-7.5 1.584,0 2.167,12.917 2.584,21.167 0.416,8.25 1.499,24.75 2.166,24.75 0.667,0 1.834,-31.75 2.917,-31.75 1.083,0 2,24.333 3.083,24.333 1.084,0 1.834,-9.666 2.417,-20.666 0.584,-11 0.833,-20.75 1.667,-20.75 1.375,0 2.666,9.25 3.75,17 1.083,7.75 2.583,13 3.333,13 0.75,0 1.834,-12.667 3.75,-12.667 1.917,0 2.667,8.167 3.584,8.167 0.916,0 1.499,-5 1.999,-12.084 0.5,-7.083 1.5,-25.416 3,-25.416 1.5,0 2,16.666 3.25,31.083 1.25,14.417 2.25,24.417 2.334,25.25 0.083,0.833 1.083,1.834 1.416,2.417 0.334,0.583 0.667,1.333 1.167,1.333 0.5,0 1.25,-4.25 1.584,-7.417 0.333,-3.166 0.334,-7.25 0.917,-7.25 0.583,0 0.916,1.584 1.333,1.584 0.417,0 1.25,-4.667 1.833,-10.917 0.584,-6.25 0.667,-6.917 1,-7.5 0.334,-0.583 0.917,-1.917 1.584,-1.917 0.666,0 2.667,10.25 3.25,10.25 0.583,0 0.749,-4.916 1.333,-9.916 0.583,-5 0.5,-6.584 1.083,-7.834 0.584,-1.25 1.25,-2.666 1.917,-2.666 0.667,0 0.833,4 1.25,8.25 0.417,4.25 0.333,6.166 0.833,6.166 0.5,0 1.583,-6.333 2,-11.916 0.417,-5.584 0.667,-8.25 0.834,-9.334 0.166,-1.083 1.25,-5.333 2,-5.333 0.75,0 2.5,13.417 3,25.917 0.5,12.5 1.665,36 2.249,36 0.584,0 2.168,-12.417 4.084,-22.917 1.916,-10.5 3.25,-21.167 4.25,-21.167 1,0 1.667,4.251 2,6.167 0.333,1.917 0.583,4.917 1.083,4.917 0.5,0 1.083,-0.417 1.583,1.75 0.5,2.166 1.334,17.5 2.084,17.5 0.75,0 1.334,-14.333 1.75,-22.417 0.416,-8.083 0.999,-15.917 1.666,-17.583 0.667,-1.667 1.334,-3.917 2.167,-3.917 0.833,0 2,8.417 2.25,10.5 0.25,2.083 1.917,7.083 2.5,9.167 0.583,2.083 1.667,5.166 1.75,8.416 0.083,3.25 0.834,25.417 1.917,25.417 0.708,0 1.499,-16.167 2.166,-24.083 0.667,-7.917 1.918,-20.584 3.084,-20.584 1.166,0 1.582,2.334 2.416,2.334 0.834,0 1.166,-1.334 2,-1.334 0.834,0 1.416,9.167 1.75,17.25 0.334,8.084 1.168,23.75 1.834,23.75 0.666,0 1.083,-12.333 1.833,-20.166 0.75,-7.834 1.001,-14.751 1.667,-15.667 0.666,-0.917 1.999,-10.083 2.166,-11.833 0.167,-1.75 0.833,-5.084 1.499,-5.084 1.168,0 2.835,15.584 3.168,19.584 0.332,4 1.25,10.333 1.75,14.916 0.5,4.584 1.415,19.584 2.082,19.584 0.668,0 1.168,-4.584 1.168,-4.584 M 23.25,49.917 H 12.5"
       style="fill:none;stroke:#231f20;stroke-width:1;stroke-linecap:round;stroke-linejoin:round;stroke-miterlimit:10;stroke-dasharray:none;stroke-opacity:1"
       transform="matrix(1.3333333,0,0,-1.3333333,150.10573,204.45467)"
       clip-path="url(#clipPath18)" />
    <path
       id="path19"
       d="M 0,0 H -10.75"
       style="fill:none;stroke:#a7a5a6;stroke-width:1;stroke-linecap:round;stroke-linejoin:round;stroke-miterlimit:10;stroke-dasharray:none;stroke-opacity:1"
       transform="matrix(1.3333333,0,0,-1.3333333,181.10573,151.56547)"
       clip-path="url(#clipPath20)" />
    <path
       id="path21"
       d="m 1.8269047,-4.6303406 c -0.91406251,0 -1.58203126,0.84375 -1.58203126,2.3671875 0.0234375,1.51171872 0.62109375,2.34374997 1.51171876,2.34374997 1.0078125,0 1.5820312,-0.85546875 1.5820312,-2.40234377 0,-1.453125 -0.5507812,-2.3085937 -1.5117187,-2.3085937 z m -0.035156,0.4804687 c 0.6445313,0 0.9257813,0.7382813 0.9257813,1.8515625 0,1.1601563 -0.2929688,1.89843752 -0.9257813,1.89843752 -0.5625,0 -0.92578121,-0.66796872 -0.92578121,-1.85156252 0,-1.2421875 0.38671871,-1.8984375 0.92578121,-1.8984375 z m 30.4453123,4.14843752 v -0.515625 H 30.18628 v -0.0117188 l 0.363281,-0.328125 c 0.960937,-0.92578132 1.570312,-1.60546882 1.570312,-2.44921882 0,-0.6445311 -0.410156,-1.3242186 -1.394531,-1.3242186 -0.527344,0 -0.972656,0.1992187 -1.289062,0.46875 l 0.199218,0.4335936 c 0.210938,-0.1757811 0.550782,-0.3867186 0.972657,-0.3867186 0.667968,0 0.902343,0.4218749 0.902343,0.8906249 -0.01172,0.6796875 -0.539062,1.2656251 -1.699218,2.37890627 l -0.480469,0.46875 v 0.375 z m 28.59375,0 V -1.2436219 h 0.632812 v -0.4804687 h -0.632812 v -2.8242188 h -0.667969 l -2.027344,2.90625 v 0.3984375 h 2.109375 v 1.24218752 z M 58.756592,-1.7240906 v -0.011719 l 1.113281,-1.546875 c 0.128907,-0.2109375 0.234375,-0.4101562 0.375,-0.6679687 h 0.02344 c -0.01172,0.234375 -0.02344,0.46875 -0.02344,0.7148437 v 1.5117188 z m 59.085938,1.80468747 c 0.86719,0 1.54687,-0.5390625 1.54687,-1.32421877 0,-0.5507812 -0.35156,-0.9492187 -0.91406,-1.1835937 v -0.011719 c 0.5625,-0.2695312 0.75,-0.6796875 0.75,-1.0664062 0,-0.5625 -0.44531,-1.125 -1.32422,-1.125 -0.79687,0 -1.40625,0.4921875 -1.40625,1.21875 0,0.3867187 0.22266,0.7851562 0.72657,1.0195312 v 0.023437 c -0.5625,0.234375 -0.90235,0.6445313 -0.90235,1.2070313 0,0.66796872 0.57422,1.24218747 1.52344,1.24218817 z m 0.0117,-0.45703125 c -0.57422,0 -0.92578,-0.3984375 -0.90235,-0.86718752 0,-0.4335937 0.28125,-0.7851562 0.82032,-0.9375 0.60937,0.1757813 0.99609,0.4453125 0.99609,0.9960938 0,0.46874997 -0.35156,0.80859372 -0.91406,0.80859372 z m 0.0117,-3.80859372 c 0.55078,0 0.77343,0.375 0.77343,0.7382812 0,0.4101563 -0.30468,0.6914063 -0.6914,0.8320313 -0.52735,-0.140625 -0.86719,-0.3867188 -0.86719,-0.84375 0,-0.3867188 0.26953,-0.7265625 0.78516,-0.7265625 z m 0,0"
       style="fill:#231f20;fill-opacity:1;fill-rule:nonzero;stroke:none"
       aria-label="0248"
       transform="matrix(1.3333333,0,0,1.3333333,144.88053,267.6816)" />
    <path
       id="path22"
       d="M 2.9641797,-1.4877625 3.4680859,5.1875e-4 h 0.65625 L 2.5071484,-4.7104188 H 1.7805859 L 0.17511719,5.1875e-4 h 0.6328125 L 1.2883984,-1.4877625 Z m -1.546875,-0.46875 0.46875,-1.3710938 c 0.082031,-0.28125 0.1640625,-0.5742187 0.234375,-0.84375 h 0.011719 c 0.070312,0.2695313 0.140625,0.5507813 0.2460938,0.8554688 l 0.4570312,1.359375 z M 7.0950391,-3.3862 7.0598828,-2.870575 h -0.011719 c -0.1523438,-0.28125 -0.46875,-0.5976563 -1.0546875,-0.5976563 -0.7734375,0 -1.5234375,0.65625 -1.5234375,1.8046875 0,0.93750005 0.5976562,1.6523438 1.4414062,1.6523438 0.515625,0 0.8789063,-0.2578125 1.078125,-0.57421875 H 7.001289 V -0.1987 c 0,0.85546875 -0.46875,1.18359375 -1.0898438,1.18359375 -0.421875,0 -0.7734375,-0.12890625 -0.9960937,-0.26953125 l -0.1523438,0.46875 c 0.2695313,0.1757812 0.7148438,0.28125 1.125,0.28125 0.421875,0 0.9023438,-0.1054688 1.2304688,-0.4101563 0.328125,-0.2929687 0.4804687,-0.77343745 0.4804687,-1.54687495 V -2.4604188 c 0,-0.4101562 0.011719,-0.6796875 0.035156,-0.9257812 z m -0.1054688,1.9453125 c 0,0.1054687 -0.011719,0.2226562 -0.046875,0.328125 C 6.8137891,-0.714325 6.4622266,-0.47995 6.0872266,-0.47995 c -0.6679688,0 -0.9960938,-0.5507813 -0.9960938,-1.21875 0,-0.7851563 0.421875,-1.2773438 1.0078125,-1.2773438 0.4453125,0 0.75,0.2929688 0.8554688,0.6445313 0.035156,0.082031 0.035156,0.1757812 0.035156,0.28125 z m 4.3564457,-0.140625 c 0,-0.058594 0.02344,-0.1640625 0.02344,-0.28125 0,-0.6328125 -0.292969,-1.6054688 -1.4062499,-1.6054688 -0.984375,0 -1.5820312,0.8085938 -1.5820312,1.828125 0,1.0195313 0.6210937,1.71093755 1.6640621,1.71093755 0.539063,0 0.902344,-0.1171875 1.125,-0.2109375 l -0.105468,-0.4453125 c -0.234375,0.10546875 -0.492188,0.17578125 -0.9375,0.17578125 -0.6210941,0 -1.1484379,-0.33984375 -1.1601566,-1.171875 z M 8.9671094,-2.026825 c 0.058594,-0.421875 0.328125,-0.9960938 0.9492187,-0.9960938 0.6914059,0 0.8554689,0.609375 0.8554689,0.9960938 z m 5.4960936,-2.8242188 c -0.433594,0.5859375 -0.902344,1.4765625 -0.914062,2.859375 0,1.35937505 0.480468,2.2617188 0.914062,2.83593755 h 0.492188 c -0.503907,-0.69140625 -0.890625,-1.59375 -0.890625,-2.83593755 0,-1.265625 0.375,-2.1796875 0.890625,-2.859375 z m 1.754883,-0.1171875 H 15.608711 V 5.1875e-4 h 0.609375 V -1.276825 l 0.304687,-0.3515625 1.171875,1.62890625 h 0.75 L 16.956367,-1.9916688 18.257148,-3.3862 h -0.738281 l -0.996094,1.171875 c -0.09375,0.1171875 -0.210937,0.2578125 -0.292968,0.3867187 h -0.01172 z m 5.223633,4.96875005 c -0.03516,-0.234375 -0.04687,-0.515625 -0.04687,-0.80859375 V -2.0737 c 0,-0.6796875 -0.257813,-1.3945313 -1.289063,-1.3945313 -0.433593,0 -0.832031,0.1289063 -1.113281,0.3046875 l 0.140625,0.4101563 C 19.3675,-2.9057313 19.695625,-3.0112 20.012031,-3.0112 c 0.691407,0 0.773438,0.5039062 0.773438,0.7851562 v 0.070312 c -1.3125,0 -2.039063,0.4453125 -2.039063,1.26562505 0,0.48046875 0.351563,0.97265625 1.03125,0.97265625 0.480469,0 0.84375,-0.24609375 1.042969,-0.50390625 h 0.01172 l 0.05859,0.421875 z M 20.797188,-1.1362 c 0,0.058594 -0.01172,0.1289062 -0.03516,0.1875 -0.105468,0.29296875 -0.375,0.57421875 -0.820312,0.57421875 -0.316406,0 -0.585938,-0.1875 -0.585938,-0.5859375 0,-0.66796875 0.773438,-0.78515625 1.441407,-0.76171875 z m 1.699218,1.98046875 c 0.445313,-0.59765625 0.914063,-1.4765625 0.914063,-2.84765625 0,-1.3828125 -0.46875,-2.2734375 -0.914063,-2.8476563 h -0.480468 c 0.503906,0.6914063 0.878906,1.5820313 0.878906,2.8359375 0,1.26562505 -0.386719,2.1679688 -0.878906,2.85937505 z m 0,0"
       style="fill:#231f20;fill-opacity:1;fill-rule:nonzero;stroke:none"
       aria-label="Age (ka)"
       transform="matrix(1.3333333,0,0,1.3333333,247.42667,281.01493)"
       clip-path="url(#clipPath23)" />
    <path
       id="path24"
       d="m 2.9064047,-4.6186219 c -0.1054688,0 -0.2578125,0.011719 -0.4453125,0.035156 -0.5742188,0.070312 -1.078125,0.3046875 -1.453125,0.6679687 -0.44531251,0.4453125 -0.77343751,1.1601563 -0.77343751,2.0507813 0,1.18359372 0.64453125,1.94531247 1.61718751,1.94531247 0.9375,0 1.5117187,-0.7734375 1.5117187,-1.60546877 0,-0.890625 -0.5742187,-1.4765625 -1.3710937,-1.4765625 -0.5039063,0 -0.890625,0.2460938 -1.10156251,0.5273438 h -0.0234375 c 0.10546875,-0.75 0.62109371,-1.453125 1.58203121,-1.6171875 0.1757813,-0.023437 0.3398438,-0.035156 0.4570313,-0.023437 z m -1.0546875,4.21875002 c -0.6445313,0 -0.99609376,-0.55078125 -1.00781251,-1.30078122 0,-0.1171875 0.0351563,-0.1992188 0.0703125,-0.2695313 0.17578121,-0.328125 0.51562501,-0.5625 0.87890621,-0.5625 0.5742188,0 0.9375,0.3867188 0.9375,1.0429688 0,0.64453122 -0.3515625,1.08984372 -0.8789062,1.08984372 z m 56.0390628,0.3984375 h 0.597656 V -4.5483094 h -0.527344 l -0.996094,0.5273438 0.117188,0.46875 0.796875,-0.421875 h 0.01172 z m 3.767578,-4.62890622 c -0.914063,0 -1.582031,0.84375 -1.582031,2.3671875 0.02344,1.51171872 0.621093,2.34374997 1.511718,2.34374997 1.007813,0 1.582032,-0.85546875 1.582032,-2.40234377 0,-1.453125 -0.550782,-2.3085937 -1.511719,-2.3085937 z m -0.03516,0.4804687 c 0.644531,0 0.925781,0.7382813 0.925781,1.8515625 0,1.1601563 -0.292969,1.89843752 -0.925781,1.89843752 -0.5625,0 -0.925782,-0.66796872 -0.925782,-1.85156252 0,-1.2421875 0.386719,-1.8984375 0.925782,-1.8984375 z m 25.283203,4.14843752 h 0.597656 V -4.5483094 h -0.527344 l -0.996094,0.5273438 0.117188,0.46875 0.796875,-0.421875 h 0.01172 z m 5.159179,0 v -0.515625 h -2.050781 v -0.0117188 l 0.363281,-0.328125 c 0.960938,-0.92578132 1.570313,-1.60546882 1.570313,-2.44921882 0,-0.6445311 -0.410156,-1.3242186 -1.394531,-1.3242186 -0.527344,0 -0.972657,0.1992187 -1.289063,0.46875 l 0.199219,0.4335936 c 0.210937,-0.1757811 0.550781,-0.3867186 0.972656,-0.3867186 0.667969,0 0.902344,0.4218749 0.902344,0.8906249 -0.01172,0.6796875 -0.539063,1.2656251 -1.699219,2.37890627 l -0.480469,0.46875 v 0.375 z M -87.119963,-66.543427 v -0.515625 h -2.050781 v -0.01172 l 0.363281,-0.328125 c 0.960938,-0.925782 1.570313,-1.605469 1.570313,-2.449219 0,-0.644531 -0.410156,-1.324219 -1.394531,-1.324219 -0.527344,0 -0.972657,0.199219 -1.289063,0.46875 l 0.199219,0.433594 c 0.210937,-0.175781 0.550781,-0.386719 0.972656,-0.386719 0.667969,0 0.902344,0.421875 0.902344,0.890625 -0.01172,0.679688 -0.539063,1.265625 -1.699219,2.378906 l -0.480469,0.46875 v 0.375 z m -1.394531,8.455079 c -0.914062,0 -1.582031,0.84375 -1.582031,2.367187 0.02344,1.511719 0.621094,2.34375 1.511719,2.34375 1.007812,0 1.582031,-0.855469 1.582031,-2.402344 0,-1.453125 -0.550781,-2.308593 -1.511719,-2.308593 z m -0.03516,0.480468 c 0.644531,0 0.925781,0.738282 0.925781,1.851563 0,1.160156 -0.292969,1.898437 -0.925781,1.898437 -0.5625,0 -0.925781,-0.667968 -0.925781,-1.851562 0,-1.242188 0.386718,-1.898438 0.925781,-1.898438 z m -5.080078,15.240235 v 0.421875 h 3.082031 v -0.421875 z m 6.509765,1.992187 v -0.515625 h -2.050781 v -0.01172 l 0.363281,-0.328125 c 0.960938,-0.925781 1.570313,-1.605468 1.570313,-2.449218 0,-0.644532 -0.410156,-1.324219 -1.394531,-1.324219 -0.527344,0 -0.972657,0.199219 -1.289063,0.46875 l 0.199219,0.433594 c 0.210937,-0.175782 0.550781,-0.386719 0.972656,-0.386719 0.667969,0 0.902344,0.421875 0.902344,0.890625 -0.01172,0.679687 -0.539063,1.265625 -1.699219,2.378906 l -0.480469,0.46875 v 0.375 z m -6.509765,11.088867 v 0.421875 h 3.082031 v -0.421875 z m 6.08789,1.992188 v -1.242188 h 0.632813 v -0.480468 h -0.632813 v -2.824219 h -0.667968 l -2.027344,2.90625 v 0.398437 h 2.109375 v 1.242188 z m -2.074218,-1.722656 v -0.01172 l 1.113281,-1.546875 c 0.128906,-0.210938 0.234375,-0.410156 0.375,-0.667969 h 0.02344 c -0.01172,0.234375 -0.02344,0.46875 -0.02344,0.714844 v 1.511719 z m -4.013672,12.814453 v 0.421875 h 3.082031 v -0.421875 z m 6.193359,-2.625 c -0.105469,0 -0.257812,0.01172 -0.445312,0.03516 -0.574219,0.07031 -1.078125,0.304687 -1.453125,0.667969 -0.445313,0.445312 -0.773438,1.160156 -0.773438,2.050781 0,1.183594 0.644531,1.945312 1.617188,1.945312 0.9375,0 1.511718,-0.773437 1.511718,-1.605468 0,-0.890625 -0.574218,-1.476563 -1.371093,-1.476563 -0.503907,0 -0.890625,0.246094 -1.101563,0.527344 h -0.02344 c 0.105468,-0.75 0.621093,-1.453125 1.582031,-1.617188 0.175781,-0.02344 0.339844,-0.03516 0.457031,-0.02344 z m -1.054687,4.21875 c -0.644532,0 -0.996094,-0.550782 -1.007813,-1.300782 0,-0.117187 0.03516,-0.199218 0.07031,-0.269531 0.175781,-0.328125 0.515625,-0.5625 0.878906,-0.5625 0.574219,0 0.9375,0.386719 0.9375,1.042969 0,0.644531 -0.351563,1.089844 -0.878906,1.089844 z m 0.949218,-65.024414 v -1.242188 h 0.632813 v -0.480469 h -0.632813 v -2.824218 h -0.667968 l -2.027344,2.90625 v 0.398437 h 2.109375 v 1.242188 z m -2.074218,-1.722657 v -0.01172 l 1.113281,-1.546875 c 0.128906,-0.210938 0.234375,-0.410157 0.375,-0.667969 h 0.02344 c -0.01172,0.234375 -0.02344,0.46875 -0.02344,0.714844 v 1.511718 z m 2.179687,-15.975586 c -0.105469,0 -0.257812,0.01172 -0.445312,0.03516 -0.574219,0.07031 -1.078125,0.304687 -1.453125,0.667968 -0.445313,0.445313 -0.773438,1.160157 -0.773438,2.050782 0,1.183593 0.644531,1.945312 1.617188,1.945312 0.9375,0 1.511718,-0.773437 1.511718,-1.605469 0,-0.890625 -0.574218,-1.476562 -1.371093,-1.476562 -0.503907,0 -0.890625,0.246094 -1.101563,0.527344 h -0.02344 c 0.105468,-0.75 0.621093,-1.453125 1.582031,-1.617188 0.175781,-0.02344 0.339844,-0.03516 0.457031,-0.02344 z m -1.054687,4.21875 c -0.644532,0 -0.996094,-0.550781 -1.007813,-1.300781 0,-0.117187 0.03516,-0.199219 0.07031,-0.269531 0.175781,-0.328125 0.515625,-0.5625 0.878906,-0.5625 0.574219,0 0.9375,0.386719 0.9375,1.042969 0,0.644531 -0.351563,1.089843 -0.878906,1.089843 z m 181.227539,20.519532 c -0.914063,0 -1.582031,0.84375 -1.582031,2.367187 0.02344,1.511719 0.621093,2.34375 1.511718,2.34375 1.007813,0 1.582032,-0.855469 1.582032,-2.402344 0,-1.453125 -0.550782,-2.308593 -1.511719,-2.308593 z m -0.03516,0.480468 c 0.644531,0 0.925781,0.738282 0.925781,1.851563 0,1.160156 -0.292969,1.898437 -0.925781,1.898437 -0.5625,0 -0.925782,-0.667968 -0.925782,-1.851562 0,-1.242188 0.386719,-1.898438 0.925782,-1.898438 z m 2.572265,4.230469 c 0.257813,0 0.421875,-0.199219 0.421875,-0.445312 0,-0.257813 -0.164062,-0.445313 -0.410156,-0.445313 -0.246094,0 -0.421875,0.1875 -0.421875,0.445313 0,0.246093 0.164062,0.445312 0.410156,0.445312 z m 2.329102,-0.08203 H 98.20035 V -72.5112 h -0.527344 l -0.996093,0.527344 0.117187,0.46875 0.796875,-0.421875 h 0.01172 z m -4.866211,15.958008 c -0.914063,0 -1.582031,0.84375 -1.582031,2.367187 0.02344,1.511719 0.621093,2.34375 1.511718,2.34375 1.007813,0 1.582032,-0.855468 1.582032,-2.402343 0,-1.453125 -0.550782,-2.308594 -1.511719,-2.308594 z m -0.03516,0.480469 c 0.644531,0 0.925781,0.738281 0.925781,1.851562 0,1.160156 -0.292969,1.898438 -0.925781,1.898438 -0.5625,0 -0.925782,-0.667969 -0.925782,-1.851563 0,-1.242187 0.386719,-1.898437 0.925782,-1.898437 z m -1.582032,22.746093 v 0.421875 h 3.082032 v -0.421875 z m 5.118164,-2.636718 c -0.914062,0 -1.582031,0.84375 -1.582031,2.367187 0.02344,1.511719 0.621094,2.34375 1.511719,2.34375 1.007812,0 1.582031,-0.855469 1.582031,-2.402344 0,-1.453125 -0.550781,-2.308593 -1.511719,-2.308593 z m -0.03516,0.480468 c 0.644531,0 0.925781,0.738282 0.925781,1.851563 0,1.160156 -0.292968,1.898437 -0.925781,1.898437 -0.5625,0 -0.925781,-0.667968 -0.925781,-1.851562 0,-1.242188 0.386719,-1.898438 0.925781,-1.898438 z m 2.572266,4.230469 c 0.257812,0 0.421875,-0.199219 0.421875,-0.445312 0,-0.257813 -0.164063,-0.445313 -0.410156,-0.445313 -0.246094,0 -0.421875,0.1875 -0.421875,0.445313 0,0.246093 0.164062,0.445312 0.410156,0.445312 z m 2.326167,-0.08203 h 0.59766 v -4.546875 h -0.52735 l -0.99609,0.527344 0.11719,0.46875 0.79687,-0.421875 h 0.0117 z m -9.981441,18.5947264 v 0.421875 h 3.082032 v -0.421875 z m 5.118164,-2.6367184 c -0.914062,0 -1.582031,0.8437496 -1.582031,2.3671871 0.02344,1.5117188 0.621094,2.34375 1.511719,2.34375 1.007812,0 1.582031,-0.8554687 1.582031,-2.4023437 0,-1.453125 -0.550781,-2.3085934 -1.511719,-2.3085934 z m -0.03516,0.480468 c 0.644531,0 0.925781,0.7382816 0.925781,1.8515629 0,1.1601562 -0.292968,1.8984375 -0.925781,1.8984375 -0.5625,0 -0.925781,-0.6679688 -0.925781,-1.8515625 0,-1.2421875 0.386719,-1.8984379 0.925781,-1.8984379 z m 2.572266,4.2304691 c 0.257812,0 0.421875,-0.1992187 0.421875,-0.4453125 0,-0.2578125 -0.164063,-0.4453125 -0.410156,-0.4453125 -0.246094,0 -0.421875,0.1875 -0.421875,0.4453125 0,0.2460938 0.164062,0.4453125 0.410156,0.4453125 z m 3.896481,-0.082031 v -0.515625 h -2.05078 v -0.011719 l 0.36328,-0.328125 c 0.96094,-0.9257812 1.57032,-1.6054687 1.57032,-2.4492187 0,-0.6445314 -0.41016,-1.3242184 -1.39454,-1.3242184 -0.52734,0 -0.97265,0.199218 -1.289058,0.46875 l 0.199218,0.4335934 c 0.21094,-0.1757814 0.55078,-0.3867184 0.97266,-0.3867184 0.66797,0 0.90234,0.4218746 0.90234,0.8906246 -0.0117,0.6796875 -0.53906,1.265625 -1.69922,2.3789063 l -0.480467,0.46875 v 0.375 z M 92.736483,-93.171356 c -0.914063,0 -1.582031,0.84375 -1.582031,2.367187 0.02344,1.511719 0.621093,2.34375 1.511718,2.34375 1.007813,0 1.582032,-0.855469 1.582032,-2.402344 0,-1.453125 -0.550782,-2.308593 -1.511719,-2.308593 z m -0.03516,0.480468 c 0.644531,0 0.925781,0.738282 0.925781,1.851563 0,1.160156 -0.292969,1.898437 -0.925781,1.898437 -0.5625,0 -0.925782,-0.667968 -0.925782,-1.851562 0,-1.242188 0.386719,-1.898438 0.925782,-1.898438 z m 2.572265,4.230469 c 0.257813,0 0.421875,-0.199219 0.421875,-0.445312 0,-0.257813 -0.164062,-0.445313 -0.410156,-0.445313 -0.246094,0 -0.421875,0.1875 -0.421875,0.445313 0,0.246093 0.164062,0.445312 0.410156,0.445312 z m 3.899414,-0.08203 v -0.515625 h -2.050781 v -0.01172 l 0.363281,-0.328125 c 0.960938,-0.925781 1.570313,-1.605469 1.570313,-2.449219 0,-0.644531 -0.410156,-1.324218 -1.394531,-1.324218 -0.527344,0 -0.972657,0.199218 -1.289063,0.46875 l 0.199219,0.433593 c 0.210937,-0.175781 0.550781,-0.386718 0.972656,-0.386718 0.667969,0 0.902344,0.421875 0.902344,0.890625 -0.01172,0.679687 -0.539063,1.265625 -1.699219,2.378906 l -0.480469,0.46875 v 0.375 z m 0,0"
       style="fill:#231f20;fill-opacity:1;fill-rule:nonzero;stroke:none"
       aria-label="61012&#10;2&#10;0&#10;–2&#10;–4&#10;–6&#10;4&#10;6&#10;0.1&#10;0&#10;–0.1&#10;–0.2&#10;0.2"
       transform="matrix(1.3333333,0,0,1.3333333,260.9412,267.6816)" />
    <path
       id="path25"
       d="M 1.1599172,-0.00101875 H 1.5700734 V -3.1885187 H 1.2067922 l -0.70312501,0.375 0.09375,0.328125 0.55078121,-0.2929688 h 0.011719 z m 3.3105469,0 v -0.8671875 H 4.9157766 V -1.20805 H 4.4704641 v -1.9804687 h -0.46875 l -1.4179688,2.0390625 v 0.28124995 h 1.4882813 v 0.8671875 z M 3.0173391,-1.20805 v -0.011719 l 0.7851562,-1.078125 c 0.082031,-0.1523438 0.1640625,-0.28125 0.2695313,-0.46875 h 0.011719 c -0.011719,0.1640625 -0.011719,0.328125 -0.011719,0.4921875 V -1.20805 Z m 0,0"
       style="fill:#231f20;fill-opacity:1;fill-rule:nonzero;stroke:none"
       aria-label="14"
       transform="matrix(0,-1.3333333,1.3333333,0,408.73573,230.6364)" />
    <path
       id="path26"
       d="m 3.7029297,-0.6328 c -0.2460938,0.1171875 -0.6210938,0.1875 -0.9960938,0.1875 -1.1484375,0 -1.81640621,-0.7382813 -1.81640621,-1.8867188 0,-1.2421875 0.73828121,-1.9453125 1.83984371,-1.9453125 0.3984375,0 0.7265625,0.082031 0.9609375,0.1875 l 0.140625,-0.4921875 C 3.6677734,-4.66405 3.3044922,-4.7929563 2.7185547,-4.7929563 c -1.4648438,0 -2.47265626,0.9960938 -2.47265626,2.4726563 0,1.546875 1.00781246,2.390625 2.33203126,2.390625 0.5742187,0 1.0195312,-0.1171875 1.2539062,-0.22265625 z m 2.3554687,2.015625 h 0.609375 v -1.83984375 h 0.011719 c 0.1992187,0.33984375 0.5859375,0.5390625 1.0429687,0.5390625 0.796875,0 1.5351563,-0.609375 1.5351563,-1.82812505 0,-1.0195312 -0.6210938,-1.7226562 -1.4296875,-1.7226562 -0.5625,0 -0.9609375,0.2460937 -1.2070313,0.6679687 H 6.6091797 L 6.5740234,-3.3867063 H 6.0232422 c 0.011719,0.328125 0.035156,0.6679688 0.035156,1.1015625 z m 0.609375,-3.3398438 c 0,-0.082031 0.011719,-0.1757812 0.035156,-0.2578125 0.1171875,-0.4570312 0.515625,-0.7617187 0.9375,-0.7617187 0.6445312,0 0.9960937,0.5859375 0.9960937,1.265625 0,0.7734375 -0.375,1.30078125 -1.0195312,1.30078125 -0.4453125,0 -0.8203125,-0.29296875 -0.9257813,-0.71484375 C 6.6794922,-1.2070188 6.6677734,-1.28905 6.6677734,-1.3828 Z M 10.042773,1.25e-5 h 0.609375 V -1.804675 c 0,-0.1054688 0.01172,-0.1992188 0.02344,-0.2929688 C 10.757618,-2.554675 11.062307,-2.8828 11.4959,-2.8828 c 0.09375,0 0.152344,0.011719 0.210938,0.023437 V -3.4453 c -0.05859,-0.011719 -0.105469,-0.023437 -0.175781,-0.023437 -0.410157,0 -0.785157,0.2929687 -0.9375,0.75 h -0.02344 l -0.02344,-0.6679688 h -0.539063 c 0.02344,0.3164063 0.03516,0.65625 0.03516,1.0546875 z m 3.717774,-3.46875 c -0.9375,0 -1.675781,0.6679687 -1.675781,1.8046875 0,1.06640625 0.703125,1.74609375 1.617187,1.74609375 0.820313,0 1.6875,-0.55078125 1.6875,-1.80468755 0,-1.03125 -0.65625,-1.7460937 -1.628906,-1.7460937 z m -0.01172,0.46875 c 0.726563,0 1.007813,0.7265625 1.007813,1.3007812 0,0.7617188 -0.433594,1.31250005 -1.019532,1.31250005 -0.609375,0 -1.03125,-0.5625 -1.03125,-1.30078125 0,-0.6445313 0.316407,-1.3125 1.042969,-1.3125 z m 4.734375,-1.96875 v 2.0273437 h -0.02344 c -0.152344,-0.28125 -0.503907,-0.5273437 -1.019532,-0.5273437 -0.820312,0 -1.523437,0.703125 -1.511718,1.828125 0,1.01953125 0.621093,1.72265625 1.441406,1.72265625 0.550781,0 0.972656,-0.29296875 1.160156,-0.66796875 h 0.01172 l 0.02344,0.5859375 h 0.5625 c -0.02344,-0.234375 -0.03516,-0.57421875 -0.03516,-0.87890625 V -4.9687375 Z m 0,3.5507812 c 0,0.09375 -0.01172,0.1757813 -0.03516,0.2578125 -0.105469,0.46875005 -0.492188,0.7382813 -0.902344,0.7382813 -0.667969,0 -0.996094,-0.5625 -0.996094,-1.2539063 0,-0.75 0.375,-1.3007812 1.007813,-1.3007812 0.46875,0 0.796875,0.3164062 0.890625,0.7148437 0.02344,0.070312 0.03516,0.1757813 0.03516,0.2578125 z m 4.464844,-1.96875 h -0.609375 v 2.0742188 c 0,0.1171875 -0.02344,0.2226562 -0.05859,0.31640625 -0.105469,0.28125 -0.398437,0.5625 -0.808594,0.5625 -0.5625,0 -0.761718,-0.43359375 -0.761718,-1.07812505 v -1.875 h -0.609375 v 1.9804688 c 0,1.18359375 0.632812,1.48828125 1.160156,1.48828125 0.609375,0 0.960937,-0.36328125 1.125,-0.6328125 h 0.01172 L 22.432422,1.25e-5 h 0.550781 c -0.02344,-0.26953125 -0.03516,-0.57421875 -0.03516,-0.92578125 z m 3.339844,2.8007813 c -0.175782,0.0703125 -0.410157,0.1640625 -0.761719,0.1640625 -0.667969,0 -1.171875,-0.48046875 -1.171875,-1.265625 0,-0.703125 0.421875,-1.2773438 1.195312,-1.2773438 0.339844,0 0.5625,0.070312 0.714844,0.1640625 l 0.140625,-0.4804687 c -0.175781,-0.082031 -0.492187,-0.1757813 -0.855469,-0.1757813 -1.101562,0 -1.816406,0.7617188 -1.816406,1.8046875 0,1.03125005 0.65625,1.7226563 1.6875,1.7226563 0.445313,0 0.808594,-0.1171875 0.972656,-0.19921875 z M 27.278125,-4.1953 v 0.8085937 h -0.527344 v 0.46875 h 0.527344 v 1.8515625 c 0,0.39843755 0.05859,0.6914063 0.234375,0.8789063 0.140625,0.1640625 0.375,0.2578125 0.667969,0.2578125 0.234375,0 0.421875,-0.03515625 0.539062,-0.08203125 l -0.02344,-0.46875 c -0.08203,0.0234375 -0.199219,0.046875 -0.363281,0.046875 -0.339844,0 -0.457032,-0.234375 -0.457032,-0.65625005 v -1.828125 h 0.878907 v -0.46875 H 27.875781 V -4.3593625 Z M 30.049609,1.25e-5 V -3.3867063 H 29.440234 V 1.25e-5 Z m -0.304687,-4.7226563 c -0.222656,0 -0.386719,0.1640625 -0.386719,0.3867188 0,0.2109375 0.152344,0.375 0.375,0.375 0.246094,0 0.398438,-0.1640625 0.386719,-0.375 0,-0.2226563 -0.140625,-0.3867188 -0.375,-0.3867188 z m 2.748047,1.2539063 c -0.9375,0 -1.675781,0.6679687 -1.675781,1.8046875 0,1.06640625 0.703125,1.74609375 1.617187,1.74609375 0.820313,0 1.6875,-0.55078125 1.6875,-1.80468755 0,-1.03125 -0.65625,-1.7460937 -1.628906,-1.7460937 z m -0.01172,0.46875 c 0.726563,0 1.007813,0.7265625 1.007813,1.3007812 0,0.7617188 -0.433594,1.31250005 -1.019532,1.31250005 -0.609375,0 -1.03125,-0.5625 -1.03125,-1.30078125 0,-0.6445313 0.316407,-1.3125 1.042969,-1.3125 z m 2.411133,3 h 0.609375 V -2.03905 c 0,-0.1054688 0.01172,-0.2109375 0.04687,-0.28125 0.105469,-0.3398438 0.421875,-0.6328125 0.820312,-0.6328125 0.585938,0 0.785157,0.4570312 0.785157,0.9960937 V 1.25e-5 h 0.621093 v -2.0273438 c 0,-1.1601562 -0.738281,-1.4414062 -1.207031,-1.4414062 -0.550781,0 -0.949219,0.3164062 -1.113281,0.6445312 h -0.01172 l -0.03516,-0.5625 h -0.550781 c 0.02344,0.28125 0.03516,0.5625 0.03516,0.9140625 z m 5.34082,0 h 0.609375 V -1.804675 c 0,-0.1054688 0.01172,-0.1992188 0.02344,-0.2929688 0.08203,-0.4570312 0.386718,-0.7851562 0.820312,-0.7851562 0.09375,0 0.152344,0.011719 0.210938,0.023437 V -3.4453 c -0.05859,-0.011719 -0.105469,-0.023437 -0.175782,-0.023437 -0.410156,0 -0.785156,0.2929687 -0.9375,0.75 h -0.02344 l -0.02344,-0.6679688 h -0.539062 c 0.02344,0.3164063 0.03516,0.65625 0.03516,1.0546875 z m 4.702149,0 c -0.03516,-0.234375 -0.04687,-0.515625 -0.04687,-0.80859375 V -2.0742063 c 0,-0.6796875 -0.257813,-1.3945312 -1.289063,-1.3945312 -0.433594,0 -0.832031,0.1289062 -1.113281,0.3046875 l 0.140625,0.4101562 c 0.234375,-0.1523437 0.5625,-0.2578125 0.878906,-0.2578125 0.691406,0 0.773438,0.5039063 0.773438,0.7851563 v 0.070312 c -1.3125,0 -2.039063,0.4453125 -2.039063,1.265625 0,0.48046875 0.351563,0.97265625 1.03125,0.97265625 0.480469,0 0.84375,-0.24609375 1.042969,-0.50390625 h 0.01172 L 44.38457,1.25e-5 Z M 44.29082,-1.1367063 c 0,0.058594 -0.01172,0.1289063 -0.03516,0.18750005 -0.105469,0.29296875 -0.375,0.57421875 -0.820312,0.57421875 -0.316407,0 -0.585938,-0.1875 -0.585938,-0.5859375 0,-0.6679688 0.773438,-0.7851563 1.441406,-0.7617188 z M 46.010547,-4.1953 v 0.8085937 h -0.527344 v 0.46875 h 0.527344 v 1.8515625 c 0,0.39843755 0.05859,0.6914063 0.234375,0.8789063 0.140625,0.1640625 0.375,0.2578125 0.667969,0.2578125 0.234375,0 0.421875,-0.03515625 0.539062,-0.08203125 l -0.02344,-0.46875 c -0.08203,0.0234375 -0.199219,0.046875 -0.363282,0.046875 -0.339843,0 -0.457031,-0.234375 -0.457031,-0.65625005 v -1.828125 h 0.878906 v -0.46875 H 46.6082 v -0.9726562 z m 4.880859,2.6132812 c 0,-0.058594 0.02344,-0.1640625 0.02344,-0.28125 0,-0.6328125 -0.292969,-1.6054687 -1.40625,-1.6054687 -0.984375,0 -1.582031,0.8085937 -1.582031,1.828125 0,1.01953125 0.621093,1.7109375 1.664062,1.7109375 0.539063,0 0.902344,-0.1171875 1.125,-0.2109375 L 50.610156,-0.585925 c -0.234375,0.10546875 -0.492187,0.17578125 -0.9375,0.17578125 -0.621093,0 -1.148437,-0.33984375 -1.160156,-1.17187505 z M 48.5125,-2.0273313 c 0.05859,-0.421875 0.328125,-0.9960937 0.949219,-0.9960937 0.691406,0 0.855469,0.609375 0.855469,0.9960937 z M 0.55351563,2.1474734 c -0.43359375,0.5859375 -0.90234375,1.4765625 -0.9140625,2.859375 0,1.359375 0.48046875,2.2617188 0.9140625,2.8359375 H 1.0457031 C 0.54179688,7.1513797 0.15507813,6.2490359 0.15507813,5.0068484 c 0,-1.265625 0.375,-2.1796875 0.89062497,-2.859375 z M 4.1248047,6.9990359 C 4.0896484,6.7646609 4.0779297,6.4834109 4.0779297,6.1904422 v -1.265625 c 0,-0.6796875 -0.2578125,-1.3945313 -1.2890625,-1.3945313 -0.4335938,0 -0.8320313,0.1289063 -1.1132813,0.3046875 l 0.140625,0.4101563 c 0.234375,-0.1523438 0.5625,-0.2578125 0.8789063,-0.2578125 0.6914062,0 0.7734375,0.5039062 0.7734375,0.7851562 v 0.070312 c -1.3125,0 -2.0390625,0.4453125 -2.0390625,1.265625 0,0.4804688 0.3515625,0.9726563 1.03125,0.9726563 0.4804687,0 0.84375,-0.2460938 1.0429687,-0.5039063 h 0.011719 l 0.058594,0.421875 z M 3.4802734,5.8623172 c 0,0.058594 -0.011719,0.1289062 -0.035156,0.1875 -0.1054688,0.2929687 -0.375,0.5742187 -0.8203125,0.5742187 -0.3164063,0 -0.5859375,-0.1875 -0.5859375,-0.5859375 0,-0.6679687 0.7734375,-0.7851562 1.4414062,-0.7617187 z M 5.2146484,2.8037234 V 3.6123172 H 4.6873047 v 0.46875 h 0.5273437 v 1.8515625 c 0,0.3984375 0.058594,0.6914062 0.234375,0.8789062 0.140625,0.1640625 0.375,0.2578125 0.6679688,0.2578125 0.234375,0 0.421875,-0.035156 0.5390625,-0.082031 l -0.023437,-0.46875 c -0.082031,0.023437 -0.1992188,0.046875 -0.3632813,0.046875 -0.3398437,0 -0.4570312,-0.234375 -0.4570312,-0.65625 v -1.828125 h 0.8789062 v -0.46875 H 5.8123047 V 2.6396609 Z m 3.6035157,0.7265625 c -0.9375,0 -1.6757813,0.6679688 -1.6757813,1.8046875 0,1.0664063 0.703125,1.7460938 1.6171875,1.7460938 0.8203125,0 1.6874997,-0.5507813 1.6874997,-1.8046875 0,-1.03125 -0.6562497,-1.7460938 -1.6289059,-1.7460938 z m -0.011719,0.46875 c 0.7265625,0 1.0078125,0.7265625 1.0078125,1.3007813 0,0.7617187 -0.4335937,1.3125 -1.0195312,1.3125 -0.609375,0 -1.03125,-0.5625 -1.03125,-1.3007813 0,-0.6445312 0.3164062,-1.3125 1.0429687,-1.3125 z m 2.4257819,3 h 0.597656 V 4.9599734 c 0,-0.1054687 0.01172,-0.2109375 0.04687,-0.3046875 0.09375,-0.3046875 0.375,-0.6210937 0.761719,-0.6210937 0.46875,0 0.703125,0.3984375 0.703125,0.9375 v 2.0273437 h 0.609375 V 4.9013797 c 0,-0.1054688 0.02344,-0.2226563 0.04687,-0.3046875 0.105468,-0.2929688 0.375,-0.5625 0.726562,-0.5625 0.492188,0 0.738281,0.3984375 0.738281,1.0429687 v 1.921875 h 0.597657 V 5.0068484 c 0,-1.171875 -0.667969,-1.4765625 -1.113282,-1.4765625 -0.316406,0 -0.539062,0.09375 -0.75,0.2460938 -0.140625,0.1054687 -0.269531,0.2460937 -0.375,0.4335937 H 13.81034 C 13.658008,3.8115359 13.306445,3.5302859 12.849414,3.5302859 c -0.5625,0 -0.878906,0.3046875 -1.066406,0.6328125 h -0.01172 L 11.736133,3.6123172 H 11.19707 c 0.02344,0.28125 0.03516,0.5625 0.03516,0.9140625 z M 16.825,6.8349734 c 0.246094,0.140625 0.585938,0.234375 0.949219,0.234375 0.808594,0 1.277344,-0.421875 1.277344,-1.0195312 0,-0.5039063 -0.304688,-0.796875 -0.890625,-1.0195313 -0.445313,-0.1640625 -0.644532,-0.2929687 -0.644532,-0.5742187 0,-0.2460938 0.199219,-0.4570313 0.5625,-0.4570313 0.316407,0 0.5625,0.1054688 0.691407,0.1992188 l 0.152343,-0.4570313 c -0.1875,-0.1054687 -0.480468,-0.2109375 -0.832031,-0.2109375 -0.726562,0 -1.160156,0.4570313 -1.160156,0.9960938 0,0.4101562 0.28125,0.75 0.890625,0.9609375 0.457031,0.1640625 0.632812,0.328125 0.632812,0.6210937 0,0.28125 -0.210937,0.5039063 -0.65625,0.5039063 -0.316406,0 -0.632812,-0.1289063 -0.820312,-0.2460938 z m 2.958984,0.4453125 1.96875,-5.0742187 h -0.480468 l -1.957032,5.0742187 z m 4.769532,-0.8671875 c -0.175782,0.070312 -0.410157,0.1640625 -0.761719,0.1640625 -0.667969,0 -1.171875,-0.4804687 -1.171875,-1.265625 0,-0.703125 0.421875,-1.2773437 1.195312,-1.2773437 0.339844,0 0.5625,0.070312 0.714844,0.1640625 l 0.140625,-0.4804688 c -0.175781,-0.082031 -0.492187,-0.1757812 -0.855469,-0.1757812 -1.101562,0 -1.816406,0.7617187 -1.816406,1.8046875 0,1.03125 0.65625,1.7226562 1.6875,1.7226562 0.445313,0 0.808594,-0.1171875 0.972656,-0.1992187 z m 0.826172,0.5859375 h 0.597656 V 4.9599734 c 0,-0.1054687 0.01172,-0.2109375 0.04687,-0.3046875 0.09375,-0.3046875 0.375,-0.6210937 0.761719,-0.6210937 0.46875,0 0.703125,0.3984375 0.703125,0.9375 v 2.0273437 h 0.609375 V 4.9013797 c 0,-0.1054688 0.02344,-0.2226563 0.04687,-0.3046875 0.105468,-0.2929688 0.375,-0.5625 0.726562,-0.5625 0.492188,0 0.738281,0.3984375 0.738281,1.0429687 v 1.921875 h 0.597657 V 5.0068484 c 0,-1.171875 -0.667969,-1.4765625 -1.113282,-1.4765625 -0.316406,0 -0.539062,0.09375 -0.75,0.2460938 -0.140625,0.1054687 -0.269531,0.2460937 -0.375,0.4335937 h -0.01172 C 27.805469,3.8115359 27.453906,3.5302859 26.996875,3.5302859 c -0.5625,0 -0.878906,0.3046875 -1.066406,0.6328125 h -0.01172 l -0.03516,-0.5507812 h -0.539063 c 0.02344,0.28125 0.03516,0.5625 0.03516,0.9140625 z m 0,0"
       style="fill:#231f20;fill-opacity:1;fill-rule:nonzero;stroke:none"
       aria-label="C produc&#10;tion rate&#10;(atoms/cm"
       transform="matrix(0,-1.3333333,1.3333333,0,411.84373,223.93333)" />
    <path
       id="path27"
       d="M 2.2491875,9.34375e-4 V -0.36234688 H 0.8195 l 0.2578125,-0.234375 C 1.7452813,-1.2529719 2.178875,-1.7217219 2.178875,-2.3076594 c 0,-0.4570312 -0.2929687,-0.9257812 -0.984375,-0.9257812 -0.36328125,0 -0.6796875,0.1289062 -0.90234375,0.3164062 l 0.140625,0.3046875 C 0.585125,-2.7295344 0.8195,-2.8818781 1.1124688,-2.8818781 c 0.46875,0 0.6328125,0.3046875 0.6328125,0.6210937 -0.011719,0.4804688 -0.375,0.890625 -1.1835938,1.66406252 l -0.33984375,0.328125 V 9.34375e-4 Z m 0,0"
       style="fill:#231f20;fill-opacity:1;fill-rule:nonzero;stroke:none"
       aria-label="2"
       transform="matrix(0,-1.3333333,1.3333333,0,418.06907,183.09267)" />
    <path
       id="path28"
       d="M 0.45639063,0.28028594 2.4251406,-4.7939328 H 1.9446719 l -1.95703127,5.07421874 z m 2.21484377,-0.4453125 c 0.2460937,0.140625 0.5859375,0.234375 0.9492187,0.234375 0.8085938,0 1.2773438,-0.421875 1.2773438,-1.01953125 0,-0.50390629 -0.3046875,-0.79687499 -0.890625,-1.01953129 -0.4453125,-0.1640625 -0.6445313,-0.2929687 -0.6445313,-0.5742187 0,-0.2460938 0.1992188,-0.4570313 0.5625,-0.4570313 0.3164063,0 0.5625,0.1054688 0.6914063,0.1992188 l 0.1523437,-0.4570313 c -0.1875,-0.1054687 -0.4804687,-0.2109375 -0.8320312,-0.2109375 -0.7265625,0 -1.1601563,0.4570313 -1.1601563,0.9960938 0,0.4101562 0.28125,0.75 0.890625,0.9609375 0.4570313,0.1640625 0.6328125,0.328125 0.6328125,0.62109374 0,0.28125 -0.2109375,0.50390625 -0.65625,0.50390625 -0.3164062,0 -0.6328125,-0.12890625 -0.8203125,-0.24609375 z M 8.4075625,-1.5829953 c 0,-0.058594 0.023437,-0.1640625 0.023437,-0.28125 0,-0.6328125 -0.2929687,-1.6054688 -1.40625,-1.6054688 -0.984375,0 -1.5820312,0.8085938 -1.5820312,1.828125 0,1.01953129 0.6210937,1.71093754 1.6640625,1.71093754 0.5390625,0 0.9023437,-0.1171875 1.125,-0.2109375 L 8.126312,-0.58690156 c -0.234375,0.10546875 -0.4921875,0.17578125 -0.9375,0.17578125 -0.6210937,0 -1.1484375,-0.33984375 -1.1601562,-1.17187499 z M 6.0286563,-2.0283078 c 0.058594,-0.421875 0.328125,-0.9960938 0.9492187,-0.9960938 0.6914063,0 0.8554688,0.609375 0.8554688,0.9960938 z m 5.4755857,1.44140624 c -0.175781,0.0703125 -0.410156,0.1640625 -0.761719,0.1640625 -0.667968,0 -1.1718746,-0.48046875 -1.1718746,-1.26562504 0,-0.703125 0.421875,-1.2773437 1.1953126,-1.2773437 0.339844,0 0.5625,0.070312 0.714844,0.1640625 l 0.140625,-0.4804688 c -0.175782,-0.082031 -0.492188,-0.1757812 -0.855469,-0.1757812 -1.1015626,0 -1.8164063,0.7617187 -1.8164063,1.8046875 0,1.03124999 0.65625,1.72265624 1.6875003,1.72265624 0.445312,0 0.808593,-0.1171875 0.972656,-0.19921875 z m 0.931641,1.4296875 c 0.445312,-0.59765625 0.914062,-1.4765625 0.914062,-2.84765624 0,-1.3828125 -0.46875,-2.2734375 -0.914062,-2.8476563 h -0.480469 c 0.503906,0.6914063 0.878906,1.5820313 0.878906,2.8359375 0,1.26562504 -0.386718,2.16796879 -0.878906,2.85937504 z m 0,0"
       style="fill:#231f20;fill-opacity:1;fill-rule:nonzero;stroke:none"
       aria-label="/sec)"
       transform="matrix(0,-1.3333333,1.3333333,0,421.17707,179.74133)" />
    <path
       id="path29"
       d="M 1.1589734,-8.1875e-4 H 1.5691297 V -3.1883187 H 1.2058484 l -0.70312496,0.375 0.09375,0.328125 0.55078126,-0.2929688 h 0.011719 z m 3.3105469,0 v -0.8671875 H 4.9148328 V -1.20785 H 4.4695203 v -1.9804687 h -0.46875 l -1.4179687,2.0390625 v 0.28124995 h 1.4882812 v 0.8671875 z M 3.0163953,-1.20785 v -0.011719 l 0.7851563,-1.078125 c 0.082031,-0.1523438 0.1640625,-0.28125 0.2695312,-0.46875 h 0.011719 c -0.011719,0.1640625 -0.011719,0.328125 -0.011719,0.4921875 V -1.20785 Z m 0,0"
       style="fill:#231f20;fill-opacity:1;fill-rule:nonzero;stroke:none"
       aria-label="14"
       transform="matrix(1.3333333,0,0,1.3333333,184.66173,151.23547)" />
    <path
       id="path30"
       d="m 3.7019859,-0.6326 c -0.2460937,0.1171875 -0.6210937,0.1875 -0.9960937,0.1875 -1.1484375,0 -1.81640626,-0.7382813 -1.81640626,-1.8867188 0,-1.2421875 0.73828126,-1.9453125 1.83984376,-1.9453125 0.3984375,0 0.7265625,0.082031 0.9609375,0.1875 l 0.140625,-0.4921875 C 3.6668297,-4.66385 3.3035484,-4.7927563 2.7176109,-4.7927563 c -1.4648437,0 -2.47265621,0.9960938 -2.47265621,2.4726563 0,1.546875 1.00781251,2.390625 2.33203121,2.390625 0.5742188,0 1.0195313,-0.1171875 1.2539063,-0.22265625 z m 2.3583985,2.015625 h 0.609375 v -1.83984375 h 0.011719 c 0.1992188,0.33984375 0.5859375,0.5390625 1.0429688,0.5390625 0.796875,0 1.5351562,-0.609375 1.5351562,-1.82812505 0,-1.0195312 -0.6210937,-1.7226562 -1.4296875,-1.7226562 -0.5625,0 -0.9609375,0.2460937 -1.2070312,0.6679687 H 6.6111656 L 6.5760094,-3.3865063 H 6.0252281 c 0.011719,0.328125 0.035156,0.6679688 0.035156,1.1015625 z m 0.609375,-3.3398438 c 0,-0.082031 0.011719,-0.1757812 0.035156,-0.2578125 0.1171875,-0.4570312 0.515625,-0.7617187 0.9375,-0.7617187 0.6445313,0 0.9960938,0.5859375 0.9960938,1.265625 0,0.7734375 -0.375,1.30078125 -1.0195313,1.30078125 -0.4453125,0 -0.8203125,-0.29296875 -0.9257812,-0.71484375 C 6.6814781,-1.2068188 6.6697594,-1.28885 6.6697594,-1.3826 Z M 10.04183,2.125e-4 h 0.609375 V -1.804475 c 0,-0.1054688 0.01172,-0.1992188 0.02344,-0.2929688 0.08203,-0.4570312 0.386719,-0.7851562 0.820313,-0.7851562 0.09375,0 0.152343,0.011719 0.210937,0.023437 V -3.4451 c -0.05859,-0.011719 -0.105469,-0.023437 -0.175781,-0.023437 -0.410156,0 -0.785156,0.2929687 -0.9375,0.75 h -0.02344 l -0.02344,-0.6679688 h -0.539063 c 0.02344,0.3164063 0.03516,0.65625 0.03516,1.0546875 z m 3.720703,-3.46875 c -0.9375,0 -1.675781,0.6679687 -1.675781,1.8046875 0,1.06640625 0.703125,1.74609375 1.617187,1.74609375 0.820313,0 1.6875,-0.55078125 1.6875,-1.80468755 0,-1.03125 -0.65625,-1.7460937 -1.628906,-1.7460937 z m -0.01172,0.46875 c 0.726563,0 1.007813,0.7265625 1.007813,1.3007812 0,0.7617188 -0.433594,1.31250005 -1.019532,1.31250005 -0.609375,0 -1.03125,-0.5625 -1.03125,-1.30078125 0,-0.6445313 0.316407,-1.3125 1.042969,-1.3125 z m 4.731445,-1.96875 v 2.0273437 h -0.02344 c -0.152344,-0.28125 -0.503906,-0.5273437 -1.019531,-0.5273437 -0.820313,0 -1.523438,0.703125 -1.511719,1.828125 0,1.01953125 0.621094,1.72265625 1.441406,1.72265625 0.550781,0 0.972656,-0.29296875 1.160156,-0.66796875 h 0.01172 l 0.02344,0.5859375 h 0.5625 c -0.02344,-0.234375 -0.03516,-0.57421875 -0.03516,-0.87890625 V -4.9685375 Z m 0,3.5507812 c 0,0.09375 -0.01172,0.1757813 -0.03516,0.2578125 -0.105469,0.46875005 -0.492187,0.7382813 -0.902344,0.7382813 -0.667968,0 -0.996093,-0.5625 -0.996093,-1.2539063 0,-0.75 0.375,-1.3007812 1.007812,-1.3007812 0.46875,0 0.796875,0.3164062 0.890625,0.7148437 0.02344,0.070312 0.03516,0.1757813 0.03516,0.2578125 z m 4.464844,-1.96875 h -0.609375 v 2.0742188 c 0,0.1171875 -0.02344,0.2226562 -0.05859,0.31640625 -0.105468,0.28125 -0.398437,0.5625 -0.808593,0.5625 -0.5625,0 -0.761719,-0.43359375 -0.761719,-1.07812505 v -1.875 H 20.09945 v 1.9804688 c 0,1.18359375 0.632812,1.48828125 1.160156,1.48828125 0.609375,0 0.960938,-0.36328125 1.125,-0.6328125 h 0.01172 l 0.03516,0.55078125 h 0.550781 c -0.02344,-0.26953125 -0.03516,-0.57421875 -0.03516,-0.92578125 z m 3.272461,2.8007813 c -0.175781,0.0703125 -0.410156,0.1640625 -0.761719,0.1640625 -0.667968,0 -1.171875,-0.48046875 -1.171875,-1.265625 0,-0.703125 0.421875,-1.2773438 1.195313,-1.2773438 0.339844,0 0.5625,0.070312 0.714844,0.1640625 l 0.140625,-0.4804687 c -0.175782,-0.082031 -0.492188,-0.1757813 -0.855469,-0.1757813 -1.101563,0 -1.816406,0.7617188 -1.816406,1.8046875 0,1.03125005 0.65625,1.7226563 1.6875,1.7226563 0.445312,0 0.808593,-0.1171875 0.972656,-0.19921875 z M 27.277181,-4.1951 v 0.8085937 h -0.527343 v 0.46875 h 0.527343 v 1.8515625 c 0,0.39843755 0.05859,0.6914063 0.234375,0.8789063 0.140625,0.1640625 0.375,0.2578125 0.667969,0.2578125 0.234375,0 0.421875,-0.03515625 0.539063,-0.08203125 l -0.02344,-0.46875 c -0.08203,0.0234375 -0.199219,0.046875 -0.363281,0.046875 -0.339844,0 -0.457031,-0.234375 -0.457031,-0.65625005 v -1.828125 h 0.878906 v -0.46875 H 27.874838 V -4.3591625 Z M 30.063314,2.125e-4 V -3.3865063 H 29.453939 V 2.125e-4 Z m -0.304687,-4.7226563 c -0.222657,0 -0.386719,0.1640625 -0.386719,0.3867188 0,0.2109375 0.152344,0.375 0.375,0.375 0.246094,0 0.398437,-0.1640625 0.386719,-0.375 0,-0.2226563 -0.140625,-0.3867188 -0.375,-0.3867188 z m 2.762695,1.2539063 c -0.9375,0 -1.675781,0.6679687 -1.675781,1.8046875 0,1.06640625 0.703125,1.74609375 1.617187,1.74609375 0.820313,0 1.6875,-0.55078125 1.6875,-1.80468755 0,-1.03125 -0.65625,-1.7460937 -1.628906,-1.7460937 z m -0.01172,0.46875 c 0.726563,0 1.007813,0.7265625 1.007813,1.3007812 0,0.7617188 -0.433594,1.31250005 -1.019532,1.31250005 -0.609375,0 -1.03125,-0.5625 -1.03125,-1.30078125 0,-0.6445313 0.316407,-1.3125 1.042969,-1.3125 z m 2.425781,3 h 0.609375 V -2.03885 c 0,-0.1054688 0.01172,-0.2109375 0.04687,-0.28125 0.105469,-0.3398438 0.421875,-0.6328125 0.820313,-0.6328125 0.585937,0 0.785156,0.4570312 0.785156,0.9960937 V 2.125e-4 h 0.621094 v -2.0273438 c 0,-1.1601562 -0.738281,-1.4414062 -1.207031,-1.4414062 -0.550782,0 -0.949219,0.3164062 -1.113282,0.6445312 h -0.01172 l -0.03516,-0.5625 h -0.550781 c 0.02344,0.28125 0.03516,0.5625 0.03516,0.9140625 z M -4.4982094,-14.79178 v 4.710938 h 0.609375 v -4.710938 z m 3.96972659,4.125 c -0.17578125,0.07031 -0.41015625,0.164063 -0.76171879,0.164063 -0.6679687,0 -1.171875,-0.480469 -1.171875,-1.265625 0,-0.703125 0.421875,-1.277344 1.1953125,-1.277344 0.33984379,0 0.56250004,0.07031 0.71484379,0.164063 l 0.140625,-0.480469 c -0.17578125,-0.08203 -0.4921875,-0.175781 -0.85546879,-0.175781 -1.1015625,0 -1.8164062,0.761718 -1.8164062,1.804687 0,1.03125 0.65625,1.722656 1.6875,1.722656 0.44531249,0 0.80859374,-0.117187 0.97265624,-0.199218 z m 3.50390621,-0.996093 c 0,-0.05859 0.023437,-0.164063 0.023437,-0.28125 0,-0.632813 -0.2929687,-1.605469 -1.40625,-1.605469 -0.98437496,0 -1.58203121,0.808594 -1.58203121,1.828125 0,1.019531 0.62109375,1.710937 1.66406251,1.710937 0.5390625,0 0.9023437,-0.117187 1.125,-0.210937 L 2.6941734,-10.66678 c -0.234375,0.105469 -0.4921875,0.175782 -0.9375,0.175782 -0.6210937,0 -1.14843746,-0.339844 -1.16015621,-1.171875 z m -2.37890621,-0.445313 c 0.0585938,-0.421875 0.328125,-0.996094 0.94921871,-0.996094 0.6914063,0 0.8554688,0.609375 0.8554688,0.996094 z m 3.05859371,-0.09375 v 0.457031 h 1.7226563 v -0.457031 z m 2.4521485,2.121094 h 0.609375 v -1.804688 c 0,-0.105468 0.011719,-0.199218 0.023437,-0.292968 0.082031,-0.457032 0.3867187,-0.785157 0.8203125,-0.785157 0.09375,0 0.1523437,0.01172 0.2109375,0.02344 v -0.585938 c -0.058594,-0.01172 -0.1054688,-0.02344 -0.1757813,-0.02344 -0.4101562,0 -0.7851562,0.292969 -0.9375,0.75 h -0.023437 l -0.023437,-0.667969 h -0.539063 c 0.023437,0.316406 0.035156,0.65625 0.035156,1.054688 z m 4.6816406,0 c -0.03516,-0.234375 -0.04687,-0.515625 -0.04687,-0.808594 v -1.265625 c 0,-0.679687 -0.257812,-1.394531 -1.2890625,-1.394531 -0.4335937,0 -0.8320312,0.128906 -1.1132812,0.304687 l 0.140625,0.410157 c 0.234375,-0.152344 0.5625,-0.257813 0.8789062,-0.257813 0.6914065,0 0.7734375,0.503906 0.7734375,0.785156 v 0.07031 c -1.3125,0 -2.0390625,0.445312 -2.0390625,1.265625 0,0.480469 0.3515625,0.9726561 1.03125,0.9726561 0.4804688,0 0.84375,-0.2460941 1.0429685,-0.5039061 h 0.01172 l 0.05859,0.421875 z m -0.644531,-1.136719 c 0,0.05859 -0.01172,0.128906 -0.03516,0.1875 -0.105469,0.292969 -0.3750005,0.574219 -0.820313,0.574219 -0.3164062,0 -0.5859375,-0.1875 -0.5859375,-0.585938 0,-0.667968 0.7734375,-0.785156 1.4414065,-0.761718 z m 2.258789,1.136719 v -2.917969 h 0.820312 v -0.46875 h -0.820312 v -0.175781 c 0,-0.527344 0.128906,-0.984375 0.65625,-0.984375 0.175781,0 0.304687,0.03516 0.386719,0.08203 l 0.09375,-0.480469 c -0.128907,-0.04687 -0.316407,-0.09375 -0.527344,-0.09375 -0.292969,0 -0.597656,0.08203 -0.832031,0.304688 -0.28125,0.28125 -0.386719,0.714844 -0.386719,1.183594 v 0.164062 h -0.480469 v 0.46875 h 0.480469 v 2.917969 z m 1.59375,-4.195313 v 0.808594 h -0.527344 v 0.46875 h 0.527344 v 1.851563 c 0,0.398437 0.05859,0.691406 0.234375,0.878906 0.140625,0.164062 0.375,0.257812 0.667969,0.257812 0.234375,0 0.421875,-0.03516 0.539062,-0.08203 l -0.02344,-0.46875 c -0.08203,0.02344 -0.199219,0.04687 -0.363282,0.04687 -0.339843,0 -0.457031,-0.234375 -0.457031,-0.65625 v -1.828125 h 0.878906 v -0.46875 h -0.878906 v -0.972656 z m 4.854492,2.613282 c 0,-0.05859 0.02344,-0.164063 0.02344,-0.28125 0,-0.632813 -0.292969,-1.605469 -1.40625,-1.605469 -0.984375,0 -1.582032,0.808594 -1.582032,1.828125 0,1.019531 0.621094,1.710937 1.664063,1.710937 0.539062,0 0.902344,-0.117187 1.125,-0.210937 L 18.57015,-10.66678 c -0.234375,0.105469 -0.492187,0.175782 -0.9375,0.175782 -0.621094,0 -1.148437,-0.339844 -1.160156,-1.171875 z m -2.378906,-0.445313 c 0.05859,-0.421875 0.328125,-0.996094 0.949219,-0.996094 0.691406,0 0.855468,0.609375 0.855468,0.996094 z m 5.475586,-2.941406 v 2.027344 h -0.02344 c -0.152344,-0.28125 -0.503906,-0.527344 -1.019531,-0.527344 -0.820313,0 -1.523438,0.703125 -1.511719,1.828125 0,1.019531 0.621094,1.7226561 1.441406,1.7226561 0.550782,0 0.972657,-0.2929691 1.160157,-0.6679691 h 0.01172 l 0.02344,0.585938 h 0.5625 c -0.02344,-0.234375 -0.03516,-0.574219 -0.03516,-0.878906 v -4.089844 z m 0,3.550781 c 0,0.09375 -0.01172,0.175781 -0.03516,0.257813 -0.105468,0.46875 -0.492187,0.738281 -0.902343,0.738281 -0.667969,0 -0.996094,-0.5625 -0.996094,-1.253906 0,-0.75 0.375,-1.300782 1.007812,-1.300782 0.46875,0 0.796875,0.316407 0.890625,0.714844 0.02344,0.07031 0.03516,0.175781 0.03516,0.257813 z m 5.43164,-3.550781 v 2.027344 h -0.02344 c -0.152344,-0.28125 -0.503906,-0.527344 -1.019531,-0.527344 -0.820313,0 -1.523438,0.703125 -1.511719,1.828125 0,1.019531 0.621094,1.7226561 1.441406,1.7226561 0.550781,0 0.972656,-0.2929691 1.160156,-0.6679691 h 0.01172 l 0.02344,0.585938 h 0.5625 c -0.02344,-0.234375 -0.03516,-0.574219 -0.03516,-0.878906 v -4.089844 z m 0,3.550781 c 0,0.09375 -0.01172,0.175781 -0.03516,0.257813 -0.105469,0.46875 -0.492187,0.738281 -0.902344,0.738281 -0.667968,0 -0.996093,-0.5625 -0.996093,-1.253906 0,-0.75 0.375,-1.300782 1.007812,-1.300782 0.46875,0 0.796875,0.316407 0.890625,0.714844 0.02344,0.07031 0.03516,0.175781 0.03516,0.257813 z m 4.359375,-0.164062 c 0,-0.05859 0.02344,-0.164063 0.02344,-0.28125 0,-0.632813 -0.292969,-1.605469 -1.40625,-1.605469 -0.984375,0 -1.582031,0.808594 -1.582031,1.828125 0,1.019531 0.621093,1.710937 1.664062,1.710937 0.539063,0 0.902344,-0.117187 1.125,-0.210937 l -0.105469,-0.445313 c -0.234375,0.105469 -0.492187,0.175782 -0.9375,0.175782 -0.621093,0 -1.148437,-0.339844 -1.160156,-1.171875 z m -2.378906,-0.445313 c 0.05859,-0.421875 0.328125,-0.996094 0.949219,-0.996094 0.691406,0 0.855469,0.609375 0.855469,0.996094 z m 3.307617,-2.167969 v 0.808594 h -0.527343 v 0.46875 h 0.527343 v 1.851563 c 0,0.398437 0.05859,0.691406 0.234375,0.878906 0.140625,0.164062 0.375,0.257812 0.667969,0.257812 0.234375,0 0.421875,-0.03516 0.539063,-0.08203 l -0.02344,-0.46875 c -0.08203,0.02344 -0.199219,0.04687 -0.363281,0.04687 -0.339844,0 -0.457031,-0.234375 -0.457031,-0.65625 v -1.828125 h 0.878906 v -0.46875 h -0.878906 v -0.972656 z m 2.176758,4.195313 h 0.609375 v -1.804688 c 0,-0.105468 0.01172,-0.199218 0.02344,-0.292968 0.08203,-0.457032 0.386718,-0.785157 0.820312,-0.785157 0.09375,0 0.152344,0.01172 0.210938,0.02344 v -0.585938 c -0.05859,-0.01172 -0.105469,-0.02344 -0.175782,-0.02344 -0.410156,0 -0.785156,0.292969 -0.9375,0.75 h -0.02344 l -0.02344,-0.667969 h -0.539062 c 0.02344,0.316406 0.03516,0.65625 0.03516,1.054688 z m 2.897461,0 v -3.386719 H 37.13265 v 3.386719 z m -0.304687,-4.722656 c -0.222657,0 -0.386719,0.164062 -0.386719,0.386718 0,0.210938 0.152344,0.375 0.375,0.375 0.246094,0 0.398437,-0.164062 0.386719,-0.375 0,-0.222656 -0.140625,-0.386718 -0.375,-0.386718 z m 1.473632,0.527343 v 0.808594 h -0.527343 v 0.46875 h 0.527343 v 1.851563 c 0,0.398437 0.05859,0.691406 0.234375,0.878906 0.140625,0.164062 0.375,0.257812 0.667969,0.257812 0.234375,0 0.421875,-0.03516 0.539063,-0.08203 l -0.02344,-0.46875 c -0.08203,0.02344 -0.199219,0.04687 -0.363281,0.04687 -0.339844,0 -0.457031,-0.234375 -0.457031,-0.65625 v -1.828125 h 0.878906 v -0.46875 h -0.878906 v -0.972656 z m 5.000977,0.808594 h -0.609375 v 2.074219 c 0,0.117187 -0.02344,0.222656 -0.05859,0.316406 -0.105469,0.28125 -0.398437,0.5625 -0.808594,0.5625 -0.5625,0 -0.761718,-0.433594 -0.761718,-1.078125 v -1.875 h -0.609375 v 1.980469 c 0,1.183594 0.632812,1.4882811 1.160156,1.4882811 0.609375,0 0.960937,-0.3632811 1.125,-0.6328121 h 0.01172 l 0.03516,0.550781 h 0.550781 c -0.02344,-0.269531 -0.03516,-0.574219 -0.03516,-0.925781 z m 0.785156,3.222656 c 0.246094,0.140625 0.585938,0.234375 0.949219,0.234375 0.808594,0 1.277344,-0.421875 1.277344,-1.019531 0,-0.503906 -0.304688,-0.796875 -0.890625,-1.019531 -0.445313,-0.164063 -0.644532,-0.292969 -0.644532,-0.574219 0,-0.246094 0.199219,-0.457031 0.5625,-0.457031 0.316407,0 0.5625,0.105469 0.691407,0.199219 l 0.152343,-0.457032 c -0.1875,-0.105468 -0.480468,-0.210937 -0.832031,-0.210937 -0.726562,0 -1.160156,0.457031 -1.160156,0.996094 0,0.410156 0.28125,0.75 0.890625,0.960937 0.457031,0.164063 0.632812,0.328125 0.632812,0.621094 0,0.28125 -0.210937,0.503906 -0.65625,0.503906 -0.316406,0 -0.632812,-0.128906 -0.820312,-0.246094 z m 0,0"
       style="fill:#231f20;fill-opacity:1;fill-rule:nonzero;stroke:none"
       aria-label="C production&#10;Ice-rafted detritus"
       transform="matrix(1.3333333,0,0,1.3333333,191.3648,154.34347)" />
    <path
       id="path31"
       d="M 4.6281172,-0.00119062 H 5.2140547 L 4.9210859,-4.7121281 H 4.1476484 l -0.84375,2.2734375 c -0.2109375,0.5976562 -0.375,1.1132812 -0.4921875,1.59374998 H 2.7882734 C 2.6710859,-1.3371281 2.5070234,-1.8527531 2.3195234,-2.4386906 L 1.5109297,-4.7121281 H 0.73749219 l -0.328125,4.71093748 H 0.98358594 L 1.1124922,-2.0285344 c 0.046875,-0.703125 0.070312,-1.4882812 0.09375,-2.0742187 h 0.011719 c 0.1289063,0.5507812 0.3164063,1.1601562 0.5390625,1.828125 l 0.7734375,2.24999998 h 0.457031 L 3.8195234,-2.3215031 c 0.234375,-0.6445313 0.4335938,-1.2304688 0.5976563,-1.78125 h 0.011719 c 0,0.5859375 0.035156,1.3710937 0.070312,2.0273437 z M 7.6163984,-3.4699406 c -0.9375,0 -1.6757812,0.6679687 -1.6757812,1.8046875 0,1.06640623 0.703125,1.74609373 1.6171875,1.74609373 0.8203125,0 1.6875,-0.55078125 1.6875,-1.80468753 0,-1.03125 -0.65625,-1.7460937 -1.6289063,-1.7460937 z m -0.011719,0.46875 c 0.7265625,0 1.0078125,0.7265625 1.0078125,1.3007812 0,0.76171878 -0.4335938,1.31250003 -1.0195313,1.31250003 -0.609375,0 -1.03125,-0.5625 -1.03125,-1.30078123 0,-0.6445313 0.3164063,-1.3125 1.0429688,-1.3125 z m 2.4228516,2.99999998 h 0.609375 V -1.8058781 c 0,-0.1054688 0.01172,-0.1992188 0.02344,-0.2929688 0.08203,-0.4570312 0.386719,-0.7851562 0.820312,-0.7851562 0.09375,0 0.152344,0.011719 0.210938,0.023437 v -0.5859375 c -0.05859,-0.011719 -0.105469,-0.023437 -0.175781,-0.023437 -0.410157,0 -0.785157,0.2929687 -0.9375,0.75 h -0.02344 l -0.02344,-0.6679688 h -0.53906 c 0.023438,0.3164063 0.035156,0.65625 0.035156,1.0546875 z m 4.97461,-1.58203128 c 0,-0.058594 0.02344,-0.1640625 0.02344,-0.28125 0,-0.6328125 -0.292969,-1.6054687 -1.40625,-1.6054687 -0.984375,0 -1.582031,0.8085937 -1.582031,1.828125 0,1.01953123 0.621094,1.71093748 1.664062,1.71093748 0.539063,0 0.902344,-0.1171875 1.125,-0.2109375 l -0.105468,-0.4453125 c -0.234375,0.10546875 -0.492188,0.17578125 -0.9375,0.17578125 -0.621094,0 -1.148438,-0.33984375 -1.160157,-1.17187503 z m -2.378907,-0.4453125 c 0.05859,-0.421875 0.328125,-0.9960937 0.949219,-0.9960937 0.691406,0 0.855469,0.609375 0.855469,0.9960937 z m 5.188477,2.02734378 V -3.3879094 h -0.609375 v 3.38671878 z M 17.507023,-4.7238469 c -0.222656,0 -0.386718,0.1640625 -0.386718,0.3867188 0,0.2109375 0.152343,0.375 0.375,0.375 0.246093,0 0.398437,-0.1640625 0.386718,-0.375 0,-0.2226563 -0.140625,-0.3867188 -0.375,-0.3867188 z m 3.609375,4.13671878 c -0.175781,0.0703125 -0.410156,0.1640625 -0.761718,0.1640625 -0.667969,0 -1.171875,-0.48046875 -1.171875,-1.26562498 0,-0.703125 0.421875,-1.2773438 1.195312,-1.2773438 0.339844,0 0.5625,0.070312 0.714844,0.1640625 l 0.140625,-0.4804687 c -0.175781,-0.082031 -0.492188,-0.1757813 -0.855469,-0.1757813 -1.101562,0 -1.816406,0.7617188 -1.816406,1.8046875 0,1.03125003 0.65625,1.72265628 1.6875,1.72265628 0.445312,0 0.808594,-0.1171875 0.972656,-0.19921875 z m 3.574219,-0.99609378 c 0,-0.058594 0.02344,-0.1640625 0.02344,-0.28125 0,-0.6328125 -0.292969,-1.6054687 -1.40625,-1.6054687 -0.984375,0 -1.582032,0.8085937 -1.582032,1.828125 0,1.01953123 0.621094,1.71093748 1.664063,1.71093748 0.539062,0 0.902344,-0.1171875 1.125,-0.2109375 l -0.105469,-0.4453125 c -0.234375,0.10546875 -0.492187,0.17578125 -0.9375,0.17578125 -0.621094,0 -1.148437,-0.33984375 -1.160156,-1.17187503 z m -2.378906,-0.4453125 c 0.05859,-0.421875 0.328125,-0.9960937 0.949219,-0.9960937 0.691406,0 0.855468,0.609375 0.855468,0.9960937 z m 3.058594,-0.09375 v 0.4570313 h 1.722656 v -0.4570313 z m 2.452148,2.12109378 h 0.609375 V -1.8058781 c 0,-0.1054688 0.01172,-0.1992188 0.02344,-0.2929688 0.08203,-0.4570312 0.386718,-0.7851562 0.820312,-0.7851562 0.09375,0 0.152344,0.011719 0.210938,0.023437 v -0.5859375 c -0.05859,-0.011719 -0.105469,-0.023437 -0.175782,-0.023437 -0.410156,0 -0.785156,0.2929687 -0.9375,0.75 h -0.02344 l -0.02344,-0.6679688 h -0.539062 c 0.02344,0.3164063 0.03516,0.65625 0.03516,1.0546875 z m 4.678711,0 c -0.03516,-0.234375 -0.04687,-0.515625 -0.04687,-0.80859375 V -2.0754094 c 0,-0.6796875 -0.257812,-1.3945312 -1.289062,-1.3945312 -0.433594,0 -0.832032,0.1289062 -1.113282,0.3046875 l 0.140625,0.4101562 c 0.234375,-0.1523437 0.5625,-0.2578125 0.878907,-0.2578125 0.691406,0 0.773437,0.5039063 0.773437,0.7851563 v 0.070312 c -1.3125,0 -2.039062,0.4453125 -2.039062,1.26562498 0,0.48046875 0.351562,0.97265625 1.03125,0.97265625 0.480468,0 0.84375,-0.24609375 1.042968,-0.50390625 h 0.01172 l 0.05859,0.421875 z M 31.856633,-1.1379094 c 0,0.058594 -0.01172,0.1289063 -0.03516,0.18750003 -0.105469,0.29296875 -0.375,0.57421875 -0.820313,0.57421875 -0.316406,0 -0.585937,-0.1875 -0.585937,-0.5859375 0,-0.66796878 0.773437,-0.78515628 1.441406,-0.76171878 z m 2.261719,1.13671878 V -2.9191594 h 0.820312 v -0.46875 h -0.820312 v -0.1757812 c 0,-0.5273438 0.128906,-0.984375 0.65625,-0.984375 0.175781,0 0.304687,0.035156 0.386718,0.082031 l 0.09375,-0.4804687 c -0.128906,-0.046875 -0.316406,-0.09375 -0.527343,-0.09375 -0.292969,0 -0.597657,0.082031 -0.832032,0.3046875 -0.28125,0.28125 -0.386718,0.7148437 -0.386718,1.1835937 v 0.1640625 h -0.480469 v 0.46875 h 0.480469 v 2.91796878 z m 1.59375,-4.19531248 v 0.8085937 h -0.527344 v 0.46875 h 0.527344 v 1.8515625 c 0,0.39843753 0.05859,0.69140628 0.234375,0.87890628 0.140625,0.1640625 0.375,0.2578125 0.667968,0.2578125 0.234375,0 0.421875,-0.03515625 0.539063,-0.08203125 l -0.02344,-0.46875 c -0.08203,0.0234375 -0.199218,0.046875 -0.363281,0.046875 -0.339844,0 -0.457031,-0.234375 -0.457031,-0.65625003 v -1.828125 h 0.878906 v -0.46875 h -0.878906 v -0.9726562 z m 4.854492,2.6132812 c 0,-0.058594 0.02344,-0.1640625 0.02344,-0.28125 0,-0.6328125 -0.292968,-1.6054687 -1.40625,-1.6054687 -0.984375,0 -1.582031,0.8085937 -1.582031,1.828125 0,1.01953123 0.621094,1.71093748 1.664063,1.71093748 0.539062,0 0.902343,-0.1171875 1.125,-0.2109375 l -0.105469,-0.4453125 c -0.234375,0.10546875 -0.492188,0.17578125 -0.9375,0.17578125 -0.621094,0 -1.148438,-0.33984375 -1.160156,-1.17187503 z m -2.378906,-0.4453125 c 0.05859,-0.421875 0.328125,-0.9960937 0.949218,-0.9960937 0.691407,0 0.855469,0.609375 0.855469,0.9960937 z m 5.475585,-2.9414062 v 2.0273437 h -0.02344 c -0.152344,-0.28125 -0.503906,-0.5273437 -1.019531,-0.5273437 -0.820313,0 -1.523438,0.703125 -1.511719,1.828125 0,1.01953123 0.621094,1.72265623 1.441406,1.72265623 0.550781,0 0.972656,-0.29296875 1.160156,-0.66796875 h 0.01172 l 0.02344,0.5859375 h 0.5625 c -0.02344,-0.234375 -0.03516,-0.57421875 -0.03516,-0.87890625 V -4.9699406 Z m 0,3.5507812 c 0,0.09375 -0.01172,0.1757813 -0.03516,0.2578125 -0.105469,0.46875003 -0.492187,0.73828128 -0.902344,0.73828128 -0.667968,0 -0.996093,-0.5625 -0.996093,-1.25390628 0,-0.75 0.375,-1.3007812 1.007812,-1.3007812 0.46875,0 0.796875,0.3164062 0.890625,0.7148437 0.02344,0.070312 0.03516,0.1757813 0.03516,0.2578125 z m 5.431641,-3.5507812 v 2.0273437 h -0.02344 c -0.152344,-0.28125 -0.503907,-0.5273437 -1.019532,-0.5273437 -0.820312,0 -1.523437,0.703125 -1.511718,1.828125 0,1.01953123 0.621093,1.72265623 1.441406,1.72265623 0.550781,0 0.972656,-0.29296875 1.160156,-0.66796875 h 0.01172 l 0.02344,0.5859375 h 0.5625 c -0.02344,-0.234375 -0.03516,-0.57421875 -0.03516,-0.87890625 V -4.9699406 Z m 0,3.5507812 c 0,0.09375 -0.01172,0.1757813 -0.03516,0.2578125 -0.105469,0.46875003 -0.492188,0.73828128 -0.902344,0.73828128 -0.667969,0 -0.996094,-0.5625 -0.996094,-1.25390628 0,-0.75 0.375,-1.3007812 1.007813,-1.3007812 0.46875,0 0.796875,0.3164062 0.890625,0.7148437 0.02344,0.070312 0.03516,0.1757813 0.03516,0.2578125 z m 4.356445,-0.1640625 c 0,-0.058594 0.02344,-0.1640625 0.02344,-0.28125 0,-0.6328125 -0.292969,-1.6054687 -1.40625,-1.6054687 -0.984375,0 -1.582031,0.8085937 -1.582031,1.828125 0,1.01953123 0.621093,1.71093748 1.664062,1.71093748 0.539063,0 0.902344,-0.1171875 1.125,-0.2109375 l -0.105469,-0.4453125 c -0.234375,0.10546875 -0.492187,0.17578125 -0.9375,0.17578125 -0.621093,0 -1.148437,-0.33984375 -1.160156,-1.17187503 z m -2.378906,-0.4453125 c 0.05859,-0.421875 0.328125,-0.9960937 0.949219,-0.9960937 0.691406,0 0.855469,0.609375 0.855469,0.9960937 z m 3.307617,-2.1679687 v 0.8085937 h -0.527343 v 0.46875 h 0.527343 v 1.8515625 c 0,0.39843753 0.05859,0.69140628 0.234375,0.87890628 0.140625,0.1640625 0.375,0.2578125 0.667969,0.2578125 0.234375,0 0.421875,-0.03515625 0.539063,-0.08203125 l -0.02344,-0.46875 c -0.08203,0.0234375 -0.199219,0.046875 -0.363281,0.046875 -0.339844,0 -0.457031,-0.234375 -0.457031,-0.65625003 v -1.828125 h 0.878906 v -0.46875 h -0.878906 v -0.9726562 z m 2.176758,4.19531248 h 0.609375 V -1.8058781 c 0,-0.1054688 0.01172,-0.1992188 0.02344,-0.2929688 0.08203,-0.4570312 0.386718,-0.7851562 0.820312,-0.7851562 0.09375,0 0.152344,0.011719 0.210938,0.023437 v -0.5859375 c -0.05859,-0.011719 -0.105469,-0.023437 -0.175782,-0.023437 -0.410156,0 -0.785156,0.2929687 -0.9375,0.75 h -0.02344 l -0.02344,-0.6679688 h -0.539062 c 0.02344,0.3164063 0.03516,0.65625 0.03516,1.0546875 z m 2.900391,0 V -3.3879094 h -0.609375 v 3.38671878 z M 59.152531,-4.7238469 c -0.222656,0 -0.386718,0.1640625 -0.386718,0.3867188 0,0.2109375 0.152343,0.375 0.375,0.375 0.246093,0 0.398437,-0.1640625 0.386718,-0.375 0,-0.2226563 -0.140625,-0.3867188 -0.375,-0.3867188 z m 1.473633,0.5273438 v 0.8085937 H 60.09882 v 0.46875 h 0.527344 v 1.8515625 c 0,0.39843753 0.05859,0.69140628 0.234375,0.87890628 0.140625,0.1640625 0.375,0.2578125 0.667969,0.2578125 0.234375,0 0.421875,-0.03515625 0.539062,-0.08203125 l -0.02344,-0.46875 c -0.08203,0.0234375 -0.199219,0.046875 -0.363281,0.046875 -0.339844,0 -0.457032,-0.234375 -0.457032,-0.65625003 v -1.828125 h 0.878907 v -0.46875 H 61.22382 v -0.9726562 z m 5.000977,0.8085937 h -0.609375 v 2.0742188 c 0,0.1171875 -0.02344,0.2226562 -0.05859,0.31640623 -0.105469,0.28125 -0.398438,0.5625 -0.808594,0.5625 -0.5625,0 -0.761719,-0.43359375 -0.761719,-1.07812503 v -1.875 h -0.609375 v 1.9804688 c 0,1.18359373 0.632813,1.48828123 1.160157,1.48828123 0.609375,0 0.960937,-0.36328125 1.125,-0.6328125 h 0.01172 l 0.03516,0.55078125 h 0.550781 c -0.02344,-0.26953125 -0.03516,-0.57421875 -0.03516,-0.92578125 z m 0.785156,3.22265628 c 0.246094,0.140625 0.585937,0.234375 0.949219,0.234375 0.808593,0 1.277343,-0.421875 1.277343,-1.01953125 0,-0.50390623 -0.304687,-0.79687503 -0.890625,-1.01953123 -0.445312,-0.1640625 -0.644531,-0.2929688 -0.644531,-0.5742188 0,-0.2460937 0.199219,-0.4570312 0.5625,-0.4570312 0.316406,0 0.5625,0.1054687 0.691406,0.1992187 l 0.152344,-0.4570312 c -0.1875,-0.1054688 -0.480469,-0.2109375 -0.832031,-0.2109375 -0.726563,0 -1.160156,0.4570312 -1.160156,0.9960937 0,0.4101563 0.28125,0.75 0.890625,0.9609375 0.457031,0.1640625 0.632812,0.328125 0.632812,0.62109378 0,0.28125 -0.210937,0.50390625 -0.65625,0.50390625 -0.316406,0 -0.632812,-0.12890625 -0.820312,-0.24609375 z m 5.34668,-4.68749998 c -0.433594,0.5859375 -0.902344,1.4765625 -0.914063,2.859375 0,1.35937498 0.480469,2.26171873 0.914063,2.83593748 h 0.492187 c -0.503906,-0.69140625 -0.890625,-1.59375 -0.890625,-2.83593748 0,-1.265625 0.375,-2.1796875 0.890625,-2.859375 z m 1.939453,0.2226562 c -0.609375,0 -1.101563,0.515625 -1.101563,1.4296875 0.01172,0.9140625 0.492188,1.3710938 1.066406,1.3710938 0.585938,0 1.089844,-0.4804688 1.089844,-1.4414063 0,-0.8671875 -0.421875,-1.359375 -1.054687,-1.359375 z m -0.02344,0.375 c 0.421875,0 0.585938,0.4570313 0.585938,1.0195313 0,0.5976562 -0.1875,1.03125 -0.585938,1.03125 -0.386719,0 -0.597656,-0.4453125 -0.585937,-1.0195313 0,-0.5742187 0.199218,-1.03125 0.585937,-1.03125 z m 0.339844,4.33593753 2.671875,-4.71093753 h -0.398438 l -2.671875,4.71093753 z m 2.648437,-2.82421873 c -0.609375,0 -1.101562,0.515625 -1.101562,1.4296875 0.01172,0.90234373 0.492187,1.35937498 1.066406,1.35937498 0.574219,0 1.078125,-0.46875 1.078125,-1.42968748 0,-0.8671875 -0.410156,-1.359375 -1.042969,-1.359375 z m -0.02344,0.375 c 0.421875,0 0.585937,0.4570312 0.585937,1.0078125 0,0.60937498 -0.175781,1.04296873 -0.585937,1.04296873 -0.375,0 -0.597656,-0.4453125 -0.597656,-1.03125003 0,-0.5742187 0.210937,-1.0195312 0.597656,-1.0195312 z m 1.913086,3.21093748 c 0.445312,-0.59765625 0.914062,-1.4765625 0.914062,-2.84765628 0,-1.3828125 -0.46875,-2.2734375 -0.914062,-2.8476562 h -0.480469 c 0.503906,0.6914062 0.878906,1.5820312 0.878906,2.8359375 0,1.26562498 -0.386718,2.16796873 -0.878906,2.85937498 z m 0,0"
       style="fill:#231f20;fill-opacity:1;fill-rule:nonzero;stroke:none"
       aria-label="Mo&#10;re ic&#10;e-&#10;ra&#10;ft&#10;ed detritus (%)"
       transform="matrix(0,-1.3333333,1.3333333,0,129.6344,254.51067)"
       clip-path="url(#clipPath32)" />
    <path
       id="path33"
       d="M 0,0 V 7.695"
       style="fill:none;stroke:#231f20;stroke-width:0.5;stroke-linecap:butt;stroke-linejoin:miter;stroke-miterlimit:10;stroke-dasharray:none;stroke-opacity:1"
       transform="matrix(1.3333333,0,0,-1.3333333,126.5504,145.38707)"
       clip-path="url(#clipPath34)" />
    <path
       id="path35"
       d="M 0,0 1.423,-3.482 0,-2.656 -1.422,-3.482 Z"
       style="fill:#231f20;fill-opacity:1;fill-rule:nonzero;stroke:none"
       transform="matrix(1.3333333,0,0,-1.3333333,126.5504,131.83173)"
       clip-path="url(#clipPath36)" />
    <path
       id="path37"
       d="M 0.52856094,-0.01170625 C 0.84496719,0.02345 1.2082484,0.0468875 1.6418422,0.0468875 c 0.9140625,0 1.640625,-0.24609375 2.0859375,-0.6796875 0.4335937,-0.4335938 0.6796875,-1.0664063 0.6796875,-1.8398438 0,-0.7617187 -0.2460938,-1.3007812 -0.6679688,-1.6875 -0.4101562,-0.3867187 -1.0429687,-0.5859375 -1.9101562,-0.5859375 -0.4804688,0 -0.92578126,0.035156 -1.30078126,0.09375 z M 1.1379359,-4.2070188 c 0.1640625,-0.035156 0.3984375,-0.058594 0.7148438,-0.058594 1.2890625,0 1.921875,0.703125 1.9101562,1.8164062 0,1.2773438 -0.703125,2.0039063 -2.0039062,2.0039063 -0.234375,0 -0.46875,-0.0117188 -0.6210938,-0.0351563 z M 5.78735,1.25e-5 V -3.3867063 H 5.177975 V 1.25e-5 Z M 5.4826625,-4.7226438 c -0.2226562,0 -0.3867187,0.1640625 -0.3867187,0.3867188 0,0.2109375 0.1523437,0.375 0.375,0.375 0.2460937,0 0.3984375,-0.1640625 0.3867187,-0.375 0,-0.2226563 -0.140625,-0.3867188 -0.375,-0.3867188 z M 6.8156703,1.25e-5 H 7.4133266 V -2.03905 c 0,-0.1054688 0.011719,-0.2109375 0.046875,-0.3046875 0.09375,-0.3046875 0.375,-0.6210938 0.7617187,-0.6210938 0.46875,0 0.703125,0.3984375 0.703125,0.9375 V 1.25e-5 h 0.609375 v -2.0976563 c 0,-0.1054687 0.023437,-0.2226562 0.046875,-0.3046875 0.1054688,-0.2929687 0.375,-0.5625 0.7265627,-0.5625 0.492187,0 0.738281,0.3984375 0.738281,1.0429688 V 1.25e-5 h 0.597656 V -1.992175 c 0,-1.171875 -0.667968,-1.4765625 -1.113281,-1.4765625 -0.316406,0 -0.5390624,0.09375 -0.7499999,0.2460937 -0.140625,0.1054688 -0.2695313,0.2460938 -0.375,0.4335938 H 9.3937953 C 9.2414516,-3.1874875 8.8898891,-3.4687375 8.4328578,-3.4687375 c -0.5625,0 -0.8789062,0.3046875 -1.0664062,0.6328125 H 7.3547328 L 7.3195766,-3.3867063 H 6.7805141 c 0.023437,0.28125 0.035156,0.5625 0.035156,0.9140625 z m 5.8388677,0 h 0.597656 V -2.03905 c 0,-0.1054688 0.01172,-0.2109375 0.04687,-0.3046875 0.09375,-0.3046875 0.375,-0.6210938 0.761719,-0.6210938 0.46875,0 0.703125,0.3984375 0.703125,0.9375 V 1.25e-5 h 0.609375 v -2.0976563 c 0,-0.1054687 0.02344,-0.2226562 0.04687,-0.3046875 0.105468,-0.2929687 0.375,-0.5625 0.726562,-0.5625 0.492188,0 0.738281,0.3984375 0.738281,1.0429688 V 1.25e-5 h 0.597657 V -1.992175 c 0,-1.171875 -0.667969,-1.4765625 -1.113282,-1.4765625 -0.316406,0 -0.539062,0.09375 -0.75,0.2460937 -0.140625,0.1054688 -0.269531,0.2460938 -0.375,0.4335938 h -0.01172 c -0.152344,-0.3984375 -0.503907,-0.6796875 -0.960938,-0.6796875 -0.5625,0 -0.878906,0.3046875 -1.066406,0.6328125 H 13.1936 l -0.03516,-0.5507813 h -0.539063 c 0.02344,0.28125 0.03516,0.5625 0.03516,0.9140625 z m 8.554687,-1.5820313 c 0,-0.058594 0.02344,-0.1640625 0.02344,-0.28125 0,-0.6328125 -0.292969,-1.6054687 -1.40625,-1.6054687 -0.984375,0 -1.582032,0.8085937 -1.582032,1.828125 0,1.01953125 0.621094,1.7109375 1.664063,1.7109375 0.539062,0 0.902344,-0.1171875 1.125,-0.2109375 L 20.927975,-0.585925 c -0.234375,0.10546875 -0.492187,0.17578125 -0.9375,0.17578125 -0.621094,0 -1.148437,-0.33984375 -1.160156,-1.17187505 z m -2.378906,-0.4453125 c 0.05859,-0.421875 0.328125,-0.9960937 0.949219,-0.9960937 0.691406,0 0.855468,0.609375 0.855468,0.9960937 z M 21.997311,1.25e-5 h 0.609375 V -1.804675 c 0,-0.1054688 0.01172,-0.1992188 0.02344,-0.2929688 0.08203,-0.4570312 0.386719,-0.7851562 0.820313,-0.7851562 0.09375,0 0.152344,0.011719 0.210937,0.023437 V -3.4453 c -0.05859,-0.011719 -0.105468,-0.023437 -0.175781,-0.023437 -0.410156,0 -0.785156,0.2929687 -0.9375,0.75 h -0.02344 l -0.02344,-0.6679688 h -0.539062 c 0.02344,0.3164063 0.03516,0.65625 0.03516,1.0546875 z M 25.524655,-0.16405 c 0.246093,0.140625 0.585937,0.234375 0.949218,0.234375 0.808594,0 1.277344,-0.421875 1.277344,-1.01953125 0,-0.50390625 -0.304687,-0.79687505 -0.890625,-1.01953125 -0.445312,-0.1640625 -0.644531,-0.2929688 -0.644531,-0.5742188 0,-0.2460937 0.199219,-0.4570312 0.5625,-0.4570312 0.316406,0 0.5625,0.1054687 0.691406,0.1992187 L 27.622311,-3.2578 c -0.1875,-0.1054688 -0.480469,-0.2109375 -0.832031,-0.2109375 -0.726563,0 -1.160157,0.4570312 -1.160157,0.9960937 0,0.4101563 0.28125,0.75 0.890625,0.9609375 0.457032,0.1640625 0.632813,0.328125 0.632813,0.6210938 0,0.28125 -0.210938,0.50390625 -0.65625,0.50390625 -0.316406,0 -0.632813,-0.12890625 -0.820313,-0.24609375 z m 5.841797,-3.2226563 h -0.609375 v 2.0742188 c 0,0.1171875 -0.02344,0.2226562 -0.05859,0.31640625 -0.105469,0.28125 -0.398438,0.5625 -0.808594,0.5625 -0.5625,0 -0.761719,-0.43359375 -0.761719,-1.07812505 v -1.875 h -0.609375 v 1.9804688 c 0,1.18359375 0.632813,1.48828125 1.160157,1.48828125 0.609375,0 0.960937,-0.36328125 1.125,-0.6328125 h 0.01172 L 30.850827,1.25e-5 h 0.550781 c -0.02344,-0.26953125 -0.03516,-0.57421875 -0.03516,-0.92578125 z M 32.400631,1.25e-5 h 0.609375 V -2.03905 c 0,-0.1054688 0.01172,-0.2109375 0.04687,-0.28125 0.105469,-0.3398438 0.421875,-0.6328125 0.820313,-0.6328125 0.585937,0 0.785156,0.4570312 0.785156,0.9960937 V 1.25e-5 h 0.621094 v -2.0273438 c 0,-1.1601562 -0.738281,-1.4414062 -1.207031,-1.4414062 -0.550782,0 -0.949219,0.3164062 -1.113282,0.6445312 h -0.01172 l -0.03516,-0.5625 h -0.550781 c 0.02344,0.28125 0.03516,0.5625 0.03516,0.9140625 z m 0,0"
       style="fill:#231f20;fill-opacity:1;fill-rule:nonzero;stroke:none"
       aria-label="Dimmer sun"
       transform="matrix(0,-1.3333333,1.3333333,0,435.84373,225.34147)"
       clip-path="url(#clipPath38)" />
    <path
       id="path39"
       d="M 0,0 V 7.695"
       style="fill:none;stroke:#231f20;stroke-width:0.5;stroke-linecap:butt;stroke-linejoin:miter;stroke-miterlimit:10;stroke-dasharray:none;stroke-opacity:1"
       transform="matrix(1.3333333,0,0,-1.3333333,433.66107,174.55707)"
       clip-path="url(#clipPath40)" />
    <path
       id="path41"
       d="M 0,0 1.423,-3.482 0,-2.656 -1.422,-3.482 Z"
       style="fill:#231f20;fill-opacity:1;fill-rule:nonzero;stroke:none"
       transform="matrix(1.3333333,0,0,-1.3333333,433.66107,161.00173)"
       clip-path="url(#clipPath42)" />
    <g
       id="g52" />
    <g
       id="g53" />
    <g
       id="g54" />
  </g>
</svg>
