<?xml version="1.0" encoding="UTF-8" standalone="no"?>
<!-- Created with Inkscape (http://www.inkscape.org/) -->

<svg
   width="153.44963mm"
   height="154.45155mm"
   viewBox="0 0 153.44963 154.45156"
   version="1.1"
   id="svg5"
   xml:space="preserve"
   inkscape:version="1.3.2 (091e20e, 2023-11-25)"
   sodipodi:docname="earth-layers.svg"
   inkscape:export-filename="earth-layers.png"
   inkscape:export-xdpi="360"
   inkscape:export-ydpi="360"
   xmlns:inkscape="http://www.inkscape.org/namespaces/inkscape"
   xmlns:sodipodi="http://sodipodi.sourceforge.net/DTD/sodipodi-0.dtd"
   xmlns:xlink="http://www.w3.org/1999/xlink"
   xmlns="http://www.w3.org/2000/svg"
   xmlns:svg="http://www.w3.org/2000/svg"><sodipodi:namedview
     id="namedview7"
     pagecolor="#505050"
     bordercolor="#eeeeee"
     borderopacity="1"
     inkscape:showpageshadow="0"
     inkscape:pageopacity="0"
     inkscape:pagecheckerboard="0"
     inkscape:deskcolor="#505050"
     inkscape:document-units="mm"
     showgrid="false"
     inkscape:zoom="0.99442097"
     inkscape:cx="344.42154"
     inkscape:cy="289.61578"
     inkscape:window-width="1512"
     inkscape:window-height="863"
     inkscape:window-x="0"
     inkscape:window-y="83"
     inkscape:window-maximized="0"
     inkscape:current-layer="layer3" /><defs
     id="defs2"><linearGradient
       inkscape:collect="always"
       id="linearGradient1164"><stop
         style="stop-color:#4bb9e2;stop-opacity:1;"
         offset="0.67850798"
         id="stop1160" /><stop
         style="stop-color:#62b4cb;stop-opacity:0;"
         offset="1"
         id="stop1162" /></linearGradient><rect
       x="149.7276"
       y="640.26111"
       width="0"
       height="72.163727"
       id="rect25563" /><rect
       x="155.5536"
       y="292.57864"
       width="171.40247"
       height="502.21555"
       id="rect25093" /><rect
       x="77.878006"
       y="256.42758"
       width="715.82275"
       height="150.05762"
       id="rect25087" /><radialGradient
       inkscape:collect="always"
       xlink:href="#linearGradient1164"
       id="radialGradient1166"
       cx="136.65742"
       cy="133.16045"
       fx="136.65742"
       fy="133.16045"
       r="77.139038"
       gradientTransform="matrix(1,0,0,1.0064943,0,-0.86477912)"
       gradientUnits="userSpaceOnUse" /><rect
       x="155.5536"
       y="292.57864"
       width="193.52589"
       height="59.747002"
       id="rect25093-9" /></defs><g
     inkscape:groupmode="layer"
     id="layer2"
     inkscape:label="diagram"
     transform="translate(-5.4274296,7.4247415)"><g
       inkscape:groupmode="layer"
       id="layer3"
       inkscape:label="surface"
       transform="translate(-54.50518,-63.359411)"><ellipse
         style="display:inline;fill:url(#radialGradient1166);fill-opacity:1;stroke:none;stroke-width:0.828448;stroke-linecap:round;stroke-dasharray:none;stroke-opacity:1"
         id="path470-2-7"
         cx="136.65742"
         cy="133.16045"
         rx="76.724815"
         ry="77.225777"
         inkscape:label="atmosphere" /><ellipse
         style="display:inline;fill:#4789e0;fill-opacity:1;stroke:none;stroke-width:0;stroke-linecap:round;stroke-dasharray:none"
         id="path470"
         cx="136.65742"
         cy="133.16045"
         rx="68.794731"
         ry="69.429626" /><path
         style="fill:#187639;fill-opacity:1;stroke:none;stroke-width:0.625374;stroke-linecap:round"
         d="m 164.96774,91.38327 c 0,0 1.18194,-2.24962 1.26138,-2.72627 0.0794,-0.47665 0.0794,-2.46271 0.0794,-3.01881 0,-0.5561 0.39721,0.47665 -0.63554,-2.38326 -1.03273,-2.85992 -2.4616,-1.41208 0.23945,-3.63645 2.70102,-2.22438 3.0035,0.0615 3.8121,0.14107 0.80861,0.0794 1.30883,0.5561 2.24325,0.47668 0.93444,-0.0794 1.64943,1.90661 2.12608,2.06548 0.47665,0.15897 1.03275,0.63554 1.66828,0.23833 0.63554,-0.3972 1.11219,-0.79441 1.27108,-1.74774 0.15877,-0.9533 -1.08175,-0.0794 0.39721,-1.27106 1.47896,-1.19164 2.14387,-0.66604 2.39217,-0.4637 0.2483,0.20233 9.79268,9.71954 9.79268,9.71954 l 7.65763,11.4511 c 0,0 0.70197,1.34243 0.94269,1.83287 0.24072,0.49047 -1.00407,2.96112 -2.03682,3.35832 -1.03275,0.39721 -1.82717,-0.47665 -2.14495,0.95331 -0.31776,1.42996 -0.25798,1.44788 0.37756,1.60677 1.87166,0.56079 1.20929,1.06779 0.53388,2.29927 -0.63554,1.11217 -2.73962,1.25392 -2.89849,0.9361 -0.15897,-0.31778 -0.95231,-0.7112 -1.50839,-1.18785 -0.5561,-0.47666 -1.82719,-1.1122 -2.14495,-0.71499 -0.31776,0.3972 -1.19164,1.03275 -0.87386,1.98605 0.31776,0.95331 0.71497,1.42996 0.23832,2.14493 -0.47665,0.71499 -1.27107,1.03275 -1.42996,1.58885 -0.15898,0.5561 -0.95331,2.14495 -0.79441,2.85992 0.15897,0.71499 0.55609,1.90661 0.15897,2.54215 -0.39721,0.63554 -2.70104,2.78047 -2.70104,2.78047 0,0 -0.95331,0.23834 -1.58883,0.31776 -0.63555,0.0794 -2.0655,-0.15876 -2.85992,-0.23831 -0.79443,-0.0794 -2.22439,-0.23832 -2.78049,-0.15898 -0.55608,0.0794 -1.82717,0.39721 -1.82717,0.39721 0,0 -3.3602,0.74034 -2.66369,0.56879 0.6965,-0.17161 -0.0867,-1.35434 -0.0867,-1.35434 z"
         id="path538"
         sodipodi:nodetypes="csssssscscssccssscccssssccscscscscc" /><path
         style="fill:#187639;fill-opacity:1;stroke:none;stroke-width:0.625374;stroke-linecap:round"
         d="m 178.49506,149.48735 c -0.90534,0 -2.99459,0.975 -3.76066,2.50712 -0.76605,1.53212 -0.96982,0.83571 -1.32318,1.32318 -0.35339,0.4875 -2.50712,1.74107 -0.83573,2.22856 1.67141,0.4875 -0.69642,1.25355 -0.90534,1.53211 -0.20888,0.27857 -1.32321,2.6464 -1.32321,2.92498 0,0.27855 0.20888,1.32318 -0.27855,2.22854 -0.4875,0.90534 -2.22854,0 -3.20354,1.81068 -0.97499,1.8107 -0.48749,2.22856 0.13919,3.1339 0.62678,0.90534 0.90534,2.01962 1.25354,2.78567 0.34821,0.76607 0.20888,1.25355 1.25357,2.22854 1.04463,0.97499 1.32319,1.25357 1.46248,3.89995 0.13918,2.64641 -0.91568,3.69103 2.08409,4.66601 2.99977,0.97499 3.61649,2.1214 5.92473,2.29819 1.11011,0.0851 1.18689,0.4404 3.694,-1.16136 2.5071,-1.60178 1.25058,-0.0922 2.64342,-1.34575 1.39283,-1.25355 0.69642,-3.48209 0.0697,-4.8053 -0.62678,-1.3232 -1.25356,-2.29817 -0.76607,-3.13388 0.4875,-0.8357 0.41787,-0.76607 1.18392,-1.25356 0.76607,-0.48748 2.01962,-1.53213 2.1589,-2.43747 0.1394,-0.90534 0.55713,-1.3232 0.1394,-2.64638 -0.41787,-1.3232 -0.34823,-1.04465 -0.975,-2.43748 -0.62678,-1.39284 0.13919,-2.78568 0.27856,-3.13389 0.13939,-0.3482 0.76607,-1.18391 0.97499,-1.81069 0.20888,-0.62677 0.0697,-1.25355 -0.20888,-1.60176 -0.27857,-0.34821 -0.90534,0 -0.55713,-0.83571 0.34821,-0.8357 0.69642,-1.3232 0.62679,-1.8107 -0.0697,-0.48749 -0.69644,-1.25354 -0.975,-1.53212 -0.27857,-0.27855 -1.46249,-0.8357 -1.81069,-0.8357 -0.34821,0 -1.74105,0.0276 -2.01962,-0.48748 -0.27858,-0.5151 -0.69642,-1.3232 -0.97498,-1.74107 -0.27857,-0.41784 -1.3232,-0.97497 -2.01962,-0.8357 -0.69642,0.13918 -1.94998,0.27857 -1.94998,0.27857 z"
         id="path699"
         sodipodi:nodetypes="sssssssscsscsssssssccssssssssssccs" /><path
         style="fill:#187639;fill-opacity:1;stroke:none;stroke-width:0.625374;stroke-linecap:round"
         d="m 203.87012,130.4187 c -0.57676,0.0289 -3.0568,0.89395 -3.40284,1.58605 -0.34606,0.6921 -0.46141,0.63443 -0.40373,2.22049 0.0577,1.58607 -0.60558,1.98979 -0.9228,2.36468 -0.31721,0.37488 -0.83629,0.54792 -0.0577,1.64374 0.77862,1.09583 2.0763,1.61489 2.73956,1.70142 0.66327,0.0865 0.2736,-1.08064 1.55722,0.92279 1.28364,2.00345 1.26785,2.10498 1.26785,2.10498 0.35124,-2.27257 0.61339,-4.55899 0.72593,-6.83853 0.0939,-1.90095 0.063,-3.7933 0.0882,-5.7043 0,0 -0.66888,-0.28971 -1.13028,-0.11665 -0.46139,0.17309 -0.46139,0.11539 -0.46139,0.11539 z"
         id="path701"
         sodipodi:nodetypes="csssssscscscc" /></g><g
       inkscape:label="layers"
       inkscape:groupmode="layer"
       id="layer1"
       style="display:inline;stroke-width:1.00013;stroke-dasharray:none"
       transform="translate(-54.50518,-63.359411)"><path
         id="path6267-8"
         style="opacity:1;fill:#ac939d;stroke:none;stroke-width:2.11762;stroke-linecap:round;stroke-dasharray:none;stroke-opacity:1;paint-order:normal"
         d="m 171.53225,132.97475 c 0,38.44494 -14.14012,70.05123 -34.43923,69.61077 -38.30036,-0.83105 -69.364907,-31.1658 -69.364911,-69.61077 -4e-6,-38.44499 31.064545,-68.77975 69.364911,-69.61079 20.29913,-0.44044 34.43923,31.1658 34.43923,69.61079 z"
         sodipodi:nodetypes="sssss"
         inkscape:label="crust" /><path
         id="path6267-8-8"
         style="opacity:1;fill:#718d66;fill-opacity:1;stroke:none;stroke-width:2.10591;stroke-linecap:round;stroke-dasharray:none;stroke-opacity:1;paint-order:normal"
         d="m 170.71301,132.97475 c 0,36.93487 -12.98314,67.29967 -32.70258,66.8765 -37.20666,-0.7984 -67.384137,-29.94163 -67.384139,-66.87652 -4e-6,-36.93487 30.177469,-66.07811 67.384139,-66.8765 19.71946,-0.42315 32.70258,29.94165 32.70258,66.87652 z"
         sodipodi:nodetypes="sssss"
         inkscape:label="mantle" /><path
         id="path6267-8-7"
         style="opacity:1;fill:#999999;stroke:none;stroke-width:2.10591;stroke-linecap:round;stroke-dasharray:none"
         d="m 160.1949,132.97475 c 0,21.74403 -12.73145,39.37107 -20.62066,39.37107 -21.90911,0 -39.669933,-17.62704 -39.669935,-39.37107 -2e-6,-21.74405 17.766135,-38.88894 39.669935,-39.37107 7.88921,-0.17371 20.62066,17.62702 20.62066,39.37107 z"
         sodipodi:nodetypes="sssss"
         inkscape:label="outer core" /><path
         id="path6267-8-7-8"
         style="opacity:1;fill:#666666;stroke:none;stroke-width:2.10591;stroke-linecap:round;stroke-dasharray:none"
         d="m 147.46345,132.97475 c 0,8.57436 -6.44142,15.52525 -9.89335,15.52525 -8.63945,0 -15.6431,-6.95089 -15.6431,-15.52525 -1e-5,-8.57436 7.00563,-15.3401 15.6431,-15.52525 3.31149,-0.071 9.89335,6.95089 9.89335,15.52525 z"
         sodipodi:nodetypes="sssss"
         inkscape:label="innercore" /><path
         id="path6267-8-0"
         style="opacity:1;fill:#000000;fill-opacity:0.100616;stroke:none;stroke-width:0.744978;stroke-linecap:round;stroke-dasharray:none;stroke-opacity:0.599589"
         d="m 171.53225,132.97475 c 0,38.2416 -14.14012,69.68066 -34.43923,69.24254 0,-69.24254 0,-69.24254 0,-138.48508 20.29913,-0.43811 34.43923,31.00092 34.43923,69.24254 z"
         sodipodi:nodetypes="sccs"
         inkscape:label="shadow" /><path
         style="opacity:0.307102;fill:#6c535d;fill-opacity:0.100616;stroke:#000000;stroke-width:0.519975;stroke-dasharray:none;stroke-opacity:1"
         d="M 137.09302,63.73221 V 202.58552"
         id="path14416"
         inkscape:label="curve" /><ellipse
         style="display:inline;fill:none;fill-opacity:1;stroke:#ffffff;stroke-width:0.742822;stroke-linecap:round;stroke-dasharray:none;stroke-opacity:1"
         id="path470-2"
         cx="136.65742"
         cy="132.97475"
         rx="68.794731"
         ry="69.243919"
         inkscape:label="outline" /></g></g></svg>
