<?xml version="1.0" encoding="UTF-8" standalone="no"?>
<!-- Created with Inkscape (http://www.inkscape.org/) -->

<svg
   version="1.1"
   id="svg1"
   width="800.41333"
   height="349.76801"
   viewBox="0 0 800.41333 349.76801"
   sodipodi:docname="LR04-clean.svg"
   inkscape:version="1.3.2 (091e20e, 2023-11-25)"
   xmlns:inkscape="http://www.inkscape.org/namespaces/inkscape"
   xmlns:sodipodi="http://sodipodi.sourceforge.net/DTD/sodipodi-0.dtd"
   xmlns="http://www.w3.org/2000/svg"
   xmlns:svg="http://www.w3.org/2000/svg">
  <defs
     id="defs1">
    <rect
       x="386.10737"
       y="358.43925"
       width="149.30422"
       height="38.313595"
       id="rect54" />
    <mask
       maskUnits="userSpaceOnUse"
       x="0"
       y="0"
       width="1"
       height="1"
       id="mask2">
      <path
         id="path3"
         d="m 61.885,249.166 h 533.4 V 44.194 h -533.4 z"
         style="fill:#231f20;fill-opacity:1;fill-rule:nonzero;stroke:none"
         transform="matrix(1.3333333,0,0,-1.3333333,0,349.768)"
         clip-path="url(#clipPath4)" />
      <g
         id="g7"
         clip-path="url(#clipPath8)">
        <path
           d="m 61.885,249.166 h 533.4 V 44.194 h -533.4 z"
           style="fill:#100f0d;fill-opacity:1;fill-rule:nonzero;stroke:none"
           transform="matrix(1.3333333,0,0,-1.3333333,0,349.768)"
           clip-path="url(#clipPath5)"
           id="path6" />
        <path
           d="M 595.285,249.166 H 61.885 V 44.194 h 533.4 z"
           transform="matrix(1.3333333,0,0,-1.3333333,0,349.768)"
           style="fill:url(#linearGradient6);stroke:none"
           id="path7" />
      </g>
    </mask>
    <clipPath
       clipPathUnits="userSpaceOnUse"
       id="clipPath4">
      <path
         d="M 61.8849,249.166 H 595.285 V 44.194 H 61.8849 Z"
         id="path4" />
    </clipPath>
    <clipPath
       clipPathUnits="userSpaceOnUse"
       id="clipPath5">
      <path
         d="M 61.8848,249.166 H 595.285 V 44.1943 H 61.8848 Z"
         id="path5" />
    </clipPath>
    <linearGradient
       x1="0"
       y1="0"
       x2="1"
       y2="0"
       gradientUnits="userSpaceOnUse"
       gradientTransform="matrix(0,204.972,204.972,0,328.58496,44.194336)"
       spreadMethod="pad"
       id="linearGradient6">
      <stop
         style="stop-opacity:1;stop-color:#ffffff"
         offset="0"
         id="stop5" />
      <stop
         style="stop-opacity:1;stop-color:#d3d4d3"
         offset="1"
         id="stop6" />
    </linearGradient>
    <clipPath
       clipPathUnits="userSpaceOnUse"
       id="clipPath8">
      <path
         d="M 61.8849,249.166 H 595.285 V 44.194 H 61.8849 Z"
         transform="matrix(1.3333333,0,0,-1.3333333,0,349.768)"
         id="path8" />
    </clipPath>
    <linearGradient
       x1="0"
       y1="0"
       x2="1"
       y2="0"
       gradientUnits="userSpaceOnUse"
       gradientTransform="matrix(0,204.972,204.972,0,328.58496,44.194)"
       spreadMethod="pad"
       id="linearGradient9">
      <stop
         style="stop-opacity:1;stop-color:#3269a4"
         offset="0"
         id="stop8" />
      <stop
         style="stop-opacity:1;stop-color:#972730"
         offset="1"
         id="stop9" />
    </linearGradient>
    <clipPath
       clipPathUnits="userSpaceOnUse"
       id="clipPath51">
      <path
         d="M 0,262.326 H 600.31 V 0 H 0 Z"
         transform="translate(-33.799801,-163.48101)"
         id="path51" />
    </clipPath>
  </defs>
  <sodipodi:namedview
     id="namedview1"
     pagecolor="#505050"
     bordercolor="#eeeeee"
     borderopacity="1"
     inkscape:showpageshadow="0"
     inkscape:pageopacity="0"
     inkscape:pagecheckerboard="0"
     inkscape:deskcolor="#d1d1d1"
     inkscape:zoom="0.78878894"
     inkscape:cx="380.96376"
     inkscape:cy="367.01833"
     inkscape:window-width="1408"
     inkscape:window-height="916"
     inkscape:window-x="53"
     inkscape:window-y="38"
     inkscape:window-maximized="0"
     inkscape:current-layer="g1">
    <inkscape:page
       x="0"
       y="0"
       inkscape:label="1"
       id="page1"
       width="800.41333"
       height="349.76801"
       margin="0"
       bleed="0"
       inkscape:export-filename="LR04-clean.png"
       inkscape:export-xdpi="20"
       inkscape:export-ydpi="20" />
  </sodipodi:namedview>
  <g
     id="g1"
     inkscape:groupmode="layer"
     inkscape:label="1">
    <path
       d="m 61.885,44.195 h 533.4 v 204.971 h -533.4 z"
       style="display:none;fill:url(#linearGradient9);stroke:none"
       opacity="1"
       id="path9"
       transform="matrix(1.3333333,0,0,-1.3333333,0,349.768)"
       inkscape:label="background" />
    <path
       id="path41"
       d="m 82.514267,73.164533 h 0.276 l 0.276,-4.794667 0.274667,10.548 0.276,0.96 0.276,-3.836 0.276,6.712 0.274666,3.836 0.276,4.794667 0.276,-3.836 0.274667,13.425337 0.276,7.67066 0.276,30.68667 0.276,13.42533 0.276,21.096 0.274667,20.13733 0.276,24.932 0.276,12.46667 0.276,13.42533 0.274666,-5.75466 0.276,2.87733 0.276,-7.67067 0.274667,-2.87733 0.276,-1.91867 0.276,-4.79466 0.274666,0.96 0.276,-14.384 0.276,7.67066 h 0.276 l 0.276,-1.91733 0.274667,-10.548 h 0.276 l 0.276,-1.91867 0.276,-1.91733 0.274667,0.95867 0.276,-4.79467 0.276,-8.63067 0.274666,0.95867 0.276,-4.79333 0.276,13.42533 h 0.276 l 0.276,-3.836 0.274667,-0.96 0.276,-3.836 0.276,1.91867 0.276,-14.384 0.274667,2.87733 0.276,1.91733 0.276,6.712 0.274666,0.95867 0.276,-11.50667 0.276,-0.95866 0.276,-1.91734 0.276,12.46534 0.274667,-5.75334 0.276,-6.712 0.276,3.83467 0.276,7.672 0.274667,5.75333 0.276,-5.75333 0.276,16.30133 0.274666,-8.62933 0.276,8.62933 0.276,-6.712 0.274667,-16.30133 0.276,11.50667 0.276,8.63066 0.276,-12.46666 0.276,-1.91734 0.276,4.79467 0.27467,-14.384 0.276,-9.58933 0.276,-0.96 0.27466,1.91866 0.276,-19.17866 0.276,-7.67067 0.27467,10.548 0.276,1.91733 0.276,-2.876 h 0.276 l 0.276,-14.384 0.27467,-7.672 0.276,-1.91733 0.276,2.876 0.276,-0.95867 0.27466,12.46667 0.276,10.548 0.276,11.50667 0.27467,-6.712 0.276,-2.87734 0.276,-1.91733 0.276,-2.87733 0.276,-4.79467 0.27467,-7.67067 0.276,-5.75466 0.276,-6.712 0.276,-1.91867 0.27466,7.672 0.276,6.71333 0.276,-11.50799 0.27467,2.87733 0.276,10.548 0.276,-5.75334 0.276,1.91734 0.27467,3.836 0.276,-6.71334 0.276,14.384 0.276,3.836 0.276,6.71334 0.27466,0.95866 0.276,-7.672 0.276,-1.91733 0.27467,0.95867 0.276,-9.58934 0.276,-11.50666 0.27467,-9.59067 0.276,-12.46533 0.276,-3.836 0.276,-9.588001 0.276,-13.425333 0.276,-2.877333 0.27466,-0.958667 0.276,-7.672 0.276,-7.671999 0.27467,16.302666 0.276,-12.466666 0.276,1.918666 0.27467,20.137333 0.276,32.602664 0.276,18.22133 0.276,-22.05599 0.27466,13.42533 0.276,37.39733 0.276,20.13867 0.276,27.808 0.276,15.34266 0.27467,-3.83466 0.276,-1.91734 0.276,8.62934 0.27467,-1.91734 0.276,10.548 0.276,-16.30266 0.276,-5.75334 0.27466,2.87734 0.276,3.836 0.276,-7.672 0.276,2.87733 0.276,4.79467 0.27467,-10.54934 0.276,3.836 h 0.276 l 0.27467,-8.62933 0.276,-1.91867 0.276,-1.91733 0.276,3.836 0.27466,-14.384 0.276,25.89067 0.276,-3.836 0.276,-4.79467 0.276,-2.876 0.27467,2.876 0.276,-3.836 0.276,0.96 0.27467,3.83467 0.276,-1.91734 h 0.276 l 0.27466,-19.17866 0.276,-6.712 0.276,6.712 0.276,1.91733 h 0.27467 l 0.27733,2.87733 0.27467,-6.71333 0.276,-7.67067 0.276,-9.58933 0.27467,3.836 0.276,6.712 0.276,6.712 0.27466,-1.91733 0.276,3.836 0.276,-8.63067 0.276,6.712 0.27467,1.91867 0.276,-10.548 0.276,2.876 0.276,18.22 0.276,-11.50667 0.27467,-6.71333 0.276,5.75333 0.276,-6.712 0.27466,-10.548 0.276,-14.384 0.276,-35.48 0.276,15.34267 0.27467,-7.672 0.276,6.71333 0.276,-8.63067 0.276,-7.67199 0.276,7.67199 0.27467,-23.97333 0.276,-3.836 h 0.276 l 0.27466,9.58934 0.276,-1.91734 0.276,16.30134 0.276,3.83599 0.27467,-4.79466 0.276,0.95867 0.276,-6.71334 0.27467,-6.712 0.27733,-6.712 0.27467,2.876 0.276,0.96 0.276,3.836 0.27466,-8.63066 0.276,-1.91867 0.276,-0.95867 0.27467,-4.794664 0.276,23.014664 0.276,21.096 0.276,3.836 0.27467,23.97333 0.276,14.384 0.276,5.75334 0.276,-4.79467 0.276,-10.548 0.27466,0.95867 0.276,-9.58934 h 0.276 l 0.27467,-16.30133 0.276,26.85067 0.276,-7.672 0.276,-4.79467 0.27467,-19.17867 0.276,-12.46666 0.276,-12.46667 0.276,-4.79333 0.276,-18.220001 0.27466,3.836001 0.276,-6.712001 h 0.276 l 0.27467,9.588001 0.276,13.42533 0.276,9.58934 0.276,25.89199 0.27467,11.50667 0.276,20.13733 0.276,-6.712 0.27466,6.712 0.276,-1.91733 0.276,13.424 0.276,7.672 0.276,4.79467 0.27467,-10.548 0.276,4.79466 0.276,-19.17866 0.276,5.75333 0.27467,11.508 0.276,-3.836 0.276,0.95867 0.27466,-5.75467 0.276,5.75467 0.276,-6.71334 0.276,0.95867 0.276,-3.83467 0.27467,1.91734 0.276,5.75333 h 0.276 l 0.27467,-16.30133 0.276,18.22 0.276,-0.95867 0.276,-0.96 0.27466,-5.75333 h 0.276 l 0.276,-5.75334 h 0.27467 l 0.27733,-7.67066 0.27467,13.424 0.276,-12.46534 0.276,-7.672 0.27467,-8.63066 0.276,6.712 0.276,-22.05467 0.276,-10.548 0.27466,-0.95867 0.276,-1.91866 0.276,-1.91734 0.27467,6.712 0.276,12.46667 0.276,3.836 0.276,3.83467 0.276,0.96 0.27466,15.34266 0.276,-4.79466 0.276,10.548 0.276,-1.91734 0.27467,-7.672 0.276,6.71334 0.276,-12.46667 0.27467,5.75333 0.276,-20.13733 0.276,3.836 h 0.276 l 0.276,-5.75467 0.27466,6.71334 h 0.276 l 0.276,-1.91734 0.276,-4.796 0.27467,-14.384 0.276,0.96 0.276,-5.75333 0.27467,-9.58933 0.276,8.62933 0.276,-9.58933 0.27466,7.672 0.27734,-14.384 0.27466,6.712 0.276,19.17866 0.276,-12.46533 0.27467,-17.26133 0.276,7.672 0.276,-12.46667 h 0.276 l 0.27467,-5.753331 0.276,-24.931999 0.276,9.589333 0.27466,-7.672 0.276,-0.958667 0.276,0.958667 0.276,-3.834667 0.276,10.548 0.27467,-0.96 0.276,9.589333 0.276,-0.958666 0.276,12.466667 0.27467,23.01333 0.276,31.64533 0.276,14.384 0.27466,-5.75333 0.276,23.97333 0.276,17.26 0.276,23.016 0.276,-0.96 0.27467,-2.876 0.276,-3.836 0.276,2.876 0.276,-10.548 0.27467,-14.384 0.276,-3.836 0.276,12.46667 0.27466,4.79467 0.276,-2.87734 0.276,-16.30133 h 0.27467 l 0.276,-6.71333 0.276,18.22 0.276,-12.46667 0.276,8.632 0.276,2.876 0.27467,-8.63067 0.276,4.79467 0.276,-3.836 h 0.27466 l 0.276,2.87733 0.276,-16.30133 0.27467,9.588 0.276,-13.424 0.276,4.79467 0.276,2.876 0.276,-1.91734 0.27467,-1.91733 0.276,-8.63067 0.276,14.384 0.276,-12.46666 0.27466,4.79466 0.276,-13.42533 0.276,0.95867 0.27467,-0.95867 0.276,-0.95867 0.276,-1.91733 0.276,1.91733 0.276,-3.83466 0.27467,-9.58934 0.276,6.712 0.276,-3.836 0.276,5.75334 0.27466,-11.50667 0.276,-2.87733 0.276,-6.712 0.27467,-2.87734 0.276,6.712 0.276,3.836 0.276,-2.876 0.27467,-10.548 0.276,5.75334 0.276,-15.34267 0.276,-3.836 0.276,-23.973331 0.27466,6.712001 0.276,-5.753334 0.276,-15.342667 0.27467,-11.506666 0.276,-2.877333 0.276,-1.917333 0.27467,4.794666 0.276,-8.630666 0.276,7.671999 0.276,1.917334 0.276,-3.836 0.276,4.794666 0.27466,-6.711999 0.276,13.423999 0.276,1.918667 0.27467,6.712 0.276,2.877333 h 0.276 l 0.27467,9.589334 0.276,5.75333 0.276,17.26 0.276,5.75467 0.276,-3.836 0.27466,7.67066 0.276,8.63067 0.276,7.672 0.276,-9.58933 0.27467,36.44 0.276,19.17733 0.276,-19.17733 0.27467,40.27466 0.276,18.22 0.276,6.712 0.276,6.71334 h 0.27466 l 0.276,2.876 h 0.276 l 0.276,-5.75334 0.276,4.79467 0.27467,-16.30267 0.276,-10.548 0.276,7.672 0.27467,-10.548 0.276,18.21867 0.276,0.95867 0.276,-4.79334 0.27466,-8.63066 0.276,8.63066 0.276,-8.63066 0.276,-29.72667 0.276,24.932 0.27467,-3.836 0.276,1.91733 0.276,-16.30133 0.27467,14.384 0.276,-16.30267 0.276,3.836 0.27466,-18.21866 0.276,20.13733 0.276,0.95867 0.276,-7.67067 0.27467,7.67067 0.27733,-6.71334 0.27467,2.87734 0.276,1.91866 h 0.276 l 0.27467,-16.30266 0.276,12.46666 0.276,-10.54933 0.27466,-1.91733 0.276,-5.75334 0.276,12.46667 0.276,-17.26133 0.27467,-7.672 0.276,6.71333 0.276,3.836 0.276,2.876 0.276,-3.836 0.27467,-4.79333 0.276,-2.87734 0.276,-4.79466 0.27466,-9.58934 h 0.276 l 0.276,4.79467 0.276,-15.34267 0.27467,-3.836 0.276,-17.26133 0.276,1.91867 0.276,-4.79467 0.276,-3.836 0.27467,-4.79466 0.276,-6.71334 0.276,-5.75333 0.27466,-6.712001 0.276,15.342671 0.276,8.63066 0.276,10.548 h 0.27467 0.276 l 0.276,-14.384 0.27467,13.42533 0.27733,-6.71333 0.27467,8.63067 0.276,-5.75333 0.276,-2.87734 0.27466,5.75467 0.276,9.58933 0.276,-4.79467 0.27467,14.384 0.276,-7.672 0.276,22.056 0.276,-9.58933 0.27467,7.67067 0.276,-7.67067 0.276,15.34267 0.276,2.876 0.276,-14.384 h 0.27466 l 0.276,-8.62934 0.276,-4.796 0.27467,10.54934 0.276,-10.54934 0.276,-0.95733 0.276,-3.836 0.27467,-2.87733 0.276,4.79466 0.276,-9.58933 0.276,8.63067 0.276,4.79466 0.27466,-0.96 0.276,-3.83466 0.276,6.712 0.27467,-1.91734 0.276,-4.79466 0.276,8.63066 0.276,9.58934 0.27467,15.34266 0.276,1.91734 0.276,24.93333 0.27466,-11.508 0.27734,10.548 0.27466,-5.75333 0.276,4.79466 0.276,-2.87733 0.27467,-4.79467 h 0.276 l 0.276,0.95867 0.276,-2.876 0.27467,7.672 0.276,1.91733 0.276,1.91867 0.27466,-1.91867 0.276,-2.87733 0.276,-4.79467 0.276,6.71334 0.276,-5.75467 0.27467,-16.30133 0.276,-3.836 0.276,13.42533 0.27467,-3.836 0.276,-9.58933 0.276,-7.67067 0.276,-2.87733 0.27466,6.712 0.276,-6.712 0.276,2.87733 0.276,-15.34267 0.276,-4.796 0.27467,-9.588 0.276,7.67067 0.276,5.75333 0.27467,-2.876 0.276,-5.75333 0.276,-1.91867 0.276,-28.76799 0.27466,5.75466 0.276,7.67067 0.276,-32.604001 0.27467,6.713333 0.276,1.917334 0.276,1.917333 0.276,6.713331 0.276,11.50667 0.27467,29.72666 0.276,12.46667 0.276,15.34267 0.276,1.91866 0.27466,1.91734 0.276,-14.384 0.276,-6.712 0.27467,7.67066 0.276,-11.50666 0.276,1.91733 0.276,-1.91733 0.276,-4.79467 0.27467,-2.87733 0.276,-8.62934 0.276,-1.91866 0.27466,0.95866 0.276,-8.62933 0.276,18.21867 0.276,2.87733 0.27467,4.79467 0.552,-9.58934 0.552,-19.17866 0.55067,2.87733 h 0.55066 l 0.552,-29.727998 0.55067,2.877338 0.552,0.95866 0.55067,12.46667 0.552,14.384 0.55066,26.84933 0.552,21.09733 0.55067,30.68534 0.552,25.89066 0.55067,10.54934 0.552,6.712 0.55066,-2.876 0.552,-11.508 0.55067,6.712 0.552,-19.17734 0.55067,20.13734 0.55066,-24.93334 0.552,-6.712 0.552,3.836 0.55067,2.876 0.552,-3.836 0.55067,7.672 0.55066,-1.91733 0.552,-19.17867 0.552,0.95867 0.55067,5.75333 0.552,15.344 0.55067,-21.09733 0.552,-7.672 0.55066,14.384 0.55067,-22.05467 0.552,9.58934 0.55067,-5.75467 0.552,-5.75333 0.55066,-13.424 0.552,-11.508 0.55067,0.96 0.552,-11.508 0.552,9.58933 0.55067,-17.26 0.552,-23.97333 0.55066,0.95733 0.55067,-6.712 0.552,-13.425331 0.55067,6.713331 0.552,7.672 0.55066,10.548 0.55067,7.67067 0.552,8.63066 0.55067,9.58934 0.55333,-4.79467 0.55067,7.672 0.552,22.05467 0.55066,30.68666 0.55067,13.424 0.552,-8.62933 0.55067,-0.96 0.552,-20.13733 0.55066,-11.50667 0.55067,-15.34267 h 0.552 l 0.55067,-13.42533 0.552,12.46667 0.552,3.83466 0.55066,1.91734 0.552,-9.588 0.55067,5.75333 0.552,29.72667 0.55067,18.22 0.552,-7.672 0.55066,0.95866 0.55067,-11.50666 0.552,6.71333 0.55067,3.83467 0.552,-31.644 0.55066,6.712 0.552,-21.096 0.552,16.30133 0.55067,-16.30133 0.552,-3.836 0.55067,-7.672 0.55066,-11.50667 0.552,-10.548 0.55067,-11.508 0.552,-7.67066 0.55066,-7.672004 0.552,5.753334 0.55067,0.96 0.55067,12.46533 0.55333,1.91867 0.55067,44.11066 0.552,10.548 0.55066,45.06934 0.55067,-6.712 0.552,0.95866 h 0.55067 l 0.552,4.79467 0.55066,-17.26 0.55067,-1.91867 0.552,-3.836 0.55067,-17.26 0.552,6.712 0.552,-24.932 0.552,-3.836 0.55066,-17.26 0.55067,5.752 0.552,-5.752 0.55067,1.91734 0.552,18.22 0.55066,-15.34267 0.55067,8.62933 0.552,2.87734 0.55067,-11.50667 0.552,-12.46667 0.55066,16.30134 0.552,2.87733 0.552,-20.13733 0.55067,-13.42533 0.552,-8.63067 0.55067,4.79467 0.552,-12.466671 0.55066,14.385331 0.55067,-1.91866 0.552,-16.301338 0.55067,-3.835999 0.552,2.877333 0.55066,22.054664 0.55067,-9.58933 0.55333,46.02933 0.55067,24.932 0.552,18.22 0.55067,15.34267 0.552,0.95866 0.55066,0.95867 0.55067,-9.58933 0.552,8.63066 0.55067,-24.932 0.552,4.79467 h 0.55066 l 0.55067,-1.91867 0.552,-5.75333 0.552,-6.712 0.552,8.63067 0.55067,-0.96 0.55066,-6.712 0.552,-3.836 0.55067,-11.50667 0.552,-2.87733 0.55067,-1.91734 0.55066,-12.46666 h 0.552 l 0.55067,9.58933 0.552,-5.75333 0.55067,2.87733 0.552,29.72667 0.552,13.42533 0.55066,3.836 0.552,-11.508 0.55067,-4.79467 0.552,-11.50666 0.55067,-15.344 0.55066,-2.876 0.552,-8.63067 0.55067,3.836 0.552,-15.34267 0.55067,2.876 0.55066,-19.17866 0.55334,-11.50667 0.55066,5.75334 0.552,-14.384004 0.55067,-3.834667 0.552,-13.425333 0.55067,8.629333 0.55066,-5.753333 0.552,38.357334 0.55067,41.23466 0.552,24.932 0.55067,15.34267 0.55066,-26.84933 0.552,-8.632 0.552,-11.50667 0.552,-10.548 0.55067,-10.548 0.55067,-9.58933 0.552,-4.79467 0.55066,3.836 0.552,22.05467 0.55067,15.344 0.552,8.62933 0.55067,-2.87733 0.55066,-9.588 0.552,-4.79467 0.55067,-11.508 0.552,-9.58933 h 0.552 l 0.55067,9.58933 0.552,20.13867 0.55066,12.46533 0.552,-5.75333 h 0.55067 l 0.55067,-9.58934 0.552,0.95867 0.55066,-13.42533 0.552,-24.932 0.55067,4.79467 0.552,4.79466 0.55067,-24.932 0.552,6.712 0.552,22.056 0.55066,-2.87733 0.552,10.54933 0.55067,12.46533 0.55067,26.85067 0.552,-2.87733 0.55066,20.13733 0.552,-20.13733 0.55067,-9.58934 0.55067,14.384 0.552,-15.34266 0.55066,6.712 0.55334,-10.548 0.55066,8.63066 0.552,-1.91866 0.55067,-12.46534 0.55067,10.548 0.552,-14.384 0.55066,-13.42533 0.552,-26.84933 0.55067,-17.261334 0.55067,-14.384 0.552,0.958667 0.55066,-12.465333 0.552,20.137333 0.552,5.753333 0.55067,5.753334 0.552,6.71333 0.55067,19.17867 0.552,-10.548 0.55066,18.21866 0.552,1.91867 0.55067,3.836 0.55067,5.75333 0.552,-0.96 0.55066,2.87734 0.552,24.932 0.55067,-20.13734 0.552,-4.79466 0.552,-9.58934 0.55067,-9.58933 0.552,-15.34266 0.55066,17.25999 0.55067,-0.95866 0.552,26.85066 0.55067,1.91734 0.552,5.75333 0.55066,-10.548 0.552,36.44 0.55067,-12.46667 0.55067,15.34267 0.55333,-11.50667 0.55067,-5.75333 0.552,-25.89067 0.55066,16.30134 0.55067,1.91733 0.552,-21.096 h 0.55067 l 0.552,-4.79467 0.55066,1.91734 0.55067,-12.46534 0.552,15.34267 0.55067,-19.17867 0.552,-6.71333 0.552,0.96 0.552,2.876 0.55066,-10.548 0.55067,-7.672 h 0.552 l 0.54933,5.75467 0.55067,-12.46667 0.55333,2.87734 0.55067,3.83466 0.552,12.46667 0.55067,2.87733 0.552,-1.91866 0.55066,5.75466 0.552,-19.18 0.552,23.01467 0.55067,-18.21867 0.552,11.50667 0.55067,-9.58933 0.55066,36.43999 0.54934,8.62934 0.55333,12.46666 0.552,0.95867 0.55067,14.384 0.552,-0.95867 0.55066,-21.09733 0.55067,13.42533 0.552,-17.26 0.552,15.34267 0.552,-11.508 0.55067,-11.50667 0.55066,1.91734 0.55067,-26.84934 0.54933,-8.63066 0.55467,23.01466 0.55067,-2.87733 0.552,-19.17866 0.55066,-10.548 0.55067,-7.67067 0.552,-12.466667 0.55067,-0.958667 0.55333,-6.713333 0.55067,3.836 0.55066,-2.877334 0.552,-1.917333 0.54934,13.425333 0.55066,36.438661 0.55334,23.97334 0.55066,24.93333 0.552,-4.79467 0.55067,-5.75466 0.552,1.91866 0.55067,-15.34266 0.55199,-20.13734 0.552,-2.87733 0.55067,19.17867 0.552,-10.54934 0.55067,-4.79333 h 0.55066 l 0.54934,-6.71333 0.55333,-2.876 0.552,2.876 0.55067,-12.46667 0.552,-3.83466 0.55066,-10.548 0.552,8.63066 0.55067,18.21867 0.552,12.46666 0.552,27.80934 0.55067,8.62933 0.552,-20.13733 0.54933,-19.17867 0.54933,24.932 0.55467,-4.79333 0.55067,-7.672 0.552,-0.95867 0.55066,-8.63067 0.55067,-6.712 0.552,-9.58933 0.55067,-14.384 0.55333,3.83467 0.55067,1.91733 0.55066,-11.50666 0.552,13.42533 0.54934,21.09733 0.552,-0.96 0.552,4.79467 0.552,0.95866 0.55066,8.63067 0.55067,-2.876 0.552,-3.836 0.55067,16.30133 h 0.552 l 0.552,-8.63066 0.55066,8.63066 0.552,-11.50666 0.55067,-18.22 0.552,-1.91734 0.54933,-18.21999 0.552,-7.672 0.552,-9.589338 0.55067,-7.670666 0.552,8.629333 0.55067,4.796001 0.552,7.67067 0.55066,16.30266 0.552,17.26 0.552,0.95867 0.55067,20.13733 0.552,-15.34267 0.55067,21.09734 0.54933,-4.796 0.552,-12.46534 0.552,11.50667 0.552,-14.38267 0.55067,-8.632 0.55066,-13.424 0.552,-9.58933 0.55067,-10.548 0.55333,11.50667 0.55067,-13.42533 0.552,10.54933 0.55067,-15.344 0.55066,-4.794668 0.55067,6.713338 0.55067,6.712 0.55333,10.548 0.55067,22.05599 h 0.55066 l 0.552,22.05467 0.55067,19.17867 0.552,-17.26 0.552,-24.93334 0.55067,-11.50666 0.552,11.50666 0.55066,-12.46533 0.552,-10.548 h 0.54934 l 0.55066,-10.548 0.55334,-8.63066 0.55066,-13.425337 h 0.552 L 478.35959,74.1232 h 0.552 l 0.55067,3.836 0.552,5.753333 0.552,-0.958667 0.55066,2.877333 0.552,-0.96 0.55067,13.425333 0.54933,29.727998 0.55067,38.356 0.55333,10.54933 0.552,-6.71333 0.55067,-13.42533 0.552,-2.876 0.55067,14.384 0.55066,-22.056 0.552,-11.50667 0.552,-23.97333 0.552,-16.301334 0.55067,-6.713333 0.55067,-6.712 0.55066,10.548 0.54934,-2.877334 0.55466,4.796 0.55067,12.465331 0.55067,-14.383997 h 0.552 l 0.55066,8.630667 0.552,24.932 0.55067,26.85066 0.55333,29.72667 0.55067,-11.508 0.55067,-2.87733 0.68933,7.672 0.688,-12.46534 0.69067,-0.95866 0.688,-12.46667 0.69066,-26.85066 0.688,-4.79467 0.688,9.58933 0.69067,-14.384 0.68933,2.87734 0.68934,2.87733 0.688,18.21866 0.69066,6.712 0.688,23.01467 0.68934,20.13867 0.68933,-5.75467 0.68933,2.87733 0.68934,-7.67066 0.688,-22.056 0.68933,-9.58934 0.69067,-14.384 0.688,-13.42533 0.68933,3.836 0.688,6.712 0.69067,-2.876 0.68933,-17.26133 0.688,-1.91733 0.69067,16.30133 0.688,11.50666 0.688,30.68667 0.69066,6.712 0.68934,-5.75333 0.68933,-18.22 h 0.688 l 0.68667,-18.21867 0.69333,-13.42533 0.688,5.75333 0.68933,13.42533 0.688,-14.38533 0.688,-9.588 0.692,-7.672 0.688,-15.342664 0.68934,17.261334 0.68933,10.548 h 0.68667 l 0.692,21.096 0.68933,-3.836 0.68933,5.75466 0.688,-23.97333 0.688,2.876 0.69067,7.672 0.68933,23.97333 0.68934,-44.11066 0.688,1.91733 0.68933,-0.95866 0.68933,3.83466 0.68934,7.672 0.68933,19.17867 0.68933,16.30266 0.688,11.50667 0.68934,0.95867 0.69066,6.712 0.68934,2.87733 0.688,-16.30133 0.68933,1.91733 0.68933,-4.79467 0.68934,4.79467 0.68933,-21.096 0.688,-2.87733 0.69067,-1.91734 0.688,-29.72666 0.688,16.30133 0.69066,-6.712 0.68934,-7.672 0.68933,1.91734 0.688,14.384 0.688,-1.91734 0.692,2.876 0.688,6.71333 0.68933,-4.79466 0.68934,30.68533 0.68666,5.75467 0.692,-2.87734 0.688,4.79467 0.69067,-23.01467 0.688,-6.712 0.688,-2.87733 0.69067,-24.932 0.68933,-4.79466 0.68933,19.17866 0.688,6.712 0.688,0.96 0.69067,-5.75466 0.68933,11.50799 0.68934,-24.93333 h 0.68933 l 0.688,10.548 0.68933,-1.91733 0.68933,42.19333 0.69067,7.67067 0.688,-4.79334 0.68933,-29.728 0.688,-10.54799 0.69067,8.63066 0.68933,-28.768 0.688,9.58934 0.68934,-13.425338 0.68933,2.877338 0.68933,-3.836004 0.68934,-9.589333 0.688,14.383997 0.69066,3.836 0.688,7.672 0.68934,14.384 0.69066,-2.87733 0.688,7.67066 0.68934,13.42534 0.688,6.71333 0.688,2.876 0.692,-19.17867 0.688,5.75467 0.68933,-14.384 0.68933,-11.508 0.68667,-1.91733 0.692,-13.42533 0.688,15.34266 0.69067,-6.712 0.688,35.48 0.68666,-15.34267 0.69334,-8.63066 0.688,-0.95867 0.68933,-6.712 0.688,-22.055997 0.68933,20.137337 0.68934,4.79466 0.68933,-10.548 h 0.68933 0.68934 l 0.688,3.836 0.68933,18.22 0.68933,-17.26133 0.69067,-0.95867 0.688,-4.79466 0.688,7.67066 0.68933,23.97333 0.69067,28.768 0.68933,-2.876 0.688,-18.22 0.69067,-1.91733 0.688,-11.508 0.68933,0.95867 0.68934,-10.548 0.68933,3.836 0.68933,-7.672 0.688,5.75333 0.68934,-15.34266 0.69066,8.63066 0.688,-6.712 0.68934,12.46534 0.688,-4.79467 0.688,31.64533 0.692,-8.63067 0.688,7.672 0.69066,-17.26133 0.688,-1.91733 h 0.68667 l 0.692,-10.548 0.68933,-5.75467 0.68934,5.75467 0.688,-4.79467 0.68666,-14.385331 0.69334,-1.917333 0.688,2.877334 0.68933,-5.753334 0.688,6.712004 0.68933,5.75333 0.68934,-6.712 0.68933,48.90533 0.68933,0.95867 0.68934,13.42533 0.688,-6.71333 0.68933,-7.67067 0.69067,-12.46667 0.68933,-11.50666 0.688,8.63066 0.688,3.836 0.69067,-15.34399 0.68933,-12.46534 0.68933,13.424 0.688,-23.973331 0.69067,4.796001 0.688,-9.589334 0.68933,-11.508 0.68934,4.794667 0.68933,-1.917334 0.68933,15.342671 0.688,12.46666 0.68934,2.876 0.69066,-9.58933 0.688,10.548 0.68934,15.34266 0.68933,-3.83466 0.688,10.548 0.69067,-2.87734 0.688,-32.60266 0.69066,7.67067 0.688,17.26133 0.68667,-25.892 0.692,2.87733 0.68933,-10.547998 0.68934,-21.097332 0.688,19.179999 0.68933,-9.590666 0.69067,1.918666 0.688,19.178671 0.68933,6.712 0.68933,3.836 0.688,-4.79467 0.69067,28.768 0.688,-13.42533 0.69067,-6.71334 0.688,-8.62933 0.688,-1.91867 0.68933,11.508 0.69067,1.91734 0.68933,13.42533 0.688,28.768 h 0.688 l 0.69067,2.876 0.68933,6.71333 0.68933,-11.50667 0.688,-0.95866 0.69067,-18.22134 0.688,2.87734 0.68933,-13.42534 0.69067,2.87734 0.688,-17.26 0.68933,-6.71333 0.688,-13.425338 0.69067,-2.876 0.68933,-1.917333 0.688,10.548001 0.68934,10.548 0.68933,-2.87733 0.688,-11.50667 0.69067,-0.960001 h 0.68933 l 0.68933,21.097331 0.688,-3.836 h 0.68667 l 0.69333,-17.261331 0.688,-2.876 0.68934,-14.384 0.688,-2.877333 h 0.688 l 0.692,4.794667 0.688,-10.548 0.68933,20.138666 0.68933,15.341331 0.68667,38.35733 0.692,14.38534 0.688,6.712 0.69067,0.95866 0.688,-12.46666 0.688,4.796 0.69066,-20.13867 0.68934,-5.75333 0.68933,-10.548 0.688,-7.672 0.68933,-1.91733 0.68934,-10.548 0.68933,-5.754671 0.68933,-13.424 0.68934,4.794667 0.688,0.958667 0.68933,-3.836 0.68933,17.261337 0.69067,11.50666 0.688,8.63067 0.688,5.75333 0.68933,2.87733 0.69067,-2.87733 0.68933,-8.63066 0.688,-13.42534 0.69067,-0.95866 0.688,-12.465338 0.688,12.465338 0.69067,1.91866 0.68933,-3.836 0.68933,-7.671998 0.688,-9.589333 0.688,2.877334 0.692,3.835999 0.688,2.876 0.68933,6.713338 0.688,23.01466 0.688,20.13733 0.692,-13.42533 0.688,-6.712 0.69067,-7.672 0.688,-10.548 0.688,-15.342664 0.69067,-5.754667 0.68933,-6.712 0.68933,-10.547999 0.688,8.630666 0.688,14.384 0.69067,-7.672 0.68933,10.548 0.68934,1.917333 0.688,35.481331 0.68933,-6.712 0.68933,3.83467 0.68934,6.71333 0.68933,-10.548 0.68933,-10.54933 0.68934,-0.95867 0.688,-21.095998 0.69066,-0.958666 0.68934,-17.261333 0.688,0.958667 0.68933,7.671999 0.68933,-0.96 0.68934,7.672 0.68933,17.261331 0.688,8.63067 0.69067,3.83467 0.688,0.95866 0.68933,0.96 0.68933,-15.344 0.68934,-7.67066 0.68933,11.50666 h 0.688 l 0.688,-11.50666 0.692,-12.466671 0.688,-9.589333 0.68933,-8.629333 0.68934,12.465333 0.68666,3.836 0.692,-11.508 0.688,31.645334 0.69067,13.42533 0.688,7.672 0.68667,15.34133 0.692,-3.83466 0.68933,-15.34267 0.68933,10.548 0.688,-23.01466 0.68667,8.63066 0.692,-8.63066 0.68933,-23.014671 0.68934,-0.958666 0.68933,-0.958667 0.688,-12.466666 0.68933,8.630666 0.68934,14.384 0.69066,5.753334 0.688,5.75333 0.688,-18.218664 0.68934,4.794666 0.69066,1.917334 0.68934,18.220004 0.688,1.91733 0.688,-26.849334 0.69066,-11.508 0.68934,7.672 h 0.68933 l 0.68933,-3.836 0.68934,1.917333 0.688,17.261331 0.68933,-3.835998 0.69067,16.302668 0.688,25.89066 0.68933,23.01467 0.688,-7.672 0.688,4.79467 0.692,-12.46534 0.688,-0.96 0.68933,-4.79333 0.68934,-3.836 0.68666,-17.26133 0.692,-3.836 0.688,-23.013334 0.69067,-5.754667 h 0.688 l 0.68667,-17.259999 0.69333,3.834666 0.688,5.754667 0.68933,0.958666 0.688,10.548 0.688,13.425331 0.69067,12.46667 h 0.68933 l 0.68934,24.93066 0.68933,2.87734 0.688,16.30266 0.68933,-31.64533 0.68934,-17.26 0.69066,-2.87733 0.688,-18.220001 0.688,-23.973333 0.69067,16.301333 0.68933,12.466667 0.68934,-5.753333 0.688,22.055997 0.68933,10.548 0.68933,12.46533 0.68934,22.056 0.68933,0.95867 0.68933,-6.712 0.688,6.712 0.68934,-9.58933 0.68933,-13.42534 0.69067,3.836 0.688,-19.17866 0.688,0.95867 0.68933,-10.548 0.68933,-26.850671 0.69067,-7.670666 0.688,-8.630667 0.69067,2.877334 0.688,6.712 0.68666,14.383999 0.692,-3.836 0.68934,-1.917333 0.68933,0.958667 0.688,23.973337 0.68667,-9.58934 0.69333,-5.753331 h 0.688 l 0.68933,-5.753333 0.688,-8.630667 0.68934,-8.630666 0.0853,0.354667"
       style="fill:none;stroke:#000000;stroke-width:2.66667;stroke-linecap:butt;stroke-linejoin:round;stroke-miterlimit:10;stroke-dasharray:none;stroke-opacity:1"
       inkscape:label="curve" />
    <g
       id="g55"
       inkscape:label="axes"
       style="stroke:#000000;fill:none">
      <path
         id="path11"
         d="M 82.514267,290.84227 H 793.71292"
         style="fill:none;stroke:#000000;stroke-width:2.66667;stroke-linecap:square;stroke-linejoin:round;stroke-miterlimit:10;stroke-dasharray:none;stroke-opacity:1" />
      <path
         id="path12"
         d="M 82.514267,17.546667 H 793.71292"
         style="fill:none;stroke:#000000;stroke-width:2.66667;stroke-linecap:square;stroke-linejoin:round;stroke-miterlimit:10;stroke-dasharray:none;stroke-opacity:1" />
      <path
         id="path13"
         d="m 82.514267,290.84227 v -7.112"
         style="fill:none;stroke:#000000;stroke-width:2.66667;stroke-linecap:square;stroke-linejoin:round;stroke-miterlimit:10;stroke-dasharray:none;stroke-opacity:1" />
      <path
         id="path14"
         d="m 220.34373,290.84227 v -7.112"
         style="fill:none;stroke:#000000;stroke-width:2.66667;stroke-linecap:square;stroke-linejoin:round;stroke-miterlimit:10;stroke-dasharray:none;stroke-opacity:1" />
      <path
         id="path15"
         d="m 358.17253,290.84227 v -7.112"
         style="fill:none;stroke:#000000;stroke-width:2.66667;stroke-linecap:square;stroke-linejoin:round;stroke-miterlimit:10;stroke-dasharray:none;stroke-opacity:1" />
      <path
         id="path16"
         d="m 496.00133,290.84227 v -7.112"
         style="fill:none;stroke:#000000;stroke-width:2.66667;stroke-linecap:square;stroke-linejoin:round;stroke-miterlimit:10;stroke-dasharray:none;stroke-opacity:1" />
      <path
         id="path17"
         d="m 633.83067,290.84227 v -7.112"
         style="fill:none;stroke:#000000;stroke-width:2.66667;stroke-linecap:square;stroke-linejoin:round;stroke-miterlimit:10;stroke-dasharray:none;stroke-opacity:1" />
      <path
         id="path18"
         d="m 771.66013,290.84227 v -7.112"
         style="fill:none;stroke:#000000;stroke-width:2.66667;stroke-linecap:square;stroke-linejoin:round;stroke-miterlimit:10;stroke-dasharray:none;stroke-opacity:1" />
      <path
         id="path19"
         d="m 82.514267,17.546667 v 7.112"
         style="fill:none;stroke:#000000;stroke-width:2.66667;stroke-linecap:square;stroke-linejoin:round;stroke-miterlimit:10;stroke-dasharray:none;stroke-opacity:1" />
      <path
         id="path20"
         d="m 220.34373,17.546667 v 7.112"
         style="fill:none;stroke:#000000;stroke-width:2.66667;stroke-linecap:square;stroke-linejoin:round;stroke-miterlimit:10;stroke-dasharray:none;stroke-opacity:1" />
      <path
         id="path21"
         d="m 358.17253,17.546667 v 7.112"
         style="fill:none;stroke:#000000;stroke-width:2.66667;stroke-linecap:square;stroke-linejoin:round;stroke-miterlimit:10;stroke-dasharray:none;stroke-opacity:1" />
      <path
         id="path22"
         d="m 496.00133,17.546667 v 7.112"
         style="fill:none;stroke:#000000;stroke-width:2.66667;stroke-linecap:square;stroke-linejoin:round;stroke-miterlimit:10;stroke-dasharray:none;stroke-opacity:1" />
      <path
         id="path23"
         d="m 633.83067,17.546667 v 7.112"
         style="fill:none;stroke:#000000;stroke-width:2.66667;stroke-linecap:square;stroke-linejoin:round;stroke-miterlimit:10;stroke-dasharray:none;stroke-opacity:1" />
      <path
         id="path24"
         d="m 771.66013,17.546667 v 7.112"
         style="fill:none;stroke:#000000;stroke-width:2.66667;stroke-linecap:square;stroke-linejoin:round;stroke-miterlimit:10;stroke-dasharray:none;stroke-opacity:1" />
      <path
         id="path26"
         d="M 82.514267,17.546667 V 290.84266"
         style="fill:none;stroke:#000000;stroke-width:2.66667;stroke-linecap:square;stroke-linejoin:round;stroke-miterlimit:10;stroke-dasharray:none;stroke-opacity:1" />
      <path
         id="path27"
         d="M 793.7136,17.546667 V 290.84266"
         style="fill:none;stroke:#000000;stroke-width:2.66667;stroke-linecap:square;stroke-linejoin:round;stroke-miterlimit:10;stroke-dasharray:none;stroke-opacity:1" />
      <path
         id="path28"
         d="m 82.514267,51.1092 h 7.112"
         style="fill:none;stroke:#000000;stroke-width:2.66667;stroke-linecap:square;stroke-linejoin:round;stroke-miterlimit:10;stroke-dasharray:none;stroke-opacity:1" />
      <path
         id="path29"
         d="m 82.514267,99.055733 h 7.112"
         style="fill:none;stroke:#000000;stroke-width:2.66667;stroke-linecap:square;stroke-linejoin:round;stroke-miterlimit:10;stroke-dasharray:none;stroke-opacity:1" />
      <path
         id="path30"
         d="m 82.514267,147.0024 h 7.112"
         style="fill:none;stroke:#000000;stroke-width:2.66667;stroke-linecap:square;stroke-linejoin:round;stroke-miterlimit:10;stroke-dasharray:none;stroke-opacity:1" />
      <path
         id="path31"
         d="m 82.514267,194.94893 h 7.112"
         style="fill:none;stroke:#000000;stroke-width:2.66667;stroke-linecap:square;stroke-linejoin:round;stroke-miterlimit:10;stroke-dasharray:none;stroke-opacity:1" />
      <path
         id="path32"
         d="m 82.514267,242.8956 h 7.112"
         style="fill:none;stroke:#000000;stroke-width:2.66667;stroke-linecap:square;stroke-linejoin:round;stroke-miterlimit:10;stroke-dasharray:none;stroke-opacity:1" />
      <path
         id="path33"
         d="m 82.514267,290.84227 h 7.112"
         style="fill:none;stroke:#000000;stroke-width:2.66667;stroke-linecap:square;stroke-linejoin:round;stroke-miterlimit:10;stroke-dasharray:none;stroke-opacity:1" />
      <path
         id="path34"
         d="m 793.7136,51.1092 h -7.112"
         style="fill:none;stroke:#000000;stroke-width:2.66667;stroke-linecap:square;stroke-linejoin:round;stroke-miterlimit:10;stroke-dasharray:none;stroke-opacity:1" />
      <path
         id="path35"
         d="m 793.7136,99.055733 h -7.112"
         style="fill:none;stroke:#000000;stroke-width:2.66667;stroke-linecap:square;stroke-linejoin:round;stroke-miterlimit:10;stroke-dasharray:none;stroke-opacity:1" />
      <path
         id="path36"
         d="m 793.7136,147.0024 h -7.112"
         style="fill:none;stroke:#000000;stroke-width:2.66667;stroke-linecap:square;stroke-linejoin:round;stroke-miterlimit:10;stroke-dasharray:none;stroke-opacity:1" />
      <path
         id="path37"
         d="m 793.7136,194.94893 h -7.112"
         style="fill:none;stroke:#000000;stroke-width:2.66667;stroke-linecap:square;stroke-linejoin:round;stroke-miterlimit:10;stroke-dasharray:none;stroke-opacity:1" />
      <path
         id="path38"
         d="m 793.7136,242.8956 h -7.112"
         style="fill:none;stroke:#000000;stroke-width:2.66667;stroke-linecap:square;stroke-linejoin:round;stroke-miterlimit:10;stroke-dasharray:none;stroke-opacity:1" />
      <path
         id="path39"
         d="m 793.7136,290.84227 h -7.112"
         style="fill:none;stroke:#000000;stroke-width:2.66667;stroke-linecap:square;stroke-linejoin:round;stroke-miterlimit:10;stroke-dasharray:none;stroke-opacity:1" />
    </g>
    <g
       id="g52"
       inkscape:label="inner text"
       style="display:none;fill:#ffffff">
      <path
         id="path43"
         d="m 562.51953,38.808594 3.5,11.609374 h 1.92187 l 1.875,-5.515624 c 0.40625,-1.25 0.76563,-2.453125 1.04688,-3.84375 h 0.0469 c 0.29688,1.375 0.625,2.515625 1.03125,3.8125 l 1.78125,5.546874 h 1.92188 l 3.73437,-11.609374 h -2.07812 l -1.65625,5.828125 c -0.39063,1.359375 -0.70313,2.59375 -0.89063,3.765624 h -0.0781 c -0.25,-1.171874 -0.59375,-2.406249 -1.03125,-3.796874 l -1.79688,-5.796875 h -1.78125 l -1.89062,5.921875 c -0.375,1.25 -0.76563,2.5 -1.03125,3.671874 h -0.0781 c -0.20312,-1.203124 -0.51562,-2.406249 -0.85937,-3.703124 l -1.53125,-5.890625 z m 27.33594,11.609374 c -0.15626,-0.796875 -0.20313,-1.781249 -0.20313,-2.781249 v -4.34375 c 0,-2.328125 -0.85937,-4.75 -4.40625,-4.75 -1.46875,0 -2.85938,0.40625 -3.8125,1.03125 l 0.46875,1.390625 c 0.8125,-0.53125 1.95313,-0.859375 3.03125,-0.859375 2.375,0 2.64062,1.71875 2.64062,2.6875 v 0.234375 c -4.48437,-0.03125 -6.98437,1.515625 -6.98437,4.312499 0,1.6875 1.20313,3.34375 3.54687,3.34375 1.65626,0 2.90626,-0.8125 3.54688,-1.734374 h 0.0781 l 0.17187,1.468749 z m -2.23438,-3.906249 c 0,0.203124 -0.0469,0.453124 -0.125,0.671874 -0.32812,0.984376 -1.29688,1.9375 -2.8125,1.9375 -1.07812,0 -1.98438,-0.640624 -1.98438,-2.015624 0,-2.25 2.60938,-2.65625 4.92188,-2.609375 z m 5.44531,3.906249 h 2.09375 v -6.187499 c 0,-0.359375 0.0469,-0.703125 0.0937,-0.984375 0.28125,-1.59375 1.34375,-2.71875 2.82812,-2.71875 0.29688,0 0.5,0.03125 0.71875,0.07813 v -2 c -0.1875,-0.04687 -0.35937,-0.0625 -0.59375,-0.0625 -1.42187,0 -2.6875,0.984375 -3.21875,2.53125 h -0.0937 l -0.0781,-2.265625 h -1.84375 c 0.0781,1.078125 0.0937,2.25 0.0937,3.625 z m 7.84766,0 h 2.0625 v -7.015624 c 0,-0.359375 0.0469,-0.71875 0.17187,-1.03125 0.32813,-1.046875 1.29688,-2.109375 2.60938,-2.109375 1.60937,0 2.4375,1.34375 2.4375,3.203125 v 6.953124 h 2.0625 v -7.171874 c 0,-0.390625 0.0625,-0.765625 0.15625,-1.0625 0.35937,-1.03125 1.29687,-1.921875 2.5,-1.921875 1.70312,0 2.51562,1.34375 2.51562,3.578125 v 6.578124 h 2.07813 v -6.843749 c 0,-4.03125 -2.28125,-5.03125 -3.82813,-5.03125 -1.09375,0 -1.875,0.28125 -2.5625,0.8125 -0.48437,0.359375 -0.9375,0.859375 -1.29687,1.515625 h -0.0469 c -0.5,-1.375 -1.70313,-2.328125 -3.29688,-2.328125 -1.90625,0 -3,1.03125 -3.64062,2.125 h -0.0781 l -0.0937,-1.859375 h -1.84375 c 0.0781,0.953125 0.0937,1.9375 0.0937,3.140625 z m 29.35937,-5.421874 c 0.0156,-0.21875 0.0625,-0.546875 0.0625,-0.984375 0,-2.140625 -1,-5.46875 -4.79688,-5.46875 -3.39062,0 -5.45312,2.75 -5.45312,6.265625 0,3.499999 2.14062,5.843749 5.71875,5.843749 1.84375,0 3.125,-0.375 3.85937,-0.71875 l -0.35937,-1.5 c -0.78125,0.328126 -1.70312,0.59375 -3.21875,0.59375 -2.10937,0 -3.9375,-1.171874 -3.98437,-4.031249 z m -8.14062,-1.515625 c 0.17187,-1.46875 1.10937,-3.4375 3.23437,-3.4375 2.375,0 2.95313,2.09375 2.9375,3.4375 z m 10.82031,6.937499 h 2.09375 v -6.187499 c 0,-0.359375 0.0469,-0.703125 0.0937,-0.984375 0.28125,-1.59375 1.34375,-2.71875 2.82812,-2.71875 0.29688,0 0.5,0.03125 0.71875,0.07813 v -2 c -0.1875,-0.04687 -0.35937,-0.0625 -0.59375,-0.0625 -1.42187,0 -2.6875,0.984375 -3.21875,2.53125 h -0.0937 l -0.0781,-2.265625 h -1.84375 c 0.0781,1.078125 0.0937,2.25 0.0937,3.625 z m 12.76563,0.953125 6.71874,-17.390624 h -1.625 l -6.70312,17.390624 z m 13.49218,-0.953125 h 2.10938 V 33.371093 h -2.10938 z m 15.00781,-5.421874 c 0.0156,-0.21875 0.0625,-0.546875 0.0625,-0.984375 0,-2.140625 -1,-5.46875 -4.79688,-5.46875 -3.39062,0 -5.45312,2.75 -5.45312,6.265625 0,3.499999 2.14062,5.843749 5.71875,5.843749 1.84375,0 3.125,-0.375 3.85937,-0.71875 l -0.35937,-1.5 c -0.78125,0.328126 -1.70312,0.59375 -3.21875,0.59375 -2.10937,0 -3.9375,-1.171874 -3.98437,-4.031249 z m -8.14062,-1.515625 c 0.17187,-1.46875 1.10937,-3.4375 3.23437,-3.4375 2.375,0 2.95313,2.09375 2.9375,3.4375 z m 10.00781,6.390624 c 0.8125,0.46875 1.98438,0.78125 3.26563,0.78125 2.75,0 4.34375,-1.4375 4.34375,-3.46875 0,-1.734374 -1.03125,-2.734374 -3.04688,-3.515624 -1.51562,-0.5625 -2.21875,-1 -2.21875,-1.96875 0,-0.859375 0.70313,-1.578125 1.95313,-1.578125 1.07812,0 1.92187,0.390625 2.375,0.671875 l 0.53125,-1.53125 c -0.65625,-0.390625 -1.6875,-0.71875 -2.85938,-0.71875 -2.5,0 -4.01562,1.53125 -4.01562,3.40625 0,1.390625 0.98437,2.546875 3.07812,3.28125 1.5625,0.578125 2.15625,1.125 2.15625,2.140624 0,0.953126 -0.71875,1.734375 -2.25,1.734375 -1.0625,0 -2.15625,-0.437499 -2.78125,-0.843749 z m 9.50391,0 c 0.8125,0.46875 1.98437,0.78125 3.26562,0.78125 2.75,0 4.34375,-1.4375 4.34375,-3.46875 0,-1.734374 -1.03125,-2.734374 -3.04687,-3.515624 -1.51563,-0.5625 -2.21875,-1 -2.21875,-1.96875 0,-0.859375 0.70312,-1.578125 1.95312,-1.578125 1.07813,0 1.92188,0.390625 2.375,0.671875 l 0.53125,-1.53125 c -0.65625,-0.390625 -1.6875,-0.71875 -2.85937,-0.71875 -2.5,0 -4.01563,1.53125 -4.01563,3.40625 0,1.390625 0.98438,2.546875 3.07813,3.28125 1.5625,0.578125 2.15625,1.125 2.15625,2.140624 0,0.953126 -0.71875,1.734375 -2.25,1.734375 -1.0625,0 -2.15625,-0.437499 -2.78125,-0.843749 z m 17.51171,0.546875 V 38.808594 h -2.10937 v 11.609374 z m -1.04686,-16.203124 c -0.76563,0 -1.32814,0.578125 -1.32814,1.328125 0,0.71875 0.53126,1.296875 1.28126,1.296875 0.82812,0 1.35937,-0.578125 1.34374,-1.296875 0,-0.75 -0.51562,-1.328125 -1.29686,-1.328125 z m 12.47656,14.187499 c -0.59375,0.265626 -1.39063,0.578126 -2.59375,0.578126 -2.29688,0 -4.03125,-1.65625 -4.03125,-4.34375 0,-2.421875 1.43749,-4.390625 4.10937,-4.390625 1.14063,0 1.93749,0.265625 2.43749,0.546875 l 0.48439,-1.625 c -0.57813,-0.296875 -1.67188,-0.609375 -2.92188,-0.609375 -3.79688,0 -6.25,2.59375 -6.25,6.171875 0,3.546874 2.28125,5.921874 5.79688,5.921874 1.54687,0 2.78124,-0.375 3.32812,-0.671875 z m 12.17577,-3.406249 c 0.0156,-0.21875 0.0625,-0.546875 0.0625,-0.984375 0,-2.140625 -1,-5.46875 -4.79688,-5.46875 -3.39062,0 -5.45312,2.75 -5.45312,6.265625 0,3.499999 2.14063,5.843749 5.71875,5.843749 1.84375,0 3.125,-0.375 3.85937,-0.71875 l -0.35937,-1.5 c -0.78125,0.328126 -1.70312,0.59375 -3.21875,0.59375 -2.10937,0 -3.9375,-1.171874 -3.98437,-4.031249 z m -8.14063,-1.515625 c 0.17188,-1.46875 1.10939,-3.4375 3.23439,-3.4375 2.375,0 2.95312,2.09375 2.93749,3.4375 z M 570.72265,257.92578 c -0.59375,0.26561 -1.39062,0.57812 -2.59375,0.57812 -2.29687,0 -4.03125,-1.65625 -4.03125,-4.34375 0,-2.42188 1.4375,-4.39062 4.10938,-4.39062 1.14062,0 1.9375,0.26562 2.4375,0.54686 l 0.48437,-1.625 c -0.57812,-0.29686 -1.67187,-0.60937 -2.92187,-0.60937 -3.79688,0 -6.25,2.59376 -6.25,6.17188 0,3.54688 2.28125,5.92188 5.79687,5.92188 1.54688,0 2.78125,-0.375 3.32813,-0.67188 z m 7.75391,-9.85939 c -3.21875,0 -5.76563,2.28126 -5.76563,6.15626 0,3.67188 2.4375,5.98437 5.57813,5.98437 2.79687,0 5.78125,-1.875 5.78125,-6.17187 0,-3.54688 -2.25,-5.96876 -5.59375,-5.96876 z m -0.0469,1.57814 c 2.5,0 3.48437,2.5 3.48437,4.46874 0,2.60938 -1.51562,4.51563 -3.53125,4.51563 -2.0625,0 -3.53125,-1.92188 -3.53125,-4.46875 0,-2.20313 1.07813,-4.51562 3.57813,-4.51562 z m 13.22265,-1.57814 c -3.21875,0 -5.76562,2.28126 -5.76562,6.15626 0,3.67188 2.4375,5.98437 5.57812,5.98437 2.79688,0 5.78125,-1.875 5.78125,-6.17187 0,-3.54688 -2.25,-5.96876 -5.59375,-5.96876 z m -0.0469,1.57814 c 2.5,0 3.48438,2.5 3.48438,4.46874 0,2.60938 -1.51563,4.51563 -3.53125,4.51563 -2.0625,0 -3.53125,-1.92188 -3.53125,-4.46875 0,-2.20313 1.07812,-4.51562 3.57812,-4.51562 z m 8.30079,10.29686 h 2.10937 v -17.04686 h -2.10937 z m 15.00781,-5.42186 c 0.0156,-0.21875 0.0625,-0.54688 0.0625,-0.98438 0,-2.14062 -1,-5.46876 -4.79687,-5.46876 -3.39063,0 -5.45313,2.75 -5.45313,6.26563 0,3.5 2.14063,5.84376 5.71875,5.84376 1.84375,0 3.125,-0.375 3.85938,-0.71876 l -0.35938,-1.5 c -0.78125,0.32813 -1.70312,0.59376 -3.21875,0.59376 -2.10937,0 -3.9375,-1.17188 -3.98437,-4.03125 z m -8.14063,-1.51563 c 0.17188,-1.46875 1.10938,-3.43751 3.23438,-3.43751 2.375,0 2.95312,2.09376 2.9375,3.43751 z m 10.82032,6.93749 h 2.09374 v -6.18749 c 0,-0.35937 0.0469,-0.70312 0.0937,-0.98437 0.28125,-1.59375 1.34375,-2.71875 2.82813,-2.71875 0.29687,0 0.5,0.0312 0.71875,0.0781 v -2 c -0.1875,-0.0469 -0.35938,-0.0625 -0.59375,-0.0625 -1.42188,0 -2.6875,0.98439 -3.21875,2.53125 h -0.0937 l -0.0781,-2.26562 H 617.5 c 0.0781,1.07813 0.0937,2.25 0.0937,3.625 z m 12.76562,0.95314 6.71875,-17.39063 h -1.625 L 628.75,260.89453 Z m 13.48828,-0.95314 h 2.0625 v -7.01561 c 0,-0.35939 0.0469,-0.71876 0.17187,-1.03125 0.32813,-1.04688 1.29688,-2.10938 2.60938,-2.10938 1.60938,0 2.4375,1.34375 2.4375,3.20312 v 6.95312 h 2.0625 v -7.17186 c 0,-0.39063 0.0625,-0.76563 0.15625,-1.06251 0.35937,-1.03124 1.29687,-1.92187 2.5,-1.92187 1.70312,0 2.51562,1.34375 2.51562,3.57812 v 6.57812 h 2.07813 v -6.84374 c 0,-4.03126 -2.28125,-5.03126 -3.82813,-5.03126 -1.09375,0 -1.87499,0.28126 -2.56249,0.81251 -0.48438,0.35937 -0.9375,0.85937 -1.29688,1.51563 h -0.0469 c -0.5,-1.375 -1.70312,-2.32814 -3.29687,-2.32814 -1.90625,0 -3,1.03126 -3.64063,2.125 h -0.0781 l -0.0937,-1.85937 h -1.84374 c 0.0781,0.95313 0.0937,1.93751 0.0937,3.14063 z m 24.94142,-11.875 c -3.21875,0 -5.76563,2.28126 -5.76563,6.15626 0,3.67188 2.4375,5.98437 5.57813,5.98437 2.79687,0 5.78125,-1.875 5.78125,-6.17187 0,-3.54688 -2.25,-5.96876 -5.59375,-5.96876 z m -0.0469,1.57814 c 2.5,0 3.48437,2.5 3.48437,4.46874 0,2.60938 -1.51562,4.51563 -3.53125,4.51563 -2.0625,0 -3.53125,-1.92188 -3.53125,-4.46875 0,-2.20313 1.07813,-4.51562 3.57813,-4.51562 z m 8.30078,10.29686 h 2.09375 v -6.18749 c 0,-0.35937 0.0469,-0.70312 0.0937,-0.98437 0.28125,-1.59375 1.34375,-2.71875 2.82813,-2.71875 0.29687,0 0.5,0.0312 0.71875,0.0781 v -2 c -0.1875,-0.0469 -0.35938,-0.0625 -0.59375,-0.0625 -1.42188,0 -2.6875,0.98439 -3.21875,2.53125 h -0.0937 l -0.0781,-2.26562 h -1.84375 c 0.0781,1.07813 0.0937,2.25 0.0937,3.625 z m 17.1914,-5.42186 c 0.0156,-0.21875 0.0625,-0.54688 0.0625,-0.98438 0,-2.14062 -1,-5.46876 -4.79688,-5.46876 -3.39062,0 -5.45312,2.75 -5.45312,6.26563 0,3.5 2.14062,5.84376 5.71875,5.84376 1.84375,0 3.125,-0.375 3.85937,-0.71876 l -0.35937,-1.5 c -0.78125,0.32813 -1.70313,0.59376 -3.21875,0.59376 -2.10938,0 -3.9375,-1.17188 -3.98438,-4.03125 z m -8.14062,-1.51563 c 0.17187,-1.46875 1.10937,-3.43751 3.23437,-3.43751 2.375,0 2.95313,2.09376 2.9375,3.43751 z m 18.01563,6.93749 v -11.60937 h -2.10938 v 11.60937 z m -1.04687,-16.20312 c -0.76563,0 -1.32813,0.57812 -1.32813,1.32812 0,0.71876 0.53125,1.29688 1.28125,1.29688 0.82812,0 1.35937,-0.57812 1.34375,-1.29688 0,-0.75 -0.51563,-1.32812 -1.29687,-1.32812 z m 12.47656,14.18751 c -0.59376,0.26561 -1.39063,0.57812 -2.59376,0.57812 -2.29687,0 -4.03124,-1.65625 -4.03124,-4.34375 0,-2.42188 1.43749,-4.39062 4.10937,-4.39062 1.14063,0 1.9375,0.26562 2.4375,0.54686 l 0.48437,-1.625 c -0.57812,-0.29686 -1.67187,-0.60937 -2.92187,-0.60937 -3.79688,0 -6.25,2.59376 -6.25,6.17188 0,3.54688 2.28126,5.92188 5.79687,5.92188 1.54688,0 2.78125,-0.375 3.32813,-0.67188 z m 12.17577,-3.40625 c 0.0156,-0.21875 0.0625,-0.54688 0.0625,-0.98438 0,-2.14062 -1,-5.46876 -4.79688,-5.46876 -3.39063,0 -5.45312,2.75 -5.45312,6.26563 0,3.5 2.14062,5.84376 5.71874,5.84376 1.84375,0 3.125,-0.375 3.85938,-0.71876 l -0.35938,-1.5 c -0.78125,0.32813 -1.70312,0.59376 -3.21874,0.59376 -2.10938,0 -3.93751,-1.17188 -3.98438,-4.03125 z m -8.14062,-1.51563 c 0.17188,-1.46875 1.10938,-3.43751 3.23438,-3.43751 2.375,0 2.95312,2.09376 2.9375,3.43751 z M 236.42188,50.417968 V 38.808594 h -2.10937 V 50.417968 Z M 235.375,34.214844 c -0.76562,0 -1.32812,0.578125 -1.32812,1.328125 0,0.71875 0.53124,1.296875 1.28124,1.296875 0.82814,0 1.35939,-0.578125 1.34376,-1.296875 0,-0.75 -0.51562,-1.328125 -1.29688,-1.328125 z m 4.5547,16.203124 h 2.10937 v -6.984374 c 0,-0.359375 0.0468,-0.71875 0.15624,-0.984375 0.35939,-1.171875 1.43751,-2.15625 2.82813,-2.15625 1.98438,0 2.6875,1.5625 2.6875,3.421875 v 6.703124 h 2.10937 v -6.937499 c 0,-3.984375 -2.5,-4.9375 -4.10937,-4.9375 -1.92187,0 -3.26563,1.078125 -3.82812,2.171875 h -0.0625 l -0.10933,-1.90625 h -1.875 c 0.0781,0.953125 0.0937,1.9375 0.0937,3.140625 z m 13.80468,-14.406249 v 2.796875 h -1.79687 v 1.59375 h 1.79687 v 6.343749 c 0,1.375 0.21874,2.40625 0.8125,3.03125 0.5,0.5625 1.29687,0.875 2.28124,0.875 0.81251,0 1.46876,-0.109375 1.875,-0.28125 l -0.0937,-1.578124 c -0.26563,0.0625 -0.67187,0.140624 -1.23437,0.140624 -1.17188,0 -1.57812,-0.8125 -1.57812,-2.265624 v -6.265625 h 3.01562 v -1.59375 h -3.01562 v -3.34375 z m 16.80078,8.984375 c 0.0156,-0.21875 0.0625,-0.546875 0.0625,-0.984375 0,-2.140625 -1,-5.46875 -4.79687,-5.46875 -3.39063,0 -5.45313,2.75 -5.45313,6.265625 0,3.499999 2.14062,5.843749 5.71874,5.843749 1.84376,0 3.125,-0.375 3.85939,-0.71875 l -0.35939,-1.5 c -0.78124,0.328126 -1.70312,0.59375 -3.21874,0.59375 -2.10938,0 -3.9375,-1.171874 -3.98438,-4.031249 z m -8.14062,-1.515625 c 0.17186,-1.46875 1.10937,-3.4375 3.23437,-3.4375 2.375,0 2.95312,2.09375 2.93749,3.4375 z m 10.82421,6.937499 h 2.09376 v -6.187499 c 0,-0.359375 0.0469,-0.703125 0.0937,-0.984375 0.28126,-1.59375 1.34375,-2.71875 2.82812,-2.71875 0.29688,0 0.5,0.03125 0.71875,0.07813 v -2 c -0.18749,-0.04687 -0.35937,-0.0625 -0.59375,-0.0625 -1.42186,0 -2.68749,0.984375 -3.21874,2.53125 h -0.0937 l -0.0781,-2.265625 H 273.125 c 0.0781,1.078125 0.0937,2.25 0.0937,3.625 z m 16.00391,-11.609374 -0.0937,1.75 h -0.0469 c -0.5,-0.96875 -1.60937,-2.015625 -3.625,-2.015625 -2.65624,0 -5.23437,2.234375 -5.23437,6.15625 0,3.21875 2.0625,5.671874 4.95313,5.671874 1.79687,0 3.04687,-0.859375 3.68749,-1.9375 h 0.0469 v 1.28125 c 0,2.9375 -1.57814,4.0625 -3.73438,4.0625 -1.4375,0 -2.64062,-0.4375 -3.40625,-0.90625 l -0.53125,1.609375 c 0.9375,0.625 2.46874,0.953125 3.85937,0.953125 1.46875,0 3.09375,-0.328125 4.23437,-1.390625 1.125,-1.015625 1.64063,-2.640625 1.64063,-5.312499 v -6.734375 c 0,-1.421875 0.0625,-2.359375 0.10933,-3.1875 z m -0.32812,6.671875 c 0,0.359375 -0.0469,0.765625 -0.17188,1.125 -0.45312,1.34375 -1.625,2.15625 -2.92187,2.15625 -2.28125,0 -3.43751,-1.890626 -3.43751,-4.171875 0,-2.6875 1.43751,-4.390625 3.45312,-4.390625 1.54688,0 2.57814,1 2.95314,2.234375 0.0937,0.28125 0.12493,0.59375 0.12493,0.953125 z m 5.58593,4.937499 h 2.10937 V 33.371093 h -2.10937 z m 14.02344,0 c -0.15625,-0.796875 -0.20312,-1.781249 -0.20312,-2.781249 v -4.34375 c 0,-2.328125 -0.85939,-4.75 -4.40625,-4.75 -1.46875,0 -2.85938,0.40625 -3.81251,1.03125 l 0.46876,1.390625 c 0.81249,-0.53125 1.95312,-0.859375 3.03124,-0.859375 2.375,0 2.64063,1.71875 2.64063,2.6875 v 0.234375 c -4.48438,-0.03125 -6.98438,1.515625 -6.98438,4.312499 0,1.6875 1.20312,3.34375 3.54688,3.34375 1.65624,0 2.90624,-0.8125 3.54687,-1.734374 h 0.0781 l 0.17187,1.468749 z m -2.23437,-3.906249 c 0,0.203124 -0.0469,0.453124 -0.12494,0.671874 -0.32813,0.984376 -1.29688,1.9375 -2.8125,1.9375 -1.07812,0 -1.98438,-0.640624 -1.98438,-2.015624 0,-2.25 2.60938,-2.65625 4.92188,-2.609375 z m 13.36718,1.890624 c -0.59374,0.265626 -1.39062,0.578126 -2.59374,0.578126 -2.29688,0 -4.03126,-1.65625 -4.03126,-4.34375 0,-2.421875 1.4375,-4.390625 4.10938,-4.390625 1.14062,0 1.9375,0.265625 2.4375,0.546875 l 0.48438,-1.625 c -0.57814,-0.296875 -1.67188,-0.609375 -2.92188,-0.609375 -3.79688,0 -6.25,2.59375 -6.25,6.171875 0,3.546874 2.28125,5.921874 5.79688,5.921874 1.54686,0 2.78124,-0.375 3.32812,-0.671875 z m 4.9375,2.015625 V 38.808594 h -2.10938 v 11.609374 z m -1.04687,-16.203124 c -0.76563,0 -1.32813,0.578125 -1.32813,1.328125 0,0.71875 0.53125,1.296875 1.28125,1.296875 0.82813,0 1.35937,-0.578125 1.34375,-1.296875 0,-0.75 -0.51562,-1.328125 -1.29687,-1.328125 z m 12.91405,16.203124 c -0.15624,-0.796875 -0.20312,-1.781249 -0.20312,-2.781249 v -4.34375 c 0,-2.328125 -0.85937,-4.75 -4.40625,-4.75 -1.46875,0 -2.85937,0.40625 -3.81249,1.03125 l 0.46874,1.390625 c 0.81251,-0.53125 1.95312,-0.859375 3.03126,-0.859375 2.375,0 2.64062,1.71875 2.64062,2.6875 v 0.234375 c -4.48437,-0.03125 -6.98437,1.515625 -6.98437,4.312499 0,1.6875 1.20312,3.34375 3.54687,3.34375 1.65625,0 2.90625,-0.8125 3.54688,-1.734374 h 0.0781 l 0.17188,1.468749 z m -2.23437,-3.906249 c 0,0.203124 -0.0469,0.453124 -0.12493,0.671874 -0.32812,0.984376 -1.29687,1.9375 -2.8125,1.9375 -1.07813,0 -1.98437,-0.640624 -1.98437,-2.015624 0,-2.25 2.60937,-2.65625 4.92187,-2.609375 z m 5.44141,3.906249 h 2.10938 V 33.371093 h -2.10938 z M 344.5,49.871093 c 0.81251,0.46875 1.98438,0.78125 3.26563,0.78125 2.75,0 4.34375,-1.4375 4.34375,-3.46875 0,-1.734374 -1.03126,-2.734374 -3.04687,-3.515624 -1.51563,-0.5625 -2.21876,-1 -2.21876,-1.96875 0,-0.859375 0.70313,-1.578125 1.95313,-1.578125 1.07812,0 1.92187,0.390625 2.375,0.671875 l 0.53124,-1.53125 c -0.65624,-0.390625 -1.68749,-0.71875 -2.85937,-0.71875 -2.5,0 -4.01563,1.53125 -4.01563,3.40625 0,1.390625 0.98439,2.546875 3.07814,3.28125 1.56249,0.578125 2.15625,1.125 2.15625,2.140624 0,0.953126 -0.71876,1.734375 -2.25,1.734375 -1.06251,0 -2.15625,-0.437499 -2.78125,-0.843749 z m 0,0"
         style="fill:#ffffff;fill-opacity:1;fill-rule:nonzero;stroke:none;stroke-width:1.33333"
         aria-label="warmer / less ice&#10;cooler / more ice&#10;interglacials"
         inkscape:label="text" />
      <path
         id="path46"
         d="m 287.39843,258.90625 -0.0937,1.75 h -0.0469 c -0.5,-0.96875 -1.60938,-2.01562 -3.625,-2.01562 -2.65625,0 -5.23437,2.23437 -5.23437,6.15625 0,3.21875 2.06249,5.67187 4.95312,5.67187 1.79687,0 3.04687,-0.85937 3.6875,-1.9375 h 0.0469 v 1.28125 c 0,2.9375 -1.57812,4.0625 -3.73437,4.0625 -1.4375,0 -2.64063,-0.4375 -3.40625,-0.90625 l -0.53125,1.60938 c 0.9375,0.625 2.46875,0.95312 3.85937,0.95312 1.46875,0 3.09375,-0.32812 4.23438,-1.39062 1.125,-1.01563 1.64062,-2.64063 1.64062,-5.3125 v -6.73438 c 0,-1.42187 0.0625,-2.35937 0.10938,-3.1875 z m -0.32812,6.67188 c 0,0.35937 -0.0469,0.76562 -0.17188,1.125 -0.45312,1.34375 -1.625,2.15625 -2.92187,2.15625 -2.28125,0 -3.4375,-1.89063 -3.4375,-4.17188 0,-2.6875 1.4375,-4.39062 3.45312,-4.39062 1.54688,0 2.57813,1 2.95313,2.23437 0.0937,0.28125 0.125,0.59375 0.125,0.95313 z m 5.58594,4.9375 h 2.10937 v -17.04688 h -2.10937 z m 14.02343,0 c -0.15625,-0.79688 -0.20312,-1.78125 -0.20312,-2.78125 v -4.34375 c 0,-2.32813 -0.85938,-4.75 -4.40625,-4.75 -1.46875,0 -2.85938,0.40625 -3.8125,1.03125 l 0.46875,1.39062 c 0.8125,-0.53125 1.95312,-0.85937 3.03125,-0.85937 2.375,0 2.64062,1.71875 2.64062,2.6875 v 0.23437 c -4.48437,-0.0312 -6.98437,1.51563 -6.98437,4.3125 0,1.6875 1.20312,3.34375 3.54687,3.34375 1.65625,0 2.90625,-0.8125 3.54688,-1.73437 h 0.0781 l 0.17187,1.46875 z m -2.23437,-3.90625 c 0,0.20312 -0.0469,0.45312 -0.125,0.67187 -0.32813,0.98438 -1.29688,1.9375 -2.8125,1.9375 -1.07813,0 -1.98438,-0.64062 -1.98438,-2.01562 0,-2.25 2.60938,-2.65625 4.92188,-2.60938 z M 317.8125,268.5 c -0.59375,0.26563 -1.39063,0.57813 -2.59375,0.57813 -2.29688,0 -4.03125,-1.65625 -4.03125,-4.34375 0,-2.42188 1.4375,-4.39063 4.10937,-4.39063 1.14063,0 1.9375,0.26563 2.4375,0.54688 l 0.48437,-1.625 c -0.57812,-0.29688 -1.67187,-0.60938 -2.92187,-0.60938 -3.79687,0 -6.25,2.59375 -6.25,6.17188 0,3.54687 2.28125,5.92187 5.79688,5.92187 1.54687,0 2.78125,-0.375 3.32812,-0.67187 z m 4.9375,2.01563 v -11.60938 h -2.10938 v 11.60938 z m -1.04688,-16.20313 c -0.76562,0 -1.32812,0.57813 -1.32812,1.32813 0,0.71875 0.53124,1.29687 1.28124,1.29687 0.82813,0 1.35938,-0.57812 1.34376,-1.29687 0,-0.75 -0.51563,-1.32813 -1.29688,-1.32813 z m 12.91406,16.20313 c -0.15625,-0.79688 -0.20312,-1.78125 -0.20312,-2.78125 v -4.34375 c 0,-2.32813 -0.85938,-4.75 -4.40625,-4.75 -1.46875,0 -2.85938,0.40625 -3.8125,1.03125 l 0.46875,1.39062 c 0.8125,-0.53125 1.95312,-0.85937 3.03125,-0.85937 2.375,0 2.64062,1.71875 2.64062,2.6875 v 0.23437 c -4.48437,-0.0312 -6.98437,1.51563 -6.98437,4.3125 0,1.6875 1.20312,3.34375 3.54687,3.34375 1.65625,0 2.90625,-0.8125 3.54688,-1.73437 h 0.0781 l 0.17187,1.46875 z m -2.23437,-3.90625 c 0,0.20312 -0.0469,0.45312 -0.125,0.67187 -0.32813,0.98438 -1.29688,1.9375 -2.8125,1.9375 -1.07813,0 -1.98438,-0.64062 -1.98438,-2.01562 0,-2.25 2.60938,-2.65625 4.92188,-2.60938 z m 5.4414,3.90625 h 2.10938 v -17.04688 h -2.10938 z m 10.75391,0 h 2.0625 V 263.5 c 0,-0.35937 0.0469,-0.71875 0.17187,-1.03125 0.32813,-1.04687 1.29688,-2.10937 2.60938,-2.10937 1.60937,0 2.4375,1.34375 2.4375,3.20312 v 6.95313 h 2.0625 v -7.17188 c 0,-0.39062 0.0625,-0.76562 0.15625,-1.0625 0.35937,-1.03125 1.29687,-1.92187 2.5,-1.92187 1.70312,0 2.51562,1.34375 2.51562,3.57812 v 6.57813 h 2.07813 v -6.84375 c 0,-4.03125 -2.28125,-5.03125 -3.82813,-5.03125 -1.09375,0 -1.875,0.28125 -2.5625,0.8125 -0.48437,0.35937 -0.9375,0.85937 -1.29687,1.51562 h -0.0469 c -0.5,-1.375 -1.70313,-2.32812 -3.29688,-2.32812 -1.90625,0 -3,1.03125 -3.64062,2.125 h -0.0781 l -0.0937,-1.85938 h -1.84375 c 0.0781,0.95313 0.0937,1.9375 0.0937,3.14063 z m 28.375,0 c -0.15625,-0.79688 -0.20313,-1.78125 -0.20313,-2.78125 v -4.34375 c 0,-2.32813 -0.85937,-4.75 -4.40625,-4.75 -1.46875,0 -2.85937,0.40625 -3.8125,1.03125 l 0.46875,1.39062 c 0.8125,-0.53125 1.95313,-0.85937 3.03125,-0.85937 2.375,0 2.64063,1.71875 2.64063,2.6875 v 0.23437 c -4.48438,-0.0312 -6.98438,1.51563 -6.98438,4.3125 0,1.6875 1.20313,3.34375 3.54688,3.34375 1.65625,0 2.90625,-0.8125 3.54687,-1.73437 h 0.0781 l 0.17188,1.46875 z m -2.23438,-3.90625 c 0,0.20312 -0.0469,0.45312 -0.125,0.67187 -0.32812,0.98438 -1.29687,1.9375 -2.8125,1.9375 -1.07812,0 -1.98437,-0.64062 -1.98437,-2.01562 0,-2.25 2.60937,-2.65625 4.92187,-2.60938 z m 4.08204,-7.70313 3.92187,5.6875 -4.125,5.92188 h 2.32813 l 1.6875,-2.60938 c 0.42187,-0.70312 0.84374,-1.32812 1.21874,-2.01562 h 0.0469 c 0.40625,0.6875 0.79688,1.34375 1.25,2.01562 l 1.70313,2.60938 h 2.40625 l -4.07813,-6 3.95313,-5.60938 h -2.28125 l -1.625,2.46875 c -0.39063,0.625 -0.76563,1.21875 -1.15625,1.92188 h -0.0781 c -0.375,-0.65625 -0.73438,-1.25 -1.17188,-1.90625 l -1.65626,-2.48438 z m 14.58203,11.60938 v -11.60938 h -2.10938 v 11.60938 z m -1.04688,-16.20313 c -0.76562,0 -1.32812,0.57813 -1.32812,1.32813 0,0.71875 0.53125,1.29687 1.28125,1.29687 0.82812,0 1.35937,-0.57812 1.34375,-1.29687 0,-0.75 -0.51563,-1.32813 -1.29688,-1.32813 z m 4.55469,16.20313 h 2.0625 V 263.5 c 0,-0.35937 0.0469,-0.71875 0.17187,-1.03125 0.32813,-1.04687 1.29688,-2.10937 2.60938,-2.10937 1.60937,0 2.4375,1.34375 2.4375,3.20312 v 6.95313 h 2.0625 v -7.17188 c 0,-0.39062 0.0625,-0.76562 0.15625,-1.0625 0.35937,-1.03125 1.29687,-1.92187 2.5,-1.92187 1.70312,0 2.51563,1.34375 2.51563,3.57812 v 6.57813 h 2.07812 v -6.84375 c 0,-4.03125 -2.28126,-5.03125 -3.82813,-5.03125 -1.09375,0 -1.875,0.28125 -2.5625,0.8125 -0.48437,0.35937 -0.9375,0.85937 -1.29687,1.51562 h -0.0469 c -0.5,-1.375 -1.70312,-2.32812 -3.29687,-2.32812 -1.90625,0 -3,1.03125 -3.64063,2.125 h -0.0781 l -0.0937,-1.85938 h -1.84375 c 0.0781,0.95313 0.0937,1.9375 0.0937,3.14063 z m 28.375,0 c -0.15625,-0.79688 -0.20313,-1.78125 -0.20313,-2.78125 v -4.34375 c 0,-2.32813 -0.85938,-4.75 -4.40624,-4.75 -1.46876,0 -2.85938,0.40625 -3.81251,1.03125 l 0.46875,1.39062 c 0.8125,-0.53125 1.95313,-0.85937 3.03125,-0.85937 2.375,0 2.64063,1.71875 2.64063,2.6875 v 0.23437 c -4.48438,-0.0312 -6.98438,1.51563 -6.98438,4.3125 0,1.6875 1.20312,3.34375 3.54688,3.34375 1.65624,0 2.90624,-0.8125 3.54687,-1.73437 h 0.0781 l 0.17187,1.46875 z m -2.23437,-3.90625 c 0,0.20312 -0.0469,0.45312 -0.12494,0.67187 -0.32813,0.98438 -1.29688,1.9375 -2.8125,1.9375 -1.07812,0 -1.98438,-0.64062 -1.98438,-2.01562 0,-2.25 2.60938,-2.65625 4.92188,-2.60938 z m 0,0"
         style="fill:#ffffff;fill-opacity:1;fill-rule:nonzero;stroke:none;stroke-width:1.33333"
         aria-label="glacial maxima" />
    </g>
    <g
       id="g56"
       inkscape:label="outer text"
       style="display:inline;fill:#000000">
      <text
         xml:space="preserve"
         style="font-style:normal;font-variant:normal;font-weight:500;font-stretch:normal;font-size:26.6667px;font-family:'Avenir Next';-inkscape-font-specification:'Avenir Next, Medium';font-variant-ligatures:normal;font-variant-caps:normal;font-variant-numeric:normal;font-variant-east-asian:normal;text-align:end;baseline-shift:baseline;text-anchor:end;display:inline;fill:#000000;stroke:#000000;stroke-width:3.77953"
         x="-49.419704"
         y="45.053516"
         id="text53"
         transform="rotate(-90)"
         inkscape:label="ylabel"><tspan
           sodipodi:role="line"
           id="tspan53"
           x="-49.419704"
           y="45.053516"
           style="font-style:normal;font-variant:normal;font-weight:500;font-stretch:normal;font-size:26.6667px;font-family:'Avenir Next';-inkscape-font-specification:'Avenir Next, Medium';font-variant-ligatures:normal;font-variant-caps:normal;font-variant-numeric:normal;font-variant-east-asian:normal;fill:#000000;stroke:none">Benthic <tspan
   style="font-style:normal;font-variant:normal;font-weight:500;font-stretch:normal;font-size:26.6667px;font-family:'Avenir Next';-inkscape-font-specification:'Avenir Next, Medium';font-variant-ligatures:normal;font-variant-caps:normal;font-variant-numeric:normal;font-variant-east-asian:normal;baseline-shift:super;fill:#000000"
   id="tspan54">18</tspan>O ()</tspan></text>
      <path
         id="path25"
         d="m 83.515625,296.02734 c -2.46875,0 -4.21875,2.25 -4.21875,6.3125 0.03125,4.01563 1.640625,6.23438 4.015625,6.23438 2.687499,0 4.218749,-2.28125 4.218749,-6.40625 0,-3.85938 -1.453124,-6.14063 -4.015624,-6.14063 z m -0.09375,1.26563 c 1.703125,0 2.46875,1.96875 2.46875,4.95312 0,3.09375 -0.8125,5.0625 -2.484375,5.0625 -1.5,0 -2.46875,-1.79687 -2.46875,-4.95312 0,-3.29688 1.046875,-5.0625 2.484375,-5.0625 z m 131.988285,-1.0625 h -5.79688 l -0.78125,5.82812 c 0.4375,-0.0469 0.98437,-0.125 1.67187,-0.125 2.4375,0 3.46875,1.10938 3.5,2.6875 0,1.625 -1.32812,2.625 -2.875,2.625 -1.10937,0 -2.09375,-0.375 -2.60937,-0.67187 l -0.40625,1.25 c 0.57812,0.375 1.70312,0.75 3.03125,0.75 2.625,0 4.51563,-1.76563 4.51563,-4.14063 0,-1.53125 -0.78126,-2.57812 -1.73438,-3.125 -0.75,-0.4375 -1.6875,-0.65625 -2.60938,-0.65625 -0.45312,0 -0.71875,0.0469 -1,0.0781 l 0.46875,-3.10938 h 4.62501 z m 6.39062,-0.20313 c -2.46876,0 -4.21876,2.25 -4.21876,6.3125 0.0312,4.01563 1.64063,6.23438 4.01563,6.23438 2.68751,0 4.21875,-2.28125 4.21875,-6.40625 0,-3.85938 -1.45312,-6.14063 -4.01562,-6.14063 z m -0.0937,1.26563 c 1.70313,0 2.46876,1.96875 2.46876,4.95312 0,3.09375 -0.81251,5.0625 -2.48439,5.0625 -1.5,0 -2.46874,-1.79687 -2.46874,-4.95312 0,-3.29688 1.04688,-5.0625 2.48437,-5.0625 z m 9.66797,-1.26563 c -2.46874,0 -4.21874,2.25 -4.21874,6.3125 0.0312,4.01563 1.64062,6.23438 4.01562,6.23438 2.6875,0 4.21875,-2.28125 4.21875,-6.40625 0,-3.85938 -1.45312,-6.14063 -4.01563,-6.14063 z m -0.0937,1.26563 c 1.70312,0 2.46875,1.96875 2.46875,4.95312 0,3.09375 -0.8125,5.0625 -2.48438,5.0625 -1.5,0 -2.46874,-1.79687 -2.46874,-4.95312 0,-3.29688 1.04686,-5.0625 2.48437,-5.0625 z m 110.78905,11.07812 h 1.59376 v -12.14062 h -1.40625 l -2.65626,1.42187 0.32814,1.25 2.10937,-1.14062 h 0.0312 z m 10.06247,-12.34375 c -2.46875,0 -4.21875,2.25 -4.21875,6.3125 0.0312,4.01563 1.64063,6.23438 4.01563,6.23438 2.68749,0 4.21874,-2.28125 4.21874,-6.40625 0,-3.85938 -1.45313,-6.14063 -4.01562,-6.14063 z m -0.0937,1.26563 c 1.70312,0 2.46875,1.96875 2.46875,4.95312 0,3.09375 -0.81251,5.0625 -2.48437,5.0625 -1.5,0 -2.46875,-1.79687 -2.46875,-4.95312 0,-3.29688 1.04687,-5.0625 2.48437,-5.0625 z m 9.66796,-1.26563 c -2.46874,0 -4.21874,2.25 -4.21874,6.3125 0.0312,4.01563 1.64062,6.23438 4.01562,6.23438 2.6875,0 4.21875,-2.28125 4.21875,-6.40625 0,-3.85938 -1.45312,-6.14063 -4.01563,-6.14063 z m -0.0937,1.26563 c 1.70312,0 2.46875,1.96875 2.46875,4.95312 0,3.09375 -0.8125,5.0625 -2.48438,5.0625 -1.5,0 -2.46874,-1.79687 -2.46874,-4.95312 0,-3.29688 1.04688,-5.0625 2.48437,-5.0625 z m 9.66797,-1.26563 c -2.46874,0 -4.21874,2.25 -4.21874,6.3125 0.0312,4.01563 1.64061,6.23438 4.01561,6.23438 2.68751,0 4.21876,-2.28125 4.21876,-6.40625 0,-3.85938 -1.45313,-6.14063 -4.01563,-6.14063 z m -0.0937,1.26563 c 1.70312,0 2.46875,1.96875 2.46875,4.95312 0,3.09375 -0.81251,5.0625 -2.48438,5.0625 -1.5,0 -2.46876,-1.79687 -2.46876,-4.95312 0,-3.29688 1.04688,-5.0625 2.48439,-5.0625 z m 108.71874,11.07812 h 1.59375 v -12.14062 h -1.40625 l -2.65624,1.42187 0.32812,1.25 2.10937,-1.14062 h 0.0312 z m 13.24606,-12.14062 h -5.79688 l -0.78126,5.82812 c 0.43751,-0.0469 0.98439,-0.125 1.67188,-0.125 2.43751,0 3.46875,1.10938 3.5,2.6875 0,1.625 -1.32812,2.625 -2.875,2.625 -1.10937,0 -2.09374,-0.375 -2.60937,-0.67187 l -0.40625,1.25 c 0.57813,0.375 1.70313,0.75 3.03125,0.75 2.625,0 4.51563,-1.76563 4.51563,-4.14063 0,-1.53125 -0.78126,-2.57812 -1.73438,-3.125 -0.75,-0.4375 -1.6875,-0.65625 -2.60937,-0.65625 -0.45313,0 -0.71876,0.0469 -1,0.0781 l 0.46875,-3.10938 h 4.625 z m 6.39062,-0.20313 c -2.46876,0 -4.21876,2.25 -4.21876,6.3125 0.0312,4.01563 1.64063,6.23438 4.01563,6.23438 2.68751,0 4.21876,-2.28125 4.21876,-6.40625 0,-3.85938 -1.45313,-6.14063 -4.01563,-6.14063 z m -0.0937,1.26563 c 1.70313,0 2.46876,1.96875 2.46876,4.95312 0,3.09375 -0.81251,5.0625 -2.48437,5.0625 -1.5,0 -2.46876,-1.79687 -2.46876,-4.95312 0,-3.29688 1.04688,-5.0625 2.48437,-5.0625 z m 9.66797,-1.26563 c -2.46874,0 -4.21874,2.25 -4.21874,6.3125 0.0312,4.01563 1.64062,6.23438 4.01562,6.23438 2.6875,0 4.21875,-2.28125 4.21875,-6.40625 0,-3.85938 -1.45312,-6.14063 -4.01563,-6.14063 z m -0.0937,1.26563 c 1.70312,0 2.46875,1.96875 2.46875,4.95312 0,3.09375 -0.8125,5.0625 -2.48438,5.0625 -1.5,0 -2.46874,-1.79687 -2.46874,-4.95312 0,-3.29688 1.04686,-5.0625 2.48437,-5.0625 z m 112.9023,11.07812 v -1.35937 h -5.45313 v -0.0469 l 0.96875,-0.89062 c 2.5625,-2.46875 4.1875,-4.28125 4.1875,-6.51563 0,-1.73437 -1.10937,-3.53125 -3.71874,-3.53125 -1.40626,0 -2.59376,0.53125 -3.43751,1.23438 l 0.51563,1.15625 c 0.5625,-0.46875 1.48437,-1.03125 2.57812,-1.03125 1.8125,0 2.40625,1.14062 2.40625,2.375 -0.0156,1.82812 -1.40625,3.40625 -4.51563,6.34375 l -1.28124,1.25 v 1.01562 z m 5.875,-12.34375 c -2.46876,0 -4.21876,2.25 -4.21876,6.3125 0.0312,4.01563 1.64063,6.23438 4.01563,6.23438 2.68751,0 4.21875,-2.28125 4.21875,-6.40625 0,-3.85938 -1.45312,-6.14063 -4.01562,-6.14063 z m -0.0937,1.26563 c 1.70313,0 2.46876,1.96875 2.46876,4.95312 0,3.09375 -0.81251,5.0625 -2.48439,5.0625 -1.5,0 -2.46874,-1.79687 -2.46874,-4.95312 0,-3.29688 1.04688,-5.0625 2.48437,-5.0625 z m 9.66797,-1.26563 c -2.46874,0 -4.21874,2.25 -4.21874,6.3125 0.0312,4.01563 1.64062,6.23438 4.01562,6.23438 2.6875,0 4.21875,-2.28125 4.21875,-6.40625 0,-3.85938 -1.45312,-6.14063 -4.01563,-6.14063 z m -0.0937,1.26563 c 1.70312,0 2.46875,1.96875 2.46875,4.95312 0,3.09375 -0.8125,5.0625 -2.48438,5.0625 -1.5,0 -2.46874,-1.79687 -2.46874,-4.95312 0,-3.29688 1.04686,-5.0625 2.48437,-5.0625 z m 9.67187,-1.26563 c -2.46875,0 -4.21875,2.25 -4.21875,6.3125 0.0312,4.01563 1.64063,6.23438 4.01563,6.23438 2.6875,0 4.21874,-2.28125 4.21874,-6.40625 0,-3.85938 -1.45312,-6.14063 -4.01562,-6.14063 z m -0.0937,1.26563 c 1.70314,0 2.46875,1.96875 2.46875,4.95312 0,3.09375 -0.81249,5.0625 -2.48437,5.0625 -1.5,0 -2.46875,-1.79687 -2.46875,-4.95312 0,-3.29688 1.04688,-5.0625 2.48437,-5.0625 z m 112.90229,11.07812 v -1.35937 h -5.45312 v -0.0469 l 0.96875,-0.89062 c 2.56249,-2.46875 4.18749,-4.28125 4.18749,-6.51563 0,-1.73437 -1.10937,-3.53125 -3.71874,-3.53125 -1.40626,0 -2.59375,0.53125 -3.4375,1.23438 l 0.51562,1.15625 c 0.5625,-0.46875 1.48438,-1.03125 2.57813,-1.03125 1.81249,0 2.40625,1.14062 2.40625,2.375 -0.0156,1.82812 -1.40625,3.40625 -4.51562,6.34375 l -1.28126,1.25 v 1.01562 z m 9.0625,-12.14062 h -5.79687 l -0.78125,5.82812 c 0.4375,-0.0469 0.98437,-0.125 1.67188,-0.125 2.43749,0 3.46874,1.10938 3.5,2.6875 0,1.625 -1.32814,2.625 -2.875,2.625 -1.10938,0 -2.09376,-0.375 -2.60938,-0.67187 l -0.40625,1.25 c 0.57812,0.375 1.70312,0.75 3.03125,0.75 2.625,0 4.51562,-1.76563 4.51562,-4.14063 0,-1.53125 -0.78124,-2.57812 -1.73438,-3.125 -0.75,-0.4375 -1.68749,-0.65625 -2.60937,-0.65625 -0.45312,0 -0.71875,0.0469 -1,0.0781 l 0.46875,-3.10938 h 4.625 z m 6.38672,-0.20313 c -2.46875,0 -4.21875,2.25 -4.21875,6.3125 0.0312,4.01563 1.64063,6.23438 4.01563,6.23438 2.68749,0 4.21874,-2.28125 4.21874,-6.40625 0,-3.85938 -1.45312,-6.14063 -4.01562,-6.14063 z m -0.0937,1.26563 c 1.70312,0 2.46875,1.96875 2.46875,4.95312 0,3.09375 -0.81249,5.0625 -2.48437,5.0625 -1.5,0 -2.46875,-1.79687 -2.46875,-4.95312 0,-3.29688 1.04688,-5.0625 2.48437,-5.0625 z m 9.66798,-1.26563 c -2.46876,0 -4.21876,2.25 -4.21876,6.3125 0.0312,4.01563 1.64062,6.23438 4.01562,6.23438 2.68751,0 4.21876,-2.28125 4.21876,-6.40625 0,-3.85938 -1.45313,-6.14063 -4.01562,-6.14063 z m -0.0937,1.26563 c 1.70314,0 2.46876,1.96875 2.46876,4.95312 0,3.09375 -0.8125,5.0625 -2.48437,5.0625 -1.5,0 -2.46876,-1.79687 -2.46876,-4.95312 0,-3.29688 1.04688,-5.0625 2.48437,-5.0625 z m 0,0"
         style="display:inline;fill:#000000;fill-opacity:1;fill-rule:nonzero;stroke:none;stroke-width:1.33333"
         aria-label="05001000150020002500" />
      <path
         id="path40"
         d="m 69.488282,56.324219 c 0.593749,0.390625 1.796875,0.8125 3.156249,0.8125 2.921875,0 4.421875,-1.703125 4.421875,-3.640625 0,-1.703125 -1.203125,-2.8125 -2.703125,-3.109375 v -0.04687 c 1.5,-0.53125 2.234375,-1.609375 2.234375,-2.859375 0,-1.46875 -1.078125,-2.890625 -3.46875,-2.890625 -1.296875,0 -2.531249,0.46875 -3.171874,0.9375 l 0.437499,1.1875 c 0.515626,-0.375 1.453126,-0.796875 2.421875,-0.796875 1.515625,0 2.125,0.859375 2.125,1.828125 0,1.4375 -1.515625,2.0625 -2.703125,2.0625 h -0.921874 v 1.21875 h 0.921874 c 1.578125,0 3.109375,0.734375 3.140625,2.4375 0.01563,1 -0.640625,2.34375 -2.749999,2.34375 -1.140626,0 -2.21875,-0.46875 -2.6875,-0.765625 z m 6.687499,95.171871 v -3.3125 h 1.703125 v -1.28125 h -1.703125 v -7.54687 h -1.78125 l -5.406249,7.75 v 1.07812 h 5.640624 v 3.3125 z m -5.53125,-4.59375 v -0.0312 l 2.96875,-4.125 c 0.34375,-0.5625 0.640625,-1.09375 1.015625,-1.79688 h 0.04687 c -0.03125,0.625 -0.04687,1.26563 -0.04687,1.90625 v 4.04688 z m 6.140625,89.6875 h -5.796875 l -0.78125,5.82813 c 0.4375,-0.0469 0.984376,-0.12493 1.671876,-0.12493 2.437499,0 3.468749,1.10937 3.499999,2.68749 0,1.625 -1.328125,2.625 -2.874999,2.625 -1.109376,0 -2.09375,-0.375 -2.609375,-0.67187 l -0.40625,1.25 c 0.578125,0.375 1.703125,0.75 3.031249,0.75 2.625,0 4.515625,-1.76562 4.515625,-4.14062 0,-1.53126 -0.78125,-2.57814 -1.734375,-3.125 -0.75,-0.43751 -1.6875,-0.65626 -2.609374,-0.65626 -0.453126,0 -0.71875,0.0469 -1,0.0781 l 0.46875,-3.10938 h 4.624999 z m 0,0"
         style="display:inline;fill:#000000;fill-opacity:1;fill-rule:nonzero;stroke:none;stroke-width:1.33333"
         aria-label="3&#10;4&#10;5" />
      <text
         xml:space="preserve"
         id="text54"
         style="font-style:normal;font-variant:normal;font-weight:500;font-stretch:normal;font-size:26.6667px;font-family:'Avenir Next';-inkscape-font-specification:'Avenir Next, Medium';font-variant-ligatures:normal;font-variant-caps:normal;font-variant-numeric:normal;font-variant-east-asian:normal;text-align:end;white-space:pre;shape-inside:url(#rect54);display:inline;fill:#000000;stroke:none;stroke-width:3.77953"
         transform="translate(-43.81685,-42.984844)"
         inkscape:label="time"><tspan
           x="422.90525"
           y="381.29453"
           id="tspan1">Time (ka)</tspan></text>
    </g>
    <g
       id="g53"
       inkscape:label="lines"
       style="display:none;fill:none;stroke:#ffffff">
      <path
         id="path44"
         d="m 203.63347,58.163867 20.11733,-5.908"
         style="fill:none;stroke:#ffffff;stroke-width:1.33333;stroke-linecap:square;stroke-linejoin:round;stroke-miterlimit:10;stroke-dasharray:none;stroke-opacity:1" />
      <path
         id="path45"
         d="M 316.0228,83.263467 312.26013,60.698134"
         style="fill:none;stroke:#ffffff;stroke-width:1.33333;stroke-linecap:square;stroke-linejoin:round;stroke-miterlimit:10;stroke-dasharray:none;stroke-opacity:1" />
      <path
         id="path47"
         d="m 271.8288,270.518 -58.136,-16.61333"
         style="fill:none;stroke:#ffffff;stroke-width:1.33333;stroke-linecap:square;stroke-linejoin:round;stroke-miterlimit:10;stroke-dasharray:none;stroke-opacity:1" />
      <path
         id="path48"
         d="m 271.69147,259.936 -6.448,-10.06933"
         style="fill:none;stroke:#ffffff;stroke-width:1.33333;stroke-linecap:square;stroke-linejoin:round;stroke-miterlimit:10;stroke-dasharray:none;stroke-opacity:1" />
    </g>
  </g>
</svg>
