<?xml version="1.0" encoding="UTF-8" standalone="no"?>
<!-- Created with Inkscape (http://www.inkscape.org/) -->

<svg
   version="1.1"
   id="svg1"
   width="800"
   height="380"
   viewBox="0 0 800 380"
   sodipodi:docname="nN-halflife.svg"
   inkscape:version="1.3.2 (091e20e, 2023-11-25)"
   xmlns:inkscape="http://www.inkscape.org/namespaces/inkscape"
   xmlns:sodipodi="http://sodipodi.sourceforge.net/DTD/sodipodi-0.dtd"
   xmlns="http://www.w3.org/2000/svg"
   xmlns:svg="http://www.w3.org/2000/svg">
  <defs
     id="defs1" />
  <sodipodi:namedview
     id="namedview1"
     pagecolor="#505050"
     bordercolor="#ffffff"
     borderopacity="1"
     inkscape:showpageshadow="0"
     inkscape:pageopacity="0"
     inkscape:pagecheckerboard="1"
     inkscape:deskcolor="#505050"
     inkscape:zoom="0.83443414"
     inkscape:cx="508.72799"
     inkscape:cy="316.38207"
     inkscape:window-width="1384"
     inkscape:window-height="871"
     inkscape:window-x="0"
     inkscape:window-y="24"
     inkscape:window-maximized="0"
     inkscape:current-layer="g1">
    <inkscape:page
       x="0"
       y="0"
       inkscape:label="1"
       id="page1"
       width="800"
       height="380"
       margin="0"
       bleed="0" />
  </sodipodi:namedview>
  <g
     id="g1"
     inkscape:groupmode="layer"
     inkscape:label="1">
    <path
       id="path1"
       d="M 0,0 H 600 V 285 H 0 Z"
       style="fill:#ffffff;fill-opacity:1;fill-rule:nonzero;stroke:none"
       transform="scale(1.3333333)" />
    <path
       id="path2"
       d="m 55.5,27.75 h 234.75 v 202.5 H 55.5 Z"
       style="fill:#ffffff;fill-opacity:1;fill-rule:nonzero;stroke:none"
       transform="scale(1.3333333)" />
    <path
       id="path3"
       d="M 353.25,27.75 H 588 v 202.5 H 353.25 Z"
       style="fill:#ffffff;fill-opacity:1;fill-rule:nonzero;stroke:none"
       transform="scale(1.3333333)" />
    <path
       id="path4"
       d="M 55.5,221.047 H 290.25"
       style="fill:none;stroke:#000000;stroke-width:0.75;stroke-linecap:butt;stroke-linejoin:miter;stroke-miterlimit:2;stroke-dasharray:none;stroke-opacity:0.12"
       transform="scale(1.3333333)" />
    <path
       id="path5"
       d="M 55.5,36.953 H 290.25"
       style="fill:none;stroke:#000000;stroke-width:0.75;stroke-linecap:butt;stroke-linejoin:miter;stroke-miterlimit:2;stroke-dasharray:none;stroke-opacity:0.12"
       transform="scale(1.3333333)" />
    <path
       id="path6"
       d="M 363.922,230.25 V 27.75"
       style="fill:none;stroke:#000000;stroke-width:0.75;stroke-linecap:butt;stroke-linejoin:miter;stroke-miterlimit:2;stroke-dasharray:none;stroke-opacity:0.12"
       transform="scale(1.3333333)" />
    <path
       id="path7"
       d="M 417.273,230.25 V 27.75"
       style="fill:none;stroke:#000000;stroke-width:0.75;stroke-linecap:butt;stroke-linejoin:miter;stroke-miterlimit:2;stroke-dasharray:none;stroke-opacity:0.12"
       transform="scale(1.3333333)" />
    <path
       id="path8"
       d="M 470.625,230.25 V 27.75"
       style="fill:none;stroke:#000000;stroke-width:0.75;stroke-linecap:butt;stroke-linejoin:miter;stroke-miterlimit:2;stroke-dasharray:none;stroke-opacity:0.12"
       transform="scale(1.3333333)" />
    <path
       id="path9"
       d="M 523.977,230.25 V 27.75"
       style="fill:none;stroke:#000000;stroke-width:0.75;stroke-linecap:butt;stroke-linejoin:miter;stroke-miterlimit:2;stroke-dasharray:none;stroke-opacity:0.12"
       transform="scale(1.3333333)" />
    <path
       id="path10"
       d="M 577.328,230.25 V 27.75"
       style="fill:none;stroke:#000000;stroke-width:0.75;stroke-linecap:butt;stroke-linejoin:miter;stroke-miterlimit:2;stroke-dasharray:none;stroke-opacity:0.12"
       transform="scale(1.3333333)" />
    <path
       id="path11"
       d="M 353.25,221.047 H 588"
       style="fill:none;stroke:#000000;stroke-width:0.75;stroke-linecap:butt;stroke-linejoin:miter;stroke-miterlimit:2;stroke-dasharray:none;stroke-opacity:0.12"
       transform="scale(1.3333333)" />
    <path
       id="path12"
       d="M 353.25,208.773 H 588"
       style="fill:none;stroke:#000000;stroke-width:0.75;stroke-linecap:butt;stroke-linejoin:miter;stroke-miterlimit:2;stroke-dasharray:none;stroke-opacity:0.12"
       transform="scale(1.3333333)" />
    <path
       id="path13"
       d="M 353.25,184.227 H 588"
       style="fill:none;stroke:#000000;stroke-width:0.75;stroke-linecap:butt;stroke-linejoin:miter;stroke-miterlimit:2;stroke-dasharray:none;stroke-opacity:0.12"
       transform="scale(1.3333333)" />
    <path
       id="path14"
       d="M 353.25,135.137 H 588"
       style="fill:none;stroke:#000000;stroke-width:0.75;stroke-linecap:butt;stroke-linejoin:miter;stroke-miterlimit:2;stroke-dasharray:none;stroke-opacity:0.12"
       transform="scale(1.3333333)" />
    <path
       id="path15"
       d="M 353.25,36.953 H 588"
       style="fill:none;stroke:#000000;stroke-width:0.75;stroke-linecap:butt;stroke-linejoin:miter;stroke-miterlimit:2;stroke-dasharray:none;stroke-opacity:0.12"
       transform="scale(1.3333333)" />
    <path
       id="path16"
       d="m 7.1599962,0.00118987 h 1.125 V -9.4206774 h -1.125 v 4.1601528 H 2.3904649 V -9.4206774 H 1.2537462 V 0.00118987 H 2.3904649 V -4.2644317 h 4.7695313 z m 0,0"
       style="fill:#000000;fill-opacity:1;fill-rule:nonzero;stroke:none"
       aria-label="H"
       transform="matrix(1.3333333,0,0,1.3333344,191.92599,360.84998)" />
    <path
       id="path17"
       d="M 6.8205753,0.00118988 V -0.94802965 H 6.0237003 V -4.780064 c 0,-1.464845 -0.9960937,-2.3437519 -2.671875,-2.3437519 -1.2539062,0 -2.0976562,0.6210942 -2.47265624,1.3593761 l 0.64453124,0.6093755 c 0.375,-0.632813 0.9375,-1.0429696 1.7695313,-1.0429696 1.1132812,0 1.6523437,0.5390629 1.6523437,1.5234387 v 0.6914068 H 3.5627628 c -2.0273437,0 -2.96484374,0.7265631 -2.96484374,2.0390642 0,1.3007823 0.85546874,2.10937671 2.33203124,2.10937671 0.9726563,0 1.7109375,-0.44531286 2.015625,-1.30078231 h 0.058594 c 0.082031,0.65625053 0.4101562,1.13671968 1.2070312,1.13671968 z M 3.1057316,-0.76052949 c -0.8320313,0 -1.3828125,-0.38671911 -1.3828125,-1.07812591 v -0.2812502 c 0,-0.6679693 0.5625,-1.0546884 1.7929687,-1.0546884 h 1.4296875 v 1.1484385 c 0,0.7148443 -0.7734375,1.26562601 -1.8398437,1.26562601 z m 0,0"
       style="fill:#000000;fill-opacity:1;fill-rule:nonzero;stroke:none"
       aria-label="a"
       transform="matrix(1.3333333,0,0,1.3333322,204.65199,360.84998)" />
    <path
       id="path18"
       d="M 3.2590252,0.00118987 V -0.9480281 h -1.03125 V -9.983177 h -1.078125 v 8.8593678 c 0,0.65624946 0.3984375,1.12499907 1.1484375,1.12499907 z m 1.9365235,0 h 1.078125 V -6.0222427 h 1.5 V -6.959742 h -1.5 v -2.0859358 h 1.5 V -9.983177 H 6.7189862 c -1.0195313,0 -1.5234375,0.6562495 -1.5234375,1.6171862 V -6.959742 H 4.0588299 v 0.9374993 h 1.1367188 z m 0,0"
       style="fill:#000000;fill-opacity:1;fill-rule:nonzero;stroke:none"
       aria-label="lf"
       transform="matrix(1.3333333,0,0,1.3333344,214.26401,360.84998)" />
    <path
       id="path19"
       d="M 4.4532736,-3.5261539 V -4.6863101 H 0.92592988 v 1.1601562 z m 4.1923828,3.52734377 v -0.94921875 h -1.03125 V -9.9831851 h -1.078125 v 8.859375 c 0,0.65624997 0.3984375,1.12499997 1.1484375,1.12499997 z m 0,0"
       style="fill:#000000;fill-opacity:1;fill-rule:nonzero;stroke:none"
       aria-label="-l"
       transform="matrix(1.3333333,0,0,1.3333333,224.99199,360.84998)" />
    <path
       id="path20"
       d="m 1.6877294,-8.6003656 c 0.4570312,0 0.65625,-0.2460936 0.65625,-0.6093745 v -0.1757811 c 0,-0.363281 -0.1992188,-0.5976558 -0.65625,-0.5976558 -0.4570313,0 -0.65625,0.2343748 -0.65625,0.5976558 v 0.1757811 c 0,0.3632809 0.1992187,0.6093745 0.65625,0.6093745 z M 1.1486669,0.00118987 h 1.078125 V -6.959742 h -1.078125 z m 0,0"
       style="fill:#000000;fill-opacity:1;fill-rule:nonzero;stroke:none"
       aria-label="i"
       transform="matrix(1.3333333,0,0,1.3333344,237.07001,360.84998)" />
    <path
       id="path21"
       d="M 3.9377404,0.00118988 6.3986779,-6.9597533 H 5.3557091 l -1.2421875,3.4453153 -0.75,2.3789082 h -0.070312 l -0.75,-2.3789082 -1.21875,-3.4453153 H 0.24633413 L 2.6838341,0.00118988 Z m 6.4658206,0.16406263 c 1.3125,0 2.308593,-0.64453178 2.753906,-1.59375131 l -0.761719,-0.5507817 c -0.363281,0.7617194 -1.042969,1.19531349 -1.921875,1.19531349 -1.2890623,0 -2.0624998,-0.90234449 -2.0624998,-2.10937669 v -0.3164065 h 5.0039058 v -0.5156255 c 0,-1.9687516 -1.148437,-3.3984402 -3.011718,-3.3984402 -1.8867191,0 -3.1289066,1.4296886 -3.1289066,3.6445342 0,2.2148455 1.2421875,3.64453421 3.1289066,3.64453421 z m 0,-6.38672391 c 1.113281,0 1.851562,0.8203131 1.851562,2.0507829 v 0.1523439 H 8.4113732 v -0.09375 c 0,-1.218751 0.8203125,-2.1093767 1.9921878,-2.1093768 z m 0,0"
       style="fill:#000000;fill-opacity:1;fill-rule:nonzero;stroke:none"
       aria-label="ve"
       transform="matrix(1.3333333,0,0,1.3333322,241.56999,360.84998)" />
    <path
       id="path22"
       d="m 3.2348323,0.16525237 c 1.59375,0 2.5898438,-0.8203125 2.5898438,-2.17968747 0,-1.0546875 -0.5976563,-1.7226563 -2.1445313,-1.9570313 l -0.5390625,-0.082031 c -0.8554687,-0.1289063 -1.3359375,-0.3984375 -1.3359375,-1.078125 0,-0.65625 0.4804688,-1.078125 1.3710938,-1.078125 0.890625,0 1.4765625,0.421875 1.7929687,0.8554687 l 0.7148438,-0.65625 c -0.5625,-0.703125 -1.3125,-1.1132812 -2.4257813,-1.1132812 -1.4179687,0 -2.48437499,0.6679687 -2.48437499,2.0507812 0,1.2890625 0.94921879,1.8164063 2.23828129,2.0039063 l 0.5507812,0.082031 c 0.9140625,0.140625 1.21875,0.5625 1.21875,1.1015625 0,0.7148438 -0.5390625,1.12500002 -1.4648437,1.12500002 -0.8671875,0 -1.5234375,-0.38671872 -2.0625,-1.06640622 L 0.48092606,-1.2058414 C 1.1020198,-0.37381013 1.9574886,0.16525237 3.2348323,0.16525237 Z m 0,0"
       style="fill:#000000;fill-opacity:1;fill-rule:nonzero;stroke:none"
       aria-label="s"
       transform="matrix(1.3333333,0,0,1.3333333,260.30798,360.84998)" />
    <path
       id="path23"
       d="m 4.0553403,0.16346764 c 2.25,0 3.234375,-1.79296954 3.234375,-4.87500214 0,-3.0820327 -0.984375,-4.8750022 -3.234375,-4.8750022 -2.2617188,0 -3.2460938,1.7929695 -3.2460938,4.8750022 0,3.0820326 0.984375,4.87500214 3.2460938,4.87500214 z m 0,-0.98437544 c -1.4765625,0 -2.0625,-1.3007818 -2.0625,-3.1171889 v -1.5468757 c 0,-1.816407 0.5859375,-3.1171889 2.0625,-3.1171889 1.4648437,0 2.0507812,1.3007819 2.0507812,3.1171889 v 1.5468757 c 0,1.8164071 -0.5859375,3.1171889 -2.0507812,3.1171889 z m 0,0"
       style="fill:#000000;fill-opacity:1;fill-rule:nonzero;stroke:none"
       aria-label="0"
       transform="matrix(1.3333333,0,0,1.3333327,82.827255,334.45001)" />
    <path
       id="path24"
       d="M 7.3816685,-5.949375e-4 V -0.99668869 H 4.9558873 V -9.4224699 H 3.186356 l -2.49609375,2.3320312 0.65625005,0.7148438 2.3789062,-2.2148438 h 0.09375 v 7.59375001 H 1.1824498 v 0.9960937525 z m 0,0"
       style="fill:#000000;fill-opacity:1;fill-rule:nonzero;stroke:none"
       aria-label="1"
       transform="matrix(1.3333333,0,0,1.3333333,130.25153,334.45001)" />
    <path
       id="path25"
       d="M 7.1953244,-0.99668788 H 2.2382932 L 4.7812619,-3.2818423 c 1.1953125,-1.0781241 2.0625,-2.1093732 2.0625,-3.5624971 0,-1.6054674 -1.0546875,-2.7421852 -2.8828125,-2.7421852 -1.828125,0 -2.6601562,1.1132803 -3.03515621,2.2148419 l 1.01953121,0.3867185 c 0.2578125,-0.8906243 0.796875,-1.5937487 1.9570313,-1.5937487 1.1601562,0 1.7460937,0.7265619 1.7460937,1.757811 v 0.1640624 c 0,0.902343 -0.6796875,1.851561 -1.5585937,2.6601541 l -3.0820313,2.8359352 v 1.16015526298 h 6.1875 z m 0,0"
       style="fill:#000000;fill-opacity:1;fill-rule:nonzero;stroke:none"
       aria-label="2"
       transform="matrix(1.3333333,0,0,1.3333344,177.67577,334.45001)" />
    <path
       id="path26"
       d="m 2.4972726,-5.4263806 v 0.9843758 h 1.1132813 c 1.3125,0 2.015625,0.632813 2.015625,1.7460952 v 0.1054688 c 0,1.1015634 -0.703125,1.73437641 -2.015625,1.73437641 -1.1484375,0 -1.7109375,-0.49218791 -2.1914063,-1.24218851 l -0.85546873,0.6562505 c 0.58593753,0.80859445 1.41796873,1.6054701 3.05859373,1.6054701 1.9101563,0 3.1992188,-1.12500092 3.1992188,-2.7421897 0,-1.4179699 -0.9726563,-2.1796893 -1.9921875,-2.3789082 v -0.046875 c 1.0078125,-0.2578127 1.8164062,-0.9843758 1.8164062,-2.2031268 0,-1.5234387 -1.2773437,-2.3789081 -2.859375,-2.3789081 -1.5117187,0 -2.34375,0.7851568 -2.81249998,1.5351575 l 0.83203128,0.6562505 c 0.3984375,-0.7148443 0.9726562,-1.1835947 1.9453125,-1.1835947 1.0078125,0 1.6875,0.5039066 1.6875,1.4882824 v 0.09375 c 0,0.9023445 -0.6445313,1.5703138 -1.9101563,1.5703138 z m 0,0"
       style="fill:#000000;fill-opacity:1;fill-rule:nonzero;stroke:none"
       aria-label="3"
       transform="matrix(1.3333333,0,0,1.3333322,225.09999,334.45001)" />
    <path
       id="path27"
       d="M 6.1400071,-5.9493649e-4 V -1.8521543 H 7.5111009 V -2.7896527 H 6.1400071 v -6.6328012 h -1.6875 l -3.93749998,6.5742076 v 0.996092 H 5.0618821 V -5.9493649e-4 Z M 4.9915696,-8.5435491 h 0.070312 v 5.7538964 H 1.5814134 Z m 0,0"
       style="fill:#000000;fill-opacity:1;fill-rule:nonzero;stroke:none"
       aria-label="4"
       transform="matrix(1.3333333,0,0,1.3333356,272.52426,334.45001)" />
    <path
       id="path28"
       d="M 6.7270886,-9.4224699 H 1.6763073 l -0.3398437,5.1796875 0.9609375,0.140625 c 0.3867187,-0.4335938 0.8203125,-0.796875 1.6875,-0.796875 1.2773437,0 1.96875,0.7148437 1.96875,1.9570312 v 0.1289063 c 0,1.2421875 -0.6914063,1.95703121 -1.96875,1.95703121 -1.1367188,0 -1.6054688,-0.49218751 -2.0976563,-1.24218751 l -0.84375,0.65625 c 0.5625,0.80859376 1.3710938,1.60546876 2.9414063,1.60546876 1.9804687,0 3.1757812,-1.28906246 3.1757812,-3.11718746 0,-1.828125 -1.1953125,-2.9179688 -2.8125,-2.9179688 -0.984375,0 -1.4882812,0.3984375 -1.9335937,1.0429688 h -0.09375 L 2.5903698,-8.4263762 H 6.7270886 Z M 39.639198,0.16346756 c 1.886719,0 3.128906,-1.26562496 3.128906,-3.11718746 0,-1.78125 -1.160156,-2.90625 -2.777344,-2.90625 -1.148437,0 -1.828125,0.5859375 -2.273437,1.3476562 l -0.07031,-0.023437 c 0.515625,-2.1914062 1.640625,-3.421875 3.644532,-4.8867187 H 39.83842 c -1.511719,0.984375 -3.363282,3.1757812 -3.363282,5.9648437 0,2.2382813 1.207032,3.62109376 3.164063,3.62109376 z m -0.01172,-0.984375 c -1.242187,0 -1.980469,-0.71484376 -1.980469,-1.99218746 v -0.1054688 c 0,-1.265625 0.738282,-1.9804687 1.980469,-1.9804687 1.242188,0 1.96875,0.7148437 1.96875,1.9804687 v 0.1054688 c 0,1.2773437 -0.726562,1.99218746 -1.96875,1.99218746 z m 0,0"
       style="fill:#000000;fill-opacity:1;fill-rule:nonzero;stroke:none"
       aria-label="56"
       transform="matrix(1.3333333,0,0,1.3333333,319.94852,334.45001)" />
    <path
       id="path29"
       d="M 8.3427546,-5.4931226e-4 5.0497859,-9.4224201 H 3.6083796 L 0.30369213,-5.4931226e-4 H 1.4521296 L 2.4013484,-2.7778918 H 6.2099421 L 7.1591609,-5.4931226e-4 Z M 5.9286921,-3.7857039 H 2.6708796 l 1.59375,-4.5820292 h 0.070312 z M 9.801739,-5.4931226e-4 h 1.078125 V -1.1372676 h 0.05859 c 0.410156,0.86718716 1.078125,1.30078071 2.039062,1.30078071 1.734375,0 2.835938,-1.41796811 2.835938,-3.64452961 0,-2.2265615 -1.101563,-3.6445296 -2.835938,-3.6445296 -0.960937,0 -1.675781,0.410156 -2.039062,1.2890619 h -0.05859 V -9.9849199 H 9.801739 Z M 12.672833,-0.8091427 c -0.984375,0 -1.792969,-0.5156248 -1.792969,-1.4179681 v -2.5898426 c 0,-0.7734372 0.808594,-1.3359369 1.792969,-1.3359369 1.21875,0 1.96875,0.8320309 1.96875,2.0742178 v 1.1835932 c 0,1.242187 -0.75,2.0859366 -1.96875,2.0859366 z m 9.249023,0.80859338774 h 1.078125 V -6.9614837 h -1.078125 v 4.8164041 c 0,0.9140621 -0.832031,1.3359369 -1.6875,1.3359369 -1.03125,0 -1.59375,-0.6328122 -1.59375,-1.8749992 v -4.2773418 h -1.078125 v 4.4648417 c 0,1.6874993 0.914063,2.66015511 2.355469,2.66015511 1.160156,0 1.6875,-0.63281221 1.957031,-1.30078071 h 0.04687 z m 4.456055,0 V -4.8286722 c 0,-0.8906246 0.84375,-1.3242181 1.699219,-1.3242181 1.042968,0 1.582031,0.6328122 1.582031,1.8749991 v 4.27734188774 h 1.078125 V -4.4653911 c 0,-1.6874992 -0.902344,-2.660155 -2.332031,-2.660155 -1.042969,0 -1.640625,0.5156247 -1.96875,1.2890619 h -0.05859 V -6.9614837 H 25.29979 v 6.96093438774 z m 11.041992,0 h 1.078125 V -9.9849199 h -1.078125 v 4.1484357 h -0.05859 c -0.363281,-0.8789059 -1.078125,-1.2890619 -2.027343,-1.2890619 -1.746094,0 -2.835938,1.4179681 -2.835938,3.6445296 0,2.2265615 1.089844,3.64452961 2.835938,3.64452961 0.949218,0 1.617187,-0.43359355 2.027343,-1.30078071 h 0.05859 z M 35.626934,-0.8091427 c -1.21875,0 -1.96875,-0.8437496 -1.96875,-2.0859366 v -1.1835932 c 0,-1.2421869 0.75,-2.0742178 1.96875,-2.0742178 0.984375,0 1.792969,0.5624997 1.792969,1.3359369 v 2.5898426 c 0,0.9023433 -0.808594,1.4179681 -1.792969,1.4179681 z m 0,0"
       style="fill:#000000;fill-opacity:1;fill-rule:nonzero;stroke:none"
       aria-label="Abund"
       transform="matrix(0,-1.3333333,1.3333339,0,32.879639,217.81899)" />
    <path
       id="path30"
       d="M 6.8202098,-5.493127e-4 V -0.94976841 H 6.0233348 V -4.7818011 c 0,-1.4648443 -0.9960938,-2.3437509 -2.671875,-2.3437509 -1.2539063,0 -2.0976563,0.621094 -2.4726563,1.3593756 l 0.6445313,0.6093752 c 0.375,-0.6328128 0.9375,-1.0429692 1.7695312,-1.0429692 1.1132813,0 1.6523438,0.5390627 1.6523438,1.5234381 v 0.6914065 H 3.5623973 c -2.0273438,0 -2.9648438,0.7265628 -2.9648438,2.0390633 0,1.3007817 0.8554688,2.10937575 2.3320313,2.10937575 0.9726562,0 1.7109375,-0.44531267 2.015625,-1.30078175 h 0.058594 c 0.082031,0.65625026 0.4101563,1.1367191873 1.2070313,1.1367191873 z M 3.105366,-0.76226834 c -0.8320312,0 -1.3828125,-0.38671886 -1.3828125,-1.07812536 v -0.2812501 c 0,-0.667969 0.5625,-1.0546879 1.7929688,-1.0546879 h 1.4296875 v 1.1484379 c 0,0.714844 -0.7734375,1.26562546 -1.8398438,1.26562546 z m 0,0"
       style="fill:#000000;fill-opacity:1;fill-rule:nonzero;stroke:none"
       aria-label="a"
       transform="matrix(0,-1.3333333,1.3333328,0,32.879639,164.95299)" />
    <path
       id="path31"
       d="M 2.2274207,-5.6631342e-4 V -4.8286992 c 0,-0.8906264 0.84375,-1.3242209 1.6992187,-1.3242209 1.0429688,0 1.5820313,0.6328135 1.5820313,1.8750031 v 4.27735068658 h 1.078125 V -4.4654173 c 0,-1.6875028 -0.9023438,-2.6601606 -2.3320313,-2.6601606 -1.0429687,0 -1.640625,0.5156258 -1.96875,1.2890646 h -0.058594 v -1.1250019 h -1.078125 v 6.96094888658 z m 0,0"
       style="fill:#000000;fill-opacity:1;fill-rule:nonzero;stroke:none"
       aria-label="n"
       transform="matrix(0,-1.3333333,1.3333312,0,32.879661,155.34099)" />
    <path
       id="path32"
       d="m 3.7381206,0.16349625 c 1.3242188,0 2.2265625,-0.64453149 2.671875,-1.65234435 l -0.7851562,-0.527344 c -0.375,0.7968753 -1.0078125,1.21875049 -1.8867188,1.21875049 -1.2773437,0 -1.9453125,-0.87890659 -1.9453125,-2.09765699 v -1.1835942 c 0,-1.2187505 0.6679688,-2.0859383 1.9453125,-2.0859383 0.8554688,0 1.4414063,0.4101564 1.6992188,1.1250004 L 6.3396831,-5.4966621 C 5.9412456,-6.4576 5.1209331,-7.125569 3.7381206,-7.125569 c -1.9570312,0 -3.10546873,1.4179693 -3.10546873,3.6445326 0,2.2265634 1.14843753,3.64453265 3.10546873,3.64453265 z m 0,0"
       style="fill:#000000;fill-opacity:1;fill-rule:nonzero;stroke:none"
       aria-label="c"
       transform="matrix(0,-1.3333333,1.3333328,0,32.879661,145.11697)" />
    <path
       id="path33"
       d="m 3.7620848,0.16349632 c 1.3125,0 2.3085937,-0.64453177 2.7539062,-1.59375132 L 5.7542723,-1.9810367 c -0.3632813,0.7617194 -1.0429688,1.1953135 -1.921875,1.1953135 -1.2890625,0 -2.0625,-0.9023445 -2.0625,-2.1093767 v -0.3164065 h 5.0039062 v -0.5156254 c 0,-1.9687517 -1.1484375,-3.3984403 -3.0117187,-3.3984403 -1.8867188,0 -3.1289063,1.4296886 -3.1289063,3.6445342 0,2.2148456 1.2421875,3.64453422 3.1289063,3.64453422 z m 0,-6.38672392 c 1.1132812,0 1.8515625,0.8203131 1.8515625,2.0507829 v 0.1523439 h -3.84375 v -0.09375 c 0,-1.218751 0.8203125,-2.1093767 1.9921875,-2.1093768 z m 0,0"
       style="fill:#000000;fill-opacity:1;fill-rule:nonzero;stroke:none"
       aria-label="e"
       transform="matrix(0,-1.3333333,1.3333322,0,32.879661,136.06299)" />
    <path
       id="path34"
       d="m 4.0540956,0.16353621 c 2.25,0 3.234375,-1.79296691 3.234375,-4.87499491 0,-3.0820281 -0.984375,-4.874995 -3.234375,-4.874995 -2.2617188,0 -3.24609379,1.7929669 -3.24609379,4.874995 0,3.082028 0.98437499,4.87499491 3.24609379,4.87499491 z m 0,-0.98437398 c -1.4765625,0 -2.0625,-1.30077993 -2.0625,-3.11718423 v -1.5468734 c 0,-1.8164044 0.5859375,-3.1171843 2.0625,-3.1171843 1.4648437,0 2.0507812,1.3007799 2.0507812,3.1171843 v 1.5468734 c 0,1.8164043 -0.5859375,3.11718423 -2.0507812,3.11718423 z m 0,0"
       style="fill:#000000;fill-opacity:1;fill-rule:nonzero;stroke:none"
       aria-label="0"
       transform="matrix(1.3333333,0,0,1.3333347,52.200008,301.47726)" />
    <path
       id="path35"
       d="M 6.9832247,5.3812536e-4 H 8.284006 V -9.4213432 H 7.1824435 v 7.839849 h -0.046875 l -1.125,-2.0859389 -3.4453125,-5.7539101 h -1.3125 V 5.3812536e-4 H 2.3660372 V -7.8393109 h 0.035156 l 1.1367187,2.0859389 z m 0,0"
       style="fill:#000000;fill-opacity:1;fill-rule:nonzero;stroke:none"
       aria-label="N"
       transform="matrix(1.3333333,0,0,1.3333324,42.829659,56.02272)" />
    <path
       id="path36"
       d="m 2.6008191,-3.6557105 c -0.4072265,0 -0.7324219,0.1464843 -0.9726562,0.4335936 -0.234375,0.2812499 -0.3515625,0.6679685 -0.3515625,1.1601558 0,0.5009764 0.1171875,0.8906247 0.3515625,1.17187455 0.234375,0.2812499 0.5566406,0.42187485 0.9726562,0.42187485 0.413086,0 0.7382813,-0.14062495 0.9726563,-0.42187485 0.234375,-0.28710925 0.3515625,-0.67968725 0.3515625,-1.17187455 0,-0.4833983 -0.1171875,-0.8701169 -0.3515625,-1.1601558 -0.234375,-0.2871093 -0.5595703,-0.4335936 -0.9726563,-0.4335936 z m 0,-0.5742186 c 0.6621094,0 1.1835938,0.1933593 1.5585938,0.5742186 0.3808593,0.3837889 0.5742187,0.9140621 0.5742187,1.5937494 0,0.6796872 -0.1933594,1.21289016 -0.5742187,1.5937494 -0.375,0.38378892 -0.8964844,0.57421854 -1.5585938,0.57421854 -0.665039,0 -1.1894531,-0.19042962 -1.5703125,-0.57421854 -0.37499998,-0.38085924 -0.56249998,-0.9140622 -0.56249998,-1.5937494 0,-0.6796873 0.1875,-1.2099605 0.56249998,-1.5937494 0.3808594,-0.3808593 0.9052735,-0.5742186 1.5703125,-0.5742186 z m 0,0"
       style="fill:#000000;fill-opacity:1;fill-rule:nonzero;stroke:none"
       aria-label="ₒ"
       transform="matrix(1.3333333,0,0,1.3333338,55.555679,56.02272)" />
    <path
       id="path37"
       d="m 66.172,36.953 3.555,12.328 3.558,11.504 3.555,10.731 3.558,10.015 3.555,9.344 3.559,8.715 3.554,8.133 3.559,7.589 3.559,7.083 3.554,6.605 3.559,6.164 3.555,5.75 3.558,5.367 3.555,5.008 3.558,4.672 3.555,4.355 3.559,4.071 3.554,3.793 3.559,3.539 3.559,3.304 3.554,3.082 3.559,2.875 3.555,2.684 3.558,2.504 3.555,2.336 3.558,2.18 3.555,2.031 3.559,1.898 3.554,1.77 3.559,1.652 3.559,1.539 3.554,1.438 3.559,1.343 3.555,1.25 3.558,1.168 3.555,1.09 3.558,1.016 3.555,0.949 3.559,0.887 3.554,0.824 3.559,0.77 3.559,0.718 3.554,0.672 3.559,0.625 3.555,0.586 3.558,0.543 3.555,0.508 3.558,0.477 3.555,0.441 3.559,0.414 3.554,0.387 3.559,0.359 3.559,0.332 3.554,0.317 3.559,0.289 3.555,0.273 3.558,0.254 3.555,0.238 3.558,0.219 3.555,0.207"
       style="fill:none;stroke:#4c72b0;stroke-width:1.125;stroke-linecap:butt;stroke-linejoin:miter;stroke-miterlimit:2;stroke-dasharray:none;stroke-opacity:1"
       transform="scale(1.3333333)" />
    <path
       id="path38"
       d="m 66.172,221.047 3.555,-12.328 3.558,-11.504 3.555,-10.731 3.558,-10.015 3.555,-9.344 3.559,-8.715 3.554,-8.133 3.559,-7.589 3.559,-7.083 3.554,-6.605 3.559,-6.164 3.555,-5.75 3.558,-5.367 3.555,-5.008 3.558,-4.672 3.555,-4.355 3.559,-4.071 3.554,-3.793 3.559,-3.539 3.559,-3.304 3.554,-3.082 3.559,-2.875 3.555,-2.684 3.558,-2.504 3.555,-2.336 3.558,-2.18 3.555,-2.031 3.559,-1.898 3.554,-1.77 3.559,-1.652 3.559,-1.539 3.554,-1.438 3.559,-1.343 3.555,-1.25 3.558,-1.168 3.555,-1.09 3.558,-1.016 3.555,-0.949 3.559,-0.887 3.554,-0.824 3.559,-0.77 3.559,-0.718 3.554,-0.672 3.559,-0.625 3.555,-0.586 3.558,-0.543 3.555,-0.508 3.558,-0.477 3.555,-0.441 3.559,-0.414 3.554,-0.387 3.559,-0.359 3.559,-0.332 3.554,-0.317 3.559,-0.289 3.555,-0.273 3.558,-0.254 3.555,-0.238 3.558,-0.219 3.555,-0.207"
       style="fill:none;stroke:#55a868;stroke-width:1.125;stroke-linecap:butt;stroke-linejoin:miter;stroke-miterlimit:2;stroke-dasharray:3.375, 3.375;stroke-dashoffset:0;stroke-opacity:1"
       transform="scale(1.3333333)" />
    <path
       id="path39"
       d="m 7.1599732,0.00118987 h 1.125 V -9.4206851 h -1.125 v 4.1601562 H 2.3904419 V -9.4206851 H 1.2537232 V 0.00118987 H 2.3904419 V -4.2644351 h 4.7695313 z m 9.2050778,0 V -0.94802888 H 15.568176 V -4.7800601 c 0,-1.4648438 -0.996093,-2.34375 -2.671875,-2.34375 -1.253906,0 -2.097656,0.6210937 -2.472656,1.359375 l 0.644531,0.609375 c 0.375,-0.6328125 0.9375,-1.0429688 1.769532,-1.0429688 1.113281,0 1.652343,0.5390625 1.652343,1.5234375 v 0.6914063 h -1.382812 c -2.027344,0 -2.964844,0.7265625 -2.964844,2.0390625 0,1.30078122 0.855469,2.10937497 2.332031,2.10937497 0.972657,0 1.710938,-0.4453125 2.015625,-1.30078127 h 0.05859 c 0.08203,0.65625002 0.410156,1.13671877 1.207031,1.13671877 z m -3.714843,-0.76171875 c -0.832032,0 -1.382813,-0.38671872 -1.382813,-1.07812502 v -0.28125 c 0,-0.6679687 0.5625,-1.0546875 1.792969,-1.0546875 h 1.429687 v 1.1484375 c 0,0.7148438 -0.773437,1.26562502 -1.839843,1.26562502 z m 0,0"
       style="fill:#000000;fill-opacity:1;fill-rule:nonzero;stroke:none"
       aria-label="Ha"
       transform="matrix(1.3333333,0,0,1.3333333,588.92603,360.84998)" />
    <path
       id="path40"
       d="m 3.2590943,0.00118988 v -0.94922199 h -1.03125 V -9.9832191 h -1.078125 v 8.8594051 c 0,0.65625228 0.3984375,1.12500388 1.1484375,1.12500388 z m 0,0"
       style="fill:#000000;fill-opacity:1;fill-rule:nonzero;stroke:none"
       aria-label="l"
       transform="matrix(1.3333333,0,0,1.3333288,611.26392,360.84998)" />
    <path
       id="path41"
       d="m 1.5235747,0.00118987 h 1.078125 V -6.0222476 h 1.5 v -0.9375 h -1.5 v -2.0859375 h 1.5 v -0.9375 H 3.0470122 c -1.0195313,0 -1.5234375,0.65625 -1.5234375,1.6171875 v 1.40625 H 0.38685594 v 0.9375 H 1.5235747 Z m 0,0"
       style="fill:#000000;fill-opacity:1;fill-rule:nonzero;stroke:none"
       aria-label="f"
       transform="matrix(1.3333333,0,0,1.3333333,616.15997,360.84998)" />
    <path
       id="path42"
       d="M 4.4533076,-3.5261659 V -4.6863261 H 0.92596388 v 1.1601602 z m 0,0"
       style="fill:#000000;fill-opacity:1;fill-rule:nonzero;stroke:none"
       aria-label="-"
       transform="matrix(1.3333333,0,0,1.3333288,621.99194,360.84998)" />
    <path
       id="path43"
       d="m 3.2591404,0.00118987 v -0.94921551 h -1.03125 V -9.9831511 h -1.078125 v 8.8593448 c 0,0.65624777 0.3984375,1.12499617 1.1484375,1.12499617 z m 0,0"
       style="fill:#000000;fill-opacity:1;fill-rule:nonzero;stroke:none"
       aria-label="l"
       transform="matrix(1.3333333,0,0,1.3333379,629.17401,360.84998)" />
    <path
       id="path44"
       d="m 1.6877294,-8.6003726 c 0.4570312,0 0.65625,-0.2460938 0.65625,-0.609375 v -0.1757813 c 0,-0.3632812 -0.1992188,-0.5976562 -0.65625,-0.5976562 -0.4570313,0 -0.65625,0.234375 -0.65625,0.5976562 v 0.1757813 c 0,0.3632812 0.1992187,0.609375 0.65625,0.609375 z M 1.1486669,0.00118987 h 1.078125 V -6.9597476 h -1.078125 z m 0,0"
       style="fill:#000000;fill-opacity:1;fill-rule:nonzero;stroke:none"
       aria-label="i"
       transform="matrix(1.3333333,0,0,1.3333333,634.07001,360.84998)" />
    <path
       id="path45"
       d="M 3.9377744,0.00118988 6.3987119,-6.9597713 H 5.3557431 l -1.2421875,3.4453242 -0.75,2.3789144 h -0.070312 l -0.75,-2.3789144 -1.21875,-3.4453242 H 0.24636813 L 2.6838681,0.00118988 Z m 0,0"
       style="fill:#000000;fill-opacity:1;fill-rule:nonzero;stroke:none"
       aria-label="v"
       transform="matrix(1.3333333,0,0,1.3333288,638.56995,360.84998)" />
    <path
       id="path46"
       d="m 3.7615357,0.16525237 c 1.3125,0 2.3085937,-0.64453125 2.7539062,-1.59374997 L 5.7537232,-1.9792789 c -0.3632813,0.7617188 -1.0429688,1.19531252 -1.921875,1.19531252 -1.2890625,0 -2.0625,-0.90234372 -2.0625,-2.10937502 v -0.3164062 h 5.0039062 v -0.515625 c 0,-1.96875 -1.1484375,-3.3984375 -3.0117187,-3.3984375 -1.8867188,0 -3.12890626,1.4296875 -3.12890626,3.6445312 0,2.2148438 1.24218746,3.64453127 3.12890626,3.64453127 z m 0,-6.38671877 c 1.1132812,0 1.8515625,0.8203125 1.8515625,2.0507813 v 0.1523437 h -3.84375 v -0.09375 c 0,-1.21875 0.8203125,-2.109375 1.9921875,-2.109375 z m 6.8847653,6.38671877 c 1.59375,0 2.589844,-0.8203125 2.589844,-2.17968747 0,-1.0546875 -0.597656,-1.7226563 -2.144531,-1.9570313 l -0.539063,-0.082031 c -0.8554684,-0.1289063 -1.3359372,-0.3984375 -1.3359372,-1.078125 0,-0.65625 0.4804688,-1.078125 1.3710942,-1.078125 0.890625,0 1.476562,0.421875 1.792968,0.8554687 l 0.714844,-0.65625 c -0.5625,-0.703125 -1.3125,-1.1132812 -2.425781,-1.1132812 -1.4179689,0 -2.4843752,0.6679687 -2.4843752,2.0507812 0,1.2890625 0.9492188,1.8164063 2.2382812,2.0039063 l 0.550781,0.082031 c 0.914063,0.140625 1.21875,0.5625 1.21875,1.1015625 0,0.7148438 -0.539062,1.12500002 -1.464843,1.12500002 -0.8671879,0 -1.5234379,-0.38671872 -2.0625004,-1.06640622 l -0.7734375,0.6210937 c 0.6210937,0.83203127 1.4765625,1.37109377 2.7539059,1.37109377 z m 0,0"
       style="fill:#000000;fill-opacity:1;fill-rule:nonzero;stroke:none"
       aria-label="es"
       transform="matrix(1.3333333,0,0,1.3333333,647.42603,360.84998)" />
    <path
       id="path47"
       d="m 4.0553742,0.16346784 c 2.25,0 3.234375,-1.79297184 3.234375,-4.87500834 0,-3.0820365 -0.984375,-4.8750083 -3.234375,-4.8750083 -2.2617187,0 -3.2460937,1.7929718 -3.2460937,4.8750083 0,3.0820365 0.984375,4.87500834 3.2460937,4.87500834 z m 0,-0.98437668 c -1.4765625,0 -2.0625,-1.30078346 -2.0625,-3.11719276 v -1.5468777 c 0,-1.8164093 0.5859375,-3.1171928 2.0625,-3.1171928 1.4648438,0 2.0507813,1.3007835 2.0507813,3.1171928 v 1.5468777 c 0,1.8164093 -0.5859375,3.11719276 -2.0507813,3.11719276 z m 0,0"
       style="fill:#000000;fill-opacity:1;fill-rule:nonzero;stroke:none"
       aria-label="0"
       transform="matrix(1.3333333,0,0,1.3333311,479.82721,334.45001)" />
    <path
       id="path48"
       d="M 7.3837283,-5.949375e-4 V -0.99668869 H 4.9579471 V -9.4224699 H 3.1884158 l -2.49609374,2.3320312 0.65625004,0.7148438 2.3789062,-2.2148438 h 0.09375 v 7.59375001 H 1.1845096 V -5.949375e-4 Z M 60.548767,-0.99668869 h -4.957031 l 2.542969,-2.28515621 c 1.195312,-1.078125 2.0625,-2.109375 2.0625,-3.5625 0,-1.6054688 -1.054688,-2.7421875 -2.882813,-2.7421875 -1.828125,0 -2.660156,1.1132812 -3.035156,2.2148437 l 1.019531,0.3867188 c 0.257813,-0.890625 0.796875,-1.59375 1.957032,-1.59375 1.160156,0 1.746093,0.7265625 1.746093,1.7578125 v 0.1640625 c 0,0.9023437 -0.679687,1.8515625 -1.558593,2.6601562 l -3.082032,2.8359375 v 1.1601562625 h 6.1875 z M 109.19916,-5.4263762 v 0.984375 h 1.11328 c 1.3125,0 2.01562,0.6328125 2.01562,1.7460938 v 0.1054687 c 0,1.1015625 -0.70312,1.73437501 -2.01562,1.73437501 -1.14844,0 -1.71094,-0.49218751 -2.19141,-1.24218751 l -0.85547,0.65625 c 0.58594,0.80859376 1.41797,1.60546876 3.0586,1.60546876 1.91015,0 3.19922,-1.125 3.19922,-2.74218746 0,-1.4179688 -0.97266,-2.1796875 -1.99219,-2.3789063 v -0.046875 c 1.00781,-0.2578125 1.81641,-0.984375 1.81641,-2.203125 0,-1.5234375 -1.27735,-2.3789062 -2.85938,-2.3789062 -1.51172,0 -2.34375,0.7851562 -2.8125,1.5351562 l 0.83203,0.65625 c 0.39844,-0.7148437 0.97266,-1.1835937 1.94531,-1.1835937 1.00782,0 1.6875,0.5039062 1.6875,1.4882812 v 0.09375 c 0,0.9023438 -0.64453,1.5703125 -1.91015,1.5703125 z m 56.99707,5.4257812625 V -1.8521574 h 1.37109 v -0.9375 h -1.37109 v -6.6328125 h -1.6875 l -3.9375,6.5742187 v 0.9960938 h 4.54687 V -5.949375e-4 Z M 165.04779,-8.5435637 h 0.0703 v 5.7539063 h -3.48047 z m 0,0"
       style="fill:#000000;fill-opacity:1;fill-rule:nonzero;stroke:none"
       aria-label="1234"
       transform="matrix(1.3333333,0,0,1.3333333,550.96362,334.45001)" />
    <path
       id="path49"
       d="m 7.9108883,-1.9337035 c 0,-0.1289059 -0.1054688,-0.1289059 -0.1992188,-0.1289059 -0.1757812,0 -0.1757812,0.023437 -0.234375,0.2226557 -0.1054687,0.3632803 -0.46875,1.68749571 -1.2539062,1.68749571 -0.28125,0 -0.2929688,-0.19921825 -0.2929688,-0.38671778 0,-0.33984289 0.1289063,-0.69140453 0.234375,-1.00780993 0.28125,-0.7265607 0.8320313,-2.2382756 0.8320313,-3.0117112 0,-1.1132784 -0.75,-1.4062465 -1.40625,-1.4062465 -1.1132813,0 -1.7578125,0.8085918 -1.9335938,1.0664036 -0.09375,-0.6679671 -0.5507812,-1.0664036 -1.1367187,-1.0664036 -0.4804688,0 -0.75,0.3046868 -0.9726563,0.714842 -0.2460937,0.5390611 -0.421875,1.3593716 -0.421875,1.3593716 0,0.1406246 0.1289063,0.1406246 0.1992188,0.1406246 0.1757812,0 0.1875,-0.011719 0.2578125,-0.3164054 0.2460937,-0.9374977 0.4921875,-1.6054647 0.9140625,-1.6054647 0.3515625,0 0.3515625,0.3984365 0.3515625,0.5390611 0,0.2226557 -0.035156,0.4804675 -0.09375,0.6914045 l -1.0078125,4.0546773 c -0.035156,0.082031 -0.046875,0.14062465 -0.046875,0.18749953 0,0.14062464 0.1054687,0.35156161 0.375,0.35156161 0.1640625,0 0.3984375,-0.09374976 0.4921875,-0.35156161 L 3.1062008,-2.3672962 c 0.070312,-0.292968 0.1523437,-0.5742173 0.2109375,-0.8671853 0.1757812,-0.6914045 0.1757812,-0.7031232 0.4101562,-1.1015597 0.1875,-0.3164055 0.796875,-1.3359341 1.8164063,-1.3359341 0.5976562,0 0.6210937,0.6093734 0.6210937,0.8906227 0,0.8437479 -0.5859375,2.4492126 -0.7734375,2.9882737 -0.1757812,0.4570301 -0.2226562,0.5742173 -0.2226562,0.86718536 0,0.58593602 0.375,1.07812228 1.03125,1.07812228 1.2539062,0 1.7109375,-2.01561994 1.7109375,-2.08593224 z m 0,0"
       style="fill:#000000;fill-opacity:1;fill-rule:nonzero;stroke:none"
       aria-label="n"
       transform="matrix(1.3333333,0,0,1.3333367,414.37402,167.38297)" />
    <path
       id="path50"
       d="m 11.494652,-9.047005 c 0,-0.105469 -0.04687,-0.1757816 -0.164063,-0.1757816 -0.421875,0 -0.867187,0.046875 -1.300781,0.046875 -0.4335939,0 -0.8906251,-0.046875 -1.3125001,-0.046875 -0.070312,0 -0.2460938,0 -0.2460938,0.257813 0,0.152344 0.1289063,0.1640627 0.2460938,0.1640627 0.703125,0.023438 0.8085937,0.2929693 0.8085937,0.5742198 0,0.1289064 -0.023437,0.2226566 -0.046875,0.3281255 L 7.9907454,-1.968868 5.4712141,-8.9884112 C 5.3891829,-9.2110678 5.3657454,-9.2227866 5.0844954,-9.2227866 h -1.6875 c -0.2109375,0 -0.3632813,0 -0.3632813,0.257813 0,0.1640627 0.1054688,0.1640627 0.3632813,0.1640627 0.09375,0 0.8320312,0 0.8320312,0.105469 0,0 0,0.046875 -0.046875,0.1757815 l -1.78125,7.1601685 c -0.1875,0.73828247 -0.6914062,0.91406402 -1.3125,0.93750156 -0.10546872,0 -0.25781247,0.0117188 -0.25781247,0.25781294 0,0.12890646 0.0820313,0.1640627748 0.17578127,0.1640627748 0.4101562,0 0.8671875,-0.0351563148 1.2890625,-0.0351563148 0.4335937,0 0.9023437,0.0351563148 1.3242187,0.0351563148 0.082031,0 0.234375,0 0.234375,-0.2460941648 0,-0.16406278 -0.09375,-0.17578155 -0.2460937,-0.17578155 -0.7734375,-0.0234375 -0.796875,-0.37500064 -0.796875,-0.57421973 0,-0.0468751 0,-0.12890643 0.046875,-0.33984433 l 1.7460937,-6.9492306 2.90625,8.05079498 c 0.058594,0.21093785 0.070312,0.2343753948 0.2695313,0.2343753948 0.140625,0 0.1992187,-0.0117187748 0.2695312,-0.2695317048 L 9.9360579,-7.8868468 c 0.2109371,-0.8554702 0.9726561,-0.9023453 1.3593751,-0.9140641 0.04687,0 0.199219,-0.011719 0.199219,-0.2460941 z m 0,0"
       style="fill:#000000;fill-opacity:1;fill-rule:nonzero;stroke:none"
       aria-label="N"
       transform="matrix(1.3333333,0,0,1.3333311,411.79099,187.63297)" />
    <path
       id="path51"
       d="m 307.387,128.594 h 13.578"
       style="fill:none;stroke:#000000;stroke-width:0.50625;stroke-linecap:butt;stroke-linejoin:miter;stroke-miterlimit:2;stroke-dasharray:none;stroke-opacity:1"
       transform="scale(1.3333333)" />
    <path
       id="path52"
       d="m 4.0540926,0.1635361 c 2.25,0 3.234375,-1.7929657 3.234375,-4.8749917 0,-3.082026 -0.984375,-4.8749917 -3.234375,-4.8749917 -2.2617188,0 -3.24609379,1.7929657 -3.24609379,4.8749917 0,3.082026 0.98437499,4.8749917 3.24609379,4.8749917 z m 0,-0.98437333 c -1.4765625,0 -2.0625,-1.30077907 -2.0625,-3.11718217 v -1.5468724 c 0,-1.8164031 0.5859375,-3.1171822 2.0625,-3.1171822 1.4648437,0 2.0507812,1.3007791 2.0507812,3.1171822 v 1.5468724 c 0,1.8164031 -0.5859375,3.11718217 -2.0507812,3.11718217 z m 0,0"
       style="fill:#000000;fill-opacity:1;fill-rule:nonzero;stroke:none"
       aria-label="0"
       transform="matrix(1.3333333,0,0,1.3333356,449.20001,301.47726)" />
    <path
       id="path53"
       d="M 7.3822176,-2.750625e-4 V -0.99636881 H 4.9564363 V -9.4221501 H 3.1869051 l -2.49609379,2.3320313 0.65624999,0.7148437 2.3789063,-2.2148437 h 0.09375 v 7.59374999 H 1.1829988 v 0.9960937475 z m 0,0"
       style="fill:#000000;fill-opacity:1;fill-rule:nonzero;stroke:none"
       aria-label="1"
       transform="matrix(1.3333333,0,0,1.3333333,449.20001,285.11365)" />
    <path
       id="path54"
       d="m 2.4954988,-5.4254815 v 0.9843725 h 1.1132813 c 1.3125,0 2.015625,0.6328109 2.015625,1.7460893 v 0.1054685 c 0,1.1015598 -0.703125,1.73437067 -2.015625,1.73437067 -1.1484375,0 -1.7109375,-0.49218627 -2.1914063,-1.24218437 l -0.85546874,0.6562483 c 0.58593754,0.80859176 1.41796874,1.60546475 3.05859374,1.60546475 1.9101563,0 3.1992188,-1.12499717 3.1992188,-2.74218055 0,-1.4179652 -0.9726563,-2.1796821 -1.9921875,-2.3789003 v -0.046875 c 1.0078125,-0.2578118 1.8164062,-0.9843725 1.8164062,-2.2031194 0,-1.5234337 -1.2773437,-2.3789003 -2.859375,-2.3789003 -1.5117187,0 -2.34375,0.7851543 -2.81249999,1.5351524 l 0.83203129,0.6562483 c 0.3984375,-0.7148419 0.9726562,-1.1835907 1.9453125,-1.1835907 1.0078125,0 1.6875,0.5039049 1.6875,1.4882775 v 0.09375 c 0,0.9023415 -0.6445313,1.5703086 -1.9101563,1.5703086 z m 0,0"
       style="fill:#000000;fill-opacity:1;fill-rule:nonzero;stroke:none"
       aria-label="3"
       transform="matrix(1.3333333,0,0,1.3333367,449.20001,252.38634)" />
    <path
       id="path55"
       d="M 3.5736238,0.00132731 7.1126863,-8.4244464 V -9.4205393 H 0.92518631 V -6.690073 H 1.9447176 V -8.4478839 H 5.9642488 L 2.3665926,0.00132731 Z m 0,0"
       style="fill:#000000;fill-opacity:1;fill-rule:nonzero;stroke:none"
       aria-label="7"
       transform="matrix(1.3333333,0,0,1.3333345,449.20001,186.93182)" />
    <path
       id="path56"
       d="M 7.3816456,5.3812432e-4 V -0.99555437 H 4.9558644 V -9.421325 H 3.1863331 l -2.49609372,2.3320283 0.65625002,0.7148429 2.3789062,-2.214841 h 0.09375 v 7.59374043 H 1.1824269 V 5.3812432e-4 Z M 14.825982,-9.421325 H 9.7752003 l -0.3398437,5.179681 0.9609374,0.1406248 c 0.386719,-0.4335932 0.820313,-0.796874 1.6875,-0.796874 1.277344,0 1.96875,0.7148428 1.96875,1.9570288 v 0.1289061 c 0,1.2421859 -0.691406,1.95702875 -1.96875,1.95702875 -1.136719,0 -1.605469,-0.49218685 -2.0976562,-1.24218595 l -0.84375,0.6562492 c 0.5625,0.80859272 1.3710942,1.60546672 2.9414062,1.60546672 1.980469,0 3.175781,-1.28906092 3.175781,-3.11718362 0,-1.8281227 -1.195312,-2.917965 -2.8125,-2.917965 -0.984375,0 -1.488281,0.398437 -1.933593,1.0429674 h -0.09375 l 0.269531,-3.5976517 h 4.136719 z m 0,0"
       style="fill:#000000;fill-opacity:1;fill-rule:nonzero;stroke:none"
       aria-label="15"
       transform="matrix(1.3333333,0,0,1.333335,438.39999,56.02272)" />
    <path
       id="path57"
       d="m 363.922,221.047 5.332,-0.883 5.336,-0.945 5.336,-1.012 5.336,-1.082 5.336,-1.164 5.336,-1.246 5.332,-1.332 5.336,-1.434 5.336,-1.531 5.335,-1.645 5.336,-1.761 5.332,-1.891 5.336,-2.023 5.336,-2.168 5.336,-2.325 5.336,-2.492 5.336,-2.668 5.332,-2.863 5.336,-3.066 5.336,-3.289 5.336,-3.524 5.336,-3.777 5.332,-4.047 5.336,-4.336 5.336,-4.648 5.336,-4.985 5.336,-5.34 5.336,-5.722 5.332,-6.137 5.336,-6.574 5.335,-7.047 5.336,-7.555 5.336,-8.094 5.332,-8.675 5.336,-9.297 5.336,-9.965 5.336,-10.684 5.336,-11.445 5.336,-12.27 5.332,-13.152"
       style="fill:none;stroke:#000000;stroke-width:1.125;stroke-linecap:butt;stroke-linejoin:miter;stroke-miterlimit:2;stroke-dasharray:none;stroke-opacity:1"
       transform="scale(1.3333333)" />
    <path
       id="path62"
       d="m 66.172,231 v 3.75"
       style="fill:none;stroke:#000000;stroke-width:1.5;stroke-linecap:butt;stroke-linejoin:miter;stroke-miterlimit:2;stroke-dasharray:none;stroke-opacity:1"
       transform="scale(1.3333333)" />
    <path
       id="path63"
       d="m 101.738,231 v 3.75"
       style="fill:none;stroke:#000000;stroke-width:1.5;stroke-linecap:butt;stroke-linejoin:miter;stroke-miterlimit:2;stroke-dasharray:none;stroke-opacity:1"
       transform="scale(1.3333333)" />
    <path
       id="path64"
       d="m 137.309,231 v 3.75"
       style="fill:none;stroke:#000000;stroke-width:1.5;stroke-linecap:butt;stroke-linejoin:miter;stroke-miterlimit:2;stroke-dasharray:none;stroke-opacity:1"
       transform="scale(1.3333333)" />
    <path
       id="path65"
       d="m 172.875,231 v 3.75"
       style="fill:none;stroke:#000000;stroke-width:1.5;stroke-linecap:butt;stroke-linejoin:miter;stroke-miterlimit:2;stroke-dasharray:none;stroke-opacity:1"
       transform="scale(1.3333333)" />
    <path
       id="path66"
       d="m 208.441,231 v 3.75"
       style="fill:none;stroke:#000000;stroke-width:1.5;stroke-linecap:butt;stroke-linejoin:miter;stroke-miterlimit:2;stroke-dasharray:none;stroke-opacity:1"
       transform="scale(1.3333333)" />
    <path
       id="path67"
       d="m 244.012,231 v 3.75"
       style="fill:none;stroke:#000000;stroke-width:1.5;stroke-linecap:butt;stroke-linejoin:miter;stroke-miterlimit:2;stroke-dasharray:none;stroke-opacity:1"
       transform="scale(1.3333333)" />
    <path
       id="path68"
       d="m 279.578,231 v 3.75"
       style="fill:none;stroke:#000000;stroke-width:1.5;stroke-linecap:butt;stroke-linejoin:miter;stroke-miterlimit:2;stroke-dasharray:none;stroke-opacity:1"
       transform="scale(1.3333333)" />
    <path
       id="path69"
       d="M 54.75,221.047 H 51"
       style="fill:none;stroke:#000000;stroke-width:1.5;stroke-linecap:butt;stroke-linejoin:miter;stroke-miterlimit:2;stroke-dasharray:none;stroke-opacity:1"
       transform="scale(1.3333333)" />
    <path
       id="path70"
       d="M 54.75,36.953 H 51"
       style="fill:none;stroke:#000000;stroke-width:1.5;stroke-linecap:butt;stroke-linejoin:miter;stroke-miterlimit:2;stroke-dasharray:none;stroke-opacity:1"
       transform="scale(1.3333333)" />
    <path
       id="path71"
       d="m 212.352,119.102 h 15"
       style="fill:none;stroke:#4c72b0;stroke-width:1.125;stroke-linecap:butt;stroke-linejoin:miter;stroke-miterlimit:2;stroke-dasharray:none;stroke-opacity:1"
       transform="scale(1.3333333)" />
    <path
       id="path72"
       d="m 212.352,138.898 h 15"
       style="fill:none;stroke:#55a868;stroke-width:1.125;stroke-linecap:butt;stroke-linejoin:miter;stroke-miterlimit:2;stroke-dasharray:3.375, 3.375;stroke-dashoffset:0;stroke-opacity:1"
       transform="scale(1.3333333)" />
    <path
       id="path73"
       d="M 6.9841691,6.179375e-4 H 8.2849503 V -9.4212571 H 7.1833878 v 7.8398438 h -0.046875 l -1.125,-2.0859375 -3.4453125,-5.7539063 h -1.3125 V 6.179375e-4 H 2.3669816 V -7.8392258 h 0.035156 l 1.1367188,2.0859375 z m 0,0"
       style="fill:#000000;fill-opacity:1;fill-rule:nonzero;stroke:none"
       aria-label="N"
       transform="matrix(1.3333333,0,0,1.3333333,308.13699,165.54996)" />
    <path
       id="path74"
       d="M 2.2263566,-5.6093796e-4 V -4.8286899 c 0,-0.8906257 0.84375,-1.3242198 1.6992187,-1.3242198 1.0429688,0 1.5820313,0.632813 1.5820313,1.8750015 v 4.27734726204 h 1.078125 V -4.4654083 c 0,-1.6875014 -0.9023438,-2.6601584 -2.3320313,-2.6601584 -1.0429687,0 -1.640625,0.5156254 -1.96875,1.2890635 h -0.058594 v -1.1250009 h -1.078125 v 6.96094316204 z m 0,0"
       style="fill:#000000;fill-opacity:1;fill-rule:nonzero;stroke:none"
       aria-label="n"
       transform="matrix(1.3333333,0,0,1.3333322,308.13699,191.94997)" />
    <path
       id="path75"
       d="m 363.922,231 v 3.75"
       style="fill:none;stroke:#000000;stroke-width:1.5;stroke-linecap:butt;stroke-linejoin:miter;stroke-miterlimit:2;stroke-dasharray:none;stroke-opacity:1"
       transform="scale(1.3333333)" />
    <path
       id="path76"
       d="m 417.273,231 v 3.75"
       style="fill:none;stroke:#000000;stroke-width:1.5;stroke-linecap:butt;stroke-linejoin:miter;stroke-miterlimit:2;stroke-dasharray:none;stroke-opacity:1"
       transform="scale(1.3333333)" />
    <path
       id="path77"
       d="m 470.625,231 v 3.75"
       style="fill:none;stroke:#000000;stroke-width:1.5;stroke-linecap:butt;stroke-linejoin:miter;stroke-miterlimit:2;stroke-dasharray:none;stroke-opacity:1"
       transform="scale(1.3333333)" />
    <path
       id="path78"
       d="m 523.977,231 v 3.75"
       style="fill:none;stroke:#000000;stroke-width:1.5;stroke-linecap:butt;stroke-linejoin:miter;stroke-miterlimit:2;stroke-dasharray:none;stroke-opacity:1"
       transform="scale(1.3333333)" />
    <path
       id="path79"
       d="m 577.328,231 v 3.75"
       style="fill:none;stroke:#000000;stroke-width:1.5;stroke-linecap:butt;stroke-linejoin:miter;stroke-miterlimit:2;stroke-dasharray:none;stroke-opacity:1"
       transform="scale(1.3333333)" />
    <path
       id="path80"
       d="m 352.5,221.047 h -3.75"
       style="fill:none;stroke:#000000;stroke-width:1.5;stroke-linecap:butt;stroke-linejoin:miter;stroke-miterlimit:2;stroke-dasharray:none;stroke-opacity:1"
       transform="scale(1.3333333)" />
    <path
       id="path81"
       d="m 352.5,208.773 h -3.75"
       style="fill:none;stroke:#000000;stroke-width:1.5;stroke-linecap:butt;stroke-linejoin:miter;stroke-miterlimit:2;stroke-dasharray:none;stroke-opacity:1"
       transform="scale(1.3333333)" />
    <path
       id="path82"
       d="m 352.5,184.227 h -3.75"
       style="fill:none;stroke:#000000;stroke-width:1.5;stroke-linecap:butt;stroke-linejoin:miter;stroke-miterlimit:2;stroke-dasharray:none;stroke-opacity:1"
       transform="scale(1.3333333)" />
    <path
       id="path83"
       d="m 352.5,135.137 h -3.75"
       style="fill:none;stroke:#000000;stroke-width:1.5;stroke-linecap:butt;stroke-linejoin:miter;stroke-miterlimit:2;stroke-dasharray:none;stroke-opacity:1"
       transform="scale(1.3333333)" />
    <path
       id="path84"
       d="m 352.5,36.953 h -3.75"
       style="fill:none;stroke:#000000;stroke-width:1.5;stroke-linecap:butt;stroke-linejoin:miter;stroke-miterlimit:2;stroke-dasharray:none;stroke-opacity:1"
       transform="scale(1.3333333)" />
    <path
       id="path85"
       d="M 54.75,230.25 H 291"
       style="fill:none;stroke:#1a1a1a;stroke-width:1.5;stroke-linecap:butt;stroke-linejoin:miter;stroke-miterlimit:2;stroke-dasharray:none;stroke-opacity:1"
       transform="scale(1.3333333)" />
    <path
       id="path86"
       d="M 55.5,231 V 27"
       style="fill:none;stroke:#1a1a1a;stroke-width:1.5;stroke-linecap:butt;stroke-linejoin:miter;stroke-miterlimit:2;stroke-dasharray:none;stroke-opacity:1"
       transform="scale(1.3333333)" />
    <path
       id="path87"
       d="M 54.75,27.75 H 291"
       style="fill:none;stroke:#1a1a1a;stroke-width:1.5;stroke-linecap:butt;stroke-linejoin:miter;stroke-miterlimit:2;stroke-dasharray:none;stroke-opacity:1"
       transform="scale(1.3333333)" />
    <path
       id="path88"
       d="M 290.25,231 V 27"
       style="fill:none;stroke:#1a1a1a;stroke-width:1.5;stroke-linecap:butt;stroke-linejoin:miter;stroke-miterlimit:2;stroke-dasharray:none;stroke-opacity:1"
       transform="scale(1.3333333)" />
    <path
       id="path89"
       d="M 352.5,230.25 H 588.75"
       style="fill:none;stroke:#1a1a1a;stroke-width:1.5;stroke-linecap:butt;stroke-linejoin:miter;stroke-miterlimit:2;stroke-dasharray:none;stroke-opacity:1"
       transform="scale(1.3333333)" />
    <path
       id="path90"
       d="M 353.25,231 V 27"
       style="fill:none;stroke:#1a1a1a;stroke-width:1.5;stroke-linecap:butt;stroke-linejoin:miter;stroke-miterlimit:2;stroke-dasharray:none;stroke-opacity:1"
       transform="scale(1.3333333)" />
    <path
       id="path91"
       d="M 352.5,27.75 H 588.75"
       style="fill:none;stroke:#1a1a1a;stroke-width:1.5;stroke-linecap:butt;stroke-linejoin:miter;stroke-miterlimit:2;stroke-dasharray:none;stroke-opacity:1"
       transform="scale(1.3333333)" />
    <path
       id="path92"
       d="M 588,231 V 27"
       style="fill:none;stroke:#1a1a1a;stroke-width:1.5;stroke-linecap:butt;stroke-linejoin:miter;stroke-miterlimit:2;stroke-dasharray:none;stroke-opacity:1"
       transform="scale(1.3333333)" />
  </g>
</svg>
