<?xml version="1.0" encoding="utf-8"?>
<!-- Generator: Adobe Illustrator 27.9.6, SVG Export Plug-In . SVG Version: 9.03 Build 54986)  -->
<svg version="1.1" id="Layer_1" xmlns="http://www.w3.org/2000/svg" xmlns:xlink="http://www.w3.org/1999/xlink" x="0px" y="0px"
	 viewBox="0 0 452.83 422.34" style="enable-background:new 0 0 452.83 422.34;" xml:space="preserve">
<style type="text/css">
	.st0{fill:#1C75BC;stroke:#F2F2F2;stroke-width:2;stroke-miterlimit:10;}
	.st1{fill:#E1F4FD;stroke:#F2F2F2;stroke-width:2;stroke-miterlimit:10;}
	.st2{opacity:0.4;fill:#931A1D;}
	.st3{fill:#A97C50;stroke:#F2F2F2;stroke-width:2;stroke-miterlimit:10;}
	.st4{fill:none;stroke:#1A1A1A;stroke-width:2;stroke-miterlimit:10;}
	.st5{fill:#1A1A1A;}
	.st6{fill:none;stroke:#F2F2F2;stroke-width:2;stroke-miterlimit:10;}
	.st7{fill:#F2F2F2;}
	.st8{fill:none;}
	.st9{font-family:'MyriadPro-Regular';}
	.st10{font-size:16px;}
	.st11{fill:url(#SVGID_1_);fill-opacity:0.4;}
	.st12{fill:none;stroke:#1C75BC;stroke-width:3;stroke-miterlimit:10;}
</style>
<rect x="6.72" y="96.91" class="st0" width="437.38" height="100.21"/>
<path class="st1" d="M6.72,96.91c0-28.9,0-57.8,0-86.69c18.23-2.24,44.67-3.68,76.11,1.17c33.19,5.12,58.39,15.16,81.52,24.54
	c49.91,20.23,44.99,27.06,80.42,37.41c28.05,8.19,68.59,14.84,81.28,15.33c5.09,0.19,10.13,1.47,15.22,1.48
	c6.15,0.01,11.19-0.69,12.96,2.74c0.58,1.12,0.65,2.59,0.8,5.55c0.19,3.73-0.19,7.01-0.4,7.89c-1.7,6.97-26.9,4.42-35.88,4.09
	c-13.09-0.49-31.18,2.23-53.4,16.09c-53.75-7.36-94.9-4.06-122.78,0.42c-18.33,2.95-32.28,6.62-52.95,4.85
	C53.19,128.66,24.89,111.17,6.72,96.91z"/>
<rect x="218.25" y="118.87" class="st2" width="224.13" height="78.25"/>
<path class="st3" d="M444.1,197.14H6.72V96.93c56.07-0.42,101.57,3.59,132.6,7.29c60.84,7.27,107.13,18.29,186.72,37.5
	c50.05,12.08,90.86,23.08,118.05,30.65C444.1,180.63,444.1,188.88,444.1,197.14z"/>
<rect x="6.72" y="311.62" class="st0" width="437.38" height="100.21"/>
<rect x="225.41" y="333.58" class="st2" width="216.97" height="78.25"/>
<path class="st1" d="M6.72,314.9c0-24.1,0-48.19,0-72.29c13.24-1.26,35.93-2.31,63.1,2.65c70.82,12.94,84.41,50.8,141.44,53.76
	c0,0,61.56,3.19,77.67,4.93c6.36,0.69,7.89,1.43,13.45,1.45c5.33,0.01,8.09-0.47,10.13,1.08c1.6,1.2,1.76,3.15,2.03,7.01
	c0.18,2.57,0.55,5.57-0.35,7.69c-1.87,4.36-9.5,6.49-18.53,5.14c-23.01-1.52-41.81-1.89-54.84-1.95c0,0-64.31-0.29-82.39-2.86
	c-0.48-0.07-5.98-0.85-13.49-1.85c-1.67-0.22-3.47-0.46-5.6-0.73C106.92,314.75,62.58,311.62,6.72,314.9z"/>
<path class="st3" d="M444.1,411.83H6.72V311.62c56.07-0.42,101.57,3.59,132.6,7.29c60.84,7.27,107.13,18.29,186.72,37.5
	c50.05,12.08,90.86,23.08,118.05,30.65C444.1,395.32,444.1,403.57,444.1,411.83z"/>
<g>
	<g>
		<path class="st4" d="M30.49,258.47c30.24,17.03,76.09,38.15,135.15,48.99c35.16,6.45,66.76,7.75,92.96,6.87"/>
		<g>
			<polygon class="st5" points="254.92,320.26 276.29,313.38 254.34,308.66 			"/>
		</g>
	</g>
</g>
<g>
	<g>
		<line class="st6" x1="248.41" y1="351.39" x2="222.86" y2="340.52"/>
		<g>
			<polygon class="st7" points="228.78,336.72 206.56,333.58 224.23,347.41 			"/>
		</g>
	</g>
</g>
<rect x="203.7" y="370.39" class="st8" width="187.46" height="32.74"/>
<text transform="matrix(1 0 0 1 203.705 381.7482)"><tspan x="0" y="0" class="st7 st9 st10">1. grounding line retreat </tspan><tspan x="0" y="19.2" class="st7 st9 st10">accelerates local ice loss </tspan></text>
<rect x="19.43" y="326.71" class="st8" width="133.96" height="85.11"/>
<text transform="matrix(1 0 0 1 19.4279 338.0717)"><tspan x="0" y="0" class="st7 st9 st10">2. thinned margin </tspan><tspan x="0" y="19.2" class="st7 st9 st10">steepens slope and </tspan><tspan x="0" y="38.4" class="st7 st9 st10">accelerates ice flow </tspan><tspan x="0" y="57.6" class="st7 st9 st10">from inland</tspan></text>
<rect x="99.52" y="143.52" class="st8" width="219.81" height="61.78"/>
<text transform="matrix(1 0 0 1 99.523 154.8813)"><tspan x="0" y="0" class="st7 st9 st10">subsurface warming encroaches </tspan><tspan x="0" y="19.2" class="st7 st9 st10">on grounding line</tspan></text>
<linearGradient id="SVGID_1_" gradientUnits="userSpaceOnUse" x1="94.0649" y1="319.1115" x2="95.6992" y2="300.4317">
	<stop  offset="0.2079" style="stop-color:#CC3333"/>
	<stop  offset="0.279" style="stop-color:#CC3835;stop-opacity:0.8711"/>
	<stop  offset="0.3503" style="stop-color:#CE433B;stop-opacity:0.7419"/>
	<stop  offset="0.4218" style="stop-color:#D05547;stop-opacity:0.6123"/>
	<stop  offset="0.4935" style="stop-color:#D46B58;stop-opacity:0.4825"/>
	<stop  offset="0.5653" style="stop-color:#D98470;stop-opacity:0.3524"/>
	<stop  offset="0.6372" style="stop-color:#E0A493;stop-opacity:0.2221"/>
	<stop  offset="0.7079" style="stop-color:#E8CCC1;stop-opacity:0.094"/>
	<stop  offset="0.7598" style="stop-color:#F1F2F2;stop-opacity:0"/>
</linearGradient>
<path class="st11" d="M8.61,293.9c12.95,0.65,31.78,1.76,54.53,3.74c26.79,2.33,40.51,3.55,56.4,6.54
	c14.98,2.82,36.48,7.97,61.91,18.11c-30.21-4.06-62.54-7.35-96.79-9.42c-26.61-1.61-52.12-2.36-76.42-2.43
	C8.37,304.92,8.49,299.41,8.61,293.9z"/>
<path class="st12" d="M40.43,311.89c17.49,0.41,35.68,1.27,54.53,2.7c10.96,0.83,21.65,1.82,32.09,2.93"/>
</svg>
