<?xml version="1.0" encoding="UTF-8" standalone="no"?>
<!-- Created with Inkscape (http://www.inkscape.org/) -->

<svg
   version="1.1"
   id="svg1"
   width="489.96268"
   height="395.40933"
   viewBox="0 0 489.96268 395.40933"
   sodipodi:docname="glacial-water.svg"
   inkscape:version="1.3.2 (091e20e, 2023-11-25)"
   xmlns:inkscape="http://www.inkscape.org/namespaces/inkscape"
   xmlns:sodipodi="http://sodipodi.sourceforge.net/DTD/sodipodi-0.dtd"
   xmlns="http://www.w3.org/2000/svg"
   xmlns:svg="http://www.w3.org/2000/svg">
  <defs
     id="defs1">
    <clipPath
       clipPathUnits="userSpaceOnUse"
       id="clipPath3">
      <path
         d="M 0,296.557 H 367.472 V 0 H 0 Z"
         transform="translate(-110.4982,-82.4429)"
         id="path3" />
    </clipPath>
    <clipPath
       clipPathUnits="userSpaceOnUse"
       id="clipPath5">
      <path
         d="M 0,296.557 H 367.472 V 0 H 0 Z"
         transform="translate(-110.2528,-50.858201)"
         id="path5" />
    </clipPath>
    <clipPath
       clipPathUnits="userSpaceOnUse"
       id="clipPath7">
      <path
         d="M 0,296.557 H 367.472 V 0 H 0 Z"
         transform="translate(-134.1247,-62.087802)"
         id="path7" />
    </clipPath>
    <clipPath
       clipPathUnits="userSpaceOnUse"
       id="clipPath9">
      <path
         d="M 0,296.557 H 367.472 V 0 H 0 Z"
         transform="translate(-243.1156,-100.8656)"
         id="path9" />
    </clipPath>
    <clipPath
       clipPathUnits="userSpaceOnUse"
       id="clipPath11">
      <path
         d="M 0,296.557 H 367.472 V 0 H 0 Z"
         transform="translate(-190.5004,-74.437399)"
         id="path11" />
    </clipPath>
    <clipPath
       clipPathUnits="userSpaceOnUse"
       id="clipPath13">
      <path
         d="M 0,296.557 H 367.472 V 0 H 0 Z"
         transform="translate(-199.6822,-78.445399)"
         id="path13" />
    </clipPath>
    <clipPath
       clipPathUnits="userSpaceOnUse"
       id="clipPath15">
      <path
         d="M 0,296.557 H 367.472 V 0 H 0 Z"
         transform="translate(-243.17701,-90.634205)"
         id="path15" />
    </clipPath>
    <clipPath
       clipPathUnits="userSpaceOnUse"
       id="clipPath17">
      <path
         d="M 0,296.557 H 367.472 V 0 H 0 Z"
         transform="translate(-55.503701,-105.1085)"
         id="path17" />
    </clipPath>
    <clipPath
       clipPathUnits="userSpaceOnUse"
       id="clipPath19">
      <path
         d="M 0,296.557 H 367.472 V 0 H 0 Z"
         transform="translate(-191.9188,-130.1041)"
         id="path19" />
    </clipPath>
    <clipPath
       clipPathUnits="userSpaceOnUse"
       id="clipPath21">
      <path
         d="M 0,296.557 H 367.472 V 0 H 0 Z"
         transform="translate(-120.5811,-57.603499)"
         id="path21" />
    </clipPath>
    <clipPath
       clipPathUnits="userSpaceOnUse"
       id="clipPath23">
      <path
         d="M 0,296.557 H 367.472 V 0 H 0 Z"
         transform="translate(-151.8522,-98.618)"
         id="path23" />
    </clipPath>
    <clipPath
       clipPathUnits="userSpaceOnUse"
       id="clipPath25">
      <path
         d="M 0,296.557 H 367.472 V 0 H 0 Z"
         transform="translate(-123.2202,-133.51261)"
         id="path25" />
    </clipPath>
    <clipPath
       clipPathUnits="userSpaceOnUse"
       id="clipPath27">
      <path
         d="M 0,296.557 H 367.472 V 0 H 0 Z"
         transform="translate(-113.3137,-145.0214)"
         id="path27" />
    </clipPath>
    <clipPath
       clipPathUnits="userSpaceOnUse"
       id="clipPath29">
      <path
         d="M 0,296.557 H 367.472 V 0 H 0 Z"
         transform="translate(-126.4915,-126.0611)"
         id="path29" />
    </clipPath>
    <clipPath
       clipPathUnits="userSpaceOnUse"
       id="clipPath31">
      <path
         d="M 0,296.557 H 367.472 V 0 H 0 Z"
         transform="translate(-315.86701,-201.66601)"
         id="path31" />
    </clipPath>
    <clipPath
       clipPathUnits="userSpaceOnUse"
       id="clipPath33">
      <path
         d="M 0,296.557 H 367.472 V 0 H 0 Z"
         transform="translate(-193.9195,-163.68331)"
         id="path33" />
    </clipPath>
    <clipPath
       clipPathUnits="userSpaceOnUse"
       id="clipPath35">
      <path
         d="M 0,296.557 H 367.472 V 0 H 0 Z"
         transform="translate(-315.86701,-201.66601)"
         id="path35" />
    </clipPath>
    <clipPath
       clipPathUnits="userSpaceOnUse"
       id="clipPath37">
      <path
         d="M 0,296.557 H 367.472 V 0 H 0 Z"
         transform="translate(-293.51281,-205.15621)"
         id="path37" />
    </clipPath>
    <clipPath
       clipPathUnits="userSpaceOnUse"
       id="clipPath39">
      <path
         d="M 0,296.557 H 367.472 V 0 H 0 Z"
         transform="translate(-207.5797,-173.6776)"
         id="path39" />
    </clipPath>
    <clipPath
       clipPathUnits="userSpaceOnUse"
       id="clipPath41">
      <path
         d="M 0,296.557 H 367.472 V 0 H 0 Z"
         transform="translate(-238.99011,-153.5042)"
         id="path41" />
    </clipPath>
    <clipPath
       clipPathUnits="userSpaceOnUse"
       id="clipPath44">
      <path
         d="M 0,296.557 H 367.472 V 0 H 0 Z"
         transform="translate(-151.75371,-157.14211)"
         id="path44" />
    </clipPath>
    <clipPath
       clipPathUnits="userSpaceOnUse"
       id="clipPath46">
      <path
         d="M 0,296.557 H 367.472 V 0 H 0 Z"
         transform="translate(-121.948,-111.2552)"
         id="path46" />
    </clipPath>
    <clipPath
       clipPathUnits="userSpaceOnUse"
       id="clipPath48">
      <path
         d="M 0,296.557 H 367.472 V 0 H 0 Z"
         transform="translate(-131.4864,-137.963)"
         id="path48" />
    </clipPath>
    <clipPath
       clipPathUnits="userSpaceOnUse"
       id="clipPath50">
      <path
         d="M 0,296.557 H 367.472 V 0 H 0 Z"
         transform="translate(-110.4982,-82.4429)"
         id="path50" />
    </clipPath>
    <clipPath
       clipPathUnits="userSpaceOnUse"
       id="clipPath52">
      <path
         d="M 0,296.557 H 367.472 V 0 H 0 Z"
         transform="translate(-126.08181,-161.11921)"
         id="path52" />
    </clipPath>
    <clipPath
       clipPathUnits="userSpaceOnUse"
       id="clipPath54">
      <path
         d="M 0,296.557 H 367.472 V 0 H 0 Z"
         transform="translate(-135.76041,-58.772704)"
         id="path54" />
    </clipPath>
    <clipPath
       clipPathUnits="userSpaceOnUse"
       id="clipPath56">
      <path
         d="M 0,296.557 H 367.472 V 0 H 0 Z"
         transform="translate(-197.9163,-117.15571)"
         id="path56" />
    </clipPath>
    <clipPath
       clipPathUnits="userSpaceOnUse"
       id="clipPath58">
      <path
         d="M 0,296.557 H 367.472 V 0 H 0 Z"
         transform="translate(-212.27391,-166.58971)"
         id="path58" />
    </clipPath>
    <clipPath
       clipPathUnits="userSpaceOnUse"
       id="clipPath60">
      <path
         d="M 0,296.557 H 367.472 V 0 H 0 Z"
         transform="translate(-159.9321,-92.937102)"
         id="path60" />
    </clipPath>
    <clipPath
       clipPathUnits="userSpaceOnUse"
       id="clipPath62">
      <path
         d="M 0,296.557 H 367.472 V 0 H 0 Z"
         transform="translate(-163.3852,-99.5267)"
         id="path62" />
    </clipPath>
    <clipPath
       clipPathUnits="userSpaceOnUse"
       id="clipPath69">
      <path
         d="M 0,296.557 H 367.472 V 0 H 0 Z"
         transform="translate(-125.82891,-16.978503)"
         id="path69" />
    </clipPath>
    <clipPath
       clipPathUnits="userSpaceOnUse"
       id="clipPath71">
      <path
         d="M 0,296.557 H 367.472 V 0 H 0 Z"
         transform="translate(-295.7179,-214.1252)"
         id="path71" />
    </clipPath>
    <clipPath
       clipPathUnits="userSpaceOnUse"
       id="clipPath73">
      <path
         d="M 0,296.557 H 367.472 V 0 H 0 Z"
         transform="translate(-156.1776,-195.21181)"
         id="path73" />
    </clipPath>
    <clipPath
       clipPathUnits="userSpaceOnUse"
       id="clipPath75">
      <path
         d="M 0,296.557 H 367.472 V 0 H 0 Z"
         transform="translate(-112.86081,-98.7839)"
         id="path75" />
    </clipPath>
    <clipPath
       clipPathUnits="userSpaceOnUse"
       id="clipPath77">
      <path
         d="M 0,296.557 H 367.472 V 0 H 0 Z"
         transform="translate(-262.4326,-226.79111)"
         id="path77" />
    </clipPath>
    <clipPath
       clipPathUnits="userSpaceOnUse"
       id="clipPath79">
      <path
         d="M 0,296.557 H 367.472 V 0 H 0 Z"
         transform="translate(-199.04541,-236.82781)"
         id="path79" />
    </clipPath>
    <clipPath
       clipPathUnits="userSpaceOnUse"
       id="clipPath81">
      <path
         d="M 0,296.557 H 367.472 V 0 H 0 Z"
         transform="translate(-208.99801,-75.835504)"
         id="path81" />
    </clipPath>
    <clipPath
       clipPathUnits="userSpaceOnUse"
       id="clipPath83">
      <path
         d="M 0,296.557 H 367.472 V 0 H 0 Z"
         transform="translate(-199.0476,-75.060904)"
         id="path83" />
    </clipPath>
    <clipPath
       clipPathUnits="userSpaceOnUse"
       id="clipPath90">
      <path
         d="M 0,296.557 H 367.472 V 0 H 0 Z"
         transform="translate(-50.886701,-59.361701)"
         id="path90" />
    </clipPath>
    <clipPath
       clipPathUnits="userSpaceOnUse"
       id="clipPath92">
      <path
         d="M 0,296.557 H 367.472 V 0 H 0 Z"
         transform="translate(-14.3565,-81.352505)"
         id="path92" />
    </clipPath>
  </defs>
  <sodipodi:namedview
     id="namedview1"
     pagecolor="#505050"
     bordercolor="#ffffff"
     borderopacity="1"
     inkscape:showpageshadow="0"
     inkscape:pageopacity="0"
     inkscape:pagecheckerboard="1"
     inkscape:deskcolor="#505050"
     inkscape:zoom="1.9775776"
     inkscape:cx="250.0534"
     inkscape:cy="311.23937"
     inkscape:window-width="1464"
     inkscape:window-height="916"
     inkscape:window-x="0"
     inkscape:window-y="38"
     inkscape:window-maximized="0"
     inkscape:current-layer="layer-MC0">
    <inkscape:page
       x="0"
       y="0"
       inkscape:label="1"
       id="page1"
       width="489.96268"
       height="395.40933"
       margin="16.713333 24.825333 26.288 19.0208"
       bleed="0" />
  </sodipodi:namedview>
  <g
     id="layer-MC0"
     inkscape:groupmode="layer"
     inkscape:label="Layer 1">
    <path
       id="path1"
       d="M 0,0 111.408,-64.337 334.406,64.337 222.998,128.674 Z"
       style="fill:#c2aa87;fill-opacity:1;fill-rule:evenodd;stroke:#000000;stroke-width:0.182;stroke-linecap:round;stroke-linejoin:round;stroke-miterlimit:10;stroke-dasharray:none;stroke-opacity:1"
       transform="matrix(1.3333333,0,0,-1.3333333,19.142,286.9596)" />
    <path
       id="path2"
       d="M 0,0 C 20.878,-4.523 22.026,4.114 30.169,3.7"
       style="fill:none;stroke:#1462cf;stroke-width:0.719;stroke-linecap:round;stroke-linejoin:round;stroke-miterlimit:10;stroke-dasharray:none;stroke-opacity:1"
       transform="matrix(1.3333333,0,0,-1.3333333,147.33093,285.48547)"
       clip-path="url(#clipPath3)" />
    <text
       id="text3"
       xml:space="preserve"
       transform="matrix(1.3333333,0,0,1.3333333,102.02347,320.9452)"><tspan
         style="font-variant:normal;font-weight:normal;font-stretch:normal;font-size:4.9222px;font-family:Arial;writing-mode:lr-tb;fill:#000000;fill-opacity:1;fill-rule:nonzero;stroke:none"
         x="0 3.2831075 4.9222002 7.6589432 10.395686 11.488415 14.225158 16.686258 17.778986 20.51573"
         y="0"
         sodipodi:role="line"
         id="tspan3">Proglacial</tspan><tspan
         style="font-variant:normal;font-weight:normal;font-stretch:normal;font-size:4.9222px;font-family:Arial;writing-mode:lr-tb;fill:#000000;fill-opacity:1;fill-rule:nonzero;stroke:none"
         x="6.9747572 8.0674858 10.804229 13.265329"
         y="5.0846324"
         sodipodi:role="line"
         id="tspan4">lake</tspan></text>
    <path
       id="path4"
       d="M 0,0 C -5.863,0.928 -18.159,-9.585 -16.466,-15.38"
       style="fill:none;stroke:#1462cf;stroke-width:0.644;stroke-linecap:round;stroke-linejoin:round;stroke-miterlimit:10;stroke-dasharray:none;stroke-opacity:1"
       transform="matrix(1.3333333,0,0,-1.3333333,147.00373,327.5984)"
       clip-path="url(#clipPath5)" />
    <path
       id="path6"
       d="m 0,0 c -5.764,6.299 -16.049,13.099 -26.534,0.63 -0.328,-0.448 -8.913,-10.713 -7.997,-13.715 0.723,-2.371 2.242,-4.065 4.625,-4.898 1.334,-0.465 2.938,-0.662 4.826,-0.555 1.652,0.093 9.055,1.737 10.722,1.999 1.181,0.186 7.539,2.724 8.984,4.056 C -1.234,-8.665 4.461,-4.874 0,0"
       style="fill:#1462cf;fill-opacity:1;fill-rule:evenodd;stroke:#100303;stroke-width:0.379;stroke-linecap:round;stroke-linejoin:round;stroke-miterlimit:10;stroke-dasharray:none;stroke-opacity:1"
       transform="matrix(1.3333333,0,0,-1.3333333,178.83293,312.6256)"
       clip-path="url(#clipPath7)" />
    <path
       id="path8"
       d="M 0,0 C 3.97,4.414 1.842,20.451 -3.942,22.184"
       style="fill:none;stroke:#1462cf;stroke-width:0.644;stroke-linecap:round;stroke-linejoin:round;stroke-miterlimit:10;stroke-dasharray:none;stroke-opacity:1"
       transform="matrix(1.3333333,0,0,-1.3333333,324.15413,260.92187)"
       clip-path="url(#clipPath9)" />
    <path
       id="path10"
       d="m 0,0 c 2.355,-3.391 7.78,-7.555 13.683,-5.572 1.616,1.015 5.395,4.554 4.74,6.475 -0.705,1.499 0.424,2.965 -4.28,4.801 C 13.322,6.024 6.496,5.767 5.539,5.869 5.205,5.904 4.112,5.725 3.767,5.742 2.856,5.555 2.282,5.445 1.172,4.882 -0.558,4.005 -1.755,2.528 0,0"
       style="fill:#1462cf;fill-opacity:1;fill-rule:evenodd;stroke:#100303;stroke-width:0.379;stroke-linecap:round;stroke-linejoin:round;stroke-miterlimit:10;stroke-dasharray:none;stroke-opacity:1"
       transform="matrix(1.3333333,0,0,-1.3333333,254.00053,296.15947)"
       clip-path="url(#clipPath11)" />
    <path
       id="path12"
       d="M 0,0 C 4.558,2.358 3.867,15.682 -1.995,18.719"
       style="fill:none;stroke:#1462cf;stroke-width:0.644;stroke-linecap:round;stroke-linejoin:round;stroke-miterlimit:10;stroke-dasharray:none;stroke-opacity:1"
       transform="matrix(1.3333333,0,0,-1.3333333,266.24293,290.81547)"
       clip-path="url(#clipPath13)" />
    <path
       id="path14"
       d="m 0,0 c 2.797,1.997 5.988,6.42 3.646,10.917 -1.062,1.208 -4.587,3.975 -6.237,3.372 -1.27,-0.62 -2.687,0.187 -3.868,-3.562 -0.207,-0.655 0.683,-5.953 0.686,-6.702 0,-0.263 0.267,-1.104 0.285,-1.373 C -5.233,1.952 -5.079,1.51 -4.47,0.675 -3.52,-0.629 -2.085,-1.489 0,0"
       style="fill:#1462cf;fill-opacity:1;fill-rule:evenodd;stroke:#100303;stroke-width:0.379;stroke-linecap:round;stroke-linejoin:round;stroke-miterlimit:10;stroke-dasharray:none;stroke-opacity:1"
       transform="matrix(1.3333333,0,0,-1.3333333,324.236,274.56373)"
       clip-path="url(#clipPath15)" />
    <path
       id="path16"
       d="M 0,0 80.257,-46.336 C 127.341,9.878 198.83,50.494 260.363,96.557 l -74.332,41.619 C 112.136,98.287 43.383,55.734 0,0"
       style="fill:#a4e1f0;fill-opacity:1;fill-rule:evenodd;stroke:#000000;stroke-width:0.182;stroke-linecap:round;stroke-linejoin:round;stroke-miterlimit:10;stroke-dasharray:none;stroke-opacity:1"
       transform="matrix(1.3333333,0,0,-1.3333333,74.004933,255.26467)"
       clip-path="url(#clipPath17)" />
    <path
       id="path18"
       d="M 0,0 C -0.669,-3.224 2.594,-11.326 5.855,-12.486"
       style="fill:none;stroke:#1462cf;stroke-width:0.644;stroke-linecap:round;stroke-linejoin:round;stroke-miterlimit:10;stroke-dasharray:none;stroke-opacity:1"
       transform="matrix(1.3333333,0,0,-1.3333333,255.89173,221.9372)"
       clip-path="url(#clipPath19)" />
    <path
       id="path20"
       d="M 0,0 C 7.308,3.782 21.342,20.847 23.834,26.375"
       style="fill:none;stroke:#1462cf;stroke-width:0.644;stroke-linecap:round;stroke-linejoin:round;stroke-miterlimit:10;stroke-dasharray:none;stroke-opacity:1"
       transform="matrix(1.3333333,0,0,-1.3333333,160.7748,318.60467)"
       clip-path="url(#clipPath21)" />
    <path
       id="path22"
       d="M 0,0 C 4.641,-2.143 7.398,-2.344 16.16,-4.109 L 7.928,-0.502 C 7.563,-0.425 4.421,-0.179 4.18,-0.182 3.53,-0.19 1.033,-0.201 0,0"
       style="fill:#a1afb2;fill-opacity:1;fill-rule:evenodd;stroke:#000000;stroke-width:0.182;stroke-linecap:round;stroke-linejoin:round;stroke-miterlimit:10;stroke-dasharray:none;stroke-opacity:1"
       transform="matrix(1.3333333,0,0,-1.3333333,202.4696,263.91867)"
       clip-path="url(#clipPath23)" />
    <path
       id="path24"
       d="M 0,0 C -11.884,2.776 -10.87,6.553 -11.382,9.632"
       style="fill:none;stroke:#1462cf;stroke-width:0.644;stroke-linecap:round;stroke-linejoin:round;stroke-miterlimit:10;stroke-dasharray:none;stroke-opacity:1"
       transform="matrix(1.3333333,0,0,-1.3333333,164.2936,217.39253)"
       clip-path="url(#clipPath25)" />
    <path
       id="path26"
       d="m 0,0 c -1.29,1.451 -2.727,1.986 -4.909,0.203 -0.55,-0.732 -2.888,-2.126 -2.431,-3.035 0.435,-0.685 0.468,-0.975 2.549,-1.32 0.363,-0.06 2.749,0.337 3.145,0.407 0.138,0.025 0.561,0.258 0.702,0.293 0.348,0.214 0.569,0.345 0.961,0.778 C 0.626,-1.998 0.961,-1.081 0,0"
       style="fill:#1462cf;fill-opacity:1;fill-rule:evenodd;stroke:#000000;stroke-width:0.341;stroke-linecap:round;stroke-linejoin:round;stroke-miterlimit:10;stroke-dasharray:none;stroke-opacity:1"
       transform="matrix(1.3333333,0,0,-1.3333333,151.08493,202.04747)"
       clip-path="url(#clipPath27)" />
    <path
       id="path28"
       d="M 0,0 C -10.476,23.779 -7.879,28.138 -5.271,29.987"
       style="fill:none;stroke:#1462cf;stroke-width:0.644;stroke-linecap:round;stroke-linejoin:round;stroke-miterlimit:10;stroke-dasharray:none;stroke-opacity:1"
       transform="matrix(1.3333333,0,0,-1.3333333,168.65533,227.32787)"
       clip-path="url(#clipPath29)" />
    <path
       id="path30"
       d="m 0,0 v 32.168 l -74.333,42.917 c -46.61,-32.088 -85.306,-66.89 -115.588,-104.709 l 83.056,-46.537 C -82.09,-36.233 -43.703,-3.188 0,32.168"
       style="fill:#dbe8eb;fill-opacity:1;fill-rule:evenodd;stroke:#000000;stroke-width:0.182;stroke-linecap:round;stroke-linejoin:round;stroke-miterlimit:10;stroke-dasharray:none;stroke-opacity:1"
       transform="matrix(1.3333333,0,0,-1.3333333,421.156,126.52133)"
       clip-path="url(#clipPath31)" />
    <text
       id="text31"
       xml:space="preserve"
       transform="matrix(1.3333333,0,0,1.3333333,316.252,126.99067)"><tspan
         style="font-variant:normal;font-weight:normal;font-stretch:normal;font-size:4.9222px;font-family:Arial;writing-mode:lr-tb;fill:#000000;fill-opacity:1;fill-rule:nonzero;stroke:none"
         x="0 3.5538285 6.2905717 7.6589432 9.2980356 12.034779 14.771523 17.232622 18.32535 21.062094"
         y="0"
         sodipodi:role="line"
         id="tspan31">Refreezing</tspan></text>
    <path
       id="path32"
       d="M 0,0 C 7.176,-2.579 18.345,-4.875 31.894,-7 L 19.165,-2.658 C 11.993,-1.482 7.347,-0.532 0,0"
       style="fill:#a1afb2;fill-opacity:1;fill-rule:evenodd;stroke:#000000;stroke-width:0.182;stroke-linecap:round;stroke-linejoin:round;stroke-miterlimit:10;stroke-dasharray:none;stroke-opacity:1"
       transform="matrix(1.3333333,0,0,-1.3333333,258.55933,177.16493)"
       clip-path="url(#clipPath33)" />
    <path
       id="path34"
       d="M 0,0 V 32.168 0 C -60.231,-44.539 -107.386,-76.595 -106.865,-76.161 -82.09,-36.233 -43.703,-3.188 0,32.168"
       style="fill:#cfe0e4;fill-opacity:1;fill-rule:evenodd;stroke:#000000;stroke-width:0.182;stroke-linecap:round;stroke-linejoin:round;stroke-miterlimit:10;stroke-dasharray:none;stroke-opacity:1"
       transform="matrix(1.3333333,0,0,-1.3333333,421.156,126.52133)"
       clip-path="url(#clipPath35)" />
    <path
       id="path36"
       d="m 0,0 -18.356,-14.789 4.362,2.181 10.904,9.265 z"
       style="fill:#a5e1f0;fill-opacity:1;fill-rule:evenodd;stroke:#000000;stroke-width:0.114;stroke-linecap:round;stroke-linejoin:round;stroke-miterlimit:10;stroke-dasharray:none;stroke-opacity:1"
       transform="matrix(1.3333333,0,0,-1.3333333,391.3504,121.86773)"
       clip-path="url(#clipPath37)" />
    <path
       id="path38"
       d="M 0,0 C 7.077,-1.845 18.092,-3.487 31.454,-5.007 L 18.901,-1.901 C 11.828,-1.06 7.245,-0.381 0,0"
       style="fill:#a1afb2;fill-opacity:1;fill-rule:evenodd;stroke:#000000;stroke-width:0.182;stroke-linecap:round;stroke-linejoin:round;stroke-miterlimit:10;stroke-dasharray:none;stroke-opacity:1"
       transform="matrix(1.3333333,0,0,-1.3333333,276.77293,163.8392)"
       clip-path="url(#clipPath39)" />
    <path
       id="path40"
       d="m 0,0 c 5.386,6.166 6.336,5.794 17.084,14.721 3.001,2.492 7.206,5.565 8.905,4.061 1.431,-1.267 5.483,-6.78 4.18,-8.205 C 25.693,5.685 7.718,-3.484 0.182,-5.997 0.182,-5.997 -0.233,-0.03 0,0"
       style="fill:#56b4cb;fill-opacity:1;fill-rule:evenodd;stroke:#000000;stroke-width:0.182;stroke-linecap:round;stroke-linejoin:round;stroke-miterlimit:10;stroke-dasharray:none;stroke-opacity:1"
       transform="matrix(1.3333333,0,0,-1.3333333,318.65347,190.73707)"
       clip-path="url(#clipPath41)" />
    <text
       id="text41"
       xml:space="preserve"
       transform="matrix(1.3333333,0,0,1.3333333,349.42907,155.15213)"><tspan
         style="font-variant:normal;font-weight:normal;font-stretch:normal;font-size:4.9222px;font-family:Arial;writing-mode:lr-tb;fill:#000000;fill-opacity:1;fill-rule:nonzero;stroke:none"
         x="0 3.0074642 4.1001925 5.739285"
         y="0"
         sodipodi:role="line"
         id="tspan41">Firn</tspan><tspan
         style="font-variant:normal;font-weight:normal;font-stretch:normal;font-size:4.9222px;font-family:Arial;writing-mode:lr-tb;fill:#000000;fill-opacity:1;fill-rule:nonzero;stroke:none"
         x="-3.5587506 -0.82200742 1.9147358 4.6514788 5.7442074 7.1125789 9.8493223"
         y="5.0846324"
         sodipodi:role="line"
         id="tspan42">aquifer</tspan></text>
    <text
       id="text42"
       xml:space="preserve"
       transform="matrix(1.3333333,0,0,1.3333333,34.722667,289.13267)"><tspan
         style="font-variant:normal;font-weight:normal;font-stretch:normal;font-size:7.5726px;font-family:Arial;writing-mode:lr-tb;fill:#000000;fill-opacity:1;fill-rule:nonzero;stroke:none"
         x="0 4.0664864 8.2768517 12.487217 16.697582 19.219259"
         y="0"
         sodipodi:role="line"
         id="tspan43">Tundra</tspan></text>
    <path
       id="path43"
       d="m 0,0 c -5.642,-2.791 -13.542,-6.063 -17.1,-11.716 -4.003,-6.363 -7.07,-16.406 -9.203,-23.75 -0.867,-2.985 -2.865,-6.712 -3.377,-9.876 -1.165,-7.194 -11.179,-33.334 -16.846,-34.991"
       style="fill:none;stroke:#1462cf;stroke-width:0.644;stroke-linecap:round;stroke-linejoin:round;stroke-miterlimit:10;stroke-dasharray:none;stroke-opacity:1"
       transform="matrix(1.3333333,0,0,-1.3333333,202.33827,185.88653)"
       clip-path="url(#clipPath44)" />
    <path
       id="path45"
       d="m 0,0 c 12.755,0.709 18.51,7.733 30.392,11.632 3.301,1.082 16.598,2.629 17.588,2.629"
       style="fill:none;stroke:#1462cf;stroke-width:0.644;stroke-linecap:round;stroke-linejoin:round;stroke-miterlimit:10;stroke-dasharray:none;stroke-opacity:1"
       transform="matrix(1.3333333,0,0,-1.3333333,162.59733,247.06907)"
       clip-path="url(#clipPath46)" />
    <path
       id="path47"
       d="M 0,0 C 10.801,-2.114 42.341,2.036 43.167,6.454"
       style="fill:none;stroke:#1462cf;stroke-width:0.644;stroke-linecap:round;stroke-linejoin:round;stroke-miterlimit:10;stroke-dasharray:none;stroke-opacity:1"
       transform="matrix(1.3333333,0,0,-1.3333333,175.3152,211.45867)"
       clip-path="url(#clipPath48)" />
    <path
       id="path49"
       d="M 0,0 C 20.878,-4.523 22.026,4.114 30.169,3.7"
       style="fill:none;stroke:#1462cf;stroke-width:0.719;stroke-linecap:round;stroke-linejoin:round;stroke-miterlimit:10;stroke-dasharray:none;stroke-opacity:1"
       transform="matrix(1.3333333,0,0,-1.3333333,147.33093,285.48547)"
       clip-path="url(#clipPath50)" />
    <text
       id="text50"
       xml:space="preserve"
       transform="matrix(1.3333333,0,0,1.3333333,118.7728,222.36707)"><tspan
         style="font-variant:normal;font-weight:normal;font-stretch:normal;font-size:7.5726px;font-family:Arial;writing-mode:lr-tb;fill:#000000;fill-opacity:1;fill-rule:nonzero;stroke:none"
         x="0 2.1051829 5.8914828"
         y="0"
         sodipodi:role="line"
         id="tspan50">Ice</tspan><tspan
         style="font-variant:normal;font-weight:normal;font-stretch:normal;font-size:7.5726px;font-family:Arial;writing-mode:lr-tb;fill:#000000;fill-opacity:1;fill-rule:nonzero;stroke:none"
         x="201.87794 206.50481 208.18591 210.7076"
         y="-99.905312"
         sodipodi:role="line"
         id="tspan51">Firn</tspan></text>
    <path
       id="path51"
       d="m 0,0 c -2.482,2.597 -5.249,3.556 -9.451,0.363 -1.058,-1.31 -5.558,-3.806 -4.679,-5.434 0.836,-1.224 0.9,-1.745 4.907,-2.362 0.7,-0.108 5.292,0.602 6.054,0.729 0.266,0.044 1.081,0.461 1.352,0.525 0.671,0.382 1.096,0.616 1.849,1.392 C 1.206,-3.578 1.851,-1.936 0,0"
       style="fill:#1462cf;fill-opacity:1;fill-rule:evenodd;stroke:#100303;stroke-width:0.379;stroke-linecap:round;stroke-linejoin:round;stroke-miterlimit:10;stroke-dasharray:none;stroke-opacity:1"
       transform="matrix(1.3333333,0,0,-1.3333333,168.10907,180.58373)"
       clip-path="url(#clipPath52)" />
    <text
       id="text52"
       xml:space="preserve"
       transform="matrix(1.3333333,0,0,1.3333333,114.30013,171.89173)"><tspan
         style="font-variant:normal;font-weight:normal;font-stretch:normal;font-size:4.9222px;font-family:Arial;writing-mode:lr-tb;fill:#000000;fill-opacity:1;fill-rule:nonzero;stroke:none"
         x="0 3.2831075 6.0198507 8.7565937 10.395686 13.13243 15.869173 16.961901 19.698645 22.159744 23.252472 25.989216"
         y="0"
         sodipodi:role="line"
         id="tspan52">Supraglacial</tspan><tspan
         style="font-variant:normal;font-weight:normal;font-stretch:normal;font-size:4.9222px;font-family:Arial;writing-mode:lr-tb;fill:#000000;fill-opacity:1;fill-rule:nonzero;stroke:none"
         x="8.4760284 9.5687571 12.3055 14.7666 17.503344"
         y="5.0846324"
         sodipodi:role="line"
         id="tspan53">lakes</tspan></text>
    <path
       id="path53"
       d="M 0,0 C 47.084,56.214 118.573,96.83 180.107,142.893 V 105.924 C 106.212,66.035 0,0 0,0"
       style="fill:#a4e1f0;fill-opacity:1;fill-rule:evenodd;stroke:#000000;stroke-width:0.182;stroke-linecap:round;stroke-linejoin:round;stroke-miterlimit:10;stroke-dasharray:none;stroke-opacity:1"
       transform="matrix(1.3333333,0,0,-1.3333333,181.01387,317.04573)"
       clip-path="url(#clipPath54)" />
    <path
       id="path55"
       d="M 0,0 C -0.125,0.193 -0.245,0.331 0,0.545 0.224,0.656 0.382,0.554 0.545,0.363 v -20.536 l -0.363,-0.182 z"
       style="fill:#a1afb2;fill-opacity:1;fill-rule:evenodd;stroke:#000000;stroke-width:0.182;stroke-linecap:round;stroke-linejoin:round;stroke-miterlimit:10;stroke-dasharray:none;stroke-opacity:1"
       transform="matrix(1.3333333,0,0,-1.3333333,263.8884,239.20173)"
       clip-path="url(#clipPath56)" />
    <text
       id="text56"
       xml:space="preserve"
       transform="matrix(1.3333333,0,0,1.3333333,321.74547,206.30187)"><tspan
         style="font-variant:normal;font-weight:normal;font-stretch:normal;font-size:4.9222px;font-family:Arial;writing-mode:lr-tb;fill:#000000;fill-opacity:1;fill-rule:nonzero;stroke:none"
         x="0 3.5538285 6.2905717 7.6589432 9.2980356 12.034779 14.771523 17.232622 18.32535 21.062094"
         y="0"
         sodipodi:role="line"
         id="tspan56">Refreezing</tspan></text>
    <path
       id="path57"
       d="m 0,0 25.989,-2.726 2.545,-41.619 -5.17,38.565 z"
       style="fill:#a1afb2;fill-opacity:1;fill-rule:evenodd;stroke:#000000;stroke-width:0.182;stroke-linecap:round;stroke-linejoin:round;stroke-miterlimit:10;stroke-dasharray:none;stroke-opacity:1"
       transform="matrix(1.3333333,0,0,-1.3333333,283.03187,173.28973)"
       clip-path="url(#clipPath58)" />
    <path
       id="path59"
       d="M 0,0 8.542,-0.498 10.359,-13.039 7.088,-1.77 Z"
       style="fill:#a1afb2;fill-opacity:1;fill-rule:evenodd;stroke:#000000;stroke-width:0.182;stroke-linecap:round;stroke-linejoin:round;stroke-miterlimit:10;stroke-dasharray:none;stroke-opacity:1"
       transform="matrix(1.3333333,0,0,-1.3333333,213.2428,271.4932)"
       clip-path="url(#clipPath60)" />
    <path
       id="path61"
       d="M 0,0 10.359,-2.369 11.086,-15.266 8.724,-3.823 Z"
       style="fill:#a1afb2;fill-opacity:1;fill-rule:evenodd;stroke:#000000;stroke-width:0.182;stroke-linecap:round;stroke-linejoin:round;stroke-miterlimit:10;stroke-dasharray:none;stroke-opacity:1"
       transform="matrix(1.3333333,0,0,-1.3333333,217.84693,262.70707)"
       clip-path="url(#clipPath62)" />
    <text
       id="text62"
       xml:space="preserve"
       transform="matrix(1.3333333,0,0,1.3333333,241.74413,172.06107)"><tspan
         style="font-variant:normal;font-weight:normal;font-stretch:normal;font-size:4.9222px;font-family:Arial;writing-mode:lr-tb;fill:#000000;fill-opacity:1;fill-rule:nonzero;stroke:none"
         x="0 3.5538285 5.1929212 7.9296641 10.390764 13.127507 15.588608 18.049707 20.786451"
         y="0"
         sodipodi:role="line"
         id="tspan62">Crevasses</tspan><tspan
         style="font-variant:normal;font-weight:normal;font-stretch:normal;font-size:4.9222px;font-family:Arial;writing-mode:lr-tb;fill:#000000;fill-opacity:1;fill-rule:nonzero;stroke:none"
         x="-1.698159 1.5849484 4.0460482 6.7827916 9.5195351 12.256278 13.89537 16.632114 18.000484 19.093214 21.829956 25.935072 28.671816 31.408558"
         y="-100.2849"
         sodipodi:role="line"
         id="tspan63">Evaporationand</tspan><tspan
         style="font-variant:normal;font-weight:normal;font-stretch:normal;font-size:4.9222px;font-family:Arial;writing-mode:lr-tb;fill:#000000;fill-opacity:1;fill-rule:nonzero;stroke:none"
         x="1.0385842 3.4996841 6.2364273 8.9731703 11.709914 14.446657 17.183401 19.644501 22.381243 23.749615 24.842344 27.579086"
         y="-95.200272"
         sodipodi:role="line"
         id="tspan64">condensation</tspan><tspan
         style="font-variant:normal;font-weight:normal;font-stretch:normal;font-size:4.9222px;font-family:Arial;writing-mode:lr-tb;fill:#000000;fill-opacity:1;fill-rule:nonzero;stroke:none"
         x="-35.321709 -31.767879 -29.031136 -27.938408 -25.201664 -23.833292 -21.09655 -20.00382"
         y="-51.860298"
         sodipodi:role="line"
         id="tspan65">Rainfall</tspan><tspan
         style="font-variant:normal;font-weight:normal;font-stretch:normal;font-size:4.9222px;font-family:Arial;writing-mode:lr-tb;fill:#000000;fill-opacity:1;fill-rule:nonzero;stroke:none"
         x="-79.439384 -75.885559 -73.148811 -70.412071 -68.77298 -66.036232 -64.756462"
         y="53.071159"
         sodipodi:role="line"
         id="tspan66">Run-off</tspan><tspan
         style="font-variant:normal;font-weight:normal;font-stretch:normal;font-size:4.9222px;font-family:Arial;writing-mode:lr-tb;fill:#000000;fill-opacity:1;fill-rule:nonzero;stroke:none"
         x="53.346802 57.446995 60.183739 61.276466"
         y="-11.586859"
         sodipodi:role="line"
         id="tspan67">Melt</tspan><tspan
         style="font-variant:normal;font-weight:normal;font-stretch:normal;font-size:4.9222px;font-family:Arial;writing-mode:lr-tb;fill:#000000;fill-opacity:1;fill-rule:nonzero;stroke:none"
         x="-37.261055 -33.160862 -30.424118 -29.33139"
         y="80.413979"
         sodipodi:role="line"
         id="tspan68">Melt</tspan></text>
    <path
       id="path68"
       d="m 0,0 -0.064,-4.353 222.998,129.112 v 3.952 z"
       style="fill:#806752;fill-opacity:1;fill-rule:evenodd;stroke:#000000;stroke-width:0.114;stroke-linecap:round;stroke-linejoin:round;stroke-miterlimit:10;stroke-dasharray:none;stroke-opacity:1"
       transform="matrix(1.3333333,0,0,-1.3333333,167.77187,372.77133)"
       clip-path="url(#clipPath69)" />
    <path
       id="path70"
       d="m 0,0 -13.11,-11.509 -1.379,-2.386 14.627,12.772 z"
       style="fill:#a5e1f0;fill-opacity:1;fill-rule:evenodd;stroke:#000000;stroke-width:0.114;stroke-linecap:round;stroke-linejoin:round;stroke-miterlimit:10;stroke-dasharray:none;stroke-opacity:1"
       transform="matrix(1.3333333,0,0,-1.3333333,394.29053,109.90907)"
       clip-path="url(#clipPath71)" />
    <text
       id="text71"
       xml:space="preserve"
       transform="matrix(1.3333333,0,0,1.3333333,397.74413,123.3332)"><tspan
         style="font-variant:normal;font-weight:normal;font-stretch:normal;font-size:4.9222px;font-family:Arial;writing-mode:lr-tb;fill:#000000;fill-opacity:1;fill-rule:nonzero;stroke:none"
         x="0 1.3683716 3.8294716"
         y="0"
         sodipodi:role="line"
         id="tspan71">Ice</tspan><tspan
         style="font-variant:normal;font-weight:normal;font-stretch:normal;font-size:4.9222px;font-family:Arial;writing-mode:lr-tb;fill:#000000;fill-opacity:1;fill-rule:nonzero;stroke:none"
         x="-3.6965723 -2.6038437 0.1328994 2.5939994 5.3307428 6.9698353"
         y="5.0846324"
         sodipodi:role="line"
         id="tspan72">layers</tspan></text>
    <path
       id="path72"
       d="M 0,0 H 2.469 L -1.33,-3.798 -5.127,0 h 2.468 V 22.266 H 0 Z"
       style="fill:#000000;fill-opacity:1;fill-rule:evenodd;stroke:none"
       transform="matrix(1.3333333,0,0,-1.3333333,208.2368,135.12693)"
       clip-path="url(#clipPath73)" />
    <path
       id="path74"
       d="M 0,0 2.319,-0.847 -2.553,-3.112 -4.816,1.76 -2.497,0.912 2.217,13.815 4.715,12.902 Z"
       style="fill:#000000;fill-opacity:1;fill-rule:evenodd;stroke:none"
       transform="matrix(1.3333333,0,0,-1.3333333,150.48107,263.69747)"
       clip-path="url(#clipPath75)" />
    <path
       id="path76"
       d="m 0,0 c 1.823,-7.096 -9.276,-12.82 -10.465,-13.265 -3.673,-1.374 -13.365,-4.717 -16.976,-4.954 -8.258,-0.541 -17.005,-2.037 -25.994,1.241 -14.019,6.717 -20.384,8.639 -24.348,23.113 17.234,15.676 36.413,30.149 56.885,43.824 L 23.629,24.251 C 17.285,12.486 -2.842,11.064 0,0"
       style="fill:#f8f8f8;fill-opacity:1;fill-rule:evenodd;stroke:#000000;stroke-width:0.114;stroke-linecap:round;stroke-linejoin:round;stroke-miterlimit:10;stroke-dasharray:none;stroke-opacity:1"
       transform="matrix(1.3333333,0,0,-1.3333333,349.91013,93.0212)"
       clip-path="url(#clipPath77)" />
    <text
       id="text77"
       xml:space="preserve"
       transform="matrix(1.3333333,0,0,1.3333333,307.14253,53.061067)"><tspan
         style="font-variant:normal;font-weight:normal;font-stretch:normal;font-size:7.5726px;font-family:Arial;writing-mode:lr-tb;fill:#000000;fill-opacity:1;fill-rule:nonzero;stroke:none"
         x="0 5.0509243 9.2612896 13.471656"
         y="0"
         sodipodi:role="line"
         id="tspan77">Snow</tspan></text>
    <path
       id="path78"
       d="M 0,0 H 2.469 L -1.329,-3.798 -5.127,0 h 2.468 v 18.467 h -2.468 l 3.798,3.798 3.798,-3.798 H 0 Z"
       style="fill:#000000;fill-opacity:1;fill-rule:evenodd;stroke:none"
       transform="matrix(1.3333333,0,0,-1.3333333,265.39387,79.638933)"
       clip-path="url(#clipPath79)" />
    <path
       id="path80"
       d="M 0,0 C 9.205,-3.346 37.747,10.562 32.671,18.602"
       style="fill:none;stroke:#1462cf;stroke-width:0.644;stroke-linecap:round;stroke-linejoin:round;stroke-miterlimit:10;stroke-dasharray:none;stroke-opacity:1"
       transform="matrix(1.3333333,0,0,-1.3333333,278.664,294.29533)"
       clip-path="url(#clipPath81)" />
    <path
       id="path82"
       d="M 0,0 C -10.24,-12.321 -78.713,-26.955 -72.586,-18.783"
       style="fill:none;stroke:#1462cf;stroke-width:0.644;stroke-linecap:round;stroke-linejoin:round;stroke-miterlimit:10;stroke-dasharray:none;stroke-opacity:1"
       transform="matrix(1.3333333,0,0,-1.3333333,265.3968,295.32813)"
       clip-path="url(#clipPath83)" />
    <text
       id="text83"
       xml:space="preserve"
       transform="matrix(1.3333333,0,0,1.3333333,408.78707,204.30707)"><tspan
         style="font-variant:normal;font-weight:normal;font-stretch:normal;font-size:7.5726px;font-family:Arial;writing-mode:lr-tb;fill:#000000;fill-opacity:1;fill-rule:nonzero;stroke:none"
         x="0 5.0509243 9.2612896 13.471656 15.993331 20.203697 23.989996"
         y="0"
         sodipodi:role="line"
         id="tspan83">Bedrock</tspan></text>
    <text
       id="text84"
       xml:space="preserve"
       transform="matrix(1.3333333,0,0,1.3333333,277.278,270.39307)"><tspan
         style="font-variant:normal;font-weight:normal;font-stretch:normal;font-size:4.9222px;font-family:Arial;writing-mode:lr-tb;fill:#000000;fill-opacity:1;fill-rule:nonzero;stroke:none"
         x="0 3.2831075 6.0198507 8.7565937 11.493337 12.586065 15.322808 17.783909 18.876637 21.61338"
         y="0"
         sodipodi:role="line"
         id="tspan84">Subglacial</tspan><tspan
         style="font-variant:normal;font-weight:normal;font-stretch:normal;font-size:4.9222px;font-family:Arial;writing-mode:lr-tb;fill:#000000;fill-opacity:1;fill-rule:nonzero;stroke:none"
         x="2.0525575 4.7893004 6.4283934 9.1651363 10.257865 12.994608 15.731351 18.468094"
         y="5.0846324"
         sodipodi:role="line"
         id="tspan85">drainage</tspan><tspan
         style="font-variant:normal;font-weight:normal;font-stretch:normal;font-size:4.9222px;font-family:Arial;writing-mode:lr-tb;fill:#000000;fill-opacity:1;fill-rule:nonzero;stroke:none"
         x="64.667862 68.768059 71.504799 72.597527"
         y="-120.8597"
         sodipodi:role="line"
         id="tspan86">Melt</tspan><tspan
         style="font-variant:normal;font-weight:normal;font-stretch:normal;font-size:4.9222px;font-family:Arial;writing-mode:lr-tb;fill:#000000;fill-opacity:1;fill-rule:nonzero;stroke:none"
         x="-26.22056 -22.120367 -19.383623 -16.646881 -15.554152 -14.461424"
         y="-3.8688493"
         sodipodi:role="line"
         id="tspan87">Moulin</tspan><tspan
         style="font-variant:normal;font-weight:normal;font-stretch:normal;font-size:4.9222px;font-family:Arial;writing-mode:lr-tb;fill:#000000;fill-opacity:1;fill-rule:nonzero;stroke:none"
         x="1.4126714 4.6957788 7.4325218 10.169265 11.261993 13.998736 16.459837 17.552565 20.289309"
         y="-27.987629"
         sodipodi:role="line"
         id="tspan88">Englacial</tspan><tspan
         style="font-variant:normal;font-weight:normal;font-stretch:normal;font-size:4.9222px;font-family:Arial;writing-mode:lr-tb;fill:#000000;fill-opacity:1;fill-rule:nonzero;stroke:none"
         x="1.9639578 4.7007012 6.3397937 9.0765371 10.169265 12.906009 15.642752 18.379496"
         y="-22.902996"
         sodipodi:role="line"
         id="tspan89">drainage</tspan></text>
    <path
       id="path89"
       d="M 0,0 C 11.778,7.492 54.595,17.523 54.341,17.447"
       style="fill:none;stroke:#1462cf;stroke-width:0.644;stroke-linecap:round;stroke-linejoin:round;stroke-miterlimit:10;stroke-dasharray:none;stroke-opacity:1"
       transform="matrix(1.3333333,0,0,-1.3333333,67.848933,316.2604)"
       clip-path="url(#clipPath90)" />
    <path
       id="path91"
       d="m 0,0 v -3.635 l 111.408,-65.092 0.064,4.353 z"
       style="fill:#9a825f;fill-opacity:1;fill-rule:evenodd;stroke:#000000;stroke-width:0.182;stroke-linecap:round;stroke-linejoin:round;stroke-miterlimit:10;stroke-dasharray:none;stroke-opacity:1"
       transform="matrix(1.3333333,0,0,-1.3333333,19.142,286.93933)"
       clip-path="url(#clipPath92)" />
  </g>
</svg>
