<?xml version="1.0" encoding="UTF-8" standalone="no"?>
<!-- Created with Inkscape (http://www.inkscape.org/) -->

<svg
   version="1.0"
   width="1366.6917"
   height="689"
   id="svg1901"
   sodipodi:docname="cyclone-profile.svg"
   inkscape:version="1.3.2 (091e20e, 2023-11-25)"
   xmlns:inkscape="http://www.inkscape.org/namespaces/inkscape"
   xmlns:sodipodi="http://sodipodi.sourceforge.net/DTD/sodipodi-0.dtd"
   xmlns:xlink="http://www.w3.org/1999/xlink"
   xmlns="http://www.w3.org/2000/svg"
   xmlns:svg="http://www.w3.org/2000/svg"
   xmlns:rdf="http://www.w3.org/1999/02/22-rdf-syntax-ns#"
   xmlns:cc="http://creativecommons.org/ns#"
   xmlns:dc="http://purl.org/dc/elements/1.1/">
  <metadata
     id="metadata95">
    <rdf:RDF>
      <cc:Work
         rdf:about="">
        <dc:format>image/svg+xml</dc:format>
        <dc:type
           rdf:resource="http://purl.org/dc/dcmitype/StillImage" />
      </cc:Work>
    </rdf:RDF>
  </metadata>
  <sodipodi:namedview
     pagecolor="#ffffff"
     bordercolor="#666666"
     borderopacity="1"
     objecttolerance="10"
     gridtolerance="10"
     guidetolerance="10"
     inkscape:pageopacity="0"
     inkscape:pageshadow="2"
     inkscape:window-width="1392"
     inkscape:window-height="1027"
     id="namedview93"
     showgrid="false"
     inkscape:zoom="0.4758434"
     inkscape:cx="708.2162"
     inkscape:cy="254.28534"
     inkscape:window-x="0"
     inkscape:window-y="25"
     inkscape:window-maximized="0"
     inkscape:current-layer="layer1"
     inkscape:showpageshadow="0"
     inkscape:pagecheckerboard="0"
     inkscape:deskcolor="#505050" />
  <defs
     id="defs1903">
    <linearGradient
       id="linearGradient14500">
      <stop
         id="stop14502"
         style="stop-color:#f7f7f7;stop-opacity:1"
         offset="0" />
      <stop
         id="stop14504"
         style="stop-color:#d8dff8;stop-opacity:1"
         offset="1" />
    </linearGradient>
    <marker
       refX="0"
       refY="0"
       orient="auto"
       id="Dot_l"
       style="overflow:visible">
      <path
         d="M -2.5,-1 C -2.5,1.76 -4.74,4 -7.5,4 C -10.26,4 -12.5,1.76 -12.5,-1 C -12.5,-3.76 -10.26,-6 -7.5,-6 C -4.74,-6 -2.5,-3.76 -2.5,-1 z"
         transform="matrix(0.8,0,0,0.8,5.92,0.8)"
         id="path2900"
         style="fill-rule:evenodd;stroke:#000000;stroke-width:1pt;marker-start:none;marker-end:none" />
    </marker>
    <marker
       refX="0"
       refY="0"
       orient="auto"
       id="Arrow2Lstart"
       style="overflow:visible">
      <path
         d="M 8.7185878,4.0337352 L -2.2072895,0.016013256 L 8.7185884,-4.0017078 C 6.97309,-1.6296469 6.9831476,1.6157441 8.7185878,4.0337352 z"
         transform="matrix(1.1,0,0,1.1,1.1,0)"
         id="path2856"
         style="font-size:12px;fill-rule:evenodd;stroke-width:0.625;stroke-linejoin:round" />
    </marker>
    <linearGradient
       id="linearGradient12465">
      <stop
         id="stop12467"
         style="stop-color:#00277e;stop-opacity:1"
         offset="0" />
      <stop
         id="stop12469"
         style="stop-color:#3c41b6;stop-opacity:1"
         offset="1" />
    </linearGradient>
    <marker
       refX="0"
       refY="0"
       orient="auto"
       id="Arrow1Lend"
       style="overflow:visible">
      <path
         d="M 0,0 L 5,-5 L -12.5,0 L 5,5 L 0,0 z"
         transform="matrix(-0.8,0,0,-0.8,-10,0)"
         id="path2841"
         style="fill-rule:evenodd;stroke:#000000;stroke-width:1pt;marker-start:none" />
    </marker>
    <marker
       refX="0"
       refY="0"
       orient="auto"
       id="Arrow1Lstart"
       style="overflow:visible">
      <path
         d="M 0,0 L 5,-5 L -12.5,0 L 5,5 L 0,0 z"
         transform="matrix(0.8,0,0,0.8,10,0)"
         id="path2838"
         style="fill-rule:evenodd;stroke:#000000;stroke-width:1pt;marker-start:none" />
    </marker>
    <linearGradient
       x1="518.51636"
       y1="788.63757"
       x2="518.51636"
       y2="750.49207"
       id="linearGradient12471"
       xlink:href="#linearGradient12465"
       gradientUnits="userSpaceOnUse"
       gradientTransform="matrix(1.0534336,0,0,1.1265418,-66.561899,-24.760493)" />
    <linearGradient
       x1="536.31622"
       y1="851.36218"
       x2="536.31622"
       y2="271.3616"
       id="linearGradient14506"
       xlink:href="#linearGradient14500"
       gradientUnits="userSpaceOnUse"
       gradientTransform="matrix(1.0510993,0,0,0.8812857,-58.355055,24.422726)" />
  </defs>
  <g
     transform="translate(121.68377,-216.86218)"
     id="layer1"
     style="opacity:1">
    <path
       d="M -121.68377,216.86218 H 1245.008 V 821.42413 H -121.42101 Z"
       id="rect14093"
       style="color:#000000;display:inline;overflow:visible;visibility:visible;fill:url(#linearGradient14506);fill-opacity:1;fill-rule:evenodd;stroke:none;stroke-width:3;stroke-linecap:butt;stroke-linejoin:round;stroke-miterlimit:4;stroke-dasharray:none;stroke-dashoffset:0;stroke-opacity:1;marker:none;marker-start:none;marker-mid:none;marker-end:none;enable-background:accumulate"
       inkscape:connector-curvature="0" />
    <path
       d="m 71.80287,755.12849 c 48.28125,55.7703 158.31217,50.26428 202.29715,-2.05979 40.49555,-48.17308 0.66503,-135.7885 -47.55458,-184.80648 C 174.81508,515.67539 117.21093,515.58299 66.576505,561.50298 15.942082,607.42295 30.342501,707.23706 71.80287,755.12849 Z"
       id="path2167"
       style="fill:#f7f7f7;fill-opacity:1;fill-rule:evenodd;stroke:#474747;stroke-width:2.25308371;stroke-linecap:butt;stroke-linejoin:round;stroke-miterlimit:4;stroke-dasharray:none;stroke-opacity:1"
       inkscape:connector-curvature="0" />
    <path
       d="m 335.81999,742.8762 c 2.23688,61.93875 162.85337,53.51385 190.38558,5.63271 19.43622,-33.80148 18.0585,-268.18624 -138.58408,-348.95462 -84.75935,-43.70379 -230.38517,-18.47606 -177.97418,30.14329 95.81599,88.88424 123.87836,249.64881 126.17268,313.17862 z"
       id="path2169"
       style="fill:#f7f7f7;fill-opacity:1;fill-rule:evenodd;stroke:#474747;stroke-width:2.25308371;stroke-linecap:butt;stroke-linejoin:round;stroke-miterlimit:4;stroke-dasharray:none;stroke-opacity:1"
       inkscape:connector-curvature="0" />
    <path
       d="m 106.00606,332.8027 c -31.543165,-0.56326 -77.450341,32.11873 -63.086933,39.44126 14.363408,7.32252 91.988593,13.19198 126.172683,2.25307 35.20443,-11.26542 -31.54257,-41.13105 -63.08575,-41.69433 z"
       id="path2171"
       style="fill:#f7f7f7;fill-opacity:1;fill-rule:evenodd;stroke:#474747;stroke-width:2.25308371;stroke-linecap:butt;stroke-linejoin:round;stroke-miterlimit:4;stroke-dasharray:none;stroke-opacity:1"
       inkscape:connector-curvature="0" />
    <path
       d="m -10.028337,337.32115 c -11.265419,0.28164 -27.599918,8.40276 -15.771586,15.77159 11.828332,7.36883 24.96680668,7.28373 45.061673,-1.12654 21.049483,-8.80982 -18.0246692,-14.92668 -29.290087,-14.64505 z"
       id="path2173"
       style="fill:#f7f7f7;fill-opacity:1;fill-rule:evenodd;stroke:#474747;stroke-width:2.25308371;stroke-linecap:butt;stroke-linejoin:round;stroke-miterlimit:4;stroke-dasharray:none;stroke-opacity:1"
       inkscape:connector-curvature="0" />
    <g
       id="g2354">
      <path
         d="m 23.71875,772 v 1.6875 H 203.75 V 772 Z"
         id="path2205"
         style="color:#000000;display:inline;overflow:visible;visibility:visible;fill:#000000;fill-opacity:1;fill-rule:evenodd;stroke:none;stroke-width:1.68981266;stroke-linecap:butt;stroke-linejoin:miter;stroke-miterlimit:4;stroke-dashoffset:0;stroke-opacity:1;marker:none;enable-background:accumulate"
         inkscape:connector-curvature="0" />
      <path
         d="m 186.84549,772.82953 -6.75925,6.75925 23.65738,-6.75925 -23.65738,-6.75925 z"
         id="path2360"
         style="fill-rule:evenodd;stroke:#000000;stroke-width:1.35185015pt;marker-start:none"
         inkscape:connector-curvature="0" />
    </g>
    <g
       id="g2346">
      <path
         d="m 289.78125,772 v 1.6875 H 469.8125 V 772 Z"
         id="path2207"
         style="color:#000000;display:inline;overflow:visible;visibility:visible;fill:#000000;fill-opacity:1;fill-rule:evenodd;stroke:none;stroke-width:1.68981266;stroke-linecap:butt;stroke-linejoin:miter;stroke-miterlimit:4;stroke-dashoffset:0;stroke-opacity:1;marker:none;enable-background:accumulate"
         inkscape:connector-curvature="0" />
      <path
         d="m 452.90499,772.82953 -6.75925,6.75925 23.65738,-6.75925 -23.65738,-6.75925 z"
         id="path2352"
         style="fill-rule:evenodd;stroke:#000000;stroke-width:1.35185015pt;marker-start:none"
         inkscape:connector-curvature="0" />
    </g>
    <g
       id="g2370">
      <path
         d="M 0.9375,488.9375 C -16.146304,541.51121 -21.966563,592.99608 -15.6875,671 L -14,670.875 C -20.267593,593.01358 -14.456127,541.81064 2.5625,489.4375 Z"
         id="path2209"
         style="fill:#000000;fill-opacity:1;fill-rule:evenodd;stroke:none;stroke-width:1.68981266;stroke-linecap:butt;stroke-linejoin:miter;stroke-miterlimit:4;stroke-opacity:1"
         inkscape:connector-curvature="0" />
      <path
         d="m -16.210282,654.08375 -7.279801,-6.19512 8.63566,23.03876 4.839255,-24.12344 z"
         id="path2376"
         style="fill-rule:evenodd;stroke:#000000;stroke-width:1.35185015pt;marker-start:none"
         inkscape:connector-curvature="0" />
    </g>
    <g
       id="g2378">
      <path
         d="m 184.875,341.78125 c -32.44561,3.63982 -68.00973,13.96045 -97.75,28.03125 -29.740272,14.0708 -53.693601,31.84308 -62.90625,50.625 l 1.5,0.71875 c 8.884683,-18.1133 32.597255,-35.82747 62.15625,-49.8125 29.559,-13.98503 64.95878,-24.29077 97.1875,-27.90625 z"
         id="path2211"
         style="fill:#000000;fill-opacity:1;fill-rule:evenodd;stroke:none;stroke-width:1.68981266;stroke-linecap:butt;stroke-linejoin:miter;stroke-miterlimit:4;stroke-opacity:1"
         inkscape:connector-curvature="0" />
      <path
         d="m 32.416477,405.62828 -3.091878,-9.04518 -4.349747,24.2165 16.486802,-18.2632 z"
         id="path2384"
         style="fill-rule:evenodd;stroke:#000000;stroke-width:1.35185015pt;marker-start:none"
         inkscape:connector-curvature="0" />
    </g>
    <g
       id="g2362">
      <path
         d="m 276.625,607.0625 -1.6875,0.0312 c 1.02054,33.96927 -1.00612,59.78387 -8.46875,81.21875 -7.46263,21.43488 -20.35695,38.5572 -41.28125,55.25 l 1.0625,1.3125 c 21.10064,-16.83348 34.2426,-34.25701 41.8125,-56 7.5699,-21.74299 9.58581,-47.7511 8.5625,-81.8125 z"
         id="path2213"
         style="color:#000000;display:inline;overflow:visible;visibility:visible;fill:#000000;fill-opacity:1;fill-rule:evenodd;stroke:none;stroke-width:1.68981266;stroke-linecap:butt;stroke-linejoin:miter;stroke-miterlimit:4;stroke-dashoffset:0;stroke-opacity:1;marker:none;enable-background:accumulate"
         inkscape:connector-curvature="0" />
      <path
         d="m 276.27739,623.96953 6.95919,6.55322 -7.46663,-23.44373 -6.04578,23.84969 z"
         id="path2368"
         style="fill-rule:evenodd;stroke:#000000;stroke-width:1.35185015pt;marker-start:none"
         inkscape:connector-curvature="0" />
    </g>
    <g
       id="g2338">
      <path
         d="m 482.125,527.375 -1.6875,0.0937 c 5.08078,74.69605 -7.00496,128.73377 -22.9375,178.25 l 1.625,0.53125 c 15.9661,-49.62053 28.09684,-103.94273 23,-178.875 z"
         id="path2215"
         style="fill:#000000;fill-opacity:1;fill-rule:evenodd;stroke:none;stroke-width:1.68981266;stroke-linecap:butt;stroke-linejoin:miter;stroke-miterlimit:4;stroke-opacity:1"
         inkscape:connector-curvature="0" />
      <path
         d="m 482.43572,544.27964 7.20237,6.28497 -8.34912,-23.14414 -5.13822,24.06154 z"
         id="path2344"
         style="fill-rule:evenodd;stroke:#000000;stroke-width:1.35185015pt;marker-start:none"
         inkscape:connector-curvature="0" />
    </g>
    <g
       id="g2386">
      <path
         d="M 286.40625,345.09375 286.125,346.75 c 58.41151,10.08038 123.28828,32.11107 170.5625,101.5 l 1.40625,-0.96875 c -47.5861,-69.84671 -113.07563,-92.07254 -171.6875,-102.1875 z"
         id="path2217"
         style="fill:#000000;fill-opacity:1;fill-rule:evenodd;stroke:none;stroke-width:1.68981266;stroke-linecap:butt;stroke-linejoin:miter;stroke-miterlimit:4;stroke-opacity:1"
         inkscape:connector-curvature="0" />
      <path
         d="m 302.90682,348.79428 7.81028,-5.5113 -24.46226,2.63758 22.16328,10.684 z"
         id="path2392"
         style="fill-rule:evenodd;stroke:#000000;stroke-width:1.35185015pt;marker-start:none"
         inkscape:connector-curvature="0" />
    </g>
    <g
       id="g2241">
      <path
         d="m 553.8125,277.28125 -1.6875,0.0312 c 1.73535,85.28245 -7.74597,139.6236 -22.90625,178.21875 l 1.5625,0.625 c 15.26992,-38.87429 24.76944,-93.45271 23.03125,-178.875 z"
         id="path2219"
         style="color:#000000;display:inline;overflow:visible;visibility:visible;fill:#000000;fill-opacity:1;fill-rule:evenodd;stroke:none;stroke-width:1.68981266;stroke-linecap:butt;stroke-linejoin:miter;stroke-miterlimit:4;stroke-dashoffset:0;stroke-opacity:1;marker:none;enable-background:accumulate"
         inkscape:connector-curvature="0" />
      <path
         d="m 536.18806,440.12109 -3.82006,-8.76254 -2.35804,24.49079 14.94064,-19.54831 z"
         id="path2248"
         style="fill-rule:evenodd;stroke:#000000;stroke-width:1.35185015pt;marker-start:none"
         inkscape:connector-curvature="0" />
    </g>
    <g
       id="g2274">
      <path
         d="M 561.6875,436.625 V 599.25 h 1.6875 V 436.625 Z"
         id="path2221"
         style="opacity:1;fill:#000000;fill-opacity:1;fill-rule:evenodd;stroke:none;stroke-width:1.68981266;stroke-linecap:butt;stroke-linejoin:miter;stroke-miterlimit:4;stroke-dasharray:none;stroke-opacity:1"
         inkscape:connector-curvature="0" />
      <path
         d="m 562.54068,582.33658 -6.75925,-6.75925 6.75925,23.65738 6.75925,-23.65738 z"
         id="path2280"
         style="fill-rule:evenodd;stroke:#000000;stroke-width:1.35185015pt;marker-start:none"
         inkscape:connector-curvature="0" />
    </g>
    <path
       d="m 1055.1376,755.12849 c -48.2813,55.7703 -158.31219,50.26428 -202.29719,-2.05979 -40.49555,-48.17308 -0.66503,-135.7885 47.55459,-184.80648 51.73036,-52.58683 109.3345,-52.67923 159.969,-6.75924 50.6343,45.91997 36.2339,145.73408 -5.2264,193.62551 z"
       id="path2223"
       style="opacity:1;fill:#f7f7f7;fill-opacity:1;fill-rule:evenodd;stroke:#474747;stroke-width:2.25308371;stroke-linecap:butt;stroke-linejoin:round;stroke-miterlimit:4;stroke-dasharray:none;stroke-opacity:1"
       inkscape:connector-curvature="0" />
    <path
       d="m 791.12044,742.8762 c -2.23686,61.93875 -162.85335,53.51385 -190.38558,5.63271 C 581.29863,714.70743 582.67639,480.32267 739.31899,399.55429 824.07831,355.8505 969.70411,381.07823 917.29312,429.69758 821.47715,518.58182 793.41477,679.34639 791.12044,742.8762 Z"
       id="path2225"
       style="opacity:1;fill:#f7f7f7;fill-opacity:1;fill-rule:evenodd;stroke:#474747;stroke-width:2.25308371;stroke-linecap:butt;stroke-linejoin:round;stroke-miterlimit:4;stroke-dasharray:none;stroke-opacity:1"
       inkscape:connector-curvature="0" />
    <path
       d="m 1020.9344,332.8027 c 31.5432,-0.56326 77.4504,32.11873 63.0869,39.44126 -14.3634,7.32252 -91.98856,13.19198 -126.17268,2.25307 -35.20441,-11.26542 31.54258,-41.13105 63.08578,-41.69433 z"
       id="path2227"
       style="opacity:1;fill:#f7f7f7;fill-opacity:1;fill-rule:evenodd;stroke:#474747;stroke-width:2.25308371;stroke-linecap:butt;stroke-linejoin:round;stroke-miterlimit:4;stroke-dasharray:none;stroke-opacity:1"
       inkscape:connector-curvature="0" />
    <path
       d="m 1136.9688,337.32115 c 11.2654,0.28164 27.5999,8.40276 15.7716,15.77159 -11.8285,7.36883 -24.9669,7.28373 -45.0618,-1.12654 -21.0494,-8.80982 18.0247,-14.92668 29.2902,-14.64505 z"
       id="path2229"
       style="opacity:1;fill:#f7f7f7;fill-opacity:1;fill-rule:evenodd;stroke:#474747;stroke-width:2.25308371;stroke-linecap:butt;stroke-linejoin:round;stroke-miterlimit:4;stroke-dasharray:none;stroke-opacity:1"
       inkscape:connector-curvature="0" />
    <g
       id="g2290">
      <path
         d="m 923.1875,772 v 1.6875 h 180.0313 V 772 Z"
         id="path2233"
         style="color:#000000;display:inline;overflow:visible;visibility:visible;fill:#000000;fill-opacity:1;fill-rule:evenodd;stroke:none;stroke-width:1.68981266;stroke-linecap:butt;stroke-linejoin:miter;stroke-miterlimit:4;stroke-dashoffset:0;stroke-opacity:1;marker:none;enable-background:accumulate"
         inkscape:connector-curvature="0" />
      <path
         d="m 940.09496,772.82953 6.75925,-6.75925 -23.65738,6.75925 23.65738,6.75925 z"
         id="path2296"
         style="fill-rule:evenodd;stroke:#000000;stroke-width:1.35185015pt;marker-start:none"
         inkscape:connector-curvature="0" />
    </g>
    <g
       id="g2282">
      <path
         d="m 657.125,772 v 1.6875 H 837.15625 V 772 Z"
         id="path2235"
         style="color:#000000;display:inline;overflow:visible;visibility:visible;fill:#000000;fill-opacity:1;fill-rule:evenodd;stroke:none;stroke-width:1.68981266;stroke-linecap:butt;stroke-linejoin:miter;stroke-miterlimit:4;stroke-dashoffset:0;stroke-opacity:1;marker:none;enable-background:accumulate"
         inkscape:connector-curvature="0" />
      <path
         d="m 674.03545,772.82953 6.75925,-6.75925 -23.65738,6.75925 23.65738,6.75925 z"
         id="path2288"
         style="fill-rule:evenodd;stroke:#000000;stroke-width:1.35185015pt;marker-start:none"
         inkscape:connector-curvature="0" />
    </g>
    <g
       id="g2298">
      <path
         d="m 1126,488.9375 -1.5937,0.5 c 17.0184,52.37314 22.799,103.57608 16.5312,181.4375 l 1.6875,0.125 c 6.2792,-78.00392 0.4587,-129.48879 -16.625,-182.0625 z"
         id="path2237"
         style="color:#000000;display:inline;overflow:visible;visibility:visible;fill:#000000;fill-opacity:1;fill-rule:evenodd;stroke:none;stroke-width:1.68981266;stroke-linecap:butt;stroke-linejoin:miter;stroke-miterlimit:4;stroke-dashoffset:0;stroke-opacity:1;marker:none;enable-background:accumulate"
         inkscape:connector-curvature="0" />
      <path
         d="m 1143.1507,654.08375 -6.1951,-7.27982 4.8392,24.12346 8.6357,-23.03874 z"
         id="path2304"
         style="fill-rule:evenodd;stroke:#000000;stroke-width:1.35185015pt;marker-start:none"
         inkscape:connector-curvature="0" />
    </g>
    <g
       id="g2306">
      <path
         d="m 942.0625,341.78125 -0.1875,1.65625 c 32.22876,3.61548 67.6598,13.92122 97.2188,27.90625 29.5589,13.98503 53.2403,31.6992 62.125,49.8125 l 1.5,-0.71875 c -9.2127,-18.78192 -33.166,-36.5542 -62.9063,-50.625 -29.7403,-14.0708 -65.30436,-24.39143 -97.75,-28.03125 z"
         id="path2239"
         style="fill:#000000;fill-opacity:1;fill-rule:evenodd;stroke:none;stroke-width:1.68981266;stroke-linecap:butt;stroke-linejoin:miter;stroke-miterlimit:4;stroke-opacity:1"
         inkscape:connector-curvature="0" />
      <path
         d="m 1094.524,405.62828 -9.0452,-3.09189 16.4868,18.26321 -4.3497,-24.2165 z"
         id="path2312"
         style="fill-rule:evenodd;stroke:#000000;stroke-width:1.35185015pt;marker-start:none"
         inkscape:connector-curvature="0" />
    </g>
    <g
       id="g2322">
      <path
         d="m 850.3125,607.0625 c -1.0233,34.0614 0.9926,60.06951 8.5625,81.8125 7.5699,21.74299 20.71186,39.16652 41.8125,56 l 1.0625,-1.3125 C 880.82569,726.8697 867.93138,709.74738 860.46875,688.3125 853.00612,666.87762 850.97946,641.06302 852,607.09375 Z"
         id="path2241"
         style="color:#000000;display:inline;overflow:visible;visibility:visible;fill:#000000;fill-opacity:1;fill-rule:evenodd;stroke:none;stroke-width:1.68981266;stroke-linecap:butt;stroke-linejoin:miter;stroke-miterlimit:4;stroke-dashoffset:0;stroke-opacity:1;marker:none;enable-background:accumulate"
         inkscape:connector-curvature="0" />
      <path
         d="m 850.66305,623.96953 6.55322,6.95918 -6.04578,-23.84969 -7.46663,23.44373 z"
         id="path2328"
         style="fill-rule:evenodd;stroke:#000000;stroke-width:1.35185015pt;marker-start:none"
         inkscape:connector-curvature="0" />
    </g>
    <g
       id="g2330">
      <path
         d="m 644.8125,527.375 c -5.09684,74.93227 7.03387,129.25447 23,178.875 l 1.625,-0.53125 C 653.50493,656.20252 641.41923,602.1648 646.5,527.46875 Z"
         id="path2243"
         style="color:#000000;display:inline;overflow:visible;visibility:visible;fill:#000000;fill-opacity:1;fill-rule:evenodd;stroke:none;stroke-width:1.68981266;stroke-linecap:butt;stroke-linejoin:miter;stroke-miterlimit:4;stroke-dashoffset:0;stroke-opacity:1;marker:none;enable-background:accumulate"
         inkscape:connector-curvature="0" />
      <path
         d="m 644.50469,544.27964 6.28497,7.20237 -5.13822,-24.06154 -8.34912,23.14414 z"
         id="path2336"
         style="fill-rule:evenodd;stroke:#000000;stroke-width:1.35185015pt;marker-start:none"
         inkscape:connector-curvature="0" />
    </g>
    <g
       id="g2314">
      <path
         d="m 840.53125,345.09375 c -58.61186,10.11496 -124.10135,32.34079 -171.6875,102.1875 L 670.25,448.25 c 47.27427,-69.38893 112.18225,-91.41962 170.59375,-101.5 z"
         id="path2245"
         style="fill:#000000;fill-opacity:1;fill-rule:evenodd;stroke:none;stroke-width:1.68981266;stroke-linecap:butt;stroke-linejoin:miter;stroke-miterlimit:4;stroke-opacity:1"
         inkscape:connector-curvature="0" />
      <path
         d="m 824.03361,348.79428 -5.5113,7.81028 22.16328,-10.684 -24.46226,-2.63758 z"
         id="path2320"
         style="fill-rule:evenodd;stroke:#000000;stroke-width:1.35185015pt;marker-start:none"
         inkscape:connector-curvature="0" />
    </g>
    <g
       id="g2394">
      <path
         d="m 573.125,277.28125 c -1.73807,85.42229 7.76125,140.00071 23.03125,178.875 l 1.5625,-0.625 C 582.55839,416.9361 573.07727,362.59495 574.8125,277.3125 Z"
         id="path2247"
         style="color:#000000;display:inline;overflow:visible;visibility:visible;fill:#000000;fill-opacity:1;fill-rule:evenodd;stroke:none;stroke-width:1.68981266;stroke-linecap:butt;stroke-linejoin:miter;stroke-miterlimit:4;stroke-dashoffset:0;stroke-opacity:1;marker:none;enable-background:accumulate"
         inkscape:connector-curvature="0" />
      <path
         d="m 590.75239,440.1211 -8.76254,-3.82004 14.94067,19.54828 -2.35808,-24.49078 z"
         id="path2400"
         style="fill-rule:evenodd;stroke:#000000;stroke-width:1.35185015pt;marker-start:none"
         inkscape:connector-curvature="0" />
    </g>
    <path
       d="M -121.68377,821.42413 H 1244.4446 v 84.43805 H -121.68377 Z"
       id="path12463"
       style="fill:url(#linearGradient12471);fill-opacity:1;fill-rule:evenodd;stroke:#000000;stroke-width:1.12654px;stroke-linecap:butt;stroke-linejoin:miter;stroke-opacity:1"
       inkscape:connector-curvature="0" />
    <path
       d="m 642.9375,438.40625 2.96875,1.59375 1.375,-2.53125 -2.9375,-1.59375 z m -3.1875,5.9375 2.96875,1.59375 1.59375,-2.96875 -3,-1.59375 z m -3.15625,6.03125 3,1.53125 1.5625,-3 -3,-1.53125 z m -3.0625,6.03125 3,1.53125 1.53125,-3.03125 -3,-1.53125 z m -2.65625,5.3125 v 0.0312 l -0.34375,0.75 3.03125,1.46875 0.34375,-0.75 1.125,-2.28125 -3.03125,-1.5 z m -2.5,5.21875 -0.78125,1.65625 3.0625,1.4375 0.78125,-1.625 v -0.0312 l 0.65625,-1.375 -3.03125,-1.46875 z m -2.4375,5.1875 v 0.0312 l -1.1875,2.59375 3.0625,1.40625 1.1875,-2.59375 0.21875,-0.46875 -3.0625,-1.4375 z m -3.96875,8.8125 3.09375,1.375 1.375,-3.09375 -3.09375,-1.375 z m -2.71875,6.21875 3.125,1.34375 1.34375,-3.125 -3.125,-1.3125 z m -2.46875,5.875 -0.15625,0.375 3.125,1.28125 0.15625,-0.34375 v -0.0312 l 1.15625,-2.71875 -3.125,-1.3125 z m -2.125,5.21875 v 0.0312 l -0.5625,1.40625 3.125,1.25 0.5625,-1.40625 0.71875,-1.71875 -3.15625,-1.28125 z m -2.0625,5.25 v 0.0312 h -0.0312 L 611.625,506 l 3.15625,1.21875 0.9375,-2.46875 0.28125,-0.65625 -3.15625,-1.25 z m -3.34375,8.84375 3.15625,1.1875 1.1875,-3.15625 -3.1875,-1.1875 z m -2.3125,6.375 3.15625,1.15625 1.15625,-3.1875 -3.1875,-1.15625 z m -2.0625,5.84375 v 0.0312 l -0.1875,0.5625 3.21875,1.0625 0.1875,-0.53125 v -0.0312 l 0.90625,-2.625 -3.1875,-1.09375 z m -1.75,5.28125 v 0.0312 l -0.5625,1.6875 3.21875,1.0625 0.53125,-1.71875 0.5,-1.5 -3.1875,-1.0625 z m -1.71875,5.28125 v 0.0312 l -0.90625,2.875 3.21875,1 0.90625,-2.84375 v -0.0312 l 0.0937,-0.3125 -3.21875,-1.0625 z m -2.875,9.375 3.21875,0.96875 0.96875,-3.21875 -3.21875,-0.96875 z m -1.90625,6.5 3.25,0.96875 0.9375,-3.25 -3.25,-0.9375 z m -1.5,5.34375 v 0.0312 l -0.3125,1.1875 3.25,0.875 0.34375,-1.1875 0.5625,-2.0625 -3.25,-0.90625 z m -1.40625,5.3125 v 0.0312 l -0.625,2.4375 3.28125,0.84375 0.59375,-2.4375 0.21875,-0.84375 -3.25,-0.84375 z m -2.28125,9.03125 3.28125,0.8125 0.8125,-3.28125 -3.28125,-0.8125 z m -1.5625,6.59375 3.3125,0.78125 0.75,-3.28125 L 590.65625,574 Z M 588.59375,583 v 0.0312 l -0.1875,0.875 3.3125,0.71875 0.1875,-0.875 v -0.0312 l 0.53125,-2.375 -3.28125,-0.75 z m -1.125,5.375 -0.4375,2.1875 3.3125,0.65625 0.4375,-2.15625 v -0.0312 l 0.25,-1.09375 -3.3125,-0.71875 z m -1.71875,8.84375 3.3125,0.625 0.625,-3.3125 -3.3125,-0.65625 z m -1.21875,6.65625 3.3125,0.59375 0.59375,-3.3125 -3.3125,-0.59375 z m -1.03125,5.96875 -0.0937,0.71875 3.3125,0.53125 0.125,-0.6875 v -0.0312 l 0.4375,-2.59375 -3.34375,-0.5625 z m -0.84375,5.375 -0.3125,2.0625 3.34375,0.46875 0.3125,-2 v -0.0312 l 0.1875,-1.28125 -3.3125,-0.53125 z m -1.25,8.75 3.34375,0.46875 0.46875,-3.34375 -3.375,-0.46875 z m -0.875,6.71875 3.34375,0.4375 0.4375,-3.34375 -3.375,-0.4375 z m -0.71875,6.125 -0.0625,0.625 3.34375,0.375 0.0625,-0.625 0.34375,-2.71875 -3.375,-0.40625 z m -0.5625,5.40625 h -0.0312 v 0.0312 l -0.1875,1.9375 3.375,0.3125 0.1875,-1.9375 0.15625,-1.40625 -3.375,-0.34375 z m -0.53125,5.40625 v 0.0312 l -0.28125,3.28125 3.375,0.28125 0.28125,-3.25 v -0.0312 -0.0625 l -3.375,-0.3125 z m -0.8125,10.0625 3.375,0.25 0.25,-3.375 -3.375,-0.25 z m -0.4375,6.25 -0.0312,0.53125 3.375,0.1875 0.0312,-0.5 v -0.0312 l 0.1875,-2.8125 -3.375,-0.21875 z m -0.28125,5.4375 v 0.0312 l -0.0937,1.84375 3.375,0.125 0.0937,-1.8125 v -0.0312 l 0.0625,-1.5 -3.375,-0.1875 z m -0.25,5.4375 v 0.0312 l -0.125,3.15625 3.375,0.125 0.125,-3.15625 v -0.1875 l -3.375,-0.15625 z m -0.34375,9.96875 3.40625,0.0937 0.0625,-3.375 -3.375,-0.0937 z m -0.0937,6.4375 v 0.34375 l 3.375,0.0312 V 691.25 l 0.0312,-3.03125 -3.375,-0.0312 z m -0.0625,5.46875 0.0312,1.65625 h 3.375 v -1.65625 -1.71875 l -3.375,-0.0312 z m 0.0312,5.46875 0.0312,2.96875 3.375,-0.0312 -0.0312,-2.9375 v -0.0312 -0.40625 h -3.375 z m 0.0937,6.34375 0.0625,3.40625 3.375,-0.0937 -0.0625,-3.375 z m 0.15625,6.78125 0.0937,3.34375 v 0.0625 l 3.375,-0.15625 V 718.5 l -0.0937,-3.3125 z m 0.21875,6.78125 0.0937,2.0625 0.0625,1.3125 3.375,-0.15625 L 580.40625,724 v -0.0312 l -0.0937,-2.03125 z m 0.3125,6.75 0.0625,0.8125 0.15625,2.59375 3.375,-0.1875 -0.15625,-2.5625 v -0.0312 l -0.0625,-0.78125 z m 0.40625,6.8125 0.25,3.34375 3.375,-0.21875 -0.25,-3.375 z m 0.5,6.71875 0.21875,3.375 3.375,-0.25 -0.21875,-3.34375 z m 0.53125,6.78125 0.3125,3.375 3.34375,-0.3125 -0.28125,-3.375 z m 0.59375,6.71875 0.125,1.375 v 0.0312 l 0.21875,2 3.375,-0.375 -0.21875,-1.9375 v -0.0312 l -0.125,-1.34375 z m 0.71875,6.75 0.34375,3.375 3.375,-0.375 -0.375,-3.34375 z m 0.75,6.75 0.40625,3.375 3.34375,-0.4375 -0.40625,-3.34375 z M 581.5937,776.0625 582,779.40625 585.34375,779 584.9375,775.625 Z"
       id="path12483"
       style="opacity:1;font-style:normal;font-variant:normal;font-weight:normal;font-stretch:normal;font-size:44.25px;line-height:29.6317px;font-family:sans-serif;-inkscape-font-specification:'sans-serif, Normal';font-variant-ligatures:normal;font-variant-caps:normal;font-variant-numeric:normal;font-feature-settings:normal;text-align:center;letter-spacing:0px;word-spacing:0px;writing-mode:lr-tb;text-anchor:middle;display:inline;fill:#000000;fill-opacity:1;stroke:none;stroke-width:3.37963;fill-rule:evenodd;stroke-linecap:butt;stroke-linejoin:miter;stroke-miterlimit:4;stroke-dasharray:3.37963, 3.37963;stroke-dashoffset:0;stroke-opacity:1"
       inkscape:connector-curvature="0" />
    <path
       d="m 481.0625,437.46875 1.375,2.53125 2.96875,-1.59375 -1.375,-2.53125 z m 3,5.5 1.59375,2.96875 2.96875,-1.59375 -1.59375,-2.96875 z m 3.15625,5.9375 1.5625,3 3,-1.53125 -1.5625,-3 z m 3.09375,6 1.5,3.03125 3.03125,-1.53125 -1.53125,-3.03125 z m 3,6.03125 1.125,2.28125 0.375,0.75 L 497.84375,462.5 497.5,461.75 h -0.0312 v -0.0312 l -1.125,-2.28125 z m 2.96875,6.0625 0.65625,1.375 v 0.0312 l 0.78125,1.625 3.0625,-1.4375 L 500,466.9375 h -0.0312 l -0.65625,-1.40625 z m 2.875,6.09375 0.21875,0.46875 h -0.0312 l 1.1875,2.59375 3.09375,-1.40625 -1.1875,-2.59375 v -0.0312 l -0.21875,-0.46875 z m 2.78125,6.125 1.375,3.09375 3.09375,-1.375 -1.375,-3.09375 z M 504.65625,485.375 506,488.5 509.09375,487.15625 507.75,484.0625 Z m 2.65625,6.21875 1.125,2.71875 0.0312,0.0312 0.125,0.34375 3.125,-1.28125 -0.15625,-0.375 -1.15625,-2.75 z m 2.5625,6.21875 0.6875,1.71875 0.5625,1.40625 3.15625,-1.25 -0.5625,-1.40625 V 498.25 L 513,496.53125 Z m 2.5,6.28125 0.25,0.65625 0.96875,2.46875 L 516.75,506 515.78125,503.53125 V 503.5 L 515.5,502.84375 Z m 2.40625,6.28125 1.1875,3.15625 3.15625,-1.1875 -1.1875,-3.15625 z m 2.34375,6.3125 1.125,3.1875 3.1875,-1.15625 -1.15625,-3.1875 z m 2.25,6.34375 0.90625,2.625 v 0.0312 l 0.1875,0.53125 3.1875,-1.0625 -0.1875,-0.5625 v -0.0312 l -0.90625,-2.625 z m 2.15625,6.375 0.5,1.5 0.5625,1.71875 3.21875,-1.0625 -0.5625,-1.6875 v -0.0312 l -0.5,-1.5 z m 2.09375,6.4375 0.125,0.3125 v 0.0312 l 0.875,2.84375 3.25,-1 -0.90625,-2.875 v -0.0312 l -0.125,-0.34375 z m 2,6.40625 0.96875,3.21875 3.25,-0.96875 -0.96875,-3.21875 z m 1.9375,6.46875 0.9375,3.25 3.25,-0.96875 -0.9375,-3.21875 z m 1.84375,6.46875 0.5625,2.0625 0.3125,1.1875 3.28125,-0.875 -0.34375,-1.1875 v -0.0312 l -0.5625,-2.0625 z m 1.75,6.5 0.21875,0.84375 0.625,2.4375 3.28125,-0.84375 -0.625,-2.4375 v -0.0312 l -0.21875,-0.8125 z m 1.6875,6.53125 0.78125,3.28125 3.28125,-0.8125 -0.78125,-3.28125 z m 1.5625,6.5625 0.78125,3.28125 3.28125,-0.78125 -0.75,-3.28125 z m 1.5,6.5625 0.5625,2.375 h -0.0312 l 0.1875,0.90625 3.3125,-0.71875 -0.1875,-0.875 V 583 l -0.53125,-2.40625 z m 1.4375,6.59375 0.25,1.09375 h -0.0312 l 0.4375,2.1875 3.3125,-0.65625 -0.4375,-2.1875 -0.21875,-1.15625 z m 1.34375,6.59375 0.625,3.3125 3.3125,-0.625 L 542,593.875 Z m 1.21875,6.625 0.59375,3.3125 3.34375,-0.59375 -0.59375,-3.3125 z m 1.1875,6.625 0.4375,2.59375 v 0.0312 l 0.0937,0.6875 3.34375,-0.53125 -0.125,-0.71875 -0.4375,-2.625 z m 1.0625,6.65625 0.21875,1.28125 v 0.0312 l 0.28125,2 3.34375,-0.46875 -0.28125,-2.0625 h -0.0312 l -0.1875,-1.3125 z m 1,6.65625 0.46875,3.34375 3.34375,-0.46875 L 546.5,620.625 Z m 0.90625,6.6875 0.40625,3.34375 3.375,-0.4375 -0.4375,-3.34375 z m 0.8125,6.6875 0.3125,2.71875 0.0625,0.625 3.375,-0.375 -0.0625,-0.625 -0.34375,-2.75 z m 0.75,6.6875 0.15625,1.40625 H 545.75 l 0.1875,1.9375 3.375,-0.3125 -0.1875,-1.9375 v -0.0312 l -0.15625,-1.40625 z m 0.65625,6.71875 v 0.0625 0.0312 l 0.28125,3.25 3.375,-0.28125 -0.28125,-3.28125 v -0.0312 l -0.0312,-0.0625 z m 0.5625,6.6875 0.25,3.375 3.375,-0.25 -0.25,-3.375 z m 0.46875,6.75 0.1875,2.8125 v 0.0312 l 0.0312,0.5 3.375,-0.1875 -0.0312,-0.53125 -0.1875,-2.84375 z m 0.40625,6.71875 0.0937,1.5 v 0.0312 l 0.0937,1.8125 3.375,-0.125 -0.0937,-1.84375 v -0.0312 l -0.0937,-1.53125 z m 0.34375,6.75 v 0.1875 l 0.125,3.15625 3.375,-0.125 -0.125,-3.15625 v -0.0312 -0.1875 z m 0.21875,6.71875 0.0937,3.375 3.375,-0.0937 -0.0937,-3.375 z m 0.15625,6.71875 0.0625,3.03125 v 0.34375 l 3.375,-0.0312 v -0.34375 l -0.0625,-3.03125 z m 0.0937,6.75 v 1.71875 1.65625 h 3.375 v -1.65625 -1.75 z m 0,7.15625 v 0.0312 l -0.0625,2.9375 3.40625,0.0312 0.0312,-2.96875 v -0.4375 h -3.375 z m -0.15625,9.6875 3.375,0.0937 0.0625,-3.40625 -3.375,-0.0625 z M 548.1562,718.5 v 0.0312 l 3.375,0.15625 0.0312,-0.0625 0.0937,-3.34375 -3.375,-0.0937 z m -0.21875,5.46875 V 724 l -0.0625,1.28125 3.375,0.15625 0.0625,-1.3125 h 0.0312 l 0.0625,-2.0625 -3.375,-0.125 z m -0.25,5.46875 v 0.0312 l -0.15625,2.5625 3.375,0.1875 0.15625,-2.59375 0.0312,-0.8125 -3.375,-0.15625 z m -0.59375,9.3125 3.375,0.21875 0.21875,-3.34375 -3.34375,-0.25 z m -0.5,6.71875 3.375,0.25 0.25,-3.375 -3.375,-0.21875 z M 546,752.1875 l 3.375,0.3125 0.3125,-3.375 -3.375,-0.3125 z m -0.40625,4.71875 v 0.0312 l -0.21875,1.9375 3.34375,0.375 0.21875,-2 v -0.0312 l 0.125,-1.375 -3.34375,-0.28125 z m -0.9375,8.6875 3.34375,0.375 0.375,-3.375 L 545,762.25 Z m -0.8125,6.6875 3.34375,0.4375 0.4375,-3.375 -3.34375,-0.40625 z M 543,779 l 3.34375,0.40625 0.4375,-3.34375 -3.34375,-0.4375 z"
       id="path12481"
       style="fill:#000000;fill-opacity:1;fill-rule:evenodd;stroke:none;stroke-width:3.37962532;stroke-linecap:butt;stroke-linejoin:miter;stroke-miterlimit:4;stroke-dasharray:3.37962541, 3.37962541;stroke-dashoffset:0;stroke-opacity:1"
       inkscape:connector-curvature="0" />
    <g
       id="g2258"
       style="display:inline"
       inkscape:label="tropopause">
      <text
         xml:space="preserve"
         style="opacity:1;font-style:normal;font-variant:normal;font-weight:normal;font-stretch:normal;font-size:44.25px;line-height:29.6317px;font-family:sans-serif;-inkscape-font-specification:'sans-serif, Normal';font-variant-ligatures:normal;font-variant-caps:normal;font-variant-numeric:normal;font-feature-settings:normal;text-align:center;letter-spacing:0px;word-spacing:0px;writing-mode:lr-tb;text-anchor:middle;display:inline;fill:#000000;fill-opacity:1;stroke:none;stroke-width:1.18527"
         x="19.134027"
         y="286.05939"
         id="text3769"
         transform="scale(1.0392192,0.96226091)"
         inkscape:label="text3769"><tspan
           sodipodi:role="line"
           id="tspan3767"
           x="19.134027"
           y="286.05939"
           style="stroke-width:1.18527">Tropopause</tspan></text>
      <path
         d="m 1245.0079,297.32307 c 0,0 -113.2769,-0.83087 -290.52205,-0.83087 -143.40525,0 -256.06278,126.09936 -389.88908,126.09936 -133.82631,0 -226.2063,-126.12009 -369.61157,-126.12009 h -316.66897"
         id="path2191"
         style="opacity:1;fill:none;fill-rule:evenodd;stroke:#523222;stroke-width:3.37963;stroke-linecap:butt;stroke-linejoin:miter;stroke-miterlimit:4;stroke-dasharray:none;stroke-opacity:1"
         inkscape:connector-curvature="0"
         sodipodi:nodetypes="csssc" />
    </g>
    <switch
       style="font-style:normal;font-variant:normal;font-weight:normal;font-stretch:normal;font-size:44.25px;line-height:29.6317px;font-family:sans-serif;-inkscape-font-specification:'sans-serif, Normal';font-variant-ligatures:normal;font-variant-caps:normal;font-variant-numeric:normal;font-feature-settings:normal;text-align:center;letter-spacing:0px;word-spacing:0px;writing-mode:lr-tb;text-anchor:middle;display:none;opacity:1;fill:#000000;fill-opacity:1;stroke:none;stroke-width:1.18527"
       id="switch2"
       inkscape:label="eyewall">
      <text
         xml:space="preserve"
         style="font-style:normal;font-variant:normal;font-weight:normal;font-stretch:normal;font-size:44.25px;line-height:29.6317px;font-family:sans-serif;-inkscape-font-specification:'sans-serif, Normal';font-variant-ligatures:normal;font-variant-caps:normal;font-variant-numeric:normal;font-feature-settings:normal;text-align:center;letter-spacing:0px;word-spacing:0px;writing-mode:lr-tb;text-anchor:middle;opacity:1;fill:#000000;fill-opacity:1;stroke:none;stroke-width:1.18527"
         x="681.7085"
         y="777.2359"
         id="text3769-9"
         transform="scale(1.0392192,0.9622609)"><tspan
           sodipodi:role="line"
           id="tspan3767-2"
           x="681.7085"
           y="777.2359"
           style="stroke-width:1.18527">Eyewall</tspan></text>
      <path
         d="m 580.53125,734.8125 v 1.15625 h 31.875 v -1.15625 z"
         id="path12489"
         style="display:inline;opacity:1;fill:#000000;fill-opacity:1;fill-rule:evenodd;stroke:none;stroke-width:1.12654px;stroke-linecap:butt;stroke-linejoin:miter;stroke-opacity:1"
         inkscape:connector-curvature="0" />
      <path
         d="m 613.71875,745.1875 -65.3125,10.34375 0.15625,1.125 65.34375,-10.34375 z"
         id="path14091"
         style="font-style:normal;font-variant:normal;font-weight:normal;font-stretch:normal;font-size:44.25px;line-height:29.6317px;font-family:sans-serif;-inkscape-font-specification:'sans-serif, Normal';font-variant-ligatures:normal;font-variant-caps:normal;font-variant-numeric:normal;font-feature-settings:normal;text-align:center;letter-spacing:0px;word-spacing:0px;writing-mode:lr-tb;text-anchor:middle;display:inline;opacity:1;fill:#000000;fill-opacity:1;fill-rule:evenodd;stroke:none;stroke-width:1.12654px;stroke-linecap:butt;stroke-linejoin:miter;stroke-opacity:1"
         inkscape:connector-curvature="0" />
    </switch>
  </g>
</svg>
