<?xml version="1.0" encoding="utf-8"?>
<!-- Generator: Adobe Illustrator 17.1.0, SVG Export Plug-In . SVG Version: 6.00 Build 0)  -->
<!DOCTYPE svg PUBLIC "-//W3C//DTD SVG 1.1//EN" "http://www.w3.org/Graphics/SVG/1.1/DTD/svg11.dtd">
<svg xmlns="http://www.w3.org/2000/svg" xmlns:xlink="http://www.w3.org/1999/xlink" version="1.1" id="Layer_1" x="0px" y="0px" viewBox="0 0 370 285" style="enable-background:new 0 0 370 285;" width="370" height="285" xml:space="preserve">
<style type="text/css">
	.st0{fill:none;stroke:#1D1D1B;stroke-width:0.9979;stroke-miterlimit:4;}
	.st1{fill:#91CDBF;stroke:#1D1D1B;stroke-width:0.2559;stroke-miterlimit:4;}
	.st2{fill:#134395;stroke:#fff;stroke-width:0.5118;stroke-miterlimit:4;}
	.st3{fill:#009879;stroke:#1D1D1B;stroke-width:0.2559;stroke-miterlimit:4;}
	.st4{fill:#009FE3;stroke:#1D1D1B;stroke-width:0.2559;stroke-miterlimit:4;}
	.st5{fill:#FFED00;stroke:#1D1D1B;stroke-width:0.2559;stroke-miterlimit:4;}
	.st6{fill:#F3912D;stroke:#1D1D1B;stroke-width:0.2559;stroke-miterlimit:4;}
	.st7{fill:none;stroke:#1D1D1B;stroke-width:0.5118;stroke-miterlimit:4;}
	.st8{fill:#7C311C;stroke:#1D1D1B;stroke-width:0.5118;stroke-miterlimit:4;}
	.st9{fill-rule:evenodd;clip-rule:evenodd;fill:#1D1D1B;}
	.st10{fill:none;stroke:#1D1D1B;stroke-width:0.2559;stroke-miterlimit:4;}
	.st11{fill:none;stroke:#fff;stroke-width:0.2559;stroke-miterlimit:4;}
	.st12{fill:#fff;stroke:#1D1D1B;stroke-width:0.5118;stroke-miterlimit:4;}
	.st13{fill:none;stroke:#1D1D1B;stroke-width:0.2559;stroke-miterlimit:4;stroke-dasharray:3.1989,3.1989;}
	.st14{fill:#E63027;stroke:#1D1D1B;stroke-width:0.2559;stroke-miterlimit:4;}
	.st15{fill:#1D1D1B;}
	.st16{font-family:'LiberationSans','Arial';}
	.st17{font-size:12px;}
	.st18{font-size:12px;}
	.st19{font-size:12px;}
	.st20{font-size:18px;}
	.st21{fill:#1D1D1B;stroke:#1D1D1B;stroke-width:0.4351;stroke-miterlimit:4;}
	.st22{fill:none;stroke:#1D1D1B;stroke-width:0.9979;stroke-miterlimit:4;stroke-dasharray:6.3978,6.3978;}
	.st23{fill:none;stroke:#1D1D1B;stroke-width:0.2574;stroke-miterlimit:4;}
	.st24{fill:none;stroke:#fff;stroke-width:0.9979;stroke-miterlimit:4;stroke-dasharray:6.3978,6.3978;}
	.st25{fill:none;stroke:#fff;stroke-width:0.2303;stroke-miterlimit:4;}
	.st26{font-size:11px;}
	.st27{font-size:11px;}
</style>
<g>
	<line class="st0" x1="51" y1="149.8" x2="341.3" y2="149.8"/>
	<path class="st1" d="M75.7,176.5c-0.2-1.1,4.1-6.3,7.9-8.8c4.9-3.3,8.8-3.6,14.7-4.1c7.7-0.6,13.4,1.9,22,2.9   c7.4,0.9,11.6,1.4,19,2c10.4,0.9,16.3,1.1,26.7,1.4c8.2,0.2,12.8,0.4,21.1,0.2c7.8-0.1,12.3,0.7,19.9-0.9c4.7-1,9.6-1.2,11.8-3.6   c1.8-2,1.9-3.6,0.9-5.7c-1-2.2-4.6-3.4-7.7-5.2c-1.7-1-3.8-1.8-5.7-4.1c-2.5-3.2,9.2-3.8,13.4-4.1c10.2-0.6,32.8,0.9,54.8,1.1   c5.4,0.1,21.8-5.1,19.3,2.1c-1.4,4.2-4.7,6.2-9.1,6.8c-2.8,0.4-4.8-1.1-7.1-1.4c-9.6-0.9-12.1-0.2-25.9-1.6   c-4.5-0.4-9.1-2.9-11.5,0.9c-1.8,2.7,1.2,5.2,0.2,8.4c-2,6.7-9,6.4-15.4,9.3c-19.6,8.8-33.5,2.3-55,2c-11.7-0.1-18.3-0.2-29.9-1.1   c-10.2-0.8-15.8-2.4-26-2.9c-6.1-0.3-9.7-1.5-15.6-0.2c-6.3,1.3-10.2,2.7-14.9,7c-1.3,1.2-1.4,3.1-3.2,3.4   C78,180.8,76.2,178.8,75.7,176.5L75.7,176.5z"/>
	<path class="st2" d="M118.4,190.9L17.5,246.3l-0.5,10.9h27.6c0,0,11.1-2,18.1-3.6c13.3-3.2,20.2-7.1,33.5-10.4   c18.1-4.5,28.7-5.2,47.1-7.7c15.1-2.1,23.9-2,38.9-4.5c8.2-1.4,13-1.3,20.8-4.1c12.9-4.5,19-10.2,29.4-19c5.8-4.9,8.5-8.3,14-13.6   c2.2-2.1,4.5-5,5.9-8.1c10.5-6,23.7-15.8,23.7-15.8l-9-5.4l-26.4,20.5L118.4,190.9L118.4,190.9z"/>
	<path class="st1" d="M95,136l30.3-18.8l59.2,0.3c0,0,8.9,6.2,15.1,9.4c5.7,3,9,4.7,15.2,6.6c6.7,2.1,10.7,2.5,17.7,3.2   c5.4,0.5,8.4,0.6,13.8,0.5c6.4-0.1,10-0.5,16.3-1.4c1.9-0.2,3.1-1.5,4.8-0.7c0.8,0.4,1.3,0.8,1.8,1.6c1.4,2.5-4.3,1.3-7,2   c-6.6,1.7-10.4,2.4-17.2,3.2c-9.4,1.1-14.8,0.7-24.2,0.7c-7.7,0-12.3,1.3-19.7-0.7c-7.7-2.1-10.7-6.4-17.9-9.7   c-6.1-2.9-9.4-5.4-16.1-6.6c-5.3-0.9-8.4-0.4-13.8,0c-6.1,0.4-9.6,1.2-15.6,2.3c-8.5,1.5-13.2,3.1-21.7,4.8   C107.7,134.1,95,136,95,136L95,136z"/>
	<path class="st3" d="M184.4,117.5h26.8c0,0,3.2,3.6,5.5,5.5c5.6,4.5,9.8,5.8,16.8,7.5c7.2,1.7,11.6,0.6,19,0.9   c5.1,0.2,9.7-3.4,13.1,0.5c0.8,0.9,1.6,1.3,1.6,2.5c0,2-2.6,1.5-4.8,1.8c-6.6,0.9-9.9,1.4-16.3,1.6c-6.7,0.2-10.5,0-17.2-0.9   c-8.5-1.2-13.3-2.1-21.3-5.2C197.8,127.8,184.4,117.5,184.4,117.5L184.4,117.5z"/>
	<path class="st4" d="M211.1,117.5l55.5,0.1c0,0-0.2,2.1-0.2,3.4c0,2.8,2.5,5.1,0.7,7.2c-0.4,0.5-1.4,0.4-1.4,1.1   c0,0.6,0.8,0.6,1.1,1.1c1.7,2.5-5.1,1.5-7.7,1.6c-10.6,0.2-28.1,0.5-38.3-5.2C216.5,124.5,211.1,117.5,211.1,117.5L211.1,117.5z"/>
	<path class="st5" d="M75.5,176.7c-1.1-0.1-1.7-0.2-2.7-0.7c-1.4-0.7-1.9-1.5-2.9-2.6c-6.5-7.4-3.2-18.8,4.5-24.8   c6.1-4.8,8.6-5,14.5-9.3c3.4-2.5,5.5-3.9,9.7-4.5c5.7-0.9,11.5-2.5,20.6-4.1c2.8-0.5,9.2-1.9,15.2-2.9c9.7-1.7,8.4-2.7,24.9-3.6   c5.5-0.3,6.7,0.6,10.9,1.6c8.4,2.1,11.3,4.3,20.2,9.5c2.5,1.5,8.2,5,14,6.3c5.3,1.2,8.4,0.4,13.8,0.5c8,0.1,12.6,0.3,20.6-0.2   c7-0.4,11.1-0.3,18-1.9c4.5-1,9.2-2.7,11.2-3.5c0.7-0.3,0.5-0.1,0.8-0.1c1.1,0,2.1,0.4,2.4,1.5c0.5,1.5-2.5,1-3.1,2.5   c-0.2,0.4-0.7,0.6-0.2,1.1c0.7,0.9,3.2,1.4,4.3,1.7c4.9,1.2,13.9,2,13,2.6c-1.6,1-2.7,1.2-4.5,1.7c-1.8,0.5-2.8,1.1-4.6,1   c-1.1,0-1.7-0.3-2.7-0.5c-4.2-0.6-6.6,0.1-10.9,0c-4.6-0.1-7.2-0.4-11.9-0.6c-5.5-0.2-8.6-0.3-14-0.3c-8.6,0-15.5-0.6-22,0.6   c-1.7,0.3-3.4,0.4-4,2c-0.5,1.5,0.4,2.7,1.5,3.8c1,1.1,2.1,1,3.4,1.8c2.1,1.3,4,1.5,5.1,3.7c1.5,3.1,0.6,6.3-2,8.5   c-2,1.7-3.9,1-6.5,1.6c-22.8,5-36.5,1.8-59.8,0.6c-11.5-0.6-17.9-1.1-29.3-2.5c-8.9-1.1-13.8-3.8-22.8-3.3   c-5.1,0.3-8.2,0.1-12.8,2.2c-1.7,0.8-2.6,1.3-4.2,2.4C79.6,171,79.9,177,75.5,176.7L75.5,176.7z"/>
	<path class="st6" d="M71.2,170.6c-1,0.7-1.3,1.5-2.5,1.8c-1.5,0.4-2.5-0.3-3.8-1.1c-1.4-0.9-2.2-1.8-2.7-3.4   c-0.5-1.6-0.1-2.7,0.5-4.3c0.7-2.2,2.1-3,3.4-5c0.8-1.2,1.8-1.7,2-3.2c0.1-0.6,0.1-1,0-1.6c-0.5-2.9-2.9,3.7-5.2,5.4   c-2.7,2.1-4.8,2.4-7.9,3.8c-2.1,1-3.2,1.9-5.4,2.5c-1.6,0.5-4.3,0.7-4.3,0.7l28.8-17.7c0,0,7.2-2.7,11.8-4.3   c7.8-2.8,12.1-4.8,20.2-7c10.5-2.9,16.5-4.4,27.4-5.2c7.8-0.6,12.3,0.2,20.2,0.2c5,0,7.9-0.8,12.9,0c2.1,0.3,3.6-0.2,5.2,1.1   c1.1,0.9,1.5,1.8,2,3.2c0.4,1,0.7,1.6,0.7,2.7c0,1.1,22.9,0.7,23.5,3.8c0.6,2.9-11.5,2.5-17.7,3.8c-2.3,0.5-4.2,0.3-5.2,2.3   c-1.1,2.3,5.6,3.1,9.3,5c5.2,2.7,14.7,4,13.4,6.8c-2.7,5.4-14.9,5.9-25.1,6.8c-12.9,1.1-21.6-1.2-35.1-3.6c-8.5-1.5-13-3.6-21.5-5   c-7.1-1.2-11.2-2.4-18.3-2c-5.2,0.3-8.3,0.2-13.1,2.3C78.2,162.2,76.6,166.6,71.2,170.6L71.2,170.6z"/>
	<path class="st6" d="M271.9,138c-1.4-0.1-2.4-0.6-3.5,0.1c-1,0.6-1.5,1.4-1.6,2.6c-0.1,1.5,1,2.3,2.3,3.2c1.5,1.1,2.9,0.8,4.8,1   c2.1,0.2,3.3-0.2,5.3,0.1c1.6,0.2,3.4-0.6,4,0.9c0.2,0.5-0.1,0.9,0.1,1.4c0.2,0.7,0.6,1,1.2,1.5c1.4,1,2.6-0.1,4.3-0.1   c1.5,0,2.4-0.2,3.8-0.1c1.9,0.2,2.8,1,4.6,1.1c1.5,0.1,2.4,0.4,3.7-0.1c1.1-0.4,2.4-0.4,2.5-1.6c0-0.6-0.2-1-0.6-1.5   c-0.6-0.6-1.3-0.5-2-0.8c-1.3-0.6-1.9-1.2-3.3-1.7c-1.4-0.5-2.3-0.7-3.8-0.9c-1.9-0.3-3,0-5-0.2c-3.6-0.4-5.6-1-9.1-2   C276.6,139.9,275.1,138.3,271.9,138L271.9,138z"/>
	<path class="st4" d="M87.9,184.2c2.1-2.7,3.6-4.1,6.6-5.9c4.7-2.8,8.2-2.7,13.6-3.2c10.4-0.9,19.5,1.1,32.2,1.4   c4.6,0.1,6.8,1.2,11.1,2c4.7,0.9,7.3,1.8,12,2.5c11.7,1.8,18.5,0.2,30.3,0.5c8.5,0.2,13.3,0.9,21.7,0.5c7.1-0.4,11.2-0.4,18.1-2   c5.1-1.2,8.3-1.3,12.7-4.1c3.3-2.1,4.8-3.9,7.2-7c2.1-2.8,1.8-5.5,4.5-7.7c2.6-2,4.7-2,7.9-2.7c4-0.9,8.7-4.6,10.4-0.9   c0.7,1.6,0.5,2.8,0,4.5c-0.4,1.5-1,2.3-2,3.4c-2.1,2.2-4.5,1.5-7.2,2.7c-2,0.9-3.1,1.4-5,2.5c-3.6,2.1-5.1,4-8.6,6.3   c-3.1,2.1-5.1,2.9-8.2,5c-1.9,1.3-4.8,3.4-4.8,3.4L87.9,184.2L87.9,184.2z"/>
	<path class="st3" d="M80.2,179.7c2.8-3.6,4.8-5.5,8.8-7.7c6.6-3.7,11.6-3,19.2-3.2c7.5-0.2,11.6,1.6,19,2.3   c10.6,1,16.6,1.2,27.2,1.6c18.6,0.7,29.2,0.9,47.8,0.2c5.3-0.2,8.3-0.2,13.6-0.7c4.3-0.4,6.9-0.1,11.1-1.4c3.7-1.1,6.3-1.4,8.8-4.3   c2.5-2.9,3.9-5.6,2.9-9.3c-0.2-0.9-1-1.3-0.9-2.3c0.1-1.1,0.5-1.6,1.8-2.3c2.5-1.4,15-0.5,24.5,0.5c3.4,0.3,5.2,0.8,8.6,1.1   c4.3,0.4,8.8,1.1,11.1,0.7c0.5-0.1,0,0.8-0.1,1.2c-0.6,2.4-3.5,2.1-6,2.2c-1.3,0-2.1-0.4-3.4-0.5c-3.7-0.2-6-0.1-9.5,1.1   c-2.7,1-4.2,1.8-6.3,3.6c-3.4,2.9-3.2,6.4-6.3,9.5c-3.9,3.9-7.1,5-12.2,7.2c-12.8,5.6-21.6,2.8-35.5,3.4c-16.8,0.7-26.5,2-43-0.9   c-7-1.2-10.7-3.1-17.7-4.3c-9.6-1.7-15.2-1.9-24.9-2c-5.9-0.1-9.4-0.9-15.2,0.5c-4,1-6.2,1.9-9.7,3.8c-1.8,1-3,1.5-4.5,2.9   c-0.5,0.4-1.1,1.1-1.1,1.1l-6.1,0.2l-0.9-1.8L80.2,179.7L80.2,179.7z"/>
	<polygon class="st7" points="17.1,184.2 22.5,182 25.5,182.2 30.7,183.3 35,182 39.7,184 42.7,184.2 49,183.1 54.7,183.8 57.8,182    60.5,183.8 66.7,182.9 69.8,184 74.1,184.2 78.9,184.2 252.6,185.6 253,264.4 17.1,264.4 17.1,184.2  "/>
	<path class="st8" d="M17.5,183.8c-0.2-1.1-0.1-1.9,0.5-2.9c0.6-1.3,1.5-1.8,2.7-2.5c0.7-0.4,1.3-0.5,2-0.9c0.9-0.5,1.1-1.3,2-1.6   c1.1-0.4,1.8,0.5,2.9,0.2c1.9-0.4,2.1-2.2,3.6-3.4c2.2-1.7,3.9-2.1,6.3-3.4c2.6-1.3,3.8-2.5,6.6-3.4c2.4-0.8,4-0.2,6.3-1.1   c2.1-0.9,2.7-2.2,4.8-3.2c1.8-0.8,3.1-0.6,4.8-1.6c1-0.6,1.5-1.1,2.5-1.8c1.4-1.1,2.2-1.9,3.5-3.2c0.7-0.7,0.9-1.3,1.7-1.8   c2.2-1.3-0.7,4-1.6,6.3c-0.4,1-0.6,1.6-1.1,2.5c-0.5,0.9-1.2,1.1-1.6,2c-0.6,1.2-0.7,2.1-0.5,3.4c0.3,1.7,1,2.8,2.5,3.6   c1.2,0.7,2.4-0.3,3.6,0.5c0.5,0.3,0.8,0.6,1.1,1.1c0.5,0.7,0.1,1.4,0.7,2c0.8,0.9,1.8,0.5,2.9,0.9c1,0.3,1.7,0.2,2.5,0.9   c0.6,0.5,0.5,1.2,1.1,1.8c0.9,0.9,2.1,0.4,2.9,1.4c0.6,0.7,0.6,1.4,0.9,2.3c0.4,0.9,1.8,1.8,0.9,2.3c-0.9,0.5-3.6,0-3.6,0H73   l-2.7-0.2l-2.3-0.7l-2-0.5l-3.6,0.7l-1.8,0.2l-2-1.4l-0.7-0.2l-2.3,1.1h-0.9h-2.9l-2.7-0.2l-2.3,0.2l-3.6,0.9l-2.9-0.2l-2.7-1.4   L35,182l-2.3,0.7l-2.3,0.7l-3.2-0.9l-3.6-0.5l-2.9,0.5L17.5,183.8L17.5,183.8z"/>
	<line class="st7" x1="246.2" y1="221.4" x2="246.2" y2="206.9"/>
	<polygon class="st9" points="246.2,206.9 243.1,208.9 246.2,200.7 249.3,208.9 246.2,206.9  "/>
	<path class="st10" d="M163.1,42.3c-1.1-0.1-1.8-0.2-2.7-0.7c-1.1-0.6-1-2-2.3-2.3c-4.5-0.9-19.1-0.5-17.7,2.5   c0.6,1.1,1.6,1.8,1.1,2.9c-0.4,1-1.3,1.1-2.3,1.6c-3.2,1.7-5.8-0.2-9.3,0.7c-1.6,0.4-2.5,0.8-4.1,1.4c-1.9,0.7-2.8,1.3-4.8,1.8   c-3.8,0.9-6.1-0.1-10,0c-3,0-6.6-0.5-7.7,0.2c-0.7,0.4-0.7,1.4-0.2,2c0.9,1.1,9.3,0.5,10.6,0.5c1,0,0.7,2.2,1.8,2.7   c1.2,0.6,2.1-0.3,3.4-0.5c3.1-0.4,5.9-1.6,7.9-0.7c1.5,0.7,1,2.6,2.5,3.4c2.1,1.2,3.9-2.1,6.1-1.1c0.9,0.4,1.1,1.3,2,1.6   c1.4,0.4,2.2-0.5,3.6-0.9c2-0.6,3-1.3,5-2c2.1-0.7,3.5-0.6,5.4-1.6c1.6-0.8,2.2-1.7,3.6-2.7c1-0.7,2.6-0.5,2.7-1.8   c0.2-1.7-2.7,0.1-4.3-0.2c-1.7-0.4-4.4,0.1-4.1-1.6c0.2-1,1-1.3,1.8-1.8c1.6-0.9,2.9-0.2,4.8-0.2c2.9-0.1,4.6-0.5,7.5,0.2   c1.3,0.3,1.9,0.9,3.2,1.1c2.6,0.5,5.9,0,6.8-1.1c0.5-0.6,0.3-1.1,0.5-1.8c0.2-0.9,3.6-0.2,5.9-0.7c2.3-0.5,7.7-0.9,5.7-2   c-1.5-0.8-2.7,0.6-4.3,0.2c-0.8-0.2-1.9,0.1-2-0.7c-0.1-0.6,0.6-0.8,0.7-1.4c0.2-1.8-8,1.4-13.1,2.3   C165.5,41.8,164.6,42.4,163.1,42.3L163.1,42.3z M123,97.5c-0.8-1.3-2.1-1.8-1.9-3.3c0.5-4.1,4.3-4,4.4-4.6c0.2-0.9,0.5-3.4,2-4.5   c1.8-1.3,4.1-1.1,5.7-0.5 M149.6,71.9c1.7-0.8,3.3-0.7,4.8,0.6c1,0.9,1.5,1.8,1.5,3.2c-0.1,1.6-1.8,2.4-2.4,3.3   c-0.2,0.4,1.8,0.4,2.6,1.1c1.2,1.2,1.1,2.6,1,4.3c-0.2,3.5-2.3,5.3-5.8,7 M133.7,89.6c0.5-1.9,0-3.4,1.4-4.8c1.2-1.3,2.6-1,4.3-1.6    M140.4,77.4c1.1,0.3,2.2-0.2,2.9,0.8c0.6,0.8-0.7,2.3,0.2,2.6c0.3,0.1,1.1-0.8,1.9-0.8c0.5,0,0.8,0.3,1.2,0.5 M146.6,81.2   c0,1.3,1,2.3,0.1,3.3c-0.5,0.5-1.4,0.1-1.6,0.8c-0.2,0.7,2,0.6,2.8,1.5c1.2,1.3,1.4,2.8,1,4.5c-0.4,1.9-1.2,3.3-3.1,4   c-1.5,0.6-3.7-0.6-4.2-0.5c-0.4,0.1-1.4,2.3-2.8,3.1c-1.5,0.8-2.6,0.3-4.3,0.6 M142.5,99c-0.9,1.3-0.9,2.6-2.3,3.4   c-1.2,0.7-2.1,0.7-3.4,0.6c-0.7-0.1-1.7-0.7-1.7-0.5c0,0.5-0.8,1.1-1.5,1.7c-0.8,0.7-1.2,1.3-2.3,1.6c-1.1,0.3-1.8,0.2-2.8-0.1   c-1.9-0.5-2.5-1.8-4.1-2.9 M127.6,95.6c-1.4,0.9-1.7,1.6-1.8,2.9c-0.1,1.7,0.2,2.9,2.5,3.6 M117.7,82.6c-0.6,2.3-0.6,2.7,0.2,4.1   c0.7,1.1,1.4,1.7,2.7,1.8c1.2,0.1,1.7-0.8,2.7-1.2"/>
	<path class="st11" d="M17.5,246.7h27.6c0,0,11.1-2,18.1-3.6c13.3-3.2,20.2-7.1,33.5-10.4c18.1-4.5,28.6-5.5,47.1-7.7   c13.5-1.6,21.3-0.7,34.6-2.9c8.7-1.5,13.9-1.8,22.2-5c10.5-4,15.8-8,24.5-15.2c6.5-5.4,9.3-9.4,15.2-15.4"/>
	<polygon class="st7" points="252.6,185.8 262.5,180 268.4,175.8 273.4,172.2 276.1,171.1 278.4,168.8 280.9,166.3 283.1,164.7    285.8,164.7 288.8,163.4 291.7,161.1 294,160 297.1,159.8 367.6,118.6 367.6,191.5 252.8,264.6 252.6,185.8  "/>
	<polygon class="st12" points="141.3,149.5 156.7,145.4 154.2,147.9 163.2,148 159.6,152.7 148.5,152.9 145.1,155.9 141.3,149.5     "/>
	<polygon class="st12" points="214.2,149.7 229.6,145.6 227.1,148.1 236.1,148.2 232.5,153 221.4,153.1 218,156.1 214.2,149.7  "/>
	<polygon class="st12" points="264.9,149.7 280.3,145.6 277.8,148.1 286.8,148.2 283.2,153 272.1,153.1 268.7,156.1 264.9,149.7     "/>
	<path class="st8" d="M266.2,117.8c1.2-0.2,1.7-0.5,2.8-0.6c1.1-0.1,1.8,0.2,2.9,0.2c0.5,0,0.8,0.1,1.4,0c0.6-0.1,0.9-0.5,1.6-0.5   c0.7,0,0.9,0.5,1.6,0.7c0.9,0.2,1.4,0.1,2.3,0c1.3-0.1,1.9-0.4,3.2-0.7c0.7-0.2,1.1-0.4,1.8-0.5c1.4-0.1,2.1,0.6,3.5,0.8   c3.9,0.7,6.1,0.1,10.1,0.1c0.9,0,1.4,0,2.3,0c4.7,0,7.3,0.6,12,0.5c1.5-0.1,2.3-0.1,3.8-0.2c1.2-0.1,1.9-0.3,3.2-0.2   c1.4,0,2.2,0.2,3.6,0.5c0.7,0.1,1.8-0.4,1.8,0.3c0,0.8-1.2,1.7-1.8,2.8c-0.9,1.5-1.9,2.3-2,4.1c-0.1,1.3,0.2,2.2,0.7,3.4   c0.5,1.2,1.7,1.4,1.8,2.7c0,0.7,0.1,1.4-0.5,1.8c-0.8,0.6-1.4-0.6-2.3-1.1c-1.1-0.6-1.7-1.1-2.7-1.8c-1.3-0.9-1.6-2.6-3.2-2.5   c-1.1,0.1-1.4,1.1-2.5,1.6c-1.5,0.7-2.5,0.6-4.1,0.9c-0.9,0.2-1.4,0.4-2.3,0.5c-1.2,0.1-1.8-0.2-2.9-0.5c-1.2-0.2-1.8-0.6-2.9-0.7   c-2.1-0.1-3.2,0.9-5.2,1.4c-1.8,0.5-2.9,0.8-4.8,1.1c-2.5,0.5-4.9-1.1-6.3,0.9c-0.8,1.2-1.2,2.3-0.7,3.6c0.4,1,1.2,1.2,1.8,2   c0.4,0.6,0.3,1.2,0.9,1.6c1.1,0.7,1.7-1,2.9-1.4c1.1-0.4,1.8-0.3,2.9-0.7c1-0.3,1.7-0.2,2.5-0.9c0.7-0.6,0.2-1.9,1.1-2   c1.1-0.2,0.9,1.4,1.6,2.3c0.6,0.7,0.8,1.2,1.6,1.6c0.8,0.3,1.6-0.6,2.3,0c0.5,0.4,0.4,0.8,0.7,1.4c0.5,1,0.5,1.7,1.1,2.5   c0.7,0.8,1.3,1,2.3,1.6c0.7,0.4,1.1,0.7,1.8,0.9c1.2,0.4,1.9,0.1,3.2,0.2c1,0.1,1.6-0.1,2.5,0.5c0.9,0.5,1,1.2,1.6,2   c0.5,0.7,1.5,1.1,1.1,1.8c-0.3,0.6-1.6,0.7-1.6,0.7l-14.5,8.8c0,0-1.1,0.4-1.8,0.5c-0.8,0.1-1.3-0.2-2,0c-1.4,0.3-1.8,1.3-2.9,2   c-1,0.6-1.5,1.1-2.6,1.6c-1.1,0.5-1.7,0.7-2.8,1.1c-1.7,0.6-2.8,0.4-4.4,1.2c-1.8,0.9-2.4,1.9-3.8,3.3c-0.8,0.8-1.1,1.5-2,2.2   c-0.9,0.6-1.6,0.5-2.5,1c-2,1-2.8,2.1-4.6,3.4c-1.7,1.2-2.7,1.8-4.4,3.1c-0.8,0.6-1.2,0.9-1.9,1.5c-0.6,0.4-1.5,1-1.5,1v-1.4   c0,0,0.1-1.6,0.6-2.4c0.5-0.8,1.5-0.7,1.9-1.6c0.3-0.6,0.1-1,0.2-1.6c0.4-1.4,1.3-1.8,1.9-3.1c0.5-1,0.3-1.9,1-2.7   c0.9-0.9,1.9-0.7,3.1-1.2c0.6-0.3,1-0.4,1.5-0.8c0.8-0.6,0.6-1.6,1.5-2c0.9-0.5,2.2,0.8,2.7-0.1c0.2-0.3,0.1-0.6,0.2-1   c0.6-2.4,1.5-3.7,3.3-5.3c1-0.9,1.8-1,2.8-1.8c0.8-0.6,1.1-1.1,1.8-1.8c0.5-0.5,0.6-0.9,1.1-1.2c0.8-0.4,1.4,0,2.3-0.1   c0.8-0.1,1.3,0.1,1.9-0.2c0.6-0.3,0.8-0.7,1.2-1.2c0.5-0.6,0.6-1.1,1-1.7c0.4-0.6,0.6-1.1,1.2-1.6c1.6-1.1,3,0.9,5,0.9   c1.7,0,2.8,0.3,4.3-0.6c0.5-0.3,1-0.5,1.2-1c0.7-1.4-2.1-1.2-3.4-1.9c-1.1-0.6-1.6-1.1-2.7-1.6c-2.4-0.9-4,0-6.6-0.3   c-2.8-0.4-4.4-0.7-7.1-1.5c-2.6-0.7-4-1.3-6.6-2.2c-2.4-0.8-4-0.9-6.2-2.3c-1.7-1-2.9-1.5-3.8-3.2c-0.7-1.2-0.8-2-1-3.3   c-0.4-2.2,0.3-3.5,0.3-5.7c0.1-2-0.2-3.1,0.1-5.1C265.8,119.5,265.1,118,266.2,117.8L266.2,117.8z"/>
	<path class="st10" d="M103.6,52.9c0.4,1.2,0.3,2.2,1.1,3.2c1.1,1.3,3.4,1.4,4.1,1.8c0.2,0.1,0,0.4,0,0.7c0.1,1.1,0.9,1.5,1.8,2   c1,0.6,1.8,0.5,2.9,0.5c1,0,2-0.5,2.5-0.5c0.7,0-0.6,0.9-0.7,1.6c-0.1,0.8,0,1.4,0.5,2c0.3,0.5,0.7,0.6,1.1,0.9 M124.9,70.8   c-3.4,0.2-7-1.1-9.1,9.1c-0.4,1.9-3.3,2.4-3.6,4.8c-0.4,2.9,1.6,5.7,3.6,6.6 M118.7,69.4c-0.8,0-1.3-0.4-2,0c-1,0.5-0.2,2-1.1,2.7   c-1.3,1.1-2.8-1-4.3-0.2c-1.1,0.6-1.6,1.3-2,2.5c-0.7,1.6,0.2,3.6,0.2,4.5c0,1.2-2.8,2.4-3.4,4.5c-0.6,2.2-1.2,4.6,0.7,5.9   c0.9,0.6,1.8,0.1,2.7,0.7c1,0.6,0.9,1.8,2,2.3c1.1,0.4,3-0.5,2.9-0.2c-0.1,0.3-1.5,1.3-1.8,2.5c-0.4,1.5,0.7,3,0.7,3.8   c0,0.2-1.4-0.4-2.3-0.5c-2.5,0-5.3,0.7-5.7,3.2c-0.4,3,5.4,4.1,7,3.2c1.3-0.7,2.2,1.9,3.8,1.7c1.1-0.2,1.7-0.6,2.5-1.5   c0.9-1,0.6-3.2,1.4-3.2c0.2,0-0.8,3.7,0.5,5.4c1,1.4,2.1,2.3,3.8,2.3c2,0,2.5-1.9,4.1-3.2 M131.6,78.5c0.4-2.2-0.6-4,0.9-5.7   c1-1.1,2-1.8,3.4-1.6c1.1,0.2,1.2,1.6,2.3,1.6c1.7,0,1.1-2.5,2.3-3.6c1-0.9,1.9-2.7,2.9-1.8c0.5,0.4,0.2,1,0.7,1.4   c1.1,0.8,1-2.5,2.3-2.5c0.7,0,1,0.4,1.6,0.7 M123.9,64.4c0.6-0.9,0.7-1.7,1.6-2.3c0.8-0.5,1.6-0.8,2.5-0.5c1.2,0.5,0.1,2.8,1.4,2.9   c1,0.1,1.1-1.2,2-1.6c1.1-0.4,1.9-0.7,2.9-0.2c1.6,0.8,0.6,2.8,0.9,4.5 M152.9,66.3c2.2-0.3,3.9-2.1,5.7-0.7c1.8,1.5,1.1,4.5,0,6.1    M155.4,64c1.8-0.4,3.2,0.1,4.5-1.1c1.1-1.1,1.7-2.2,1.4-3.6c-0.5-1.8-2.5-1.5-4.1-2.5 M157.9,55.4c2.6-0.9,5.1-0.1,6.8-2.3   c0.8-1.1,0.3-2.4,1.4-3.2c1.4-1.1,2.8,1,4.5,0.5c2-0.6,2.3-2.4,3.8-3.8c1-1,1.7-1.5,2.7-2.5"/>
	<path class="st13" d="M116.5,107.2v13.4 M121,109.3v8.8 M125.5,110.2v11.5 M128.5,107.5v7.7 M132.1,107.2v9.7 M135.9,104.5v8.6    M140.2,104.5v8.8 M150.4,93.4v12 M155.2,90.5v20.2"/>
	<path class="st14" d="M109.9,145.7c3.3-1.8,5.4-2.1,9.1-2.9c3.7-0.8,5.9-0.9,9.7-1.1c4.8-0.4,7.6-0.4,12.5-0.2c3,0.1,6.1,0,7.7,0.5   c1.1,0.3,1.3,1.9,0.7,2.7c-2.3,2.9-6.4,1.3-9.7,3.6c-0.9,0.6-2,0.7-2.3,1.8c-0.4,1.5,2.7,1.2,2.7,2.9c0,2.7-5.4,2.5-9.1,3.2   c-4,0.8-6.4,1-10.4,0.2c-2.6-0.5-3.8-1.8-6.4-2.2c-2.5-0.4-4,0.7-6.5,0.1c-2-0.5-4.4-0.2-4.8-2.3c-0.3-1.7,1.4-2.4,2.7-3.6   C107.2,147.1,108.2,146.6,109.9,145.7L109.9,145.7z"/>
	<switch><text transform="matrix(1 0 0 1 2.148056e-002 154.27)" class="st15 st16 st17" id="trsvg9-ko" systemLanguage="ko"><tspan id="trsvg1-ko">적도</tspan></text><text transform="matrix(1 0 0 1 2.148056e-002 154.27)" class="st15 st16 st17" id="trsvg9"><tspan id="trsvg1">Equator</tspan></text></switch>
	<switch><text transform="matrix(1 0 0 1 243.9434 280.1978)" id="trsvg10-ko" systemLanguage="ko"><tspan x="0" y="0" class="st15 st16 st18" id="trsvg2-ko">80</tspan><tspan x="13.3" y="0" class="st15 st16 st19" id="trsvg3-ko">° W</tspan></text><text transform="matrix(1 0 0 1 243.9434 280.1978)" id="trsvg10"><tspan x="0" y="0" class="st15 st16 st18" id="trsvg2">80</tspan><tspan x="13.3" y="0" class="st15 st16 st19" id="trsvg3">° W</tspan></text></switch>
	<polygon class="st12" points="84,149.5 99.4,145.4 96.9,147.9 105.9,148 102.3,152.7 91.2,152.9 87.8,155.9 84,149.5  "/>
	<path class="st7" d="M46.5,165.7l78.7-48.6 M125.8,117.2l139.9,0.5 M118.3,184.7v6.6"/>
	<switch><text transform="matrix(1 0 0 1 145 20)" class="st15 st16 st20" id="trsvg11-ko" systemLanguage="ko"><tspan id="trsvg4-ko">정상 상태</tspan></text><text transform="matrix(1 0 0 1 145 20)" class="st15 st16 st20" id="trsvg11"><tspan id="trsvg4">Normal Conditions</tspan></text></switch>
	<line class="st7" x1="323.6" y1="118" x2="367" y2="118"/>
	<polygon class="st21" points="133.6,46.6 133.6,38 131,38 134.6,33.3 138.1,38.1 135.8,38.1 135.8,46.6 133.6,46.6  "/>
	<line class="st22" x1="134.8" y1="112.2" x2="134.8" y2="133.5"/>
	<path class="st8" d="M74.9,149.4c0-1,0.8-1.4,1.4-2.2c0.5-0.7,0.6-1.2,1.4-1.6c0.3-0.1,0.5-0.2,0.8-0.2c0.5,0,0.7,0.1,1.1,0.3   c0.7,0.3,2,1.7,1.5,1.1c0,0-0.1-0.1-0.1-0.1c-0.2-0.3,0.5,0,0.8,0c0.6-0.1,0.8-0.4,1.4-0.5c0.6-0.1,1.1-0.3,1.5,0.1   c0.2,0.2,0.2,0.5,0.3,0.8c0.2,0.6,0.4,0.9,0.6,1.5c0.2,0.9,0.2,1.4,0.1,2.3c-0.1,1.3-0.2,2.9-0.7,3.4c-0.8,0.8-1-1-1.7-1.6   c-0.7-0.6-1.1-1-2-1.4c-0.8-0.3-1.4-0.2-2.3-0.2c-1.2-0.1-2.6,0.1-3.2,0C75,151,74.9,150.1,74.9,149.4L74.9,149.4z"/>
	<path class="st10" d="M103.3,52h11.8 M125.5,48.6h10 M128.9,55.4h11.8 M141.8,54.3h8.8 M149.1,50.4h7.2 M141.4,42.5h6.6    M165.4,45.4h7.7 M166.7,41.4h7.5"/>
	<path class="st23" d="M251.9,156.8c-2.1-0.7-2.3,0.9-3.1,1.8"/>
	<polygon class="st9" points="248.8,158.6 250.7,158.8 246.8,160.9 248.4,156.8 248.8,158.6  "/>
	<line class="st24" x1="265.5" y1="133.5" x2="133.9" y2="133.5"/>
	<polyline class="st22" points="135.5,29.2 315.9,29.9 315.9,113.2  "/>
	<path class="st24" d="M315.9,117v15.4 M266.6,133.5h15.2"/>
	<path class="st22" d="M315.3,133.5h-32.6 M315.9,128.3v5.7"/>
	<path class="st11" d="M55,180.5c0.7-1.3,1.1,0.2,1.7-3.4 M45.2,181.9c1.2-1.4,1.8-0.8,3.2-3.6"/>
	<path class="st25" d="M63.4,183.1c-0.7-1.1-1.1-0.3-1.9-2.8"/>
	<path class="st11" d="M71.4,181.3c-0.9-1-1,0-2.3-2.5 M50.1,183.3c0.1-1.3,0-0.2,0.3-3.4"/>
	<path class="st25" d="M273.6,170.6c1-1.4,0.5-1.9,2.6-3.5 M278.9,162c1-1.4,0.5-1.9,2.6-3.5 M282.8,165.4c0.6-1.4,0.4-2,1.6-3.7    M279.9,119.4c1-1.6,0.8-0.3,2.9-1.9 M285.6,118.1c1.8-0.5,0.8,0.3,3.5,0.5"/>
	<path class="st23" d="M240.2,156.3c-2-0.9-2.4,0.7-3.3,1.5"/>
	<polygon class="st9" points="237,157.8 238.8,158.2 234.7,159.9 236.7,156 237,157.8  "/>
	<path class="st23" d="M245.2,149.2c-0.1-2.2,1.5-2,2.6-2.5"/>
	<polygon class="st9" points="247.8,146.7 246.2,145.8 250.6,145.4 247.6,148.6 247.8,146.7  "/>
	<path class="st23" d="M258.8,150.4c-0.1-2.2,1.5-2,2.6-2.5"/>
	<polygon class="st9" points="261.4,147.9 259.8,146.9 264.2,146.5 261.1,149.7 261.4,147.9  "/>
	<path class="st23" d="M190.3,151.7c-2-0.9-2.4,0.7-3.3,1.5"/>
	<polygon class="st9" points="187.1,153.2 188.9,153.6 184.8,155.3 186.8,151.4 187.1,153.2  "/>
	<path class="st23" d="M198.5,147.9c-0.1-2.2,1.5-2,2.6-2.5"/>
	<polygon class="st9" points="201.1,145.4 199.5,144.5 203.9,144 200.8,147.2 201.1,145.4  "/>
	<path class="st23" d="M206.5,151.8c-2-0.9-2.4,0.7-3.3,1.5"/>
	<polygon class="st9" points="203.2,153.3 205.1,153.7 201,155.4 202.9,151.5 203.2,153.3  "/>
	<polygon class="st21" points="212.9,28.6 221.6,28.6 221.6,26 226.2,29.6 221.5,33.1 221.5,30.8 212.9,30.8 212.9,28.6  "/>
	<polygon class="st21" points="317,72.1 317,80.7 319.6,80.7 315.9,85.4 312.4,80.6 314.7,80.6 314.7,72.1 317,72.1  "/>
	<polygon class="st21" points="133.8,122.5 133.8,113.8 131.2,113.8 134.9,109.2 138.3,113.9 136,113.9 136,122.5 133.8,122.5  "/>
	<polygon class="st21" points="222.6,134 214,134 214,136.6 209.3,132.9 214,129.5 214,131.8 222.6,131.8 222.6,134  "/>
	<switch><text transform="matrix(1 0 0 1 142.9824 247.4731)" class="st15 st16 st26" id="trsvg12-ko" systemLanguage="ko"><tspan id="trsvg5-ko">수온약층</tspan></text><text transform="matrix(1 0 0 1 142.9824 247.4731)" class="st15 st16 st26" id="trsvg12"><tspan id="trsvg5">Thermocline</tspan></text></switch>
	<line class="st0" x1="142.3" y1="242.7" x2="128.1" y2="233"/>
	<path class="st23" d="M214,148c-0.1-2.2,1.5-2,2.6-2.5"/>
	<polygon class="st9" points="216.6,145.5 214.9,144.6 219.3,144.2 216.3,147.4 216.6,145.5  "/>
	<switch><text transform="matrix(1 0 0 1 0 277.4653)" class="st15 st16 st19" id="trsvg13-ko" systemLanguage="ko"><tspan id="trsvg6-ko">120° E</tspan></text><text transform="matrix(1 0 0 1 0 277.4653)" class="st15 st16 st19" id="trsvg13"><tspan id="trsvg6">120° E</tspan></text></switch>
	<switch><text transform="matrix(1 0 0 1 207.3344 60.0513)" id="trsvg14-ko" systemLanguage="ko"><tspan x="0" y="0" class="st15 st16 st27" id="trsvg7-ko">대류</tspan><tspan x="1.3" y="14.4" class="st15 st16 st27" id="trsvg8-ko">순환</tspan></text><text transform="matrix(1 0 0 1 207.3344 60.0513)" id="trsvg14"><tspan x="0" y="0" class="st15 st16 st27" id="trsvg7">Convective</tspan><tspan x="1.3" y="14.4" class="st15 st16 st27" id="trsvg8">Circulation</tspan></text></switch>
</g>
</svg>
