<?xml version="1.0" encoding="utf-8"?>
<!-- Generator: Adobe Illustrator 17.1.0, SVG Export Plug-In . SVG Version: 6.00 Build 0)  -->
<!DOCTYPE svg PUBLIC "-//W3C//DTD SVG 1.1//EN" "http://www.w3.org/Graphics/SVG/1.1/DTD/svg11.dtd">
<svg xmlns="http://www.w3.org/2000/svg" xmlns:xlink="http://www.w3.org/1999/xlink" version="1.1" id="Layer_1" x="0px" y="0px" viewBox="0 0 373 287" style="enable-background:new 0 0 373 287;" xml:space="preserve">
<style type="text/css">
	.st0{fill:none;stroke:#000;stroke-miterlimit:4;}
	.st1{fill-rule:evenodd;clip-rule:evenodd;fill:#F3912D;stroke:#F3912D;stroke-width:0.5166;stroke-miterlimit:4;}
	.st2{fill:#FFED00;stroke:#000;stroke-width:0.5166;stroke-miterlimit:4;}
	.st3{fill:#E63027;stroke:#000;stroke-width:0.2583;stroke-miterlimit:4;}
	.st4{fill:#91CDBF;stroke:#000;stroke-width:0.5166;stroke-miterlimit:4;}
	.st5{fill:#009879;stroke:#000;stroke-width:0.5166;stroke-miterlimit:4;}
	.st6{fill:#134395;stroke:#fff;stroke-width:0.2583;stroke-miterlimit:4;}
	.st7{font-family:'LiberationSans','Arial';}
	.st8{font-size:18px;}
	.st9{font-size:11px;}
	.st10{fill:none;stroke:#000;stroke-width:0.2583;stroke-miterlimit:4;}
	.st11{fill:none;stroke:#000;stroke-width:0.2583;stroke-miterlimit:4;stroke-dasharray:2,2;}
	.st12{fill:none;stroke:#fff;stroke-width:0.2583;stroke-miterlimit:4;}
	.st13{fill:none;stroke:#000;stroke-width:0.5166;stroke-miterlimit:4;}
	.st14{fill:#009FE3;stroke:#000;stroke-width:0.5166;stroke-miterlimit:4;}
	.st15{fill-rule:evenodd;clip-rule:evenodd;}
	.st16{fill:#fff;stroke:#000;stroke-width:0.5166;stroke-miterlimit:4;}
	.st17{fill:none;stroke:#fff;stroke-width:0.5166;stroke-miterlimit:4;}
	.st18{fill:none;stroke:#000;stroke-miterlimit:4;stroke-dasharray:4,4;}
	.st19{stroke:#000;stroke-width:0.2583;stroke-miterlimit:4;}
	.st20{fill:#7C311C;stroke:#000;stroke-width:0.5166;stroke-miterlimit:4;}
	.st21{fill:#fff;}
	.st22{fill:none;stroke:#fff;stroke-miterlimit:4;stroke-dasharray:4,4;}
	.st23{fill:none;stroke:#fff;stroke-width:0.2324;stroke-miterlimit:4;}
	.st24{fill:#fff;stroke:#fff;stroke-miterlimit:4;}
	.st25{stroke:#000;stroke-width:0.5;stroke-miterlimit:4;}
	.st26{font-size:11px;}
	.st27{fill:#1E1E1C;}
	.st28{font-size:12px;}
	.st29{font-size:12px;}
</style>
<g>
	<line class="st0" x1="54.6" y1="155" x2="342.5" y2="154.9"/>
	<path class="st1" d="M78.8,153l9.6-5.9c0,0,20.8-4.7,34.3-5.7c7.9-0.6,12.5-1.3,20.3-0.5c9.5,1,14,5.7,23.5,6.4   c6.7,0.5,10.5-0.6,17.1-1.1c9.5-0.7,14.7-1.9,24.2-2.1c8.1-0.2,12.7-0.2,20.8,0.7c6.1,0.6,9.4,1.8,15.5,2.5   c5.2,0.6,8.1,1.2,13.3,1.1c5.1-0.1,8-0.5,13-1.6c3.1-0.6,4.9-0.7,7.8-2.1c1.3-0.6,1.8-1.5,3.2-1.8c3.2-0.9,4.8,2.1,8,3   c3.8,1.1,6.2,1,10.1,1.8c2.4,0.5,7.3-0.8,6.2,1.4c-0.4,0.7-0.8,0.9-1.4,1.4c-3.4,3.2-6.1,4.2-10.5,5.7c-5,1.8-8.2,1.3-13.5,2.1   c-3.6,0.5-5.7,0.5-9.4,1.1c-6.9,1.2-10.7,2.7-17.4,4.8c-8.3,2.6-12.6,5.1-21,7.3c-6.2,1.6-9.6,2.8-16,3.2   c-8.6,0.6-13.4-1.2-21.9-2.3c-6.5-0.8-10.1-2.4-16.7-2.3c-6.7,0.1-10.2,2.3-16.9,2.7c-8.5,0.6-13.4-0.4-21.9-1.1   c-8-0.7-12.4-1.7-20.3-2.3c-8.6-0.7-13.5-1-22.2-0.9c-8.6,0.1-13.4,1-21.9,1.4c-4.7,0.2-7.4,0.3-12.1,0.5   c-5.4,0.2-13.8,0.5-13.8,0.5l31-18.3l8.6-5.4L78.8,153L78.8,153z"/>
	<path class="st2" d="M82,151.6c-2.1,2.1-42.7,24.1-38.2,25.3c10.6,2.9,18.3,1.7,30.1,1.4c3.9-0.1,6.2,0,10.1-0.5   c5.6-0.7,8.5-3.4,14.2-3.2c12.3,0.5,19.9,1.4,32.5,3.2c8.1,1.2,12.4,3.5,20.6,3.7c9.4,0.1,14.4-3.7,23.8-4.1   c11.1-0.5,17.3,2.1,28.3,3.2c5.7,0.6,8.9,1.5,14.6,1.4c10.6-0.2,16.3-3.2,26.5-5.9c7.6-2.1,11.5-4.4,19.2-5.9   c7.5-1.5,16.6,1,19.4-1.8c1.7-1.7,1.3-3.8,3-5.5c2.1-2.1,4.2-1.9,6.9-3.2c3-1.4,4.6-2.6,7.8-3.7c3.1-1.1,5.4-0.1,8.2-1.8   c1-0.6,2-0.7,2.3-1.8c0.6-1.8-2.2-2.4-4.1-2.7c-2.9-0.6-4.1,2.1-6.9,3.2c-4.5,1.9-7.1,3-11.9,4.1c-6.8,1.6-11,0.2-17.8,1.4   c-9.4,1.6-14.2,4.4-23.3,7.3c-6.4,2.1-9.9,3.8-16.5,5.5c-8.6,2.2-13.6,4-22.4,3.7c-7.7-0.3-11.6-3.2-19.2-4.1   c-5.8-0.7-9.2-1.2-15.1-0.9c-6.9,0.4-10.5,2.9-17.4,3.2c-7.5,0.4-11.7-1.1-19.2-1.8c-10-1-15.7-1.3-25.6-2.7   c-11.6-1.6-24.2-2.8-29.4-5.4C73.4,158.6,84.4,149.2,82,151.6L82,151.6z"/>
	<path class="st3" d="M117,152.2c2.4-3,12.4-4.7,20.7-4.6c7.7,0.2,11.6,3.7,19.2,4.7c4.9,0.6,7.7,0.8,12.6,0.8   c9.9,0,18.4-3.3,25.2-3.3c6.6,0,3.3-2.8,13.9-2.3c6.6,0.3,11.3,0.7,14.9,2.3c2.2,1,9.6,2.5,10.6,8.1c0.4,2-5.3,2.4-8.8,3.3   c-6.3,1.5-6.8,4-16.9,7.1c-11.4,3.4-10.3-0.5-16.9-1.3c-6.8-0.8-9.6-4.5-17.4-2.8c-5.9,1.3-9.5-0.6-15.6-0.8   c-6.3-0.2-10.3,1.5-16.1-0.3c-7-2.1-11.4,0.6-18.7,0.9c-3,0.1-5.1,1.7-7.8,0.3c-1.9-1-3-2-3.7-4C111,156.9,114.2,155.8,117,152.2   L117,152.2z"/>
	<path class="st4" d="M84.3,185.6c-2.4-1.3-3.7-2.1-5.9-3.7c-1.7-1.2-4.1-1.2-4.1-3.2c0-1.1,4.2-0.8,6.9-1.4   c6.4-1.3,9.9-2.8,16.5-3.2c7.5-0.4,11.7,1,19.2,1.8c7.9,0.8,12.3,1.3,20.1,2.3c6.4,0.8,10,2.2,16.5,2.3c9.6,0.1,14.6-4,24.2-4.1   c8.3-0.1,12.8,1.7,21,2.7c7.7,0.9,11.9,2.6,19.7,2.3c10.1-0.4,15.4-3.7,25.1-6.4c7.2-2,10.9-4.3,18.3-5.5c5.6-0.9,8.9-1,14.6-0.9   c2.5,0,5.8-0.7,6.3,0.2c1,1.9-3.6,1.6-5.4,3.4c-2.1,2.2-1.2,5-3.7,6.9c-1.7,1.3-3,1.2-5,1.8c-6,1.8-9.9,0.4-16,1.8   c-5.7,1.3-8.5,3.6-14.2,5c-2.5,0.6-3.8,1.3-6.4,1.4c-18.3,0.5-44.8,0-44.8,0l-3.2-1.4h-8.7l-8.9,1.4l-22.2-0.2l-11.9-4.3   L84.3,185.6L84.3,185.6z"/>
	<path class="st2" d="M105.7,137.5l-22.9,13.3l9.1-3.7l11.9-1.6c0,0,13.6-3.1,22.4-3.7c6-0.4,9.5-0.8,15.5,0c7,0.9,10.4,3.8,17.4,5   c5.3,1,8.3,1.5,13.7,1.4c6.1-0.1,9.4-1.7,15.5-2.3c5.9-0.6,9.2-0.7,15.1-0.9c9.6-0.3,15.1-0.2,24.7,0.5c11.1,0.8,17.2,4,28.3,3.7   c5.2-0.2,8.2-0.3,13.3-1.4c4.6-1,10.5-2.3,11.4-3.7c0.5-0.7-0.8-1.2-1.4-1.8c-1.6-1.7-2.8-2.5-5-3.2c-3.6-1.2-5.8,0.6-9.6,0.9   c-7.1,0.5-11.2,0.5-18.3,0.5c-7.3-0.1-11.4-0.8-18.7-0.9c-10.2-0.1-15.9,0.8-26.1,0.9c-7.3,0.1-11.4,0.2-18.7,0   c-11.1-0.4-17.3-1.7-28.3-2.3c-10-0.6-15.6-0.8-25.6-0.9C120.3,137.1,105.7,137.5,105.7,137.5L105.7,137.5z"/>
	<path class="st4" d="M114.3,131.5l-8.6,5.3l-1.4,0.9l11.9-0.5c0,0,15.9,0.2,26.1,0.7c13.4,0.7,20.9,2.4,34.3,3   c20.1,0.9,31.5-0.9,51.6-0.9c15.2,0,23.8,2,38.9,0.5c2.9-0.3,6.9,0,7.3-0.9c1.1-2.1-1.5-3.6-1.4-5.9c0.1-1.5,0.8-2.2,0.9-3.7   c0.9-9.4-14.8,1.7-24.2,2.3c-20.5,1.3-32.1-0.3-52.6-0.5C164.9,131.5,114.3,131.5,114.3,131.5L114.3,131.5z"/>
	<path class="st5" d="M123.6,125.8l-9.5,5.9l8.9-0.1c0,0,14.1,0,23.1,0.1c8.9,0.1,13.9,0.2,22.7,0.5c15.7,0.4,24.5,1.1,40.2,1.4   c12.5,0.2,19.5,0.5,32,0c9.3-0.4,14.7,0.1,23.8-1.8c3.4-0.7,7,0.8,8.7-2.3c1-1.7,0.5-5,0.5-5h-12.3l-21.9,4.6L123.6,125.8   L123.6,125.8z"/>
	<path class="st6" d="M20.8,233.2L125,198c0,0,47.2,1.5,77.2,0c17.9-0.9,28.1-0.4,45.7-3.7c11.2-2.1,17.8-2.9,28.3-7.3   c21.3-8.9,32-13.2,52.6-21.5c16.6-6.7,42.5-17.1,42.5-17.1s0.7,11.9,0.5,11.9c-3.3,0-18.2,9.3-29.7,15.5   c-18.5,10.1-28.3,17-46.6,27.4c-14.5,8.3-23.2,15.4-37.5,20.8c-9.1,3.4-22.8,4.4-37.5,6.4c-17.9,2.4-28.2,2.6-46.2,4.1   c-59.8,5.1-153.6,11.9-153.6,11.4C20.8,241,20.8,233.2,20.8,233.2L20.8,233.2z"/>
	<switch><text transform="matrix(1 0 0 1 124 22)" class="st7 st8" id="trsvg6-ko" systemLanguage="ko"><tspan id="trsvg1-ko">엘니뇨 조건</tspan></text><text transform="matrix(1 0 0 1 124 22)" class="st7 st8" id="trsvg6"><tspan id="trsvg1">El Niño Conditions</tspan></text></switch>
	<switch><text transform="matrix(1 0 0 1 1 160)" class="st7 st9" id="trsvg7-ko" systemLanguage="ko"><tspan id="trsvg2-ko">적도</tspan></text><text transform="matrix(1 0 0 1 1 160)" class="st7 st9" id="trsvg7"><tspan id="trsvg2">Equator</tspan></text></switch>
	<path class="st10" d="M202.7,101.8c-0.8-1.3-2.1-1.8-1.9-3.3c0.5-4.1,4-4.2,4.5-4.7c0.2-0.2,0.5-3.4,2.1-4.6   c1.8-1.4,4.1-1.1,5.7-0.5 M229.5,75.9c1.7-0.8,3.4-0.7,4.8,0.6c1,0.9,1.6,1.8,1.5,3.2c-0.1,1.6-1.8,2.4-2.4,3.3   c-0.2,0.4,1.8,0.4,2.6,1.1c1.3,1.2,1.1,2.6,1,4.3c-0.2,3.6-2.3,5.4-5.8,7.1 M213.4,93.8c0.5-1.9,0-3.4,1.4-4.8   c1.3-1.3,2.6-1,4.3-1.6 M226.4,85.3c0,1.3,1,2.3,0.1,3.3c-0.5,0.5-1.4,0.1-1.6,0.8c-0.2,0.7,2,0.6,2.9,1.5c1.2,1.3,1.4,2.8,1,4.6   c-0.4,1.9-1.2,3.3-3.1,4c-1.6,0.6-3.8-0.6-4.2-0.5c-0.4,0.1-1.4,2.3-2.9,3.1c-1.5,0.8-2.6,0.3-4.3,0.6 M222.3,103.3   c-0.9,1.3-0.9,2.6-2.3,3.4c-1.2,0.7-2.1,0.7-3.4,0.6c-0.7-0.1-1.7-0.7-1.7-0.5c0,0.5-0.8,1.1-1.5,1.7c-0.8,0.7-1.2,1.3-2.3,1.6   c-1.1,0.3-1.8,0.2-2.9-0.1c-1.9-0.5-2.5-1.8-4.1-3 M207,98.2c-1.4,0.9-1.8,1.6-1.8,3c-0.1,1.7,0.2,3,2.5,3.7 M197.3,86.7   c-0.6,2.3-0.6,2.8,0.2,4.1c0.7,1.1,1.5,1.8,2.7,1.8c1.2,0.1,1.7-0.8,2.7-1.3 M183,56.7c0.4,1.2,0.3,2.2,1.1,3.2   c1.1,1.4,3.4,1.4,4.1,1.8c0.2,0.1,0,0.4,0,0.7c0.1,1.1,0.9,1.5,1.8,2.1c1,0.6,1.8,0.5,3,0.5c1,0,2.1-0.5,2.5-0.5   c0.7,0-0.6,0.9-0.7,1.6c-0.1,0.8,0,1.4,0.5,2.1c0.3,0.5,0.7,0.6,1.1,0.9 M204.5,74.8c-3.4,0.2-7.1-1.1-9.1,9.1   c-0.4,1.9-3.3,2.5-3.7,4.8c-0.4,2.9,1.6,5.7,3.7,6.6 M198.3,73.4c-0.8,0-1.3-0.4-2.1,0c-1,0.5-0.9,2.5-1.1,2.7   c-0.2,0.2-2.8-1-4.3-0.2c-1.1,0.6-1.6,1.3-2.1,2.5c-0.7,1.7,0.2,3.7,0.2,4.6c0,1.2-2.8,2.4-3.4,4.6c-0.6,2.2-1.2,4.6,0.7,5.9   c0.9,0.6,1.8,0.1,2.7,0.7c1,0.6,0.9,1.8,2.1,2.3c1.1,0.4,3-0.7,3-0.2c0,0.2-1.5,1.3-1.8,2.5c-0.4,1.5,2.1,3.3,0.7,3.9   c-0.8,0.4-1.4-0.4-2.3-0.5c-2.6,0-5.4,0.7-5.7,3.2c-0.4,3,5.6,4.2,7.1,3.2c0.7-0.5,2.2,2.4,3.9,2.1c1.2-0.2,1.7-1,2.5-1.8   c0.7-0.7,1.1-2.1,1.6-2.1c0.9,0-0.6,2.9,0.2,4.3c0.9,1.5,2.1,2.3,3.9,2.3c2,0,2.5-2,4.1-3.2 M211.4,82.6c0.4-2.2-0.6-4.1,0.9-5.7   c1-1.1,2-1.9,3.4-1.6c1.1,0.2,1.3,1.9,2.3,1.6c0.7-0.2,1.1-2.5,2.3-3.7c1-0.9,1.9-2.7,3-1.8c0.5,0.4,0.2,1.1,0.7,1.4   c0.5,0.2,1-2.5,2.3-2.5c0.7,0,1,0.4,1.6,0.7 M203.6,68.4c0.6-0.9,0.7-1.7,1.6-2.3c0.8-0.5,1.6-0.8,2.5-0.5c1.2,0.5,1.1,3,1.4,3   c1,0,1.1-1.2,2.1-1.6c1.1-0.4,1.9-0.7,3-0.2c1.6,0.8,0.6,2.8,0.9,4.6 M232.8,70.2c2.2-0.3,4-2.1,5.7-0.7c1.9,1.5,1.1,4.6,0,6.2    M235.4,67.9c1.8-0.4,3.3,0.1,4.6-1.1c1.1-1.1,1.7-2.2,1.4-3.7c-0.5-1.8-2.5-1.5-4.1-2.5 M237.9,59.3c2.7-0.9,5.1-0.1,6.9-2.3   c0.8-1.1,1.1-3,1.4-3.2c0.7-0.7,2.9,1,4.6,0.5c2-0.6,2.3-2.4,3.9-3.9c1.1-1,1.7-1.5,2.7-2.5"/>
	<path class="st11" d="M196,111.6v13.5 M200.6,113.7v8.9 M205.2,114.6v11.7 M208.2,111.8v7.8 M211.8,111.6v9.8 M215.7,108.9v8.7    M220,108.9v8.9 M230.3,97.7v12.1 M235.1,94.7V115"/>
	<path class="st10" d="M164.7,63.4c1.9-1.1,3.3-0.7,5.5-0.9c1.6-0.2,2.5-0.1,4.1-0.2c1.4-0.1,2.2,0,3.7-0.2c1.6-0.3,2.3-1,3.9-1.1   c1.7-0.2,3.7-0.2,4.3,0.5c0.8,0.8,0,1.8-0.5,2.7c-1,1.8-2.8,1.7-4.8,2.3c-2.5,0.8-4,0.6-6.6,0.7c-1.6,0.1-2.5,0.1-4.1,0   c-1.8-0.1-2.9,0.2-4.6-0.5c-1.2-0.5-3-0.6-2.7-1.8C163.1,63.9,164,63.8,164.7,63.4L164.7,63.4z M163.4,65.2c-0.4,1.1-1,1.6-0.9,2.7   c0.1,1.7,4,2.7,2.5,3.7c-0.6,0.4-1.2-0.2-1.8,0.2c-1.1,0.7-0.8,2-0.5,3.2c0.3,1.3,1.3,1.7,2.1,2.7 M164.7,79.8   c-0.8,0.4-1.6,0.4-2.1,1.1c-0.6,0.9,0.6,1.9,0,2.7c-0.5,0.7-1.5,0.2-2.1,0.9c-0.6,0.9-0.4,1.8,0,2.7c0.6,1.3,2.4,0.8,3,2.1   c0.4,1-0.3,1.7,0,2.7c0.5,1.6,2,1.8,3.2,3 M170.4,83c0.6,0.9,0.5,2,1.6,2.3c0.6,0.2,1-0.3,1.6-0.2c0.5,0.1,0.7,0.4,1.1,0.5   c0.9,0,1.4-0.6,1.8-1.4c0.6-1.1-0.1-2-0.2-3.2 M185.3,65c-0.1,2.2,0.9,3.8-0.2,5.7c-1,1.7-3.6,1.9-4.1,3c-0.2,0.5,1.6,1.3,1.8,2.5   c0.2,1.6-0.8,2.6-2.1,3.7c-0.7,0.6-1.3,0.7-2.1,1.1 M162,97c-1.2,1.1-2.4,1.3-3.2,2.7c-0.7,1.3-0.9,2.2-0.7,3.7   c0.3,1.7,1.4,2.2,2.3,3.7 M160.2,107.3c-1.9-0.3-2.9-1.1-4.8-0.7c-1.2,0.3-2.4,0.2-3,1.4c-0.5,0.9,0.5,2.4,0,2.5   c-0.5,0.1-0.6-0.6-1.1-0.7c-1-0.1-1.4,0.9-1.8,1.8c-0.7,1.6-0.3,3.1,0.9,4.3c0.8,0.9,1.5,1.3,2.7,1.4c1,0.1,1.5-0.4,2.5-0.7    M156.1,117.3c1.1,0.3,1.6,0.7,2.7,0.7c1.3,0,2.7,0.3,3.2-0.9c0.3-0.7-1-1.9-0.2-2.1c0.5-0.1,0.6,0.6,1.1,0.7   c0.9,0.2,1.6-0.3,2.3-0.9c1-0.8,1.6-1.7,1.4-3c-0.3-1.8-2.5-1.3-4.1-2.1 M165,110.7c1.2,0.2,1.8,0.6,3,0.5c1.1-0.2,2-0.2,2.5-1.1   c0.5-0.8-0.8-1.9,0-2.5c0.4-0.3,0.8-0.1,1.4-0.2c1.2-0.3,2-0.4,2.7-1.4c1-1.3,0.3-2.7,0-4.3c-0.1-0.6-0.3-1-0.5-1.6"/>
	<path class="st11" d="M170.2,110.9v8.5 M164.1,115v6.6"/>
	<path class="st12" d="M21.7,234.1c19.3-1.1,30.1-1.3,49.4-2.7c19.6-1.4,30.6-3.1,50.3-4.6c17.1-1.3,26.8-1.5,43.9-2.7   c18.4-1.4,28.8-1.9,47.1-4.1c14.7-1.8,26.1-3,37.5-5.7c6.9-1.7,8.5-3,13.7-5.3c8.6-3.7,13.2-6.5,21.5-11c7.7-4.1,12-6.7,19.7-11   c11.2-6.3,17.7-9.6,28.8-16c15-8.6,23.1-13.9,37.9-22.9"/>
	<line class="st13" x1="124.5" y1="189.3" x2="124.5" y2="198.4"/>
	<path class="st5" d="M87,189.3h57.1l-0.5-1.4c0,0-3.8-2.2-6.4-3.2c-6.9-2.8-11.3-2.6-18.7-3.2c-8.5-0.7-13.5-0.8-21.9,0.5   c-4.3,0.6-11.2,1.4-11,2.3C86.2,186.2,87,189.3,87,189.3L87,189.3z"/>
	<path class="st5" d="M166.3,189.3h17.6l3.7-0.2c0,0-2-1.9-3.7-2.1c-4.3-0.5-7.7-1.3-12.3,0C169.4,187.6,166.3,189.3,166.3,189.3   L166.3,189.3z"/>
	<path class="st5" d="M229.4,189.3h29.3l9.4-4.8l2.5-4.1c0,0-3.1,0-5,0c-2.9,0.1-4.6,0.1-7.5,0.5c-4.6,0.6-7.1,1.7-11.7,3   C239.6,185.7,229.4,189.3,229.4,189.3L229.4,189.3z"/>
	<path class="st14" d="M262.1,124.3L130,122.1l-7.3,4.5l6.2,0.2c0,0,18.5,1.2,30.4,1.7c15,0.6,23.4,0.4,38.4,0.9   c12.5,0.4,19.5,2,32,1.4c7-0.4,11-0.3,17.8-1.8C253.3,127.7,262.1,124.3,262.1,124.3L262.1,124.3z"/>
	<line class="st13" x1="252.9" y1="231.8" x2="252.9" y2="246.4"/>
	<polygon class="st15" points="252.9,246.4 256,244.4 252.9,252.6 249.8,244.4 252.9,246.4  "/>
	<polygon class="st16" points="112.9,155.5 106.9,151.1 104.9,153.6 97.2,153.6 95.8,154.9 94.1,156.8 93.4,158.4 101.9,158.4    99.1,162.1 112.9,155.5  "/>
	<polygon class="st16" points="185.3,155.9 179.4,151.6 177.3,154.1 170.7,154.1 165.2,158.9 174.3,158.9 171.6,162.6 185.3,155.9     "/>
	<polygon class="st16" points="254.5,155.9 248.6,151.6 246.5,154.1 239.9,154.1 234.4,158.9 243.6,158.9 240.8,162.6 254.5,155.9     "/>
	<line class="st17" x1="49.6" y1="170.3" x2="130" y2="121.9"/>
	<line class="st13" x1="331.6" y1="123.9" x2="371.3" y2="124.2"/>
	<polyline class="st18" points="103.5,136.3 81.6,136.3 81.6,30.7 210,30.7 210,40.8  "/>
	<polygon class="st19" points="208.8,53.2 208.8,44.4 206.1,44.4 209.8,39.8 213.3,44.5 211,44.5 211,53.2 208.8,53.2  "/>
	<path class="st20" d="M22.1,188.8c-0.2-1.2-0.1-1.9,0.5-3c0.6-1.3,1.5-1.8,2.7-2.5c0.8-0.5,1.3-0.5,2.1-0.9   c0.9-0.5,1.1-1.3,2.1-1.6c1.1-0.4,1.8,0.5,3,0.2c1.9-0.4,2.1-2.3,3.7-3.4c2.3-1.7,3.9-2.1,6.4-3.4c2.6-1.4,3.9-2.5,6.6-3.4   c2.4-0.8,4.1-0.2,6.4-1.1c2.1-0.9,2.8-2.2,4.8-3.2c1.8-0.9,3.1-0.6,4.8-1.6c1.1-0.6,1.5-1.1,2.5-1.8c1.3-0.9,2.1-1.4,3.4-2.3   c1.3-0.8,3.2-2.7,3.4-2.1c0.3,0.9-2.1,3.4-3.2,5.7c-0.5,1-0.6,1.6-1.1,2.5c-0.5,0.9-1.2,1.1-1.6,2.1c-0.6,1.2-0.7,2.1-0.5,3.4   c0.3,1.7,1,2.8,2.5,3.7c1.3,0.7,2.5-0.3,3.7,0.5c0.5,0.3,0.8,0.6,1.1,1.1c0.5,0.7,0.1,1.4,0.7,2.1c0.8,0.9,1.8,0.5,3,0.9   c1,0.3,1.7,0.2,2.5,0.9c0.6,0.6,0.5,1.2,1.1,1.8c0.9,0.9,2.1,0.4,3,1.4c0.6,0.7,0.6,1.4,0.9,2.3c0.4,0.9,1.3,1.8,0.9,2.3   c-0.4,0.6-3.7,0-3.7,0h-5.7l-2.7-0.2l-2.3-0.7l-2.1-0.5l-3.7,0.7l-1.8,0.2l-2.9-1.3l-2.2,0.8h-0.9h-3l-2.7-0.2l-2.3,0.2l-3.7,0.9   l-3-0.2l-2.7-1.4l-2.5-0.7l-2.3,0.7l-2.3,0.7l-3.2-0.9l-3.7-0.5l-3,0.5L22.1,188.8L22.1,188.8z"/>
	<path class="st13" d="M20.6,188.7h1.8 M20.6,188.5l1.3-0.8"/>
	<path class="st20" d="M276.2,124.2c1.1-0.5,1.9-0.3,3.1-0.5c0.9-0.1,1.5-0.1,2.4-0.2c3-0.3,4.6-1.4,7.5-1.4c2.1,0,3.2,0.5,5.3,0.7   c5.4,0.5,8.5-0.5,13.9-0.5c6.7,0,10.5,0,17.1,0.9c2.1,0.3,3.2,0.4,5.3,0.9c1,0.2,2.5,0.2,2.5,0.7c0,0.7-1.5,1.6-2.5,2.5   c-0.9,0.8-2,0.7-2.5,1.8c-0.8,1.6,0.7,2.7,1.6,4.3c0.6,1.1,1.8,1.5,1.8,2.7c0,0.7,0.1,1.4-0.5,1.8c-0.8,0.6-1.4-0.6-2.3-1.1   c-1.1-0.6-1.7-1.1-2.7-1.8c-1.3-0.9-1.6-2.6-3.2-2.5c-1.2,0.1-1.5,1.1-2.5,1.6c-1.5,0.7-2.5,0.6-4.1,0.9c-0.9,0.2-1.4,0.4-2.3,0.5   c-1.2,0.1-1.8-0.2-3-0.5c-1.2-0.2-1.8-0.6-3-0.7c-2.1-0.1-3.2,0.9-5.3,1.4c-1.9,0.5-2.9,0.8-4.8,1.1c-2.5,0.5-4.9-1.1-6.4,0.9   c-0.8,1.2-1.2,2.3-0.7,3.7c0.4,1,1.2,1.2,1.8,2.1c0.4,0.6,0.3,1.2,0.9,1.6c1.1,0.7,1.8-1,3-1.4c1.1-0.4,1.8-0.3,3-0.7   c1-0.3,1.7-0.2,2.5-0.9c0.7-0.6,0.2-1.9,1.1-2.1c1.1-0.2,0.9,1.5,1.6,2.3c0.6,0.7,0.8,1.3,1.6,1.6c0.8,0.3,1.6-0.6,2.3,0   c0.5,0.4,0.4,0.8,0.7,1.4c0.5,1,0.5,1.7,1.1,2.5c0.7,0.8,1.3,1.1,2.3,1.6c0.7,0.4,1.1,0.7,1.8,0.9c1.2,0.4,2,0.1,3.2,0.2   c1,0.1,1.7-0.1,2.5,0.5c0.9,0.5,1,1.2,1.6,2.1c0.4,0.5,1.1,0.8,0.9,1.4c-0.1,0.3-1.4,1.1-1.4,1.1l-14.6,8.9c0,0-1.1,0.3-1.8,0.5   c-0.9,0.2-1.4,0.3-2.3,0.6c-1.1,0.4-1.7,0.9-2.7,1.5c-1,0.6-1.6,1.1-2.6,1.6c-1.1,0.5-1.7,0.7-2.9,1.1c-1.7,0.6-2.9,0.4-4.5,1.3   c-1.8,0.9-2.5,1.9-3.9,3.3c-0.8,0.8-1.1,1.5-2.1,2.2c-0.9,0.6-1.5,0.6-2.5,1c-5.3,2.3-12.6,7.7-12.6,7.7s0.1-1.6,0.6-2.4   c0.5-0.8,1.5-0.7,1.9-1.6c0.3-0.6,0.1-1,0.2-1.6c0.4-1.4,1.3-1.8,1.9-3.1c0.5-1,0.3-1.9,1-2.7c0.9-1,1.9-0.7,3.1-1.3   c0.6-0.3,1-0.4,1.5-0.8c0.8-0.6,0.7-1.4,1.5-2.1c1-0.8,2-0.4,3-1.1c1.7-1.2,1.1-3.2,2.5-4.7c1.2-1.3,2.4-1.4,3.7-2.5   c0.8-0.7,1.1-1.1,1.8-1.8c0.5-0.5,0.6-0.9,1.1-1.3c0.8-0.4,1.4,0.1,2.3-0.1c1.3-0.3,2.3-0.5,3.2-1.5c0.5-0.6,0.4-1.2,1-1.7   c0.4-0.3,0.7-0.4,1.3-0.6c1.8-0.7,3.1,0,5-0.1c1.7-0.1,2.9,0.3,4.3-0.6c0.5-0.3,1-0.5,1.3-1c0.7-1.4-2.1-1.2-3.4-1.9   c-1.1-0.6-1.6-1.1-2.7-1.6c-2.4-0.9-4.1,0-6.6-0.3c-2.8-0.4-4.4-0.7-7.2-1.5c-2.6-0.7-4.1-1.3-6.6-2.2c-2.5-0.9-4.1-0.9-6.3-2.3   c-1.7-1-2.9-1.5-3.9-3.2c-0.7-1.2-0.8-2-1-3.3c-0.4-2.2,0.3-3.5,0.3-5.7c0.1-2,0.1-3.9,0.1-5.1   C274.1,124.8,275.3,124.6,276.2,124.2L276.2,124.2z"/>
	<path class="st21" d="M284,175.2c0.8-0.9,1.3-1.4,2.2-2.2c1-0.8,1.5-1.3,2.6-1.9c1.2-0.6,2-0.8,3.3-1.1c0.7-0.2,1.1-0.3,1.8-0.3   C298.4,169.1,281.2,178.7,284,175.2L284,175.2z"/>
	<path class="st10" d="M236.3,42.8c-5.5,0-13.9,0-13.5,1c0.1,0.2-0.1,0.9,0,1.5c0.3,1.4,2.1,2.3,2.3,2.7c0.6,1.2-3.6,1.5-5.9,2.1   c-3.6,0.8-5.8-0.2-9.4,0.7c-1.6,0.4-2.5,0.9-4.1,1.4c-2,0.6-3.2,0.8-5.3,1.1c-3.7,0.6-5.8,0.5-9.6,0.7c-3,0.1-6.8-0.7-7.8,0.2   c-3.9,3.9,9.1,2.5,10.5,2.5c1,0,0.7,2.2,1.8,2.7c1.2,0.6,2.1-0.3,3.4-0.5c3.1-0.4,5.9-1.6,8-0.7c1.5,0.7,0.9,1.8,1.8,2.5   c2.1,1.6,6.2-1.6,6.9-0.2c0.2,0.4,0.2,0.7,0.5,1.1c1.1,1.7,3.3,0,5.3-0.5c2.1-0.5,3-1.4,5-2.1c2.1-0.7,3.5-0.6,5.5-1.6   c1.6-0.8,2.2-1.7,3.7-2.7c1.1-0.7,2.6-0.6,2.7-1.8c0.2-1.7-2.7,0.1-4.3-0.2c-1.7-0.4-3.8,0.1-4.1-1.6c-0.2-1.4,3.9-1.7,6.6-2.1   c2.9-0.4,4.7-0.5,7.5,0.2c1.3,0.3,1.9,0.9,3.2,1.1c2.7,0.5,5.9,0,6.9-1.1c0.5-0.6,0.3-1.1,0.5-1.8c0.2-0.9,3.7-0.2,5.9-0.7   c2.3-0.5,7.8-0.9,5.7-2.1c-1.5-0.9-2.7,0.6-4.3,0.2c-0.8-0.2-1.9,0.1-2.1-0.7c-0.1-0.6,1.2-1,0.7-1.4   C259.1,42.1,237.5,42.8,236.3,42.8L236.3,42.8z M201.4,55.4h7.3 M214.1,51.9h14.1 M229.2,46.2h13.7 M170.2,65.9h9.8 M166.6,63.4   h10.3 M217.3,58.8h9.8"/>
	<path class="st13" d="M84.8,189.3h171.4 M258.4,269.1l-237.7-0.2v-80 M258.5,189.5V224 M258.4,189.4v2.6"/>
	<path class="st22" d="M272.3,136.2h25.3 M320,136.2h-21.5"/>
	<path class="st18" d="M319.9,35.4l-0.2,86.9 M219.6,48.5V31.1l99.6-0.4"/>
	<path class="st22" d="M319.6,135.2v-12.9 M211.1,130.6v5.7H103.9 M271.9,136.3h-49.4v-4.3"/>
	<path class="st12" d="M55.8,186.4c0.7-1.3,1.1,0.2,1.7-3.5 M46,187.9c1.2-1.4,1.8-0.8,3.2-3.6"/>
	<path class="st23" d="M64.3,189.1c-0.7-1.1-1.1-0.3-1.9-2.9"/>
	<path class="st12" d="M72.4,187.2c-0.9-1-1,0-2.3-2.6 M50.9,189.3c0.1-1.3,0-0.2,0.3-3.5"/>
	<path class="st23" d="M276.5,176.5c1-1.4,0.5-1.9,2.6-3.5 M283.4,168.1c1-1.4,0.5-1.9,2.6-3.5 M285.7,171.2c0.6-1.5,0.4-2,1.6-3.7    M282.9,124.7c1-1.6,0.8-0.3,3-1.9 M288.6,123.5c1.8-0.5,0.8,0.3,3.5,0.5"/>
	<path class="st10" d="M181.4,82.1c-0.1,1.2,0.3,2.1-0.2,3.2c-0.6,1.2-2.3,1-2.5,2.3c-0.2,1.2,1.2,1.6,1.6,2.7   c0.5,1.4,0.8,2.4,0.5,3.9c-0.3,1.4-0.9,2.1-1.8,3.2c-1.1,1.2-2.2,1.2-3.4,2.3c-0.8,0.7-0.9,1.5-1.8,2.1c-1.6,0.9-2.9,0.3-4.6-0.2   c-1.1-0.4-1.8-0.5-2.5-1.4c-0.3-0.4-0.4-0.7-0.7-1.1"/>
	<polygon class="st24" points="258.7,227.2 258.7,190.8 371.8,143.1 371.8,166.9 258.7,227.2  "/>
	<polygon class="st19" points="82.1,68.9 82.1,75.5 84.8,75.5 81.1,80.1 77.6,75.4 79.9,75.4 80,68.9 82.1,68.9  "/>
	<path class="st13" d="M258.4,190.3v78.7 M321.5,153.9l50.3-29.5V198l-113.4,71.3"/>
	<polygon class="st19" points="218.8,53.2 218.8,44.4 216.2,44.4 219.9,39.8 223.4,44.5 221,44.5 221,53.2 218.8,53.2  "/>
	<polygon class="st19" points="320.7,65.6 320.7,72.2 323.3,72.2 319.6,76.9 316.2,72.1 318.5,72.1 318.5,65.6 320.7,65.6  "/>
	<polygon class="st25" points="169.3,128.4 169.3,121.8 166.7,121.8 170.4,117.1 173.9,121.9 171.5,121.9 171.5,128.4 169.3,128.4     "/>
	<polygon class="st25" points="210.1,130.1 210.1,123.5 207.5,123.5 211.2,118.8 214.7,123.6 212.3,123.6 212.3,130.1 210.1,130.1     "/>
	<polygon class="st25" points="221.9,130.1 221.9,123.5 219.2,123.5 222.9,118.8 226.4,123.6 224.1,123.6 224,130.1 221.9,130.1     "/>
	<path class="st20" d="M80.1,154.1c0-1,0.8-1.4,1.4-2.2c0.5-0.7,0.6-1.2,1.4-1.6c0.3-0.1,0.5-0.2,0.8-0.2c0.5,0,0.7,0.1,1.1,0.3   c0.7,0.3,2,1.7,1.5,1.1c0,0-0.1-0.1-0.1-0.1c-0.2-0.3,0.5,0,0.8,0c0.6-0.1,0.8-0.4,1.4-0.5c0.6-0.1,1.1-0.3,1.5,0.1   c0.2,0.2,0.2,0.5,0.3,0.8c0.2,0.6,0.4,0.9,0.6,1.5c0.2,0.9,0.2,1.4,0.1,2.3c-0.1,1.4-0.2,3-0.7,3.4c-0.8,0.8-1-1-1.7-1.6   c-0.8-0.6-1.1-1.1-2.1-1.4c-0.8-0.3-1.4-0.2-2.3-0.2c-1.2-0.1-2.6,0.1-3.2,0C80.1,155.8,80.1,154.9,80.1,154.1L80.1,154.1z"/>
	<polygon class="st25" points="268,136.3 259.3,136.3 259.3,139 254.6,135.3 259.4,131.8 259.4,134.1 268,134.1 268,136.3  "/>
	<polygon class="st19" points="125,134.8 131.6,134.8 131.6,132.2 136.3,135.9 131.5,139.4 131.5,137 125,137 125,134.8  "/>
	<line class="st13" x1="25.9" y1="225.4" x2="25.9" y2="210.8"/>
	<polygon class="st15" points="25.9,210.8 22.8,212.8 25.9,204.6 29,212.8 25.9,210.8  "/>
	<switch><text transform="matrix(1 0 6.000000e-005 1 128.9623 250.6104)" class="st7 st26" id="trsvg8-ko" systemLanguage="ko"><tspan id="trsvg3-ko">수온약층</tspan></text><text transform="matrix(1 0 6.000000e-005 1 128.9623 250.6104)" class="st7 st26" id="trsvg8"><tspan id="trsvg3">Thermocline</tspan></text></switch>
	<line class="st0" x1="129.8" y1="245.6" x2="111.6" y2="233"/>
</g>
<switch><text transform="matrix(1 0 0 1 245 285)" id="trsvg9-ko" systemLanguage="ko"><tspan x="0" y="0" class="st27 st7 st28" id="trsvg4-ko">80° W</tspan></text><text transform="matrix(1 0 0 1 245 285)" id="trsvg9"><tspan x="0" y="0" class="st27 st7 st28" id="trsvg4">80° W</tspan></text></switch>
<switch><text transform="matrix(1 0 0 1 1 285)" class="st27 st7 st29" id="trsvg10-ko" systemLanguage="ko"><tspan id="trsvg5-ko">120° E</tspan></text><text transform="matrix(1 0 0 1 1 285)" class="st27 st7 st29" id="trsvg10"><tspan id="trsvg5">120° E</tspan></text></switch>
</svg>
