<?xml version="1.0" encoding="utf-8"?>
<!-- Generator: Adobe Illustrator 17.1.0, SVG Export Plug-In . SVG Version: 6.00 Build 0)  -->
<!DOCTYPE svg PUBLIC "-//W3C//DTD SVG 1.1//EN" "http://www.w3.org/Graphics/SVG/1.1/DTD/svg11.dtd">
<svg xmlns="http://www.w3.org/2000/svg" xmlns:xlink="http://www.w3.org/1999/xlink" version="1.1" id="Layer_1" x="0px" y="0px" viewBox="0 0 240 185" style="enable-background:new 0 0 240 185;" width="240" height="185" xml:space="preserve">
<style type="text/css">
	.st0{fill:#134395;stroke:#fff;stroke-width:0.3216;stroke-miterlimit:4;}
	.st1{fill:none;stroke:#000;stroke-width:0.627;stroke-miterlimit:4;}
	.st2{fill:#009FE3;stroke:#000;stroke-width:0.1608;stroke-miterlimit:4;}
	.st3{fill:#134395;stroke:#000;stroke-width:0.1663;stroke-miterlimit:4;}
	.st4{fill:#91CDBF;stroke:#000;stroke-width:0.1608;stroke-miterlimit:4;}
	.st5{fill:#009879;stroke:#000;stroke-width:0.1608;stroke-miterlimit:4;}
	.st6{fill:#FFED00;stroke:#000;stroke-width:0.1608;stroke-miterlimit:4;}
	.st7{fill:#F3912D;stroke:#000;stroke-width:0.1608;stroke-miterlimit:4;}
	.st8{fill:none;stroke:#000;stroke-width:0.3216;stroke-miterlimit:4;}
	.st9{fill:#7C311C;stroke:#000;stroke-width:0.3216;stroke-miterlimit:4;}
	.st10{fill:none;stroke:#000;stroke-width:0.3898;stroke-miterlimit:4;}
	.st11{fill:none;stroke:#fff;stroke-width:0.1608;stroke-miterlimit:4;}
	.st12{fill:#fff;stroke:#000;stroke-width:0.3216;stroke-miterlimit:4;}
	.st13{fill:none;stroke:#000;stroke-width:0.1608;stroke-miterlimit:4;stroke-dasharray:2,2;}
	.st14{fill:#E63027;stroke:#000;stroke-width:0.1608;stroke-miterlimit:4;}
	.st15{font-family:'LiberationSans','Arial';}
	.st16{font-size:8px;}
	.st17{font-size:11px;}
	.st18{stroke:#000;stroke-width:0.2733;stroke-miterlimit:4;}
	.st19{fill:none;stroke:#000;stroke-width:0.627;stroke-miterlimit:4;stroke-dasharray:4,4;}
	.st20{fill:#434342;stroke:#000;stroke-width:0.3216;stroke-miterlimit:4;}
	.st21{fill:none;stroke:#000;stroke-width:0.1947;stroke-miterlimit:4;}
	.st22{fill:none;stroke:#000;stroke-width:0.1608;stroke-miterlimit:4;}
	.st23{fill-rule:evenodd;clip-rule:evenodd;}
	.st24{fill:none;stroke:#fff;stroke-width:0.627;stroke-miterlimit:4;stroke-dasharray:4,4;}
	.st25{fill:none;stroke:#fff;stroke-width:0.1447;stroke-miterlimit:4;}
	.st26{fill:none;stroke:#000;stroke-width:0.2924;stroke-miterlimit:4;}
	.st27{fill:none;stroke:#000;stroke-width:0.6486;stroke-miterlimit:4;}
	.st28{fill:#1E1E1C;}
</style>
<g>
	<path class="st0" d="M75.9,119.5l-63.7,39.2l0.2,7l12.7-3.8c0,0,9.9-3.8,16.2-6.5c7.7-3.3,11.6-6,19.4-9.1   c9.7-3.9,15.5-5.6,25.7-8.2c8.4-2.2,13.3-2.7,21.9-4.6c7.1-1.5,12.1-2.9,18.2-4c7.2-1.3,13.5-2.3,20.9-4.9c5.2-1.9,6-2.8,10.2-5.8   c1.2-0.9,2.8-2.7,2.8-2.7l-11.1-0.2L75.9,119.5L75.9,119.5z"/>
	<line class="st1" x1="33.5" y1="93.6" x2="216" y2="93.6"/>
	<path class="st2" d="M56.7,115.3c1.3-1.7,2.3-2.6,4.1-3.7c2.9-1.8,5.1-1.7,8.5-2c6.5-0.6,12.2,0.7,20.2,0.9c2.9,0.1,4.3,0.8,7,1.3   c2.9,0.6,4.6,1.1,7.5,1.6c7.4,1.1,11.6,0.1,19.1,0.3c5.3,0.1,8.4,1.3,13.7,0.3c3.5-0.7,5.4-1.5,8.7-2.9c2-0.8,3.6-0.6,4.9-2.3   c0.9-1.1,1.1-2,1.3-3.3c0.5-4.3-6.3-3.4-7.9-7.7c-2.3-6.1,12.8-2.9,21.1-2.3c4,0.3,6.5,0.2,10.3,1.7c1,0.4,1.8,0.3,2.5,1.1   c1.7,1.9-1.7,3.8-3.8,5.3c-1.6,1.1-3.1,0.4-4.6,1.7c-1,0.9-1.2,1.7-1.9,2.9c-0.9,1.6-0.9,2.9-2.1,4.4c-1,1.2-1.7,1.8-3,2.7   c-0.9,0.6-2.5,1.1-2.5,1.1L56.7,115.3L56.7,115.3z"/>
	<path class="st3" d="M160.3,116.3l26.9-16.7l-14.6-0.8c-2.8-0.1-8.5-1.5-8.4,0.2c0.1,1.9,2.3,2.4,2.4,4.3c0.2,3.2-3.5,5-6.6,7.2   c-2.3,1.6-3.9,2-6.4,3.2c-1.9,0.9-2.9,1.4-4.8,2.3L160.3,116.3L160.3,116.3z"/>
	<path class="st4" d="M49.1,110.4c-0.1-0.7,3.1-2.9,5.5-4.2c3.2-1.8,5.3-2.3,9.1-2.6c4.8-0.4,8.2,0.2,13.5,0.6   c4.7,0.4,7.3,1.2,12,1.3c6.2,0.1,9.7-0.7,15.8-1.5c3.6-0.5,4.8-0.6,9.2-1.5c1.7-0.3,4.4-4.4,2.3-5c-3.2-1-5.2-0.2-6-4.2   c-0.9-4.5,26.6-1.4,29.2-1.6c6.4-0.4,20.6,0.6,34.4,0.7c3.4,0,11.9-2.6,10.8,1.5c-0.6,2.3-2.1,3.5-4.4,4c-1.7,0.4-3-0.7-4.5-0.9   c-6-0.6-7.6-0.1-16.3-1c-2.8-0.3-19.5-4.8-16.5,1c1.9,3.7,9,0.7,9.4,4.8c0.4,4.4-5.7,4-9.7,5.8c-11.9,5.5-20.4,3.8-33.5,3.2   c-7.8-0.4-12.1-2-19.9-2.6c-6.3-0.5-9.9-1-16.3-0.8c-4.3,0.1-6.9-0.2-11,1c-3.1,0.9-4.6,2.2-7.6,3.4c-1,0.4-1.6,1.1-2.6,1   C50.4,112.7,49.3,111.9,49.1,110.4L49.1,110.4z"/>
	<path class="st4" d="M61.1,85l18.5-11.8l37.7,0.2c0,0,5.6,3.9,9.5,5.9c3.6,1.9,5.7,2.9,9.5,4.1c4.2,1.3,6.7,1.6,11.1,2   c3.4,0.3,5.3,0.4,8.7,0.3c4-0.1,6.3-0.3,10.2-0.9c1.2-0.2,1.9-0.9,3-0.4c0.5,0.3,0.8,0.5,1.1,1c0.9,1.5-2.7,0.8-4.4,1.3   c-4.2,1.1-6.6,1.5-10.8,2c-5.9,0.7-9.3,0.5-15.2,0.4c-4.8,0-7.7,0.8-12.4-0.4c-4.8-1.3-6.6-4.3-11.2-6.1c-4.2-1.6-6.7-2.2-11.2-2.8   c-3.2-0.4-5-0.5-8.3-0.5c-3.6,0-5.6,0.1-9.1,0.5c-5.4,0.7-8.3,2-13.7,3C69.2,83.8,61.1,85,61.1,85L61.1,85z"/>
	<path class="st5" d="M106.8,73.5l16.7-0.2c0,0,2.3,2.9,4.1,4.3c3.5,2.8,6.2,3.6,10.5,4.7c4.5,1.1,7.3,0.4,12,0.6   c3.2,0.1,5,0.2,8.3,0.3c3.8,0.1,6.9-2.5,9.8,0c3.6,3.1-10.4,2.5-11.8,2.7c-4.1,0.6-6.2,0.9-10.2,1c-4.2,0.1-6.6,0-10.8-0.6   c-5.3-0.7-8.4-1.3-13.4-3.3C115.5,80.4,106.8,73.5,106.8,73.5L106.8,73.5z"/>
	<path class="st2" d="M122.9,73.4l38.4,0.2c0,0,11.5-0.7,8.8,1.4c-0.6,0.5-1.2,0.4-1.7,1c-1.1,1.3,1.4,2.5,1.3,4.2   c-0.2,4.8-7.2,2.9-12,3.2c-2.7,0.2-5.2-0.2-6.8-0.2c-6.7,0.1-15.4-0.4-21.8-3.9C126.3,77.8,122.9,73.4,122.9,73.4L122.9,73.4z"/>
	<path class="st6" d="M48.9,110.6c-0.7,0-1.1-0.1-1.7-0.4c-0.9-0.4-1.2-0.9-1.8-1.6c-4.1-4.6-2-11.8,2.8-15.6c3.8-3,5.4-3.1,9.1-5.8   c2.1-1.6,5.2-2.8,7.3-3.3c3.5-0.9,6.1-1.1,11.8-2.1c1.8-0.3,5.8-1.3,9.5-1.8c6.1-0.9,5.3-2.1,15.7-0.9c3.1,0.3,4.2,0.4,6.8,1   c5.1,1.1,7.1,1.3,12.7,4.6c1.5,0.9,5.1,3.2,8.8,4c3.3,0.7,5.3,0.2,8.7,0.3c5,0.1,7.9,0.2,12.9-0.1c4.4-0.3,7-0.2,11.3-1.2   c2.8-0.6,5.8-1.7,7-2.2c0.4-0.2,0.3-0.1,0.5-0.1c0.7,0,1.3,0.3,1.5,0.9c0.3,0.9-1.6,0.7-1.9,1.6c-0.1,0.3-0.4,0.3-0.1,0.7   c0.4,0.6,2,0.9,2.7,1.1c3.1,0.8,8.8,1.3,8.2,1.6c-1,0.6-1.7,0.7-2.8,1.1c-1.1,0.3-1.8,0.7-2.9,0.6c-0.7,0-1-0.2-1.7-0.3   c-2.6-0.4-4.2,0.1-6.8,0c-2.9-0.1-4.6-0.2-7.5-0.4c-3.4-0.1-5.4-0.2-8.8-0.2c-6.1-0.1-11.5-0.7-15.6,0c-1.1,0.2-25-1.4-23.6,1.6   c0.5,1.1,7.6-0.6,9.9,4.7c1.8,4.1-8.4,5.9-14.3,6.5c-7.1,0.7-9.5,1.3-15.6,1.1c-4.8-0.1-7.5-0.9-12.3-1.3c-5-0.4-7.9-1.1-12.9-0.7   c-3.2,0.3-5,0.5-8,1.4c-1.5,0.4-2.5,0.5-3.9,1.2C51.6,107.6,51.4,110.7,48.9,110.6L48.9,110.6z"/>
	<path class="st7" d="M46.2,106.7c-0.6,0.4-0.8,1-1.6,1.1c-1,0.2-1.6-0.2-2.4-0.7c-0.9-0.6-1.4-1.1-1.7-2.1c-0.3-1,0-1.7,0.3-2.7   c0.5-1.4,1.3-1.9,2.1-3.1c0.5-0.8,1.1-1.1,1.3-2c0.1-0.4,0.1-0.6,0-1c-0.3-1.8-1.8,2.3-3.3,3.4c-1.7,1.3-3,1.5-5,2.4   c-1.3,0.6-2,1.2-3.4,1.6c-1,0.3-2.7,0.4-2.7,0.4l18.1-11.1c0,0,4.4-2.5,7.3-3.9c3.8-1.8,5.3-2.9,10.1-3.9c6.8-1.5,10-3,20.1-3   c4.9,0,14.4,1.8,14.6,5.8c0.2,4.1-12.3,3.4-12.5,5.7c-0.2,3,7.9,1.4,7.9,4.5c0,2-5.2,3.4-9.1,3.7c-6,0.4-8.3-1-13.7-1   c-3.9-0.1-6.2-0.2-10.1,0.3c-3.6,0.5-5.7,0.8-9.1,2.1C50.5,104.2,48.8,105,46.2,106.7L46.2,106.7z"/>
	<path class="st7" d="M172.4,86.2c-0.9-0.1-1.5-0.4-2.2,0.1c-0.6,0.4-1,0.9-1,1.6c0,1,0.6,1.4,1.4,2c1,0.7,1.8,0.5,3,0.6   c1.3,0.2,2.1-0.1,3.3,0.1c1,0.1,2.1-0.4,2.5,0.6c0.1,0.3,0,0.5,0.1,0.9c0.2,0.4,0.4,0.7,0.8,0.9c0.9,0.6,1.6,0,2.7-0.1   c0.9,0,1.5-0.2,2.4-0.1c1.2,0.1,1.8,0.6,2.9,0.7c0.9,0.1,1.5,0.2,2.3-0.1c0.7-0.2,1.5-0.3,1.6-1c0-0.4-0.1-0.6-0.4-0.9   c-0.4-0.4-0.8-0.3-1.3-0.5c-0.8-0.4-1.2-0.7-2.1-1.1c-0.9-0.3-1.5-0.4-2.4-0.6c-1.2-0.2-1.9,0-3.1-0.1c-2.3-0.2-3.5-0.6-5.7-1.3   C175.3,87.4,174.4,86.4,172.4,86.2L172.4,86.2z"/>
	<path class="st5" d="M51.9,112.4c2.5-1.7,4.1-2.4,7-3.4c4.1-1.4,6.6-1.3,10.9-1.7c4.5-0.4,7.1-0.4,11.7-0.3   c6.6,0.1,10.2,1.4,16.8,1.6c11.2,0.5,19.3,4.7,28.7-1.5c2.7-1.8,5.3-1.7,6.2-5.5c1-4.2-1.8-3.3-2.3-7.1c-0.2-1.7,13.4-2.3,15.4-1.3   c1.6,0.8,12.1,0.5,19.8,0.8c1.9,0.1,2.9,0.1,4.8,0.2c3.6,0.2,7.9,1.2,9.3,1c0.3-0.1,0.2,1.7-0.4,2.5c-1,1.3-2.5,0.2-4.2,0.1   c-2.5-0.1-3.6-0.6-6.3-1c-12-1.5-20.9-1.3-25.1-0.4c-2.4,0.5,7.2,1.3,8.7,4.9c0.7,1.6,0.9,2.8,0.4,4.5c-0.7,2.7-2.9,3.5-5.4,4.8   c-6.9,3.6-10.9,3-18.1,3.8c-10.5,1.2-16.6,0.8-27-0.6c-4.4-0.6-6.8-1.4-11.2-2c-5.5-0.6-8.6-0.7-14.2-0.6c-3.6,0-5.6,0-9.2,0.4   c-4.3,0.6-7.6-0.2-10.7,2.7c-0.3,0.3-0.7,0.7-0.7,0.7l-3.8,0.1l-0.6-1.1L51.9,112.4L51.9,112.4z"/>
	<polygon class="st8" points="12.2,115.3 15.6,113.8 17.5,114 20.7,114.7 23.4,113.8 26.4,115.1 28.3,115.3 32.3,114.6 35.8,115    37.8,113.8 39.5,115 43.4,114.4 45.4,115.1 48.1,115.3 51,115.3 160.2,116.1 160.5,165.6 12.2,165.6 12.2,115.3  "/>
	<path class="st9" d="M12.5,115c-0.1-0.7,0-1.2,0.3-1.8c0.4-0.8,0.9-1.1,1.7-1.6c0.5-0.3,0.8-0.3,1.3-0.6c0.5-0.3,0.7-0.8,1.3-1   c0.7-0.2,1.1,0.3,1.8,0.1c1.2-0.3,1.3-1.4,2.3-2.1c1.4-1.1,2.4-1.3,4-2.1c1.6-0.8,2.4-1.6,4.1-2.1c1.5-0.5,2.5-0.1,4-0.7   c1.3-0.5,1.7-1.4,3-2c1.1-0.5,1.9-0.4,3-1c0.7-0.4,1-0.7,1.6-1.1c0.9-0.7,1.4-1.2,2.2-2c0.4-0.4,0.5-0.8,1.1-1.1   c1.4-0.8-0.4,2.5-1,4c-0.2,0.6-0.4,1-0.7,1.6c-0.3,0.5-0.7,0.7-1,1.3c-0.4,0.8-0.4,1.3-0.3,2.1c0.2,1.1,0.6,1.8,1.6,2.3   c0.8,0.4,1.5-0.2,2.3,0.3c0.3,0.2,0.5,0.4,0.7,0.7c0.3,0.4,0.1,0.9,0.4,1.3c0.5,0.6,1.1,0.3,1.8,0.6c0.6,0.2,1.1,0.1,1.6,0.6   c0.4,0.3,0.3,0.8,0.7,1.1c0.6,0.6,1.3,0.2,1.8,0.9c0.4,0.5,0.3,0.9,0.6,1.4c0.2,0.6,1.1,1.2,0.6,1.4c-0.6,0.3-2.3,0-2.3,0h-3.6   l-1.7-0.1l-1.4-0.4l-1.3-0.3l-2.3,0.4l-1.1,0.1l-1.3-0.9l-0.4-0.1l-1.4,0.7h-0.6H34l-1.7-0.1l-1.4,0.1l-2.3,0.6l-1.8-0.1l-1.7-0.9   l-1.6-0.4l-1.4,0.4l-1.4,0.4l-2-0.6l-2.3-0.3l-1.8,0.3L12.5,115L12.5,115z"/>
	<path class="st10" d="M89.5,26.1c-0.7,0-1.1-0.1-1.7-0.4c-0.7-0.4-0.7-1.3-1.4-1.4c-2.8-0.6-12-0.3-11.1,1.6c0.3,0.7,1,1.1,0.7,1.8   c-0.2,0.6-0.8,0.7-1.4,1c-2,1.1-3.6-0.1-5.8,0.4c-1,0.3-1.6,0.5-2.6,0.9c-1.2,0.4-1.8,0.8-3,1.1c-2.4,0.6-3.8,0-6.3,0   c-1.9,0-4.1-0.3-4.8,0.1c-0.4,0.3-0.5,0.9-0.1,1.3c0.6,0.7,5.8,0.3,6.7,0.3c0.6,0,0.4,1.4,1.1,1.7c0.8,0.4,1.3-0.2,2.1-0.3   c1.9-0.2,3.7-1,5-0.4c0.9,0.4,0.7,1.6,1.6,2.1c1.3,0.7,2.5-1.3,3.8-0.7c0.6,0.3,0.7,0.8,1.3,1c0.9,0.3,1.4-0.3,2.3-0.6   c1.3-0.4,1.9-0.8,3.1-1.3c1.3-0.5,2.2-0.4,3.4-1c1-0.5,1.4-1.1,2.3-1.7c0.7-0.5,1.6-0.3,1.7-1.1c0.1-1-1.7,0.1-2.7-0.1   c-1-0.2-2.7,0.1-2.6-1c0.1-0.6,0.6-0.8,1.1-1.1c1-0.6,1.8-0.1,3-0.1c1.8,0,2.9-0.3,4.7,0.1c0.8,0.2,1.2,0.6,2,0.7   c1.7,0.3,3.7,0,4.3-0.7c0.3-0.4,0.2-0.7,0.3-1.1c0.1-0.6,2.4,0.2,3.9-0.1c1.4-0.3,4.8-0.5,3.6-1.3c-0.9-0.5-3.2,1.1-2.7,0.1   c0.5-0.8,1.8,0.3,2.4-0.4c0.8-1-3.3-0.5-3.3-0.9c0.1-1.1-5.2,0.6-8.5,1.1C91,25.8,90.5,26.1,89.5,26.1L89.5,26.1z M64.3,60.8   c-0.5-0.8-1.3-1.1-1.2-2.1c0.3-2.6,2.7-2.5,2.8-2.9c0.1-0.6,0.3-2.1,1.3-2.8c1.1-0.8,2.6-0.7,3.6-0.3 M71,55.8c0.3-1.2,0-2.1,0.9-3   c0.8-0.8,1.6-0.6,2.7-1 M75.2,48.1c0.7,0.2,1.4-0.1,1.8,0.5c0.4,0.5-0.5,1.4,0.1,1.6c0.2,0.1,0.7-0.5,1.2-0.5   c0.3,0,0.5,0.2,0.8,0.3 M79.1,50.5c0,0.8,0.6,1.5,0.1,2.1c-0.3,0.3-0.9,0.1-1,0.5c-0.1,0.4,1.3,0.3,1.8,0.9   c0.8,0.8,0.9,1.7,0.6,2.8c-0.2,1.2-0.8,2.1-1.9,2.5c-1,0.4-2.3-0.4-2.6-0.3c-0.2,0.1-0.9,1.4-1.8,1.9c-0.9,0.5-1.6,0.2-2.7,0.4    M76.6,61.7c-0.6,0.8-0.6,1.6-1.4,2.1c-0.7,0.4-1.3,0.5-2.1,0.4c-0.4-0.1-1.1-0.4-1.1-0.3c0,0.3-0.5,0.7-0.9,1.1   c-0.5,0.5-0.8,0.8-1.4,1c-0.7,0.2-1.1,0.1-1.8-0.1c-1.2-0.3-1.6-1.1-2.6-1.8 M67.2,59.6c-0.9,0.6-1.1,1-1.1,1.8   c-0.1,1.1,0.1,1.8,1.6,2.3 M61,51.4c-0.4,1.4-0.4,1.7,0.1,2.6c0.4,0.7,0.9,1.1,1.7,1.1c0.7,0,1-0.5,1.7-0.8"/>
	<path class="st11" d="M12.3,158.8l15-4.4c0,0,6.9-2.7,11.2-4.6c6.9-2.9,10.5-5.2,17.5-8c10.6-4.2,16.8-6,27.7-8.9   c8.2-2.2,13-3.1,21.3-4.9c7.3-1.6,11.5-2.2,18.8-3.8c5.9-1.3,9.4-1.3,15-3.4c3.9-1.4,6.4-1.8,9.6-4.6"/>
	<polygon class="st8" points="160.2,116.3 166.5,112.6 170.1,110 173.3,107.7 175,107 176.4,105.6 178,104 179.4,103 181.1,103    183,102.2 184.8,100.8 186.2,100 188.2,99.9 232.5,74 232.5,119.8 160.3,165.8 160.2,116.3  "/>
	<polygon class="st12" points="90.8,93.7 100.5,91.1 98.9,92.7 104.6,92.8 102.3,95.8 95.4,95.8 93.2,97.8 90.8,93.7  "/>
	<polygon class="st12" points="127.7,93.2 137.4,90.6 135.8,92.2 141.5,92.3 139.2,95.3 132.3,95.3 130.1,97.2 127.7,93.2  "/>
	<path class="st9" d="M168.8,73.5c0.8-0.1,1.1-0.3,1.8-0.4c0.7,0,1.1,0.1,1.8,0.1c0.3,0,0.5,0,0.9,0c0.4-0.1,0.6-0.3,1-0.3   c0.4,0,0.6,0.3,1,0.4c0.5,0.1,0.9,0,1.4,0c0.8-0.1,1.2-0.2,2-0.4c0.4-0.1,0.7-0.2,1.1-0.3c0.9-0.1,1.3,0.4,2.2,0.5   c2.4,0.4,3.9,0.1,6.3,0.1c0.6,0,0.9,0,1.4,0c2.9,0,4.6,0.4,7.5,0.3c0.9,0,1.5-0.1,2.4-0.1c0.8-0.1,1.2-0.2,2-0.1   c0.9,0,1.4,0.1,2.3,0.3c0.4,0.1,1.1-0.2,1.1,0.2c0,0.5-0.7,1.1-1.1,1.8c-0.6,1-1.2,1.4-1.3,2.6c-0.1,0.8,0.1,1.4,0.4,2.1   c0.3,0.7,1.1,0.9,1.1,1.7c0,0.5,0.1,0.9-0.3,1.1c-0.5,0.4-0.9-0.4-1.4-0.7c-0.7-0.4-1.1-0.7-1.7-1.1c-0.8-0.6-1-1.6-2-1.6   c-0.7,0-0.9,0.7-1.6,1c-0.9,0.4-1.6,0.4-2.6,0.6c-0.6,0.1-0.9,0.3-1.4,0.3c-0.7,0-1.1-0.1-1.9-0.3c-0.7-0.1-1.1-0.4-1.8-0.4   c-1.3-0.1-2,0.5-3.3,0.9c-1.2,0.3-1.8,0.5-3,0.7c-1.5,0.3-3.1-0.7-4,0.6c-0.5,0.7-0.7,1.4-0.4,2.3c0.2,0.6,0.8,0.7,1.1,1.3   c0.3,0.4,0.2,0.8,0.6,1c0.7,0.4,1.1-0.6,1.8-0.9c0.7-0.2,1.1-0.2,1.8-0.4c0.6-0.2,1.1-0.1,1.6-0.6c0.4-0.4,0.2-1.2,0.7-1.3   c0.7-0.1,0.6,0.9,1,1.4c0.4,0.4,0.5,0.8,1,1c0.5,0.2,1-0.3,1.4,0c0.3,0.2,0.3,0.5,0.4,0.9c0.3,0.6,0.3,1,0.7,1.6   c0.4,0.5,0.8,0.7,1.4,1c0.4,0.2,0.7,0.4,1.1,0.6c0.7,0.2,1.2,0,2,0.1c0.6,0.1,1,0,1.6,0.3c0.5,0.3,0.6,0.8,1,1.3   c0.3,0.4,0.9,0.7,0.7,1.1c-0.2,0.4-1,0.4-1,0.4l-9.1,5.5c0,0-0.7,0.2-1.1,0.3c-0.5,0.1-0.8-0.1-1.3,0c-0.9,0.2-1.1,0.8-1.8,1.3   c-0.6,0.4-1,0.7-1.6,1c-0.7,0.3-1.1,0.4-1.8,0.7c-1,0.6-1.4,1.2-2.4,1.9c-0.9,0.6-1.4,0.9-2.4,1.5c-0.7,0.4-1.1,0.5-1.7,0.9   c-0.8,0.4-1.1,0.8-1.9,1.2c-1,0.6-1.6,0.9-2.6,1.5c-1.1,0.7-1.7,1.1-2.8,1.9c-0.5,0.4-0.7,0.6-1.2,0.9c-0.4,0.3-0.9,0.6-0.9,0.6   v-0.9c0,0,0-1,0.4-1.5c0.3-0.5,1-0.4,1.2-1c0.2-0.4,0-0.6,0.1-1c0.2-0.9,0.8-1.1,1.2-1.9c0.3-0.6,0.2-1.2,0.6-1.7   c0.5-0.6,1.2-0.4,1.9-0.8c0.4-0.2,0.6-0.2,0.9-0.5c0.5-0.4,0.4-1,0.9-1.3c0.6-0.3,1.4,0.5,1.7-0.1c0.1-0.2,0.1-0.4,0.1-0.6   c0.4-1.5,0.9-2.3,2.1-3.3c0.6-0.5,1.1-0.6,1.8-1.1c0.5-0.4,0.7-0.7,1.1-1.1c0.3-0.3,0.4-0.6,0.7-0.8c0.5-0.3,0.9,0,1.4-0.1   c0.5,0,0.8,0.1,1.2-0.1c0.4-0.2,0.5-0.4,0.8-0.8c0.3-0.4,0.4-0.7,0.6-1.1c0.3-0.4,0.4-0.7,0.8-1c1-0.7,1.9,0.6,3.1,0.6   c1.1,0,1.8,0.2,2.7-0.4c0.3-0.2,0.6-0.3,0.8-0.6c0.4-0.9-1.3-0.7-2.1-1.2c-0.7-0.4-1-0.7-1.7-1c-1.5-0.6-2.5,0-4.1-0.2   c-1.8-0.2-2.8-0.5-4.5-0.9c-1.6-0.4-2.5-0.8-4.1-1.4c-1.5-0.5-2.5-0.6-3.9-1.4c-1-0.6-1.8-0.9-2.4-2c-0.4-0.7-0.5-1.2-0.6-2.1   c-0.2-1.4,0.2-2.2,0.2-3.6c0.1-1.2-0.1-2,0.1-3.2C168.5,74.6,168.1,73.6,168.8,73.5L168.8,73.5z"/>
	<path class="st10" d="M52.1,32.7c0.3,0.8,0.2,1.4,0.7,2c0.7,0.8,2.1,0.9,2.6,1.1c0.1,0.1,0,0.3,0,0.4c0.1,0.7,0.6,1,1.1,1.3   c0.6,0.4,1.1,0.3,1.8,0.3c0.6,0,1.3-0.3,1.6-0.3c0.4,0-0.4,0.6-0.4,1c-0.1,0.5,0,0.9,0.3,1.3c0.2,0.3,0.4,0.3,0.7,0.6 M65.5,44   c-2.1,0.1-4.4-0.7-5.7,5.7c-0.2,1.2-2.1,1.5-2.3,3c-0.3,1.8,1,3.6,2.3,4.1 M61.6,43.1c-0.5,0-0.8-0.2-1.3,0   c-0.6,0.3-0.2,1.2-0.7,1.7c-0.8,0.7-1.8-0.6-2.7-0.1c-0.7,0.4-1,0.8-1.3,1.6c-0.4,1,0.1,2.3,0.1,2.8c0,0.8-1.8,1.5-2.1,2.8   c-0.4,1.4-0.8,2.9,0.4,3.7c0.6,0.4,1.1,0.1,1.7,0.4c0.6,0.4,0.6,1.2,1.3,1.4c0.7,0.3,1.9-0.3,1.8-0.1c-0.1,0.2-0.9,0.8-1.1,1.6   c-0.3,0.9,0.4,1.9,0.4,2.4c0,0.1-0.9-0.3-1.4-0.3c-1.6,0-3.4,0.4-3.6,2c-0.2,1.9,3.4,2.6,4.4,2c0.8-0.5,1.4,1.2,2.4,1.1   c0.7-0.1,1.1-0.4,1.6-0.9c0.6-0.6,0.4-2,0.9-2c0.1,0-0.5,2.3,0.3,3.4c0.6,0.9,1.3,1.4,2.4,1.4c1.3,0,1.6-1.2,2.6-2 M69.8,48.8   c0.2-1.4-0.4-2.5,0.6-3.6c0.6-0.7,1.2-1.2,2.1-1c0.7,0.1,0.7,1,1.4,1c1,0,0.7-1.6,1.4-2.3c0.6-0.6,1.2-1.7,1.8-1.1   c0.3,0.2,0.1,0.6,0.4,0.9c0.7,0.5,0.6-1.6,1.4-1.6c0.4,0,0.6,0.3,1,0.4 M64.9,40c0.4-0.6,0.4-1.1,1-1.4c0.5-0.3,1-0.5,1.6-0.3   c0.7,0.3,0.1,1.8,0.9,1.8c0.6,0.1,0.7-0.8,1.3-1c0.7-0.3,1.2-0.5,1.8-0.1c1,0.5,0.3,1.7,0.6,2.8"/>
	<path class="st13" d="M60.2,66.9v8.4 M63.1,68.2v5.5 M65.9,68.7V76 M67.8,67v4.8 M70,66.9V73 M72.5,65.2v5.4 M75.2,65.2v5.5"/>
	<path class="st14" d="M53,91.8c2.1-1.1,3.4-1.3,5.7-1.8c2.3-0.5,3.7-0.5,6.1-0.7c3-0.2,4.8-0.2,7.8-0.1c1.9,0.1,3.8,0,4.8,0.3   c0.7,0.2,0.8,1.2,0.4,1.7c-1.4,1.9-8.2,2-7,3.1c0.6,0.6,1.5,0.5,1.5,1.6c0,1.7-3.6,1.4-6,1.7c-2.6,0.4-4.1,0.1-6.7,0.1   c-1.7,0-2.6,0.2-4.3-0.1c-1.5-0.3-2.2-0.8-3.7-1.2c-1.2-0.3-2.6,0.5-3-0.6c-0.3-1.1,0.9-1.5,1.7-2.3C51.3,92.7,52,92.4,53,91.8   L53,91.8z"/>
	<switch><text transform="matrix(1 0 0 1 3.3398 94.6699)" class="st15 st16" id="trsvg6-ko" systemLanguage="ko"><tspan id="trsvg1-ko">적도</tspan></text><text transform="matrix(1 0 0 1 3.3398 94.6699)" class="st15 st16" id="trsvg6"><tspan id="trsvg1">Equator</tspan></text></switch>
	<path class="st8" d="M30.7,103.6L80.1,73 M80.4,73.2l88.1,0.3 M75.8,115.6v4.1"/>
	<switch><text transform="matrix(1 0 0 1 81.3666 9.4004)" class="st15 st17" id="trsvg7-ko" systemLanguage="ko"><tspan id="trsvg2-ko">라니냐 조건</tspan></text><text transform="matrix(1 0 0 1 81.3666 9.4004)" class="st15 st17" id="trsvg7"><tspan id="trsvg2">La Niña Conditions</tspan></text></switch>
	<line class="st8" x1="205.1" y1="73.7" x2="232.1" y2="73.7"/>
	<polygon class="st18" points="71,28.8 71,23.4 69.3,23.4 71.6,20.5 73.8,23.4 72.4,23.4 72.4,28.8 71,28.8  "/>
	<line class="st19" x1="71.9" y1="70.2" x2="72" y2="83.2"/>
	<path class="st20" d="M48.6,93.4c0-0.6,0.5-0.9,0.9-1.4c0.3-0.4,0.4-0.8,0.9-1c0.2-0.1,0.3-0.1,0.5-0.1c0.3,0,0.4,0.1,0.7,0.2   c0.4,0.2,1.2,1,0.9,0.7c0,0,0,0-0.1-0.1c-0.1-0.2,0.3,0,0.5,0c0.3,0,0.5-0.2,0.9-0.3c0.4,0,0.7-0.2,0.9,0.1   c0.2,0.1,0.1,0.3,0.2,0.5c0.1,0.4,0.3,0.5,0.4,0.9c0.1,0.5,0.1,0.9,0.1,1.4c0,0.8-0.1,1.8-0.4,2.1c-0.5,0.5-0.6-0.6-1.1-1   c-0.5-0.4-0.7-0.7-1.3-0.9c-0.5-0.2-0.9-0.1-1.4-0.1c-0.8,0-1.6,0.1-2,0C48.6,94.4,48.6,93.8,48.6,93.4L48.6,93.4z"/>
	<path class="st21" d="M52,32.2h7.4 M65.9,30h6.3 M68,34.3h7.4 M76.2,33.6h5.5"/>
	<line class="st22" x1="80.7" y1="31.2" x2="85.3" y2="31.2"/>
	<path class="st21" d="M75.9,26.2H80 M91,28h4.8 M91.8,25.5h4.7"/>
	<path class="st22" d="M159.7,97.9c-1.3-0.4-1.5,0.6-2,1.1"/>
	<polygon class="st23" points="157.7,99.1 159.4,99.3 155.9,101.1 157.3,97.5 157.7,99.1  "/>
	<line class="st24" x1="168.3" y1="83.4" x2="71.9" y2="83.4"/>
	<polyline class="st19" points="72.5,17.9 187.1,17.7 186.9,72.6  "/>
	<path class="st24" d="M186.8,76v6.8 M169,83.4h17.1"/>
	<path class="st11" d="M36,112.9c0.4-0.8,0.7,0.1,1.1-2.2 M29.9,113.8c0.8-0.9,1.1-0.5,2-2.3"/>
	<path class="st25" d="M41.3,114.6c-0.5-0.7-0.7-0.2-1.2-1.8"/>
	<path class="st11" d="M46.4,113.4c-0.6-0.6-0.6,0-1.4-1.6 M33,114.7c0.1-0.8,0-0.1,0.2-2.1"/>
	<path class="st25" d="M173.4,106.7c0.6-0.8,0.3-1.2,1.6-2.2 M176.8,101.3c0.6-0.8,0.3-1.2,1.6-2.2 M179.2,103.4   c0.4-0.9,0.2-1.3,1-2.3 M177.4,74.5c0.6-1,0.5-0.2,1.8-1.2 M181,73.7c1.1-0.3,0.5,0.2,2.2,0.3"/>
	<path class="st22" d="M152.3,97.6c-1.3-0.6-1.5,0.4-2,0.9"/>
	<polygon class="st23" points="150.3,98.6 151.9,99 148.3,100.5 150,97 150.3,98.6  "/>
	<path class="st22" d="M154.9,93.1c-0.1-1.4,1-1.3,1.6-1.6"/>
	<polygon class="st23" points="156.5,91.5 155.1,90.7 159,90.3 156.3,93.2 156.5,91.5  "/>
	<path class="st22" d="M163.4,93.8c-0.1-1.4,1-1.3,1.6-1.6"/>
	<polygon class="st23" points="165.1,92.3 163.6,91.4 167.5,91.1 164.8,93.9 165.1,92.3  "/>
	<path class="st22" d="M116.5,94.8c-1.3-0.6-1.5,0.4-2,0.9"/>
	<polygon class="st23" points="114.5,95.8 116.1,96.2 112.5,97.7 114.2,94.1 114.5,95.8  "/>
	<path class="st22" d="M126.2,92.4c-0.1-1.4,1-1.3,1.6-1.6"/>
	<polygon class="st23" points="127.8,90.9 126.4,90 130.3,89.7 127.6,92.5 127.8,90.9  "/>
	<path class="st22" d="M126.7,94.9c-1.3-0.6-1.5,0.4-2,0.9"/>
	<polygon class="st23" points="124.6,95.8 126.2,96.2 122.6,97.7 124.4,94.2 124.6,95.8  "/>
	<polygon class="st18" points="126.5,17.3 132,17.3 132,15.7 134.9,18 131.9,20.2 131.9,18.7 126.5,18.7 126.5,17.3  "/>
	<polygon class="st18" points="187.7,46.3 187.7,51.8 189.3,51.8 187,54.7 184.9,51.7 186.3,51.7 186.3,46.3 187.7,46.3  "/>
	<polygon class="st18" points="71.1,76.5 71.1,71 69.5,71 71.8,68.1 74,71.1 72.5,71.1 72.5,76.5 71.1,76.5  "/>
	<line class="st26" x1="156.4" y1="134.8" x2="156.4" y2="126.5"/>
	<polygon class="st23" points="156.4,126.5 154.6,127.7 156.4,123 158.1,127.7 156.4,126.5  "/>
	<polygon class="st18" points="146.4,83.7 141,83.7 141,85.3 138.1,83 141.1,80.8 141.1,82.3 146.4,82.3 146.4,83.7  "/>
	<polygon class="st12" points="168.7,93.2 178.4,90.6 176.9,92.2 182.5,92.3 180.1,95.4 173.3,95.3 171.2,97.2 168.7,93.2  "/>
	<switch><text transform="matrix(1 0 0 1 94.666 148.3027)" class="st15 st16" id="trsvg8-ko" systemLanguage="ko"><tspan id="trsvg3-ko">수온약층</tspan></text><text transform="matrix(1 0 0 1 94.666 148.3027)" class="st15 st16" id="trsvg8"><tspan id="trsvg3">Thermocline</tspan></text></switch>
	<path class="st10" d="M82.6,34.2c3.6-0.6,3.2,5.8,3,6.8c-0.5,2.5-2.9,2.3-3,2.7c-0.2,0.6-0.5,2.1-1.5,2.7c-1.2,0.7-2.6,0.5-3.6,0"/>
	<path class="st22" d="M115.5,91.5c-0.1-1.4,1-1.3,1.6-1.6"/>
	<polygon class="st23" points="117.1,89.9 115.7,89.1 119.6,88.7 116.9,91.5 117.1,89.9  "/>
	<line class="st27" x1="93" y1="144.8" x2="82.8" y2="138.6"/>
	<line class="st26" x1="15.7" y1="140.6" x2="15.7" y2="148.8"/>
	<polygon class="st23" points="15.7,148.8 17.4,147.7 15.7,152.3 13.9,147.7 15.7,148.8  "/>
	<polygon class="st12" points="54.2,93.4 63.9,90.9 62.4,92.4 68.1,92.5 65.8,95.5 58.8,95.6 56.7,97.5 54.2,93.4  "/>
	<polygon class="st18" points="110.5,84 105,84 105,85.6 102.1,83.3 105.1,81.1 105.1,82.6 110.5,82.6 110.5,84  "/>
</g>
<switch><text transform="matrix(1 0 0 1 143.3252 175.2376)" class="st28 st15 st17" id="trsvg9-ko" systemLanguage="ko"><tspan id="trsvg4-ko">80° W</tspan></text><text transform="matrix(1 0 0 1 143.3252 175.2376)" class="st28 st15 st17" id="trsvg9"><tspan id="trsvg4">80° W</tspan></text></switch>
<switch><text transform="matrix(1 0 0 1 3.6303 175.2376)" class="st28 st15 st17" id="trsvg10-ko" systemLanguage="ko"><tspan id="trsvg5-ko">120° E</tspan></text><text transform="matrix(1 0 0 1 3.6303 175.2376)" class="st28 st15 st17" id="trsvg10"><tspan id="trsvg5">120° E</tspan></text></switch>
</svg>
