<?xml version="1.0" encoding="UTF-8" standalone="no"?>
<!-- Generator: Adobe Illustrator 17.1.0, SVG Export Plug-In . SVG Version: 6.00 Build 0)  -->

<svg
   version="1.1"
   id="Layer_1"
   x="0px"
   y="0px"
   viewBox="0 0 370 285"
   style="enable-background:new 0 0 370 285;"
   width="370"
   height="285"
   xml:space="preserve"
   sodipodi:docname="enso-average.svg"
   inkscape:version="1.3.2 (091e20e, 2023-11-25)"
   xmlns:inkscape="http://www.inkscape.org/namespaces/inkscape"
   xmlns:sodipodi="http://sodipodi.sourceforge.net/DTD/sodipodi-0.dtd"
   xmlns="http://www.w3.org/2000/svg"
   xmlns:svg="http://www.w3.org/2000/svg"><defs
   id="defs42">
	
	
	
	
	
	
	
	
	
	
	
	
	
	
	
	
	
	
	
	
	
	
	
	
	
	
	
	
	
	
	
	
	
	
	
	
	
	
	
	
	
	
	
	
	
	
	
	
	
	
	
	
	
	
	
	
	
	
	
	
	
	
	
	
	
	
	
</defs><sodipodi:namedview
   id="namedview42"
   pagecolor="#505050"
   bordercolor="#ffffff"
   borderopacity="1"
   inkscape:showpageshadow="0"
   inkscape:pageopacity="0"
   inkscape:pagecheckerboard="1"
   inkscape:deskcolor="#505050"
   inkscape:zoom="1.745277"
   inkscape:cx="189.08174"
   inkscape:cy="158.71406"
   inkscape:window-width="1464"
   inkscape:window-height="867"
   inkscape:window-x="0"
   inkscape:window-y="38"
   inkscape:window-maximized="0"
   inkscape:current-layer="Layer_1"
   showgrid="false" />
<style
   type="text/css"
   id="style1">
	.st0{fill:none;stroke:#1D1D1B;stroke-width:0.9979;stroke-miterlimit:4;}
	.st1{fill:#91CDBF;stroke:#1D1D1B;stroke-width:0.2559;stroke-miterlimit:4;}
	.st2{fill:#134395;stroke:#fff;stroke-width:0.5118;stroke-miterlimit:4;}
	.st3{fill:#009879;stroke:#1D1D1B;stroke-width:0.2559;stroke-miterlimit:4;}
	.st4{fill:#009FE3;stroke:#1D1D1B;stroke-width:0.2559;stroke-miterlimit:4;}
	.st5{fill:#FFED00;stroke:#1D1D1B;stroke-width:0.2559;stroke-miterlimit:4;}
	.st6{fill:#F3912D;stroke:#1D1D1B;stroke-width:0.2559;stroke-miterlimit:4;}
	.st7{fill:none;stroke:#1D1D1B;stroke-width:0.5118;stroke-miterlimit:4;}
	.st8{fill:#7C311C;stroke:#1D1D1B;stroke-width:0.5118;stroke-miterlimit:4;}
	.st9{fill-rule:evenodd;clip-rule:evenodd;fill:#1D1D1B;}
	.st10{fill:none;stroke:#1D1D1B;stroke-width:0.2559;stroke-miterlimit:4;}
	.st11{fill:none;stroke:#fff;stroke-width:0.2559;stroke-miterlimit:4;}
	.st12{fill:#fff;stroke:#1D1D1B;stroke-width:0.5118;stroke-miterlimit:4;}
	.st13{fill:none;stroke:#1D1D1B;stroke-width:0.2559;stroke-miterlimit:4;stroke-dasharray:3.1989,3.1989;}
	.st14{fill:#E63027;stroke:#1D1D1B;stroke-width:0.2559;stroke-miterlimit:4;}
	.st15{fill:#1D1D1B;}
	.st16{font-family:'LiberationSans','Arial';}
	.st17{font-size:12px;}
	.st18{font-size:12px;}
	.st19{font-size:12px;}
	.st20{font-size:18px;}
	.st21{fill:#1D1D1B;stroke:#1D1D1B;stroke-width:0.4351;stroke-miterlimit:4;}
	.st22{fill:none;stroke:#1D1D1B;stroke-width:0.9979;stroke-miterlimit:4;stroke-dasharray:6.3978,6.3978;}
	.st23{fill:none;stroke:#1D1D1B;stroke-width:0.2574;stroke-miterlimit:4;}
	.st24{fill:none;stroke:#fff;stroke-width:0.9979;stroke-miterlimit:4;stroke-dasharray:6.3978,6.3978;}
	.st25{fill:none;stroke:#fff;stroke-width:0.2303;stroke-miterlimit:4;}
	.st26{font-size:11px;}
	.st27{font-size:11px;}
</style>
<line
   class="st0"
   x1="51"
   y1="149.8"
   x2="341.29999"
   y2="149.8"
   id="line1" /><path
   class="st1"
   d="m 75.7,176.5 c -0.2,-1.1 4.1,-6.3 7.9,-8.8 4.9,-3.3 8.8,-3.6 14.7,-4.1 7.7,-0.6 13.4,1.9 22,2.9 7.4,0.9 11.6,1.4 19,2 10.4,0.9 16.3,1.1 26.7,1.4 8.2,0.2 12.8,0.4 21.1,0.2 7.8,-0.1 12.3,0.7 19.9,-0.9 4.7,-1 9.6,-1.2 11.8,-3.6 1.8,-2 1.9,-3.6 0.9,-5.7 -1,-2.2 -4.6,-3.4 -7.7,-5.2 -1.7,-1 -3.8,-1.8 -5.7,-4.1 -2.5,-3.2 9.2,-3.8 13.4,-4.1 10.2,-0.6 32.8,0.9 54.8,1.1 5.4,0.1 21.8,-5.1 19.3,2.1 -1.4,4.2 -4.7,6.2 -9.1,6.8 -2.8,0.4 -4.8,-1.1 -7.1,-1.4 -9.6,-0.9 -12.1,-0.2 -25.9,-1.6 -4.5,-0.4 -9.1,-2.9 -11.5,0.9 -1.8,2.7 1.2,5.2 0.2,8.4 -2,6.7 -9,6.4 -15.4,9.3 -19.6,8.8 -33.5,2.3 -55,2 -11.7,-0.1 -18.3,-0.2 -29.9,-1.1 -10.2,-0.8 -15.8,-2.4 -26,-2.9 -6.1,-0.3 -9.7,-1.5 -15.6,-0.2 -6.3,1.3 -10.2,2.7 -14.9,7 -1.3,1.2 -1.4,3.1 -3.2,3.4 -2.4,0.5 -4.2,-1.5 -4.7,-3.8 z"
   id="path1" /><path
   class="st2"
   d="M 118.4,190.9 17.5,246.3 17,257.2 h 27.6 c 0,0 11.1,-2 18.1,-3.6 13.3,-3.2 20.2,-7.1 33.5,-10.4 18.1,-4.5 28.7,-5.2 47.1,-7.7 15.1,-2.1 23.9,-2 38.9,-4.5 8.2,-1.4 13,-1.3 20.8,-4.1 12.9,-4.5 19,-10.2 29.4,-19 5.8,-4.9 8.5,-8.3 14,-13.6 2.2,-2.1 4.5,-5 5.9,-8.1 10.5,-6 23.7,-15.8 23.7,-15.8 l -9,-5.4 -26.4,20.5 z"
   id="path2" /><path
   class="st1"
   d="m 95,136 30.3,-18.8 59.2,0.3 c 0,0 8.9,6.2 15.1,9.4 5.7,3 9,4.7 15.2,6.6 6.7,2.1 10.7,2.5 17.7,3.2 5.4,0.5 8.4,0.6 13.8,0.5 6.4,-0.1 10,-0.5 16.3,-1.4 1.9,-0.2 3.1,-1.5 4.8,-0.7 0.8,0.4 1.3,0.8 1.8,1.6 1.4,2.5 -4.3,1.3 -7,2 -6.6,1.7 -10.4,2.4 -17.2,3.2 -9.4,1.1 -14.8,0.7 -24.2,0.7 -7.7,0 -12.3,1.3 -19.7,-0.7 -7.7,-2.1 -10.7,-6.4 -17.9,-9.7 -6.1,-2.9 -9.4,-5.4 -16.1,-6.6 -5.3,-0.9 -8.4,-0.4 -13.8,0 -6.1,0.4 -9.6,1.2 -15.6,2.3 -8.5,1.5 -13.2,3.1 -21.7,4.8 -8.3,1.4 -21,3.3 -21,3.3 z"
   id="path3" /><path
   class="st3"
   d="m 184.4,117.5 h 26.8 c 0,0 3.2,3.6 5.5,5.5 5.6,4.5 9.8,5.8 16.8,7.5 7.2,1.7 11.6,0.6 19,0.9 5.1,0.2 9.7,-3.4 13.1,0.5 0.8,0.9 1.6,1.3 1.6,2.5 0,2 -2.6,1.5 -4.8,1.8 -6.6,0.9 -9.9,1.4 -16.3,1.6 -6.7,0.2 -10.5,0 -17.2,-0.9 -8.5,-1.2 -13.3,-2.1 -21.3,-5.2 -9.8,-3.9 -23.2,-14.2 -23.2,-14.2 z"
   id="path4" /><path
   class="st4"
   d="m 211.1,117.5 55.5,0.1 c 0,0 -0.2,2.1 -0.2,3.4 0,2.8 2.5,5.1 0.7,7.2 -0.4,0.5 -1.4,0.4 -1.4,1.1 0,0.6 0.8,0.6 1.1,1.1 1.7,2.5 -5.1,1.5 -7.7,1.6 -10.6,0.2 -28.1,0.5 -38.3,-5.2 -4.3,-2.3 -9.7,-9.3 -9.7,-9.3 z"
   id="path5" /><path
   class="st5"
   d="m 75.5,176.7 c -1.1,-0.1 -1.7,-0.2 -2.7,-0.7 -1.4,-0.7 -1.9,-1.5 -2.9,-2.6 -6.5,-7.4 -3.2,-18.8 4.5,-24.8 6.1,-4.8 8.6,-5 14.5,-9.3 3.4,-2.5 5.5,-3.9 9.7,-4.5 5.7,-0.9 11.5,-2.5 20.6,-4.1 2.8,-0.5 9.2,-1.9 15.2,-2.9 9.7,-1.7 8.4,-2.7 24.9,-3.6 5.5,-0.3 6.7,0.6 10.9,1.6 8.4,2.1 11.3,4.3 20.2,9.5 2.5,1.5 8.2,5 14,6.3 5.3,1.2 8.4,0.4 13.8,0.5 8,0.1 12.6,0.3 20.6,-0.2 7,-0.4 11.1,-0.3 18,-1.9 4.5,-1 9.2,-2.7 11.2,-3.5 0.7,-0.3 0.5,-0.1 0.8,-0.1 1.1,0 2.1,0.4 2.4,1.5 0.5,1.5 -2.5,1 -3.1,2.5 -0.2,0.4 -0.7,0.6 -0.2,1.1 0.7,0.9 3.2,1.4 4.3,1.7 4.9,1.2 13.9,2 13,2.6 -1.6,1 -2.7,1.2 -4.5,1.7 -1.8,0.5 -2.8,1.1 -4.6,1 -1.1,0 -1.7,-0.3 -2.7,-0.5 -4.2,-0.6 -6.6,0.1 -10.9,0 -4.6,-0.1 -7.2,-0.4 -11.9,-0.6 -5.5,-0.2 -8.6,-0.3 -14,-0.3 -8.6,0 -15.5,-0.6 -22,0.6 -1.7,0.3 -3.4,0.4 -4,2 -0.5,1.5 0.4,2.7 1.5,3.8 1,1.1 2.1,1 3.4,1.8 2.1,1.3 4,1.5 5.1,3.7 1.5,3.1 0.6,6.3 -2,8.5 -2,1.7 -3.9,1 -6.5,1.6 -22.8,5 -36.5,1.8 -59.8,0.6 -11.5,-0.6 -17.9,-1.1 -29.3,-2.5 -8.9,-1.1 -13.8,-3.8 -22.8,-3.3 -5.1,0.3 -8.2,0.1 -12.8,2.2 -1.7,0.8 -2.6,1.3 -4.2,2.4 -3.6,2.5 -3.3,8.5 -7.7,8.2 z"
   id="path6" /><path
   class="st6"
   d="m 71.2,170.6 c -1,0.7 -1.3,1.5 -2.5,1.8 -1.5,0.4 -2.5,-0.3 -3.8,-1.1 -1.4,-0.9 -2.2,-1.8 -2.7,-3.4 -0.5,-1.6 -0.1,-2.7 0.5,-4.3 0.7,-2.2 2.1,-3 3.4,-5 0.8,-1.2 1.8,-1.7 2,-3.2 0.1,-0.6 0.1,-1 0,-1.6 -0.5,-2.9 -2.9,3.7 -5.2,5.4 -2.7,2.1 -4.8,2.4 -7.9,3.8 -2.1,1 -3.2,1.9 -5.4,2.5 -1.6,0.5 -4.3,0.7 -4.3,0.7 l 28.8,-17.7 c 0,0 7.2,-2.7 11.8,-4.3 7.8,-2.8 12.1,-4.8 20.2,-7 10.5,-2.9 16.5,-4.4 27.4,-5.2 7.8,-0.6 12.3,0.2 20.2,0.2 5,0 7.9,-0.8 12.9,0 2.1,0.3 3.6,-0.2 5.2,1.1 1.1,0.9 1.5,1.8 2,3.2 0.4,1 0.7,1.6 0.7,2.7 0,1.1 22.9,0.7 23.5,3.8 0.6,2.9 -11.5,2.5 -17.7,3.8 -2.3,0.5 -4.2,0.3 -5.2,2.3 -1.1,2.3 5.6,3.1 9.3,5 5.2,2.7 14.7,4 13.4,6.8 -2.7,5.4 -14.9,5.9 -25.1,6.8 -12.9,1.1 -21.6,-1.2 -35.1,-3.6 -8.5,-1.5 -13,-3.6 -21.5,-5 -7.1,-1.2 -11.2,-2.4 -18.3,-2 -5.2,0.3 -8.3,0.2 -13.1,2.3 -6.5,2.8 -8.1,7.2 -13.5,11.2 z"
   id="path7" /><path
   class="st6"
   d="m 271.9,138 c -1.4,-0.1 -2.4,-0.6 -3.5,0.1 -1,0.6 -1.5,1.4 -1.6,2.6 -0.1,1.5 1,2.3 2.3,3.2 1.5,1.1 2.9,0.8 4.8,1 2.1,0.2 3.3,-0.2 5.3,0.1 1.6,0.2 3.4,-0.6 4,0.9 0.2,0.5 -0.1,0.9 0.1,1.4 0.2,0.7 0.6,1 1.2,1.5 1.4,1 2.6,-0.1 4.3,-0.1 1.5,0 2.4,-0.2 3.8,-0.1 1.9,0.2 2.8,1 4.6,1.1 1.5,0.1 2.4,0.4 3.7,-0.1 1.1,-0.4 2.4,-0.4 2.5,-1.6 0,-0.6 -0.2,-1 -0.6,-1.5 -0.6,-0.6 -1.3,-0.5 -2,-0.8 -1.3,-0.6 -1.9,-1.2 -3.3,-1.7 -1.4,-0.5 -2.3,-0.7 -3.8,-0.9 -1.9,-0.3 -3,0 -5,-0.2 -3.6,-0.4 -5.6,-1 -9.1,-2 -3,-1 -4.5,-2.6 -7.7,-2.9 z"
   id="path8" /><path
   class="st4"
   d="m 87.9,184.2 c 2.1,-2.7 3.6,-4.1 6.6,-5.9 4.7,-2.8 8.2,-2.7 13.6,-3.2 10.4,-0.9 19.5,1.1 32.2,1.4 4.6,0.1 6.8,1.2 11.1,2 4.7,0.9 7.3,1.8 12,2.5 11.7,1.8 18.5,0.2 30.3,0.5 8.5,0.2 13.3,0.9 21.7,0.5 7.1,-0.4 11.2,-0.4 18.1,-2 5.1,-1.2 8.3,-1.3 12.7,-4.1 3.3,-2.1 4.8,-3.9 7.2,-7 2.1,-2.8 1.8,-5.5 4.5,-7.7 2.6,-2 4.7,-2 7.9,-2.7 4,-0.9 8.7,-4.6 10.4,-0.9 0.7,1.6 0.5,2.8 0,4.5 -0.4,1.5 -1,2.3 -2,3.4 -2.1,2.2 -4.5,1.5 -7.2,2.7 -2,0.9 -3.1,1.4 -5,2.5 -3.6,2.1 -5.1,4 -8.6,6.3 -3.1,2.1 -5.1,2.9 -8.2,5 -1.9,1.3 -4.8,3.4 -4.8,3.4 z"
   id="path9" /><path
   class="st3"
   d="m 80.2,179.7 c 2.8,-3.6 4.8,-5.5 8.8,-7.7 6.6,-3.7 11.6,-3 19.2,-3.2 7.5,-0.2 11.6,1.6 19,2.3 10.6,1 16.6,1.2 27.2,1.6 18.6,0.7 29.2,0.9 47.8,0.2 5.3,-0.2 8.3,-0.2 13.6,-0.7 4.3,-0.4 6.9,-0.1 11.1,-1.4 3.7,-1.1 6.3,-1.4 8.8,-4.3 2.5,-2.9 3.9,-5.6 2.9,-9.3 -0.2,-0.9 -1,-1.3 -0.9,-2.3 0.1,-1.1 0.5,-1.6 1.8,-2.3 2.5,-1.4 15,-0.5 24.5,0.5 3.4,0.3 5.2,0.8 8.6,1.1 4.3,0.4 8.8,1.1 11.1,0.7 0.5,-0.1 0,0.8 -0.1,1.2 -0.6,2.4 -3.5,2.1 -6,2.2 -1.3,0 -2.1,-0.4 -3.4,-0.5 -3.7,-0.2 -6,-0.1 -9.5,1.1 -2.7,1 -4.2,1.8 -6.3,3.6 -3.4,2.9 -3.2,6.4 -6.3,9.5 -3.9,3.9 -7.1,5 -12.2,7.2 -12.8,5.6 -21.6,2.8 -35.5,3.4 -16.8,0.7 -26.5,2 -43,-0.9 -7,-1.2 -10.7,-3.1 -17.7,-4.3 -9.6,-1.7 -15.2,-1.9 -24.9,-2 -5.9,-0.1 -9.4,-0.9 -15.2,0.5 -4,1 -6.2,1.9 -9.7,3.8 -1.8,1 -3,1.5 -4.5,2.9 -0.5,0.4 -1.1,1.1 -1.1,1.1 l -6.1,0.2 -0.9,-1.8 z"
   id="path10" /><polygon
   class="st7"
   points="25.5,182.2 30.7,183.3 35,182 39.7,184 42.7,184.2 49,183.1 54.7,183.8 57.8,182 60.5,183.8 66.7,182.9 69.8,184 74.1,184.2 78.9,184.2 252.6,185.6 253,264.4 17.1,264.4 17.1,184.2 22.5,182 "
   id="polygon10" /><path
   class="st8"
   d="m 17.5,183.8 c -0.2,-1.1 -0.1,-1.9 0.5,-2.9 0.6,-1.3 1.5,-1.8 2.7,-2.5 0.7,-0.4 1.3,-0.5 2,-0.9 0.9,-0.5 1.1,-1.3 2,-1.6 1.1,-0.4 1.8,0.5 2.9,0.2 1.9,-0.4 2.1,-2.2 3.6,-3.4 2.2,-1.7 3.9,-2.1 6.3,-3.4 2.6,-1.3 3.8,-2.5 6.6,-3.4 2.4,-0.8 4,-0.2 6.3,-1.1 2.1,-0.9 2.7,-2.2 4.8,-3.2 1.8,-0.8 3.1,-0.6 4.8,-1.6 1,-0.6 1.5,-1.1 2.5,-1.8 1.4,-1.1 2.2,-1.9 3.5,-3.2 0.7,-0.7 0.9,-1.3 1.7,-1.8 2.2,-1.3 -0.7,4 -1.6,6.3 -0.4,1 -0.6,1.6 -1.1,2.5 -0.5,0.9 -1.2,1.1 -1.6,2 -0.6,1.2 -0.7,2.1 -0.5,3.4 0.3,1.7 1,2.8 2.5,3.6 1.2,0.7 2.4,-0.3 3.6,0.5 0.5,0.3 0.8,0.6 1.1,1.1 0.5,0.7 0.1,1.4 0.7,2 0.8,0.9 1.8,0.5 2.9,0.9 1,0.3 1.7,0.2 2.5,0.9 0.6,0.5 0.5,1.2 1.1,1.8 0.9,0.9 2.1,0.4 2.9,1.4 0.6,0.7 0.6,1.4 0.9,2.3 0.4,0.9 1.8,1.8 0.9,2.3 -0.9,0.5 -3.6,0 -3.6,0 H 73 l -2.7,-0.2 -2.3,-0.7 -2,-0.5 -3.6,0.7 -1.8,0.2 -2,-1.4 -0.7,-0.2 -2.3,1.1 h -0.9 -2.9 l -2.7,-0.2 -2.3,0.2 -3.6,0.9 -2.9,-0.2 -2.7,-1.4 -2.6,-0.5 -2.3,0.7 -2.3,0.7 -3.2,-0.9 -3.6,-0.5 -2.9,0.5 z"
   id="path11" /><line
   class="st7"
   x1="246.2"
   y1="221.39999"
   x2="246.2"
   y2="206.89999"
   id="line11" /><polygon
   class="st9"
   points="246.2,200.7 249.3,208.9 246.2,206.9 243.1,208.9 "
   id="polygon11" /><path
   class="st10"
   d="m 163.1,42.3 c -1.1,-0.1 -1.8,-0.2 -2.7,-0.7 -1.1,-0.6 -1,-2 -2.3,-2.3 -4.5,-0.9 -19.1,-0.5 -17.7,2.5 0.6,1.1 1.6,1.8 1.1,2.9 -0.4,1 -1.3,1.1 -2.3,1.6 -3.2,1.7 -5.8,-0.2 -9.3,0.7 -1.6,0.4 -2.5,0.8 -4.1,1.4 -1.9,0.7 -2.8,1.3 -4.8,1.8 -3.8,0.9 -6.1,-0.1 -10,0 -3,0 -6.6,-0.5 -7.7,0.2 -0.7,0.4 -0.7,1.4 -0.2,2 0.9,1.1 9.3,0.5 10.6,0.5 1,0 0.7,2.2 1.8,2.7 1.2,0.6 2.1,-0.3 3.4,-0.5 3.1,-0.4 5.9,-1.6 7.9,-0.7 1.5,0.7 1,2.6 2.5,3.4 2.1,1.2 3.9,-2.1 6.1,-1.1 0.9,0.4 1.1,1.3 2,1.6 1.4,0.4 2.2,-0.5 3.6,-0.9 2,-0.6 3,-1.3 5,-2 2.1,-0.7 3.5,-0.6 5.4,-1.6 1.6,-0.8 2.2,-1.7 3.6,-2.7 1,-0.7 2.6,-0.5 2.7,-1.8 0.2,-1.7 -2.7,0.1 -4.3,-0.2 -1.7,-0.4 -4.4,0.1 -4.1,-1.6 0.2,-1 1,-1.3 1.8,-1.8 1.6,-0.9 2.9,-0.2 4.8,-0.2 2.9,-0.1 4.6,-0.5 7.5,0.2 1.3,0.3 1.9,0.9 3.2,1.1 2.6,0.5 5.9,0 6.8,-1.1 0.5,-0.6 0.3,-1.1 0.5,-1.8 0.2,-0.9 3.6,-0.2 5.9,-0.7 2.3,-0.5 7.7,-0.9 5.7,-2 -1.5,-0.8 -2.7,0.6 -4.3,0.2 -0.8,-0.2 -1.9,0.1 -2,-0.7 -0.1,-0.6 0.6,-0.8 0.7,-1.4 0.2,-1.8 -8,1.4 -13.1,2.3 -1.3,0.2 -2.2,0.8 -3.7,0.7 z M 123,97.5 c -0.8,-1.3 -2.1,-1.8 -1.9,-3.3 0.5,-4.1 4.3,-4 4.4,-4.6 0.2,-0.9 0.5,-3.4 2,-4.5 1.8,-1.3 4.1,-1.1 5.7,-0.5 m 16.4,-12.7 c 1.7,-0.8 3.3,-0.7 4.8,0.6 1,0.9 1.5,1.8 1.5,3.2 -0.1,1.6 -1.8,2.4 -2.4,3.3 -0.2,0.4 1.8,0.4 2.6,1.1 1.2,1.2 1.1,2.6 1,4.3 -0.2,3.5 -2.3,5.3 -5.8,7 m -17.6,-1.8 c 0.5,-1.9 0,-3.4 1.4,-4.8 1.2,-1.3 2.6,-1 4.3,-1.6 m 1,-5.8 c 1.1,0.3 2.2,-0.2 2.9,0.8 0.6,0.8 -0.7,2.3 0.2,2.6 0.3,0.1 1.1,-0.8 1.9,-0.8 0.5,0 0.8,0.3 1.2,0.5 m 0,0.7 c 0,1.3 1,2.3 0.1,3.3 -0.5,0.5 -1.4,0.1 -1.6,0.8 -0.2,0.7 2,0.6 2.8,1.5 1.2,1.3 1.4,2.8 1,4.5 -0.4,1.9 -1.2,3.3 -3.1,4 -1.5,0.6 -3.7,-0.6 -4.2,-0.5 -0.4,0.1 -1.4,2.3 -2.8,3.1 -1.5,0.8 -2.6,0.3 -4.3,0.6 m 8,0.5 c -0.9,1.3 -0.9,2.6 -2.3,3.4 -1.2,0.7 -2.1,0.7 -3.4,0.6 -0.7,-0.1 -1.7,-0.7 -1.7,-0.5 0,0.5 -0.8,1.1 -1.5,1.7 -0.8,0.7 -1.2,1.3 -2.3,1.6 -1.1,0.3 -1.8,0.2 -2.8,-0.1 -1.9,-0.5 -2.5,-1.8 -4.1,-2.9 m 3.2,-7.2 c -1.4,0.9 -1.7,1.6 -1.8,2.9 -0.1,1.7 0.2,2.9 2.5,3.6 M 117.7,82.6 c -0.6,2.3 -0.6,2.7 0.2,4.1 0.7,1.1 1.4,1.7 2.7,1.8 1.2,0.1 1.7,-0.8 2.7,-1.2"
   id="path12" /><path
   class="st11"
   d="m 17.5,246.7 h 27.6 c 0,0 11.1,-2 18.1,-3.6 13.3,-3.2 20.2,-7.1 33.5,-10.4 18.1,-4.5 28.6,-5.5 47.1,-7.7 13.5,-1.6 21.3,-0.7 34.6,-2.9 8.7,-1.5 13.9,-1.8 22.2,-5 10.5,-4 15.8,-8 24.5,-15.2 6.5,-5.4 9.3,-9.4 15.2,-15.4"
   id="path13" /><polygon
   class="st7"
   points="268.4,175.8 273.4,172.2 276.1,171.1 278.4,168.8 280.9,166.3 283.1,164.7 285.8,164.7 288.8,163.4 291.7,161.1 294,160 297.1,159.8 367.6,118.6 367.6,191.5 252.8,264.6 252.6,185.8 262.5,180 "
   id="polygon13" /><polygon
   class="st12"
   points="154.2,147.9 163.2,148 159.6,152.7 148.5,152.9 145.1,155.9 141.3,149.5 156.7,145.4 "
   id="polygon14" /><polygon
   class="st12"
   points="227.1,148.1 236.1,148.2 232.5,153 221.4,153.1 218,156.1 214.2,149.7 229.6,145.6 "
   id="polygon15" /><polygon
   class="st12"
   points="277.8,148.1 286.8,148.2 283.2,153 272.1,153.1 268.7,156.1 264.9,149.7 280.3,145.6 "
   id="polygon16" /><path
   class="st8"
   d="m 266.2,117.8 c 1.2,-0.2 1.7,-0.5 2.8,-0.6 1.1,-0.1 1.8,0.2 2.9,0.2 0.5,0 0.8,0.1 1.4,0 0.6,-0.1 0.9,-0.5 1.6,-0.5 0.7,0 0.9,0.5 1.6,0.7 0.9,0.2 1.4,0.1 2.3,0 1.3,-0.1 1.9,-0.4 3.2,-0.7 0.7,-0.2 1.1,-0.4 1.8,-0.5 1.4,-0.1 2.1,0.6 3.5,0.8 3.9,0.7 6.1,0.1 10.1,0.1 0.9,0 1.4,0 2.3,0 4.7,0 7.3,0.6 12,0.5 1.5,-0.1 2.3,-0.1 3.8,-0.2 1.2,-0.1 1.9,-0.3 3.2,-0.2 1.4,0 2.2,0.2 3.6,0.5 0.7,0.1 1.8,-0.4 1.8,0.3 0,0.8 -1.2,1.7 -1.8,2.8 -0.9,1.5 -1.9,2.3 -2,4.1 -0.1,1.3 0.2,2.2 0.7,3.4 0.5,1.2 1.7,1.4 1.8,2.7 0,0.7 0.1,1.4 -0.5,1.8 -0.8,0.6 -1.4,-0.6 -2.3,-1.1 -1.1,-0.6 -1.7,-1.1 -2.7,-1.8 -1.3,-0.9 -1.6,-2.6 -3.2,-2.5 -1.1,0.1 -1.4,1.1 -2.5,1.6 -1.5,0.7 -2.5,0.6 -4.1,0.9 -0.9,0.2 -1.4,0.4 -2.3,0.5 -1.2,0.1 -1.8,-0.2 -2.9,-0.5 -1.2,-0.2 -1.8,-0.6 -2.9,-0.7 -2.1,-0.1 -3.2,0.9 -5.2,1.4 -1.8,0.5 -2.9,0.8 -4.8,1.1 -2.5,0.5 -4.9,-1.1 -6.3,0.9 -0.8,1.2 -1.2,2.3 -0.7,3.6 0.4,1 1.2,1.2 1.8,2 0.4,0.6 0.3,1.2 0.9,1.6 1.1,0.7 1.7,-1 2.9,-1.4 1.1,-0.4 1.8,-0.3 2.9,-0.7 1,-0.3 1.7,-0.2 2.5,-0.9 0.7,-0.6 0.2,-1.9 1.1,-2 1.1,-0.2 0.9,1.4 1.6,2.3 0.6,0.7 0.8,1.2 1.6,1.6 0.8,0.3 1.6,-0.6 2.3,0 0.5,0.4 0.4,0.8 0.7,1.4 0.5,1 0.5,1.7 1.1,2.5 0.7,0.8 1.3,1 2.3,1.6 0.7,0.4 1.1,0.7 1.8,0.9 1.2,0.4 1.9,0.1 3.2,0.2 1,0.1 1.6,-0.1 2.5,0.5 0.9,0.5 1,1.2 1.6,2 0.5,0.7 1.5,1.1 1.1,1.8 -0.3,0.6 -1.6,0.7 -1.6,0.7 l -14.5,8.8 c 0,0 -1.1,0.4 -1.8,0.5 -0.8,0.1 -1.3,-0.2 -2,0 -1.4,0.3 -1.8,1.3 -2.9,2 -1,0.6 -1.5,1.1 -2.6,1.6 -1.1,0.5 -1.7,0.7 -2.8,1.1 -1.7,0.6 -2.8,0.4 -4.4,1.2 -1.8,0.9 -2.4,1.9 -3.8,3.3 -0.8,0.8 -1.1,1.5 -2,2.2 -0.9,0.6 -1.6,0.5 -2.5,1 -2,1 -2.8,2.1 -4.6,3.4 -1.7,1.2 -2.7,1.8 -4.4,3.1 -0.8,0.6 -1.2,0.9 -1.9,1.5 -0.6,0.4 -1.5,1 -1.5,1 v -1.4 c 0,0 0.1,-1.6 0.6,-2.4 0.5,-0.8 1.5,-0.7 1.9,-1.6 0.3,-0.6 0.1,-1 0.2,-1.6 0.4,-1.4 1.3,-1.8 1.9,-3.1 0.5,-1 0.3,-1.9 1,-2.7 0.9,-0.9 1.9,-0.7 3.1,-1.2 0.6,-0.3 1,-0.4 1.5,-0.8 0.8,-0.6 0.6,-1.6 1.5,-2 0.9,-0.5 2.2,0.8 2.7,-0.1 0.2,-0.3 0.1,-0.6 0.2,-1 0.6,-2.4 1.5,-3.7 3.3,-5.3 1,-0.9 1.8,-1 2.8,-1.8 0.8,-0.6 1.1,-1.1 1.8,-1.8 0.5,-0.5 0.6,-0.9 1.1,-1.2 0.8,-0.4 1.4,0 2.3,-0.1 0.8,-0.1 1.3,0.1 1.9,-0.2 0.6,-0.3 0.8,-0.7 1.2,-1.2 0.5,-0.6 0.6,-1.1 1,-1.7 0.4,-0.6 0.6,-1.1 1.2,-1.6 1.6,-1.1 3,0.9 5,0.9 1.7,0 2.8,0.3 4.3,-0.6 0.5,-0.3 1,-0.5 1.2,-1 0.7,-1.4 -2.1,-1.2 -3.4,-1.9 -1.1,-0.6 -1.6,-1.1 -2.7,-1.6 -2.4,-0.9 -4,0 -6.6,-0.3 -2.8,-0.4 -4.4,-0.7 -7.1,-1.5 -2.6,-0.7 -4,-1.3 -6.6,-2.2 -2.4,-0.8 -4,-0.9 -6.2,-2.3 -1.7,-1 -2.9,-1.5 -3.8,-3.2 -0.7,-1.2 -0.8,-2 -1,-3.3 -0.4,-2.2 0.3,-3.5 0.3,-5.7 0.1,-2 -0.2,-3.1 0.1,-5.1 0.1,-1.1 -0.6,-2.6 0.5,-2.8 z"
   id="path16" /><path
   class="st10"
   d="m 103.6,52.9 c 0.4,1.2 0.3,2.2 1.1,3.2 1.1,1.3 3.4,1.4 4.1,1.8 0.2,0.1 0,0.4 0,0.7 0.1,1.1 0.9,1.5 1.8,2 1,0.6 1.8,0.5 2.9,0.5 1,0 2,-0.5 2.5,-0.5 0.7,0 -0.6,0.9 -0.7,1.6 -0.1,0.8 0,1.4 0.5,2 0.3,0.5 0.7,0.6 1.1,0.9 m 8,5.7 c -3.4,0.2 -7,-1.1 -9.1,9.1 -0.4,1.9 -3.3,2.4 -3.6,4.8 -0.4,2.9 1.6,5.7 3.6,6.6 m 2.9,-21.9 c -0.8,0 -1.3,-0.4 -2,0 -1,0.5 -0.2,2 -1.1,2.7 -1.3,1.1 -2.8,-1 -4.3,-0.2 -1.1,0.6 -1.6,1.3 -2,2.5 -0.7,1.6 0.2,3.6 0.2,4.5 0,1.2 -2.8,2.4 -3.4,4.5 -0.6,2.2 -1.2,4.6 0.7,5.9 0.9,0.6 1.8,0.1 2.7,0.7 1,0.6 0.9,1.8 2,2.3 1.1,0.4 3,-0.5 2.9,-0.2 -0.1,0.3 -1.5,1.3 -1.8,2.5 -0.4,1.5 0.7,3 0.7,3.8 0,0.2 -1.4,-0.4 -2.3,-0.5 -2.5,0 -5.3,0.7 -5.7,3.2 -0.4,3 5.4,4.1 7,3.2 1.3,-0.7 2.2,1.9 3.8,1.7 1.1,-0.2 1.7,-0.6 2.5,-1.5 0.9,-1 0.6,-3.2 1.4,-3.2 0.2,0 -0.8,3.7 0.5,5.4 1,1.4 2.1,2.3 3.8,2.3 2,0 2.5,-1.9 4.1,-3.2 m 3.2,-27.3 c 0.4,-2.2 -0.6,-4 0.9,-5.7 1,-1.1 2,-1.8 3.4,-1.6 1.1,0.2 1.2,1.6 2.3,1.6 1.7,0 1.1,-2.5 2.3,-3.6 1,-0.9 1.9,-2.7 2.9,-1.8 0.5,0.4 0.2,1 0.7,1.4 1.1,0.8 1,-2.5 2.3,-2.5 0.7,0 1,0.4 1.6,0.7 m -24.1,-2.6 c 0.6,-0.9 0.7,-1.7 1.6,-2.3 0.8,-0.5 1.6,-0.8 2.5,-0.5 1.2,0.5 0.1,2.8 1.4,2.9 1,0.1 1.1,-1.2 2,-1.6 1.1,-0.4 1.9,-0.7 2.9,-0.2 1.6,0.8 0.6,2.8 0.9,4.5 m 17.7,-0.9 c 2.2,-0.3 3.9,-2.1 5.7,-0.7 1.8,1.5 1.1,4.5 0,6.1 M 155.4,64 c 1.8,-0.4 3.2,0.1 4.5,-1.1 1.1,-1.1 1.7,-2.2 1.4,-3.6 -0.5,-1.8 -2.5,-1.5 -4.1,-2.5 m 0.7,-1.4 c 2.6,-0.9 5.1,-0.1 6.8,-2.3 0.8,-1.1 0.3,-2.4 1.4,-3.2 1.4,-1.1 2.8,1 4.5,0.5 2,-0.6 2.3,-2.4 3.8,-3.8 1,-1 1.7,-1.5 2.7,-2.5"
   id="path17" /><path
   class="st13"
   d="m 116.5,107.2 v 13.4 m 4.5,-11.3 v 8.8 m 4.5,-7.9 v 11.5 m 3,-14.2 v 7.7 m 3.6,-8 v 9.7 m 3.8,-12.4 v 8.6 m 4.3,-8.6 v 8.8 m 10.2,-19.9 v 12 m 4.8,-14.9 v 20.2"
   id="path18" /><path
   class="st14"
   d="m 109.9,145.7 c 3.3,-1.8 5.4,-2.1 9.1,-2.9 3.7,-0.8 5.9,-0.9 9.7,-1.1 4.8,-0.4 7.6,-0.4 12.5,-0.2 3,0.1 6.1,0 7.7,0.5 1.1,0.3 1.3,1.9 0.7,2.7 -2.3,2.9 -6.4,1.3 -9.7,3.6 -0.9,0.6 -2,0.7 -2.3,1.8 -0.4,1.5 2.7,1.2 2.7,2.9 0,2.7 -5.4,2.5 -9.1,3.2 -4,0.8 -6.4,1 -10.4,0.2 -2.6,-0.5 -3.8,-1.8 -6.4,-2.2 -2.5,-0.4 -4,0.7 -6.5,0.1 -2,-0.5 -4.4,-0.2 -4.8,-2.3 -0.3,-1.7 1.4,-2.4 2.7,-3.6 1.4,-1.3 2.4,-1.8 4.1,-2.7 z"
   id="path19" /><switch
   id="switch19"><text
     transform="translate(0.02148056,154.27)"
     class="st15 st16 st17"
     id="trsvg9-ko"
     systemLanguage="ko"><tspan
       id="trsvg1-ko">적도</tspan></text><text
     transform="translate(0.02148056,154.27)"
     class="st15 st16 st17"
     id="trsvg9"><tspan
       id="trsvg1">Equator</tspan></text></switch><switch
   id="switch20"><text
     transform="translate(243.9434,280.1978)"
     id="trsvg10-ko"
     systemLanguage="ko"><tspan
       x="0"
       y="0"
       class="st15 st16 st18"
       id="trsvg2-ko">80</tspan><tspan
       x="13.3"
       y="0"
       class="st15 st16 st19"
       id="trsvg3-ko">° W</tspan></text><text
     transform="translate(243.9434,280.1978)"
     id="trsvg10"><tspan
       x="0"
       y="0"
       class="st15 st16 st18"
       id="trsvg2">80</tspan><tspan
       x="13.3"
       y="0"
       class="st15 st16 st19"
       id="trsvg3">° W</tspan></text></switch><polygon
   class="st12"
   points="96.9,147.9 105.9,148 102.3,152.7 91.2,152.9 87.8,155.9 84,149.5 99.4,145.4 "
   id="polygon20" /><path
   class="st7"
   d="m 46.5,165.7 78.7,-48.6 m 0.6,0.1 139.9,0.5 m -147.4,67 v 6.6"
   id="path20" /><switch
   id="switch21"
   transform="translate(-32.47961,-3.3325387)"><text
     transform="translate(145,20)"
     class="st15 st16 st20"
     id="trsvg11-ko"
     systemLanguage="ko"><tspan
       id="trsvg4-ko">정상 상태</tspan></text><text
     transform="translate(145,20)"
     class="st15 st16 st20"
     id="trsvg11"><tspan
       id="trsvg4">Average (neutral) Conditions</tspan></text></switch><line
   class="st7"
   x1="323.60001"
   y1="118"
   x2="367"
   y2="118"
   id="line21" /><polygon
   class="st21"
   points="131,38 134.6,33.3 138.1,38.1 135.8,38.1 135.8,46.6 133.6,46.6 133.6,38 "
   id="polygon21" /><line
   class="st22"
   x1="134.8"
   y1="112.2"
   x2="134.8"
   y2="133.5"
   id="line22" /><path
   class="st8"
   d="m 74.9,149.4 c 0,-1 0.8,-1.4 1.4,-2.2 0.5,-0.7 0.6,-1.2 1.4,-1.6 0.3,-0.1 0.5,-0.2 0.8,-0.2 0.5,0 0.7,0.1 1.1,0.3 0.7,0.3 2,1.7 1.5,1.1 0,0 -0.1,-0.1 -0.1,-0.1 -0.2,-0.3 0.5,0 0.8,0 0.6,-0.1 0.8,-0.4 1.4,-0.5 0.6,-0.1 1.1,-0.3 1.5,0.1 0.2,0.2 0.2,0.5 0.3,0.8 0.2,0.6 0.4,0.9 0.6,1.5 0.2,0.9 0.2,1.4 0.1,2.3 -0.1,1.3 -0.2,2.9 -0.7,3.4 -0.8,0.8 -1,-1 -1.7,-1.6 -0.7,-0.6 -1.1,-1 -2,-1.4 -0.8,-0.3 -1.4,-0.2 -2.3,-0.2 -1.2,-0.1 -2.6,0.1 -3.2,0 -0.8,-0.1 -0.9,-1 -0.9,-1.7 z"
   id="path22" /><path
   class="st10"
   d="m 103.3,52 h 11.8 m 10.4,-3.4 h 10 m -6.6,6.8 h 11.8 m 1.1,-1.1 h 8.8 m -1.5,-3.9 h 7.2 m -14.9,-7.9 h 6.6 m 17.4,2.9 h 7.7 m -6.4,-4 h 7.5"
   id="path23" /><path
   class="st23"
   d="m 251.9,156.8 c -2.1,-0.7 -2.3,0.9 -3.1,1.8"
   id="path24" /><polygon
   class="st9"
   points="246.8,160.9 248.4,156.8 248.8,158.6 250.7,158.8 "
   id="polygon24" /><line
   class="st24"
   x1="265.5"
   y1="133.5"
   x2="133.89999"
   y2="133.5"
   id="line24" /><polyline
   class="st22"
   points="135.5,29.2 315.9,29.9 315.9,113.2  "
   id="polyline24" /><path
   class="st24"
   d="m 315.9,117 v 15.4 m -49.3,1.1 h 15.2"
   id="path25" /><path
   class="st22"
   d="m 315.3,133.5 h -32.6 m 33.2,-5.2 v 5.7"
   id="path26" /><path
   class="st11"
   d="m 55,180.5 c 0.7,-1.3 1.1,0.2 1.7,-3.4 m -11.5,4.8 c 1.2,-1.4 1.8,-0.8 3.2,-3.6"
   id="path27" /><path
   class="st25"
   d="m 63.4,183.1 c -0.7,-1.1 -1.1,-0.3 -1.9,-2.8"
   id="path28" /><path
   class="st11"
   d="m 71.4,181.3 c -0.9,-1 -1,0 -2.3,-2.5 m -19,4.5 c 0.1,-1.3 0,-0.2 0.3,-3.4"
   id="path29" /><path
   class="st25"
   d="m 273.6,170.6 c 1,-1.4 0.5,-1.9 2.6,-3.5 m 2.7,-5.1 c 1,-1.4 0.5,-1.9 2.6,-3.5 m 1.3,6.9 c 0.6,-1.4 0.4,-2 1.6,-3.7 m -4.5,-42.3 c 1,-1.6 0.8,-0.3 2.9,-1.9 m 2.8,0.6 c 1.8,-0.5 0.8,0.3 3.5,0.5"
   id="path30" /><path
   class="st23"
   d="m 240.2,156.3 c -2,-0.9 -2.4,0.7 -3.3,1.5"
   id="path31" /><polygon
   class="st9"
   points="234.7,159.9 236.7,156 237,157.8 238.8,158.2 "
   id="polygon31" /><path
   class="st23"
   d="m 245.2,149.2 c -0.1,-2.2 1.5,-2 2.6,-2.5"
   id="path32" /><polygon
   class="st9"
   points="250.6,145.4 247.6,148.6 247.8,146.7 246.2,145.8 "
   id="polygon32" /><path
   class="st23"
   d="m 258.8,150.4 c -0.1,-2.2 1.5,-2 2.6,-2.5"
   id="path33" /><polygon
   class="st9"
   points="264.2,146.5 261.1,149.7 261.4,147.9 259.8,146.9 "
   id="polygon33" /><path
   class="st23"
   d="m 190.3,151.7 c -2,-0.9 -2.4,0.7 -3.3,1.5"
   id="path34" /><polygon
   class="st9"
   points="184.8,155.3 186.8,151.4 187.1,153.2 188.9,153.6 "
   id="polygon34" /><path
   class="st23"
   d="m 198.5,147.9 c -0.1,-2.2 1.5,-2 2.6,-2.5"
   id="path35" /><polygon
   class="st9"
   points="203.9,144 200.8,147.2 201.1,145.4 199.5,144.5 "
   id="polygon35" /><path
   class="st23"
   d="m 206.5,151.8 c -2,-0.9 -2.4,0.7 -3.3,1.5"
   id="path36" /><polygon
   class="st9"
   points="201,155.4 202.9,151.5 203.2,153.3 205.1,153.7 "
   id="polygon36" /><polygon
   class="st21"
   points="221.6,26 226.2,29.6 221.5,33.1 221.5,30.8 212.9,30.8 212.9,28.6 221.6,28.6 "
   id="polygon37" /><polygon
   class="st21"
   points="319.6,80.7 315.9,85.4 312.4,80.6 314.7,80.6 314.7,72.1 317,72.1 317,80.7 "
   id="polygon38" /><polygon
   class="st21"
   points="131.2,113.8 134.9,109.2 138.3,113.9 136,113.9 136,122.5 133.8,122.5 133.8,113.8 "
   id="polygon39" /><polygon
   class="st21"
   points="214,136.6 209.3,132.9 214,129.5 214,131.8 222.6,131.8 222.6,134 214,134 "
   id="polygon40" /><switch
   id="switch40"><text
     transform="translate(142.9824,247.4731)"
     class="st15 st16 st26"
     id="trsvg12-ko"
     systemLanguage="ko"><tspan
       id="trsvg5-ko">수온약층</tspan></text><text
     transform="translate(142.9824,247.4731)"
     class="st15 st16 st26"
     id="trsvg12"><tspan
       id="trsvg5">Thermocline</tspan></text></switch><line
   class="st0"
   x1="142.3"
   y1="242.7"
   x2="128.10001"
   y2="233"
   id="line40" /><path
   class="st23"
   d="m 214,148 c -0.1,-2.2 1.5,-2 2.6,-2.5"
   id="path40" /><polygon
   class="st9"
   points="219.3,144.2 216.3,147.4 216.6,145.5 214.9,144.6 "
   id="polygon41" /><switch
   id="switch41"><text
     transform="translate(0,277.4653)"
     class="st15 st16 st19"
     id="trsvg13-ko"
     systemLanguage="ko"><tspan
       id="trsvg6-ko">120° E</tspan></text><text
     transform="translate(0,277.4653)"
     class="st15 st16 st19"
     id="trsvg13"><tspan
       id="trsvg6">120° E</tspan></text></switch><switch
   id="switch42"><text
     transform="translate(207.3344,60.0513)"
     id="trsvg14-ko"
     systemLanguage="ko"><tspan
       x="0"
       y="0"
       class="st15 st16 st27"
       id="trsvg7-ko">대류</tspan><tspan
       x="1.3"
       y="14.4"
       class="st15 st16 st27"
       id="trsvg8-ko">순환</tspan></text><text
     transform="translate(207.3344,60.0513)"
     id="trsvg14"><tspan
       x="0"
       y="0"
       class="st15 st16 st27"
       id="trsvg7">Convective</tspan><tspan
       x="1.3"
       y="14.4"
       class="st15 st16 st27"
       id="trsvg8">Circulation</tspan></text></switch>
</svg>
